%TF.GenerationSoftware,KiCad,Pcbnew,8.0.1*%
%TF.CreationDate,2024-04-08T22:08:02+02:00*%
%TF.ProjectId,ProbeBoardPublicV5,50726f62-6542-46f6-9172-645075626c69,5.1*%
%TF.SameCoordinates,Original*%
%TF.FileFunction,Copper,L2,Bot*%
%TF.FilePolarity,Positive*%
%FSLAX46Y46*%
G04 Gerber Fmt 4.6, Leading zero omitted, Abs format (unit mm)*
G04 Created by KiCad (PCBNEW 8.0.1) date 2024-04-08 22:08:02*
%MOMM*%
%LPD*%
G01*
G04 APERTURE LIST*
%TA.AperFunction,ComponentPad*%
%ADD10R,1.700000X1.700000*%
%TD*%
%TA.AperFunction,ComponentPad*%
%ADD11O,1.700000X1.700000*%
%TD*%
%TA.AperFunction,ComponentPad*%
%ADD12C,4.000000*%
%TD*%
%TA.AperFunction,ComponentPad*%
%ADD13R,1.600000X1.600000*%
%TD*%
%TA.AperFunction,ComponentPad*%
%ADD14C,1.600000*%
%TD*%
%TA.AperFunction,ComponentPad*%
%ADD15O,2.500000X1.600000*%
%TD*%
%TA.AperFunction,ComponentPad*%
%ADD16O,7.000000X3.500000*%
%TD*%
%TA.AperFunction,ViaPad*%
%ADD17C,1.000000*%
%TD*%
%TA.AperFunction,ViaPad*%
%ADD18C,0.800000*%
%TD*%
%TA.AperFunction,Conductor*%
%ADD19C,0.250000*%
%TD*%
G04 APERTURE END LIST*
D10*
%TO.P,J2,1,Pin_1*%
%TO.N,SPISCK_A*%
X126350000Y-77740000D03*
D11*
%TO.P,J2,2,Pin_2*%
%TO.N,SPICS_A*%
X126350000Y-75200000D03*
%TO.P,J2,3,Pin_3*%
%TO.N,MOSI_A*%
X128890000Y-77740000D03*
%TO.P,J2,4,Pin_4*%
%TO.N,MISO_A*%
X128890000Y-75200000D03*
%TO.P,J2,5,Pin_5*%
%TO.N,GPIO0_A*%
X131430000Y-77740000D03*
%TO.P,J2,6,Pin_6*%
%TO.N,GPIO1_A*%
X131430000Y-75200000D03*
%TO.P,J2,7,Pin_7*%
%TO.N,~{SYNC_A}*%
X133970000Y-77740000D03*
%TO.P,J2,8,Pin_8*%
%TO.N,GND*%
X133970000Y-75200000D03*
%TO.P,J2,9,Pin_9*%
X136510000Y-77740000D03*
%TO.P,J2,10,Pin_10*%
%TO.N,TX_A*%
X136510000Y-75200000D03*
%TO.P,J2,11,Pin_11*%
%TO.N,RX_A*%
X139050000Y-77740000D03*
%TO.P,J2,12,Pin_12*%
%TO.N,GND*%
X139050000Y-75200000D03*
%TO.P,J2,13,Pin_13*%
%TO.N,GPIO0_B*%
X141590000Y-77740000D03*
%TO.P,J2,14,Pin_14*%
%TO.N,GPIO1_B*%
X141590000Y-75200000D03*
%TO.P,J2,15,Pin_15*%
%TO.N,-5V*%
X144130000Y-77740000D03*
%TO.P,J2,16,Pin_16*%
%TO.N,5VProbe*%
X144130000Y-75200000D03*
%TD*%
D10*
%TO.P,J7,1,Pin_1*%
%TO.N,Net-(CR3-K)*%
X132800000Y-106425000D03*
D11*
%TO.P,J7,2,Pin_2*%
%TO.N,GND*%
X132800000Y-108965000D03*
%TD*%
%TO.P,U5,1,GPIO0*%
%TO.N,unconnected-(U5-GPIO0-Pad1)_0*%
X210130000Y-83110000D03*
%TO.P,U5,2,GPIO1*%
%TO.N,unconnected-(U5-GPIO1-Pad2)_0*%
X207590000Y-83110000D03*
D10*
%TO.P,U5,3,GND*%
%TO.N,GND*%
X205050000Y-83110000D03*
D11*
%TO.P,U5,4,GPIO2*%
%TO.N,SPISCK_A*%
X202510000Y-83110000D03*
%TO.P,U5,5,GPIO3*%
%TO.N,MISO_A*%
X199970000Y-83110000D03*
%TO.P,U5,6,GPIO4*%
%TO.N,MOSI_A*%
X197430000Y-83110000D03*
%TO.P,U5,7,GPIO5*%
%TO.N,SPICS_A*%
X194890000Y-83110000D03*
D10*
%TO.P,U5,8,GND*%
%TO.N,GND*%
X192350000Y-83110000D03*
D11*
%TO.P,U5,9,GPIO6*%
%TO.N,~{HIGH_A}*%
X189810000Y-83110000D03*
%TO.P,U5,10,GPIO7*%
%TO.N,~{LOW_A}*%
X187270000Y-83110000D03*
%TO.P,U5,11,GPIO8*%
%TO.N,~{SYNC_A}*%
X184730000Y-83110000D03*
%TO.P,U5,12,GPIO9*%
%TO.N,SYNC OUT_A*%
X182190000Y-83110000D03*
D10*
%TO.P,U5,13,GND*%
%TO.N,GND*%
X179650000Y-83110000D03*
D11*
%TO.P,U5,14,GPIO10*%
%TO.N,LEDHI_A*%
X177110000Y-83110000D03*
%TO.P,U5,15,GPIO11*%
%TO.N,LEDLO_A*%
X174570000Y-83110000D03*
%TO.P,U5,16,GPIO12*%
%TO.N,PULSEHI_A*%
X172030000Y-83110000D03*
%TO.P,U5,17,GPIO13*%
%TO.N,~{PULSELO_A}*%
X169490000Y-83110000D03*
D10*
%TO.P,U5,18,GND*%
%TO.N,GND*%
X166950000Y-83110000D03*
D11*
%TO.P,U5,19,GPIO14*%
%TO.N,DA7*%
X164410000Y-83110000D03*
%TO.P,U5,20,GPIO15*%
%TO.N,DA6*%
X161870000Y-83110000D03*
%TO.P,U5,21,GPIO16*%
%TO.N,DA5*%
X161870000Y-100890000D03*
%TO.P,U5,22,GPIO17*%
%TO.N,DA4*%
X164410000Y-100890000D03*
D10*
%TO.P,U5,23,GND*%
%TO.N,GND*%
X166950000Y-100890000D03*
D11*
%TO.P,U5,24,GPIO18*%
%TO.N,DA3*%
X169490000Y-100890000D03*
%TO.P,U5,25,GPIO19*%
%TO.N,DA2*%
X172030000Y-100890000D03*
%TO.P,U5,26,GPIO20*%
%TO.N,DA1*%
X174570000Y-100890000D03*
%TO.P,U5,27,GPIO21*%
%TO.N,DA0*%
X177110000Y-100890000D03*
D10*
%TO.P,U5,28,GND*%
%TO.N,GND*%
X179650000Y-100890000D03*
D11*
%TO.P,U5,29,GPIO22*%
%TO.N,PWRFAIL_A*%
X182190000Y-100890000D03*
%TO.P,U5,30,RUN*%
%TO.N,unconnected-(U5-RUN-Pad30)_0*%
X184730000Y-100890000D03*
%TO.P,U5,31,GPIO26_ADC0*%
%TO.N,~{PODSTAT_A}*%
X187270000Y-100890000D03*
%TO.P,U5,32,GPIO27_ADC1*%
%TO.N,~{MAINSTAT_A}*%
X189810000Y-100890000D03*
D10*
%TO.P,U5,33,AGND*%
%TO.N,GND*%
X192350000Y-100890000D03*
D11*
%TO.P,U5,34,GPIO28_ADC2*%
%TO.N,~{RESET_A}*%
X194890000Y-100890000D03*
%TO.P,U5,35,ADC_VREF*%
%TO.N,unconnected-(U5-ADC_VREF-Pad35)_0*%
X197430000Y-100890000D03*
%TO.P,U5,36,3V3*%
%TO.N,+3V3*%
X199970000Y-100890000D03*
%TO.P,U5,37,3V3_EN*%
%TO.N,unconnected-(U5-3V3_EN-Pad37)*%
X202510000Y-100890000D03*
D10*
%TO.P,U5,38,GND*%
%TO.N,GND*%
X205050000Y-100890000D03*
D11*
%TO.P,U5,39,VSYS*%
%TO.N,Net-(D1-K)*%
X207590000Y-100890000D03*
%TO.P,U5,40,VBUS*%
%TO.N,unconnected-(U5-VBUS-Pad40)*%
X210130000Y-100890000D03*
%TO.P,U5,41,SWCLK*%
%TO.N,unconnected-(U5-SWCLK-Pad41)_0*%
X162100000Y-89460000D03*
D10*
%TO.P,U5,42,GND*%
%TO.N,GND*%
X162100000Y-92000000D03*
D11*
%TO.P,U5,43,SWDIO*%
%TO.N,unconnected-(U5-SWDIO-Pad43)_0*%
X162100000Y-94540000D03*
%TD*%
D10*
%TO.P,J4,1,Pin_1*%
%TO.N,Net-(J4-Pin_1)*%
X121000000Y-106425000D03*
D11*
%TO.P,J4,2,Pin_2*%
%TO.N,GND*%
X121000000Y-108965000D03*
%TD*%
D10*
%TO.P,J9,1,Pin_1*%
%TO.N,Net-(D3-K)*%
X111275000Y-124500000D03*
D11*
%TO.P,J9,2,Pin_2*%
%TO.N,5VProbe*%
X113815000Y-124500000D03*
%TO.P,J9,3,Pin_3*%
%TO.N,Net-(D2-K)*%
X116355000Y-124500000D03*
%TD*%
D10*
%TO.P,TP2,1,1*%
%TO.N,GND*%
X205100000Y-75300000D03*
%TD*%
%TO.P,TP8,1,1*%
%TO.N,GND*%
X178200000Y-109200000D03*
%TD*%
D12*
%TO.P,J1,0,PAD*%
%TO.N,unconnected-(J1-PAD-Pad0)*%
X105500000Y-100360000D03*
%TO.N,unconnected-(J1-PAD-Pad0)_0*%
X105500000Y-125360000D03*
D13*
%TO.P,J1,1,1*%
%TO.N,FUSE_GND*%
X105800000Y-118400000D03*
D14*
%TO.P,J1,2,2*%
%TO.N,DB9_Probe*%
X105800000Y-115630000D03*
%TO.P,J1,3,3*%
%TO.N,~{PULSEHI}*%
X105800000Y-112860000D03*
%TO.P,J1,4,4*%
%TO.N,5VProbe*%
X105800000Y-110090000D03*
%TO.P,J1,5,5*%
%TO.N,SHIELD*%
X105800000Y-107320000D03*
%TO.P,J1,6,6*%
%TO.N,~{GRN}*%
X102960000Y-117015000D03*
%TO.P,J1,7,7*%
%TO.N,PULSELO*%
X102960000Y-114245000D03*
%TO.P,J1,8,8*%
%TO.N,-.7V*%
X102960000Y-111475000D03*
%TO.P,J1,9,9*%
%TO.N,~{RED}*%
X102960000Y-108705000D03*
%TD*%
D10*
%TO.P,TP1,1,1*%
%TO.N,Net-(U1-D2)*%
X128700000Y-82700000D03*
%TD*%
%TO.P,J8,1,Pin_1*%
%TO.N,unconnected-(J8-Pin_1-Pad1)*%
X174525000Y-123575000D03*
D11*
%TO.P,J8,2,Pin_2*%
%TO.N,unconnected-(J8-Pin_2-Pad2)*%
X174525000Y-126115000D03*
%TO.P,J8,3,Pin_3*%
%TO.N,unconnected-(J8-Pin_3-Pad3)*%
X171985000Y-123575000D03*
%TO.P,J8,4,Pin_4*%
%TO.N,unconnected-(J8-Pin_4-Pad4)*%
X171985000Y-126115000D03*
%TO.P,J8,5,Pin_5*%
%TO.N,unconnected-(J8-Pin_5-Pad5)*%
X169445000Y-123575000D03*
%TO.P,J8,6,Pin_6*%
%TO.N,unconnected-(J8-Pin_6-Pad6)*%
X169445000Y-126115000D03*
%TO.P,J8,7,Pin_7*%
%TO.N,unconnected-(J8-Pin_7-Pad7)*%
X166905000Y-123575000D03*
%TO.P,J8,8,Pin_8*%
%TO.N,unconnected-(J8-Pin_8-Pad8)*%
X166905000Y-126115000D03*
%TO.P,J8,9,Pin_9*%
%TO.N,unconnected-(J8-Pin_9-Pad9)*%
X164365000Y-123575000D03*
%TO.P,J8,10,Pin_10*%
%TO.N,unconnected-(J8-Pin_10-Pad10)*%
X164365000Y-126115000D03*
%TO.P,J8,11,Pin_11*%
%TO.N,unconnected-(J8-Pin_11-Pad11)*%
X161825000Y-123575000D03*
%TO.P,J8,12,Pin_12*%
%TO.N,unconnected-(J8-Pin_12-Pad12)*%
X161825000Y-126115000D03*
%TO.P,J8,13,Pin_13*%
%TO.N,unconnected-(J8-Pin_13-Pad13)*%
X159285000Y-123575000D03*
%TO.P,J8,14,Pin_14*%
%TO.N,unconnected-(J8-Pin_14-Pad14)*%
X159285000Y-126115000D03*
%TO.P,J8,15,Pin_15*%
%TO.N,unconnected-(J8-Pin_15-Pad15)*%
X156745000Y-123575000D03*
%TO.P,J8,16,Pin_16*%
%TO.N,~{PODprsnt_A}*%
X156745000Y-126115000D03*
%TO.P,J8,17,Pin_17*%
%TO.N,unconnected-(J8-Pin_17-Pad17)*%
X154205000Y-123575000D03*
%TO.P,J8,18,Pin_18*%
%TO.N,unconnected-(J8-Pin_18-Pad18)*%
X154205000Y-126115000D03*
%TO.P,J8,19,Pin_19*%
%TO.N,unconnected-(J8-Pin_19-Pad19)*%
X151665000Y-123575000D03*
%TO.P,J8,20,Pin_20*%
%TO.N,unconnected-(J8-Pin_20-Pad20)*%
X151665000Y-126115000D03*
%TO.P,J8,21,Pin_21*%
%TO.N,unconnected-(J8-Pin_21-Pad21)*%
X149125000Y-123575000D03*
%TO.P,J8,22,Pin_22*%
%TO.N,PWRFAIL_A*%
X149125000Y-126115000D03*
%TO.P,J8,23,Pin_23*%
%TO.N,unconnected-(J8-Pin_23-Pad23)*%
X146585000Y-123575000D03*
%TO.P,J8,24,Pin_24*%
%TO.N,~{RESET_A}*%
X146585000Y-126115000D03*
%TO.P,J8,25,Pin_25*%
%TO.N,unconnected-(J8-Pin_25-Pad25)*%
X144045000Y-123575000D03*
%TO.P,J8,26,Pin_26*%
%TO.N,~{PODSTAT_A}*%
X144045000Y-126115000D03*
%TO.P,J8,27,Pin_27*%
%TO.N,unconnected-(J8-Pin_27-Pad27)*%
X141505000Y-123575000D03*
%TO.P,J8,28,Pin_28*%
%TO.N,unconnected-(J8-Pin_28-Pad28)*%
X141505000Y-126115000D03*
%TO.P,J8,29,Pin_29*%
%TO.N,DA7*%
X138965000Y-123575000D03*
%TO.P,J8,30,Pin_30*%
%TO.N,unconnected-(J8-Pin_30-Pad30)*%
X138965000Y-126115000D03*
%TO.P,J8,31,Pin_31*%
%TO.N,DA6*%
X136425000Y-123575000D03*
%TO.P,J8,32,Pin_32*%
%TO.N,~{MAINSTAT_A}*%
X136425000Y-126115000D03*
%TO.P,J8,33,Pin_33*%
%TO.N,DA5*%
X133885000Y-123575000D03*
%TO.P,J8,34,Pin_34*%
%TO.N,unconnected-(J8-Pin_34-Pad34)*%
X133885000Y-126115000D03*
%TO.P,J8,35,Pin_35*%
%TO.N,DA4*%
X131345000Y-123575000D03*
%TO.P,J8,36,Pin_36*%
%TO.N,DA0*%
X131345000Y-126115000D03*
%TO.P,J8,37,Pin_37*%
%TO.N,DA3*%
X128805000Y-123575000D03*
%TO.P,J8,38,Pin_38*%
%TO.N,DA1*%
X128805000Y-126115000D03*
%TO.P,J8,39,Pin_39*%
%TO.N,unconnected-(J8-Pin_39-Pad39)*%
X126265000Y-123575000D03*
%TO.P,J8,40,Pin_40*%
%TO.N,DA2*%
X126265000Y-126115000D03*
%TD*%
D15*
%TO.P,J10,1,In*%
%TO.N,Net-(J10-In)*%
X199525000Y-115025000D03*
D16*
%TO.P,J10,2,Ext*%
%TO.N,Net-(J10-Ext)*%
X204605000Y-109945000D03*
D15*
X199525000Y-112485000D03*
D16*
X204605000Y-120105000D03*
%TD*%
D10*
%TO.P,TP4,1,1*%
%TO.N,Net-(CR3-K)*%
X134000000Y-82700000D03*
%TD*%
D13*
%TO.P,C3,1*%
%TO.N,GND*%
X150605112Y-75200000D03*
D14*
%TO.P,C3,2*%
%TO.N,5VProbe*%
X148105112Y-75200000D03*
%TD*%
D17*
%TO.N,GND*%
X151550000Y-85075000D03*
X146050000Y-97425000D03*
X153800000Y-97250000D03*
X142925000Y-83525000D03*
X147225000Y-84875000D03*
X182225000Y-74450000D03*
X123239016Y-113595000D03*
X129700000Y-99900000D03*
X125125000Y-81525000D03*
X141100000Y-115250000D03*
X136700000Y-108850000D03*
X152650000Y-103800000D03*
X111275000Y-113500000D03*
X195500000Y-73325000D03*
X120525000Y-115575000D03*
X113575000Y-95700000D03*
X115650000Y-115425000D03*
D18*
%TO.N,5VProbe*%
X141850000Y-101400000D03*
X135460833Y-101425000D03*
X191600000Y-122300000D03*
X132075000Y-101450000D03*
X106875000Y-121950000D03*
X147960000Y-102400000D03*
%TO.N,~{PULSEHI}*%
X107350000Y-106740000D03*
%TO.N,PULSELO*%
X141120000Y-112680000D03*
%TO.N,-.7V*%
X128200000Y-115100000D03*
%TO.N,-5V*%
X134600002Y-85149999D03*
X144350000Y-89975000D03*
X144875000Y-107875000D03*
D17*
%TO.N,FUSE_GND*%
X107800000Y-113510000D03*
X100775000Y-124775000D03*
X101275000Y-84050000D03*
X100825000Y-118500000D03*
D18*
%TO.N,DA4*%
X160900000Y-109499998D03*
%TO.N,LEDHI_A*%
X121897221Y-120616667D03*
%TO.N,LEDLO_A*%
X119600000Y-120699990D03*
%TO.N,0.339V*%
X141575000Y-94200000D03*
X136550000Y-94075000D03*
%TO.N,~{HIGH_B}*%
X182150000Y-77000000D03*
X149275000Y-93800000D03*
%TO.N,~{LOW_B}*%
X136475000Y-88750000D03*
X141400000Y-83775000D03*
%TO.N,Net-(U1-D2)*%
X132025000Y-88475000D03*
X140724998Y-107475000D03*
X142350000Y-90000000D03*
%TO.N,DB9_Probe*%
X136463866Y-97411585D03*
%TD*%
D19*
%TO.N,5VProbe*%
X113815000Y-126915000D02*
X115100000Y-128200000D01*
X135410833Y-101475000D02*
X135460833Y-101425000D01*
X115100000Y-128200000D02*
X189025000Y-128200000D01*
X191675000Y-125550000D02*
X191675000Y-122375000D01*
X111265000Y-121950000D02*
X113815000Y-124500000D01*
X113815000Y-124500000D02*
X113815000Y-126915000D01*
X189025000Y-128200000D02*
X191675000Y-125550000D01*
X132100000Y-101475000D02*
X135410833Y-101475000D01*
X147960000Y-102400000D02*
X142850000Y-102400000D01*
X106875000Y-121950000D02*
X111265000Y-121950000D01*
X141775000Y-101475000D02*
X141850000Y-101400000D01*
X132075000Y-101450000D02*
X132100000Y-101475000D01*
X135510833Y-101475000D02*
X141775000Y-101475000D01*
X135460833Y-101425000D02*
X135510833Y-101475000D01*
X191675000Y-122375000D02*
X191600000Y-122300000D01*
X142850000Y-102400000D02*
X141850000Y-101400000D01*
%TO.N,~{PULSEHI}*%
X107350000Y-111310000D02*
X107350000Y-106740000D01*
X105800000Y-112860000D02*
X107350000Y-111310000D01*
%TO.N,PULSELO*%
X115840000Y-112720000D02*
X141080000Y-112720000D01*
X105020000Y-116900000D02*
X111660000Y-116900000D01*
X102960000Y-114245000D02*
X102960000Y-114840000D01*
X102960000Y-114840000D02*
X105020000Y-116900000D01*
X111660000Y-116900000D02*
X115840000Y-112720000D01*
X141080000Y-112720000D02*
X141120000Y-112680000D01*
%TO.N,-.7V*%
X125263602Y-115100000D02*
X128200000Y-115100000D01*
X101600000Y-117970000D02*
X104679738Y-121049738D01*
X120220000Y-117025000D02*
X123338602Y-117025000D01*
X116195262Y-121049738D02*
X120220000Y-117025000D01*
X123338602Y-117025000D02*
X125263602Y-115100000D01*
X102960000Y-111475000D02*
X101600000Y-112835000D01*
X104679738Y-121049738D02*
X116195262Y-121049738D01*
X101600000Y-112835000D02*
X101600000Y-117970000D01*
%TO.N,-5V*%
X156600000Y-102225000D02*
X156600000Y-106975000D01*
X144325000Y-77935000D02*
X144130000Y-77740000D01*
X144350000Y-89975000D02*
X144350000Y-81750000D01*
X144275000Y-81675000D02*
X144300000Y-81700000D01*
X134600002Y-84274998D02*
X137200000Y-81675000D01*
X144300000Y-81700000D02*
X144325000Y-81675000D01*
X155700000Y-107875000D02*
X144875000Y-107875000D01*
X144350000Y-81750000D02*
X144300000Y-81700000D01*
X137200000Y-81675000D02*
X144275000Y-81675000D01*
X144325000Y-81675000D02*
X144325000Y-77935000D01*
X144350000Y-89975000D02*
X156600000Y-102225000D01*
X134600002Y-85149999D02*
X134600002Y-84274998D01*
X156600000Y-106975000D02*
X155700000Y-107875000D01*
%TO.N,FUSE_GND*%
X111300000Y-88665000D02*
X111310000Y-88675000D01*
%TO.N,SPISCK_A*%
X130168194Y-71970410D02*
X191370410Y-71970410D01*
X125825000Y-71975000D02*
X130163604Y-71975000D01*
X130163604Y-71975000D02*
X130168194Y-71970410D01*
X126350000Y-77740000D02*
X125250000Y-77740000D01*
X124500000Y-76990000D02*
X124500000Y-73300000D01*
X125250000Y-77740000D02*
X124500000Y-76990000D01*
X124500000Y-73300000D02*
X125825000Y-71975000D01*
X191370410Y-71970410D02*
X202510000Y-83110000D01*
%TO.N,MOSI_A*%
X131379590Y-72870410D02*
X187190410Y-72870410D01*
X130130000Y-74120000D02*
X131379590Y-72870410D01*
X130130000Y-76500000D02*
X130130000Y-74120000D01*
X187190410Y-72870410D02*
X197430000Y-83110000D01*
X128890000Y-77740000D02*
X130130000Y-76500000D01*
%TO.N,MISO_A*%
X128875000Y-73900000D02*
X130354590Y-72420410D01*
X128875000Y-75185000D02*
X128875000Y-73900000D01*
X130354590Y-72420410D02*
X189280410Y-72420410D01*
X128890000Y-75200000D02*
X128875000Y-75185000D01*
X189280410Y-72420410D02*
X199970000Y-83110000D01*
%TO.N,~{SYNC_A}*%
X135250000Y-76460000D02*
X135250000Y-74375000D01*
X135250000Y-74375000D02*
X136304590Y-73320410D01*
X183495410Y-73320410D02*
X184730000Y-74555000D01*
X184730000Y-74555000D02*
X184730000Y-83110000D01*
X136304590Y-73320410D02*
X183495410Y-73320410D01*
X133970000Y-77740000D02*
X135250000Y-76460000D01*
%TO.N,~{RESET_A}*%
X147800000Y-122800000D02*
X148800000Y-121800000D01*
X148800000Y-121800000D02*
X160750000Y-121800000D01*
X177350000Y-105200000D02*
X190580000Y-105200000D01*
X190580000Y-105200000D02*
X194890000Y-100890000D01*
X160750000Y-121800000D02*
X177350000Y-105200000D01*
X147800000Y-124900000D02*
X147800000Y-122800000D01*
X146585000Y-126115000D02*
X147800000Y-124900000D01*
%TO.N,~{MAINSTAT_A}*%
X137700000Y-122700000D02*
X139100000Y-121300000D01*
X139100000Y-121300000D02*
X160000000Y-121300000D01*
X160000000Y-121300000D02*
X177000000Y-104300000D01*
X136425000Y-126115000D02*
X137700000Y-124840000D01*
X137700000Y-124840000D02*
X137700000Y-122700000D01*
X177000000Y-104300000D02*
X186400000Y-104300000D01*
X186400000Y-104300000D02*
X189810000Y-100890000D01*
%TO.N,DA4*%
X164410000Y-105989998D02*
X160900000Y-109499998D01*
X164410000Y-100890000D02*
X164410000Y-105989998D01*
%TO.N,DA0*%
X159224511Y-120850489D02*
X177110000Y-102965000D01*
X177110000Y-102965000D02*
X177110000Y-100890000D01*
X134700000Y-124800000D02*
X135250489Y-124249511D01*
X131345000Y-126115000D02*
X132660000Y-124800000D01*
X135250489Y-124249511D02*
X135250489Y-122449511D01*
X135250489Y-122449511D02*
X136849511Y-120850489D01*
X136849511Y-120850489D02*
X159224511Y-120850489D01*
X132660000Y-124800000D02*
X134700000Y-124800000D01*
%TO.N,DA3*%
X128805000Y-123575000D02*
X128805000Y-122372919D01*
X128805000Y-122372919D02*
X131676941Y-119500978D01*
X157224022Y-119500978D02*
X169490000Y-107235000D01*
X169490000Y-107235000D02*
X169490000Y-100890000D01*
X131676941Y-119500978D02*
X157224022Y-119500978D01*
%TO.N,DA1*%
X131800000Y-124900000D02*
X132600000Y-124100000D01*
X134900000Y-120400000D02*
X158650000Y-120400000D01*
X132600000Y-122700000D02*
X134900000Y-120400000D01*
X174570000Y-104480000D02*
X174570000Y-100890000D01*
X132600000Y-124100000D02*
X132600000Y-122700000D01*
X129084495Y-126115000D02*
X130299495Y-124900000D01*
X130299495Y-124900000D02*
X131800000Y-124900000D01*
X158650000Y-120400000D02*
X174570000Y-104480000D01*
%TO.N,DA2*%
X172030000Y-105820000D02*
X172030000Y-100890000D01*
X130100000Y-121800000D02*
X131949512Y-119950488D01*
X157899512Y-119950488D02*
X172030000Y-105820000D01*
X127580000Y-124800000D02*
X129600000Y-124800000D01*
X130100000Y-124300000D02*
X130100000Y-121800000D01*
X131949512Y-119950488D02*
X157899512Y-119950488D01*
X129600000Y-124800000D02*
X130100000Y-124300000D01*
X126265000Y-126115000D02*
X127580000Y-124800000D01*
%TO.N,LEDHI_A*%
X121897221Y-120616667D02*
X126058333Y-120616667D01*
X158650000Y-115425000D02*
X158650000Y-81850000D01*
X175400000Y-79900000D02*
X177110000Y-81610000D01*
X156925000Y-117150000D02*
X158650000Y-115425000D01*
X126058333Y-120616667D02*
X129525000Y-117150000D01*
X177110000Y-81610000D02*
X177110000Y-83110000D01*
X158650000Y-81850000D02*
X160600000Y-79900000D01*
X160600000Y-79900000D02*
X175400000Y-79900000D01*
X129525000Y-117150000D02*
X156925000Y-117150000D01*
%TO.N,LEDLO_A*%
X125900000Y-121500000D02*
X129800000Y-117600000D01*
X129800000Y-117600000D02*
X157111396Y-117600000D01*
X159100000Y-115611396D02*
X159100000Y-115511396D01*
X159100000Y-115511396D02*
X159325000Y-115286396D01*
X157111396Y-117600000D02*
X159100000Y-115611396D01*
X120400010Y-121500000D02*
X125900000Y-121500000D01*
X119600000Y-120699990D02*
X120400010Y-121500000D01*
X171860000Y-80400000D02*
X174570000Y-83110000D01*
X160900000Y-80400000D02*
X171860000Y-80400000D01*
X159325000Y-81975000D02*
X160900000Y-80400000D01*
X159325000Y-115286396D02*
X159325000Y-81975000D01*
%TO.N,0.339V*%
X136675000Y-94200000D02*
X141575000Y-94200000D01*
X136550000Y-94075000D02*
X136675000Y-94200000D01*
%TO.N,~{HIGH_B}*%
X179900000Y-79250000D02*
X182150000Y-77000000D01*
X149275000Y-93800000D02*
X153200000Y-89875000D01*
X153200000Y-85200000D02*
X159150000Y-79250000D01*
X153200000Y-85225000D02*
X153200000Y-85200000D01*
X159150000Y-79250000D02*
X179900000Y-79250000D01*
X153200000Y-89875000D02*
X153200000Y-85225000D01*
%TO.N,~{LOW_B}*%
X141400000Y-83775000D02*
X137950000Y-83775000D01*
X137950000Y-83775000D02*
X136475000Y-85250000D01*
X136475000Y-85250000D02*
X136475000Y-88750000D01*
%TO.N,Net-(U1-D2)*%
X153900000Y-106600000D02*
X153900000Y-101550000D01*
X153900000Y-101550000D02*
X142350000Y-90000000D01*
X140724998Y-107475000D02*
X141099998Y-107100000D01*
X128700000Y-85150000D02*
X132025000Y-88475000D01*
X133550000Y-90000000D02*
X132025000Y-88475000D01*
X128700000Y-82700000D02*
X128700000Y-85150000D01*
X153400000Y-107100000D02*
X153900000Y-106600000D01*
X141099998Y-107100000D02*
X153400000Y-107100000D01*
X142350000Y-90000000D02*
X133550000Y-90000000D01*
%TO.N,DB9_Probe*%
X109950000Y-112700000D02*
X109950000Y-112525000D01*
X109950000Y-112525000D02*
X109975000Y-112500000D01*
X109975000Y-105000000D02*
X117225000Y-97750000D01*
X136125451Y-97750000D02*
X136463866Y-97411585D01*
X107020000Y-115630000D02*
X109950000Y-112700000D01*
X109975000Y-112500000D02*
X109975000Y-105000000D01*
X120225000Y-97750000D02*
X136125451Y-97750000D01*
X117225000Y-97750000D02*
X120225000Y-97750000D01*
X105800000Y-115630000D02*
X107020000Y-115630000D01*
%TD*%
%TA.AperFunction,Conductor*%
%TO.N,FUSE_GND*%
G36*
X114218039Y-71894685D02*
G01*
X114263794Y-71947489D01*
X114275000Y-71999000D01*
X114275000Y-79525000D01*
X114300000Y-79550000D01*
X116226000Y-79550000D01*
X116293039Y-79569685D01*
X116338794Y-79622489D01*
X116350000Y-79674000D01*
X116350000Y-79800000D01*
X116425000Y-79875000D01*
X116476000Y-79875000D01*
X116543039Y-79894685D01*
X116588794Y-79947489D01*
X116600000Y-79999000D01*
X116600000Y-81851000D01*
X116580315Y-81918039D01*
X116527511Y-81963794D01*
X116476000Y-81975000D01*
X116374999Y-81975000D01*
X116275000Y-82074999D01*
X116265561Y-82097788D01*
X116261727Y-82096200D01*
X116255315Y-82118039D01*
X116202511Y-82163794D01*
X116151000Y-82175000D01*
X113975000Y-82175000D01*
X113975000Y-94451000D01*
X113955315Y-94518039D01*
X113902511Y-94563794D01*
X113851000Y-94575000D01*
X109301362Y-94575000D01*
X109234323Y-94555315D01*
X109226801Y-94549253D01*
X109225000Y-94550000D01*
X109225000Y-112489047D01*
X109205315Y-112556086D01*
X109188681Y-112576728D01*
X106974979Y-114790430D01*
X106913656Y-114823915D01*
X106843964Y-114818931D01*
X106799617Y-114790430D01*
X106639141Y-114629954D01*
X106452734Y-114499432D01*
X106452732Y-114499431D01*
X106246497Y-114403261D01*
X106246488Y-114403258D01*
X106123966Y-114370429D01*
X106102862Y-114364774D01*
X106043202Y-114328410D01*
X106012673Y-114265563D01*
X106020968Y-114196188D01*
X106065453Y-114142310D01*
X106102862Y-114125225D01*
X106246496Y-114086739D01*
X106452734Y-113990568D01*
X106639139Y-113860047D01*
X106800047Y-113699139D01*
X106930568Y-113512734D01*
X107026739Y-113306496D01*
X107085635Y-113086692D01*
X107105468Y-112860000D01*
X107101197Y-112811188D01*
X107097891Y-112773394D01*
X107085635Y-112633308D01*
X107067318Y-112564947D01*
X107068981Y-112495101D01*
X107099410Y-112445178D01*
X107748729Y-111795860D01*
X107748733Y-111795858D01*
X107835858Y-111708733D01*
X107886287Y-111633261D01*
X107904312Y-111606286D01*
X107951463Y-111492451D01*
X107975500Y-111371607D01*
X107975500Y-111248393D01*
X107975500Y-107438687D01*
X107995185Y-107371648D01*
X108007350Y-107355715D01*
X108025891Y-107335122D01*
X108082533Y-107272216D01*
X108177179Y-107108284D01*
X108235674Y-106928256D01*
X108255460Y-106740000D01*
X108235674Y-106551744D01*
X108177179Y-106371716D01*
X108082533Y-106207784D01*
X107955871Y-106067112D01*
X107910800Y-106034366D01*
X107802734Y-105955851D01*
X107802729Y-105955848D01*
X107629807Y-105878857D01*
X107629802Y-105878855D01*
X107484001Y-105847865D01*
X107444646Y-105839500D01*
X107255354Y-105839500D01*
X107222897Y-105846398D01*
X107070197Y-105878855D01*
X107070192Y-105878857D01*
X106897270Y-105955848D01*
X106897265Y-105955851D01*
X106744129Y-106067111D01*
X106744128Y-106067112D01*
X106637309Y-106185746D01*
X106577823Y-106222394D01*
X106507966Y-106221063D01*
X106474039Y-106204350D01*
X106452734Y-106189432D01*
X106357643Y-106145090D01*
X106246497Y-106093261D01*
X106246488Y-106093258D01*
X106026697Y-106034366D01*
X106026693Y-106034365D01*
X106026692Y-106034365D01*
X106026691Y-106034364D01*
X106026686Y-106034364D01*
X105800002Y-106014532D01*
X105799998Y-106014532D01*
X105573313Y-106034364D01*
X105573302Y-106034366D01*
X105353511Y-106093258D01*
X105353502Y-106093261D01*
X105147267Y-106189431D01*
X105147265Y-106189432D01*
X104960858Y-106319954D01*
X104799954Y-106480858D01*
X104669432Y-106667265D01*
X104669431Y-106667267D01*
X104573261Y-106873502D01*
X104573258Y-106873511D01*
X104514366Y-107093302D01*
X104514364Y-107093313D01*
X104494532Y-107319998D01*
X104494532Y-107320001D01*
X104514364Y-107546686D01*
X104514366Y-107546697D01*
X104573258Y-107766488D01*
X104573261Y-107766497D01*
X104669431Y-107972732D01*
X104669432Y-107972734D01*
X104799954Y-108159141D01*
X104960858Y-108320045D01*
X104960861Y-108320047D01*
X105147266Y-108450568D01*
X105353504Y-108546739D01*
X105353509Y-108546740D01*
X105353511Y-108546741D01*
X105497136Y-108585225D01*
X105556797Y-108621590D01*
X105587326Y-108684437D01*
X105579031Y-108753812D01*
X105534546Y-108807690D01*
X105497136Y-108824775D01*
X105353511Y-108863258D01*
X105353502Y-108863261D01*
X105147267Y-108959431D01*
X105147265Y-108959432D01*
X104960858Y-109089954D01*
X104799954Y-109250858D01*
X104669432Y-109437265D01*
X104669431Y-109437267D01*
X104573261Y-109643502D01*
X104573258Y-109643511D01*
X104514366Y-109863302D01*
X104514364Y-109863313D01*
X104494532Y-110089998D01*
X104494532Y-110090001D01*
X104514364Y-110316686D01*
X104514366Y-110316697D01*
X104573258Y-110536488D01*
X104573261Y-110536497D01*
X104669431Y-110742732D01*
X104669432Y-110742734D01*
X104799954Y-110929141D01*
X104960858Y-111090045D01*
X104960861Y-111090047D01*
X105147266Y-111220568D01*
X105353504Y-111316739D01*
X105353509Y-111316740D01*
X105353511Y-111316741D01*
X105497136Y-111355225D01*
X105556797Y-111391590D01*
X105587326Y-111454437D01*
X105579031Y-111523812D01*
X105534546Y-111577690D01*
X105497136Y-111594775D01*
X105353511Y-111633258D01*
X105353502Y-111633261D01*
X105147267Y-111729431D01*
X105147265Y-111729432D01*
X104960858Y-111859954D01*
X104799954Y-112020858D01*
X104669432Y-112207265D01*
X104669431Y-112207267D01*
X104573261Y-112413502D01*
X104573258Y-112413511D01*
X104514366Y-112633302D01*
X104514364Y-112633313D01*
X104494532Y-112859998D01*
X104494532Y-112860001D01*
X104514364Y-113086686D01*
X104514366Y-113086697D01*
X104573258Y-113306488D01*
X104573261Y-113306497D01*
X104669431Y-113512732D01*
X104669432Y-113512734D01*
X104799954Y-113699141D01*
X104960858Y-113860045D01*
X104960861Y-113860047D01*
X105147266Y-113990568D01*
X105353504Y-114086739D01*
X105353509Y-114086740D01*
X105353511Y-114086741D01*
X105497136Y-114125225D01*
X105556797Y-114161590D01*
X105587326Y-114224437D01*
X105579031Y-114293812D01*
X105534546Y-114347690D01*
X105497136Y-114364775D01*
X105353511Y-114403258D01*
X105353502Y-114403261D01*
X105147267Y-114499431D01*
X105147265Y-114499432D01*
X104960858Y-114629954D01*
X104799954Y-114790858D01*
X104669432Y-114977265D01*
X104669431Y-114977267D01*
X104573261Y-115183502D01*
X104573259Y-115183508D01*
X104547453Y-115279820D01*
X104511088Y-115339480D01*
X104448241Y-115370009D01*
X104378865Y-115361714D01*
X104339997Y-115335407D01*
X104086615Y-115082025D01*
X104053130Y-115020702D01*
X104058114Y-114951010D01*
X104072720Y-114923222D01*
X104090568Y-114897734D01*
X104186739Y-114691496D01*
X104245635Y-114471692D01*
X104265468Y-114245000D01*
X104261197Y-114196188D01*
X104251622Y-114086738D01*
X104245635Y-114018308D01*
X104186739Y-113798504D01*
X104090568Y-113592266D01*
X103960047Y-113405861D01*
X103960045Y-113405858D01*
X103799141Y-113244954D01*
X103612734Y-113114432D01*
X103612732Y-113114431D01*
X103406497Y-113018261D01*
X103406488Y-113018258D01*
X103283966Y-112985429D01*
X103262862Y-112979774D01*
X103203202Y-112943410D01*
X103172673Y-112880563D01*
X103180968Y-112811188D01*
X103225453Y-112757310D01*
X103262862Y-112740225D01*
X103406496Y-112701739D01*
X103612734Y-112605568D01*
X103799139Y-112475047D01*
X103960047Y-112314139D01*
X104090568Y-112127734D01*
X104186739Y-111921496D01*
X104245635Y-111701692D01*
X104265468Y-111475000D01*
X104245635Y-111248308D01*
X104186739Y-111028504D01*
X104090568Y-110822266D01*
X103960047Y-110635861D01*
X103960045Y-110635858D01*
X103799141Y-110474954D01*
X103612734Y-110344432D01*
X103612732Y-110344431D01*
X103406497Y-110248261D01*
X103406488Y-110248258D01*
X103283966Y-110215429D01*
X103262862Y-110209774D01*
X103203202Y-110173410D01*
X103172673Y-110110563D01*
X103180968Y-110041188D01*
X103225453Y-109987310D01*
X103262862Y-109970225D01*
X103406496Y-109931739D01*
X103612734Y-109835568D01*
X103799139Y-109705047D01*
X103960047Y-109544139D01*
X104090568Y-109357734D01*
X104186739Y-109151496D01*
X104245635Y-108931692D01*
X104265468Y-108705000D01*
X104261197Y-108656188D01*
X104251622Y-108546738D01*
X104245635Y-108478308D01*
X104186739Y-108258504D01*
X104090568Y-108052266D01*
X103960047Y-107865861D01*
X103960045Y-107865858D01*
X103799141Y-107704954D01*
X103612734Y-107574432D01*
X103612732Y-107574431D01*
X103406497Y-107478261D01*
X103406488Y-107478258D01*
X103186697Y-107419366D01*
X103186693Y-107419365D01*
X103186692Y-107419365D01*
X103186691Y-107419364D01*
X103186686Y-107419364D01*
X102960002Y-107399532D01*
X102959998Y-107399532D01*
X102733313Y-107419364D01*
X102733302Y-107419366D01*
X102513511Y-107478258D01*
X102513502Y-107478261D01*
X102307267Y-107574431D01*
X102307265Y-107574432D01*
X102120858Y-107704954D01*
X101959954Y-107865858D01*
X101829432Y-108052265D01*
X101829431Y-108052267D01*
X101733261Y-108258502D01*
X101733258Y-108258511D01*
X101674366Y-108478302D01*
X101674364Y-108478313D01*
X101654532Y-108704998D01*
X101654532Y-108705001D01*
X101674364Y-108931686D01*
X101674366Y-108931697D01*
X101733258Y-109151488D01*
X101733261Y-109151497D01*
X101829431Y-109357732D01*
X101829432Y-109357734D01*
X101959954Y-109544141D01*
X102120858Y-109705045D01*
X102120861Y-109705047D01*
X102307266Y-109835568D01*
X102513504Y-109931739D01*
X102513509Y-109931740D01*
X102513511Y-109931741D01*
X102657136Y-109970225D01*
X102716797Y-110006590D01*
X102747326Y-110069437D01*
X102739031Y-110138812D01*
X102694546Y-110192690D01*
X102657136Y-110209775D01*
X102513511Y-110248258D01*
X102513502Y-110248261D01*
X102307267Y-110344431D01*
X102307265Y-110344432D01*
X102120858Y-110474954D01*
X101959954Y-110635858D01*
X101829432Y-110822265D01*
X101829431Y-110822267D01*
X101733261Y-111028502D01*
X101733258Y-111028511D01*
X101674366Y-111248302D01*
X101674364Y-111248313D01*
X101663577Y-111371611D01*
X101654532Y-111475000D01*
X101674364Y-111701686D01*
X101674365Y-111701691D01*
X101674366Y-111701697D01*
X101692680Y-111770048D01*
X101691017Y-111839897D01*
X101660586Y-111889821D01*
X101201269Y-112349140D01*
X101114144Y-112436264D01*
X101114138Y-112436272D01*
X101045690Y-112538708D01*
X101045689Y-112538710D01*
X101017996Y-112605569D01*
X100998539Y-112652540D01*
X100998535Y-112652555D01*
X100974500Y-112773389D01*
X100974500Y-118031611D01*
X100998535Y-118152444D01*
X100998540Y-118152461D01*
X101045685Y-118266281D01*
X101045688Y-118266286D01*
X101068638Y-118300632D01*
X101068639Y-118300635D01*
X101068640Y-118300635D01*
X101114141Y-118368732D01*
X101114144Y-118368736D01*
X101205586Y-118460178D01*
X101205608Y-118460198D01*
X104190754Y-121445344D01*
X104190783Y-121445375D01*
X104281001Y-121535593D01*
X104281005Y-121535596D01*
X104383445Y-121604045D01*
X104383451Y-121604048D01*
X104383452Y-121604049D01*
X104497286Y-121651201D01*
X104557709Y-121663219D01*
X104618131Y-121675238D01*
X104618132Y-121675238D01*
X105860703Y-121675238D01*
X105927742Y-121694923D01*
X105973497Y-121747727D01*
X105984023Y-121812196D01*
X105969540Y-121950000D01*
X105989326Y-122138256D01*
X105989327Y-122138259D01*
X106047818Y-122318277D01*
X106047821Y-122318284D01*
X106142467Y-122482216D01*
X106244185Y-122595185D01*
X106269129Y-122622888D01*
X106422265Y-122734148D01*
X106422270Y-122734151D01*
X106595192Y-122811142D01*
X106595197Y-122811144D01*
X106780354Y-122850500D01*
X106780355Y-122850500D01*
X106969644Y-122850500D01*
X106969646Y-122850500D01*
X107154803Y-122811144D01*
X107327730Y-122734151D01*
X107480871Y-122622888D01*
X107483788Y-122619647D01*
X107486600Y-122616526D01*
X107546087Y-122579879D01*
X107578748Y-122575500D01*
X108926000Y-122575500D01*
X108993039Y-122595185D01*
X109038794Y-122647989D01*
X109050000Y-122699500D01*
X109050000Y-128351000D01*
X109030315Y-128418039D01*
X108977511Y-128463794D01*
X108926000Y-128475000D01*
X101051341Y-128475000D01*
X101036395Y-128474096D01*
X101019249Y-128472014D01*
X100849635Y-128451419D01*
X100834908Y-128448720D01*
X100509142Y-128368429D01*
X100494845Y-128363974D01*
X100181133Y-128244999D01*
X100167479Y-128238854D01*
X99870393Y-128082933D01*
X99857578Y-128075186D01*
X99581457Y-127884595D01*
X99569670Y-127875361D01*
X99318525Y-127652867D01*
X99307937Y-127642278D01*
X99160109Y-127475415D01*
X99085452Y-127391145D01*
X99076220Y-127379362D01*
X98885622Y-127103235D01*
X98877876Y-127090421D01*
X98858342Y-127053204D01*
X98721950Y-126793333D01*
X98715812Y-126779695D01*
X98596831Y-126465972D01*
X98592377Y-126451679D01*
X98512077Y-126125894D01*
X98509384Y-126111197D01*
X98468826Y-125777177D01*
X98467937Y-125764107D01*
X98465423Y-125596287D01*
X98465410Y-125594547D01*
X98465641Y-125360005D01*
X102994556Y-125360005D01*
X103014310Y-125674004D01*
X103014311Y-125674011D01*
X103020708Y-125707546D01*
X103045033Y-125835063D01*
X103073270Y-125983083D01*
X103170497Y-126282316D01*
X103170499Y-126282321D01*
X103304461Y-126567003D01*
X103304464Y-126567009D01*
X103473051Y-126832661D01*
X103473054Y-126832665D01*
X103673606Y-127075090D01*
X103673608Y-127075092D01*
X103902968Y-127290476D01*
X103902978Y-127290484D01*
X104157504Y-127475408D01*
X104157509Y-127475410D01*
X104157516Y-127475416D01*
X104433234Y-127626994D01*
X104433239Y-127626996D01*
X104433241Y-127626997D01*
X104433242Y-127626998D01*
X104725771Y-127742818D01*
X104725774Y-127742819D01*
X104953415Y-127801267D01*
X105030527Y-127821066D01*
X105096010Y-127829338D01*
X105342670Y-127860499D01*
X105342679Y-127860499D01*
X105342682Y-127860500D01*
X105342684Y-127860500D01*
X105657316Y-127860500D01*
X105657318Y-127860500D01*
X105657321Y-127860499D01*
X105657329Y-127860499D01*
X105843593Y-127836968D01*
X105969473Y-127821066D01*
X106274225Y-127742819D01*
X106274228Y-127742818D01*
X106566757Y-127626998D01*
X106566758Y-127626997D01*
X106566756Y-127626997D01*
X106566766Y-127626994D01*
X106842484Y-127475416D01*
X107097030Y-127290478D01*
X107326390Y-127075094D01*
X107526947Y-126832663D01*
X107695537Y-126567007D01*
X107829503Y-126282315D01*
X107926731Y-125983079D01*
X107985688Y-125674015D01*
X107985689Y-125674004D01*
X108005444Y-125360005D01*
X108005444Y-125359994D01*
X107985689Y-125045995D01*
X107985688Y-125045988D01*
X107985688Y-125045985D01*
X107926731Y-124736921D01*
X107829503Y-124437685D01*
X107695537Y-124152993D01*
X107526947Y-123887337D01*
X107473037Y-123822171D01*
X107326393Y-123644909D01*
X107326391Y-123644907D01*
X107097031Y-123429523D01*
X107097021Y-123429515D01*
X106842495Y-123244591D01*
X106842488Y-123244586D01*
X106842484Y-123244584D01*
X106566766Y-123093006D01*
X106566763Y-123093004D01*
X106566758Y-123093002D01*
X106566757Y-123093001D01*
X106274228Y-122977181D01*
X106274225Y-122977180D01*
X105969476Y-122898934D01*
X105969463Y-122898932D01*
X105657329Y-122859500D01*
X105657318Y-122859500D01*
X105342682Y-122859500D01*
X105342670Y-122859500D01*
X105030536Y-122898932D01*
X105030523Y-122898934D01*
X104725774Y-122977180D01*
X104725771Y-122977181D01*
X104433242Y-123093001D01*
X104433241Y-123093002D01*
X104157516Y-123244584D01*
X104157504Y-123244591D01*
X103902978Y-123429515D01*
X103902968Y-123429523D01*
X103673608Y-123644907D01*
X103673606Y-123644909D01*
X103473054Y-123887334D01*
X103473051Y-123887338D01*
X103304464Y-124152990D01*
X103304461Y-124152996D01*
X103170499Y-124437678D01*
X103170497Y-124437683D01*
X103073270Y-124736916D01*
X103014311Y-125045988D01*
X103014310Y-125045995D01*
X102994556Y-125359994D01*
X102994556Y-125360005D01*
X98465641Y-125360005D01*
X98490223Y-100360005D01*
X102994556Y-100360005D01*
X103014310Y-100674004D01*
X103014311Y-100674011D01*
X103073270Y-100983083D01*
X103170497Y-101282316D01*
X103170499Y-101282321D01*
X103304461Y-101567003D01*
X103304464Y-101567009D01*
X103473051Y-101832661D01*
X103473054Y-101832665D01*
X103673606Y-102075090D01*
X103673608Y-102075092D01*
X103902968Y-102290476D01*
X103902978Y-102290484D01*
X104157504Y-102475408D01*
X104157509Y-102475410D01*
X104157516Y-102475416D01*
X104433234Y-102626994D01*
X104433239Y-102626996D01*
X104433241Y-102626997D01*
X104433242Y-102626998D01*
X104725771Y-102742818D01*
X104725774Y-102742819D01*
X105030523Y-102821065D01*
X105030527Y-102821066D01*
X105096010Y-102829338D01*
X105342670Y-102860499D01*
X105342679Y-102860499D01*
X105342682Y-102860500D01*
X105342684Y-102860500D01*
X105657316Y-102860500D01*
X105657318Y-102860500D01*
X105657321Y-102860499D01*
X105657329Y-102860499D01*
X105843593Y-102836968D01*
X105969473Y-102821066D01*
X106274225Y-102742819D01*
X106274228Y-102742818D01*
X106566757Y-102626998D01*
X106566758Y-102626997D01*
X106566756Y-102626997D01*
X106566766Y-102626994D01*
X106842484Y-102475416D01*
X107097030Y-102290478D01*
X107326390Y-102075094D01*
X107526947Y-101832663D01*
X107695537Y-101567007D01*
X107829503Y-101282315D01*
X107926731Y-100983079D01*
X107985688Y-100674015D01*
X108005444Y-100360000D01*
X107985688Y-100045985D01*
X107926731Y-99736921D01*
X107829503Y-99437685D01*
X107695537Y-99152993D01*
X107526947Y-98887337D01*
X107526945Y-98887334D01*
X107326393Y-98644909D01*
X107326391Y-98644907D01*
X107097031Y-98429523D01*
X107097021Y-98429515D01*
X106842495Y-98244591D01*
X106842488Y-98244586D01*
X106842484Y-98244584D01*
X106566766Y-98093006D01*
X106566763Y-98093004D01*
X106566758Y-98093002D01*
X106566757Y-98093001D01*
X106274228Y-97977181D01*
X106274225Y-97977180D01*
X105969476Y-97898934D01*
X105969463Y-97898932D01*
X105657329Y-97859500D01*
X105657318Y-97859500D01*
X105342682Y-97859500D01*
X105342670Y-97859500D01*
X105030536Y-97898932D01*
X105030523Y-97898934D01*
X104725774Y-97977180D01*
X104725771Y-97977181D01*
X104433242Y-98093001D01*
X104433241Y-98093002D01*
X104157516Y-98244584D01*
X104157504Y-98244591D01*
X103902978Y-98429515D01*
X103902968Y-98429523D01*
X103673608Y-98644907D01*
X103673606Y-98644909D01*
X103473054Y-98887334D01*
X103473051Y-98887338D01*
X103304464Y-99152990D01*
X103304461Y-99152996D01*
X103170499Y-99437678D01*
X103170497Y-99437683D01*
X103073270Y-99736916D01*
X103014311Y-100045988D01*
X103014310Y-100045995D01*
X102994556Y-100359994D01*
X102994556Y-100360005D01*
X98490223Y-100360005D01*
X98513629Y-76555968D01*
X103782447Y-76555968D01*
X103821482Y-76814953D01*
X103821484Y-76814959D01*
X103898688Y-77065246D01*
X104012326Y-77301218D01*
X104012327Y-77301220D01*
X104012329Y-77301223D01*
X104012331Y-77301227D01*
X104159877Y-77517637D01*
X104338024Y-77709635D01*
X104338028Y-77709638D01*
X104338029Y-77709639D01*
X104542808Y-77872945D01*
X104769639Y-78003906D01*
X105013455Y-78099597D01*
X105268810Y-78157880D01*
X105268815Y-78157880D01*
X105268818Y-78157881D01*
X105529997Y-78177454D01*
X105530000Y-78177454D01*
X105530003Y-78177454D01*
X105791181Y-78157881D01*
X105791182Y-78157880D01*
X105791190Y-78157880D01*
X106046545Y-78099597D01*
X106290361Y-78003906D01*
X106517192Y-77872945D01*
X106721971Y-77709639D01*
X106900123Y-77517637D01*
X107047669Y-77301227D01*
X107161313Y-77065243D01*
X107238516Y-76814958D01*
X107277553Y-76555961D01*
X107277553Y-76555952D01*
X107277554Y-76555944D01*
X107280000Y-76425000D01*
X107277554Y-76294055D01*
X107277553Y-76294046D01*
X107277553Y-76294039D01*
X107238516Y-76035042D01*
X107161313Y-75784757D01*
X107047669Y-75548773D01*
X106900123Y-75332363D01*
X106890149Y-75321613D01*
X106721975Y-75140364D01*
X106682589Y-75108955D01*
X106517192Y-74977055D01*
X106290361Y-74846094D01*
X106046545Y-74750403D01*
X106046536Y-74750401D01*
X106046533Y-74750400D01*
X105791188Y-74692119D01*
X105530005Y-74672547D01*
X105529995Y-74672547D01*
X105268811Y-74692119D01*
X105013466Y-74750400D01*
X105013458Y-74750402D01*
X105013455Y-74750403D01*
X105013452Y-74750403D01*
X105013449Y-74750405D01*
X104769638Y-74846094D01*
X104542808Y-74977055D01*
X104338024Y-75140364D01*
X104159877Y-75332362D01*
X104012327Y-75548779D01*
X104012326Y-75548781D01*
X103898688Y-75784753D01*
X103821484Y-76035040D01*
X103821482Y-76035046D01*
X103782447Y-76294031D01*
X103782447Y-76555968D01*
X98513629Y-76555968D01*
X98515409Y-74746217D01*
X98515422Y-74744569D01*
X98517854Y-74576744D01*
X98518745Y-74563595D01*
X98559297Y-74229606D01*
X98561991Y-74214904D01*
X98642292Y-73889104D01*
X98646746Y-73874815D01*
X98765728Y-73561085D01*
X98771862Y-73547453D01*
X98927803Y-73250331D01*
X98935541Y-73237533D01*
X99126155Y-72961380D01*
X99135371Y-72949617D01*
X99357878Y-72698459D01*
X99368463Y-72687875D01*
X99619617Y-72465371D01*
X99631380Y-72456155D01*
X99907533Y-72265541D01*
X99920331Y-72257803D01*
X100217453Y-72101862D01*
X100231085Y-72095728D01*
X100544821Y-71976743D01*
X100559104Y-71972292D01*
X100884904Y-71891991D01*
X100899609Y-71889297D01*
X100988050Y-71878558D01*
X101009917Y-71875904D01*
X101024862Y-71875000D01*
X114151000Y-71875000D01*
X114218039Y-71894685D01*
G37*
%TD.AperFunction*%
%TA.AperFunction,Conductor*%
G36*
X104407548Y-117184699D02*
G01*
X104446417Y-117211007D01*
X104510260Y-117274850D01*
X104543745Y-117336173D01*
X104538761Y-117405864D01*
X104506403Y-117492620D01*
X104506401Y-117492627D01*
X104500000Y-117552155D01*
X104500000Y-118150000D01*
X105366988Y-118150000D01*
X105334075Y-118207007D01*
X105300000Y-118334174D01*
X105300000Y-118465826D01*
X105334075Y-118592993D01*
X105366988Y-118650000D01*
X104500000Y-118650000D01*
X104500000Y-119247844D01*
X104506401Y-119307372D01*
X104506403Y-119307379D01*
X104556645Y-119442086D01*
X104556649Y-119442093D01*
X104642809Y-119557187D01*
X104642812Y-119557190D01*
X104757906Y-119643350D01*
X104757913Y-119643354D01*
X104892620Y-119693596D01*
X104892627Y-119693598D01*
X104952155Y-119699999D01*
X104952172Y-119700000D01*
X105550000Y-119700000D01*
X105550000Y-118833012D01*
X105607007Y-118865925D01*
X105734174Y-118900000D01*
X105865826Y-118900000D01*
X105992993Y-118865925D01*
X106050000Y-118833012D01*
X106050000Y-119700000D01*
X106647828Y-119700000D01*
X106647844Y-119699999D01*
X106707372Y-119693598D01*
X106707379Y-119693596D01*
X106842086Y-119643354D01*
X106842093Y-119643350D01*
X106957187Y-119557190D01*
X106957190Y-119557187D01*
X107043350Y-119442093D01*
X107043354Y-119442086D01*
X107093596Y-119307379D01*
X107093598Y-119307372D01*
X107099999Y-119247844D01*
X107100000Y-119247827D01*
X107100000Y-118650000D01*
X106233012Y-118650000D01*
X106265925Y-118592993D01*
X106300000Y-118465826D01*
X106300000Y-118334174D01*
X106265925Y-118207007D01*
X106233012Y-118150000D01*
X107100000Y-118150000D01*
X107100000Y-117649500D01*
X107119685Y-117582461D01*
X107172489Y-117536706D01*
X107224000Y-117525500D01*
X111722597Y-117525500D01*
X111732775Y-117525000D01*
X112451000Y-117525000D01*
X112518039Y-117544685D01*
X112563794Y-117597489D01*
X112575000Y-117649000D01*
X112575000Y-120226000D01*
X112555315Y-120293039D01*
X112502511Y-120338794D01*
X112451000Y-120350000D01*
X109151362Y-120350000D01*
X109084323Y-120330315D01*
X109063685Y-120313685D01*
X109050000Y-120300000D01*
X109050000Y-120300001D01*
X109050000Y-120300238D01*
X109030315Y-120367277D01*
X108977511Y-120413032D01*
X108926000Y-120424238D01*
X104990190Y-120424238D01*
X104923151Y-120404553D01*
X104902509Y-120387919D01*
X103033142Y-118518552D01*
X102999657Y-118457229D01*
X103004641Y-118387537D01*
X103046513Y-118331604D01*
X103110015Y-118307343D01*
X103186692Y-118300635D01*
X103406496Y-118241739D01*
X103612734Y-118145568D01*
X103799139Y-118015047D01*
X103960047Y-117854139D01*
X104090568Y-117667734D01*
X104186739Y-117461496D01*
X104238962Y-117266592D01*
X104275325Y-117206935D01*
X104338172Y-117176405D01*
X104407548Y-117184699D01*
G37*
%TD.AperFunction*%
%TD*%
%TA.AperFunction,Conductor*%
%TO.N,GND*%
G36*
X210092567Y-71903603D02*
G01*
X210154825Y-71918948D01*
X210371683Y-71972399D01*
X210385952Y-71976846D01*
X210699679Y-72095828D01*
X210713333Y-72101974D01*
X211010410Y-72257893D01*
X211023225Y-72265639D01*
X211299354Y-72456239D01*
X211311133Y-72465468D01*
X211480591Y-72615595D01*
X211562264Y-72687951D01*
X211572853Y-72698539D01*
X211795345Y-72949683D01*
X211804579Y-72961470D01*
X211995169Y-73237589D01*
X212002916Y-73250404D01*
X212158838Y-73547490D01*
X212164983Y-73561145D01*
X212283952Y-73874848D01*
X212288407Y-73889143D01*
X212368702Y-74214912D01*
X212371401Y-74229641D01*
X212411954Y-74563643D01*
X212412844Y-74576703D01*
X212415396Y-74744488D01*
X212415410Y-74746374D01*
X212415410Y-125594465D01*
X212415396Y-125596337D01*
X212412863Y-125764106D01*
X212411973Y-125777181D01*
X212371417Y-126111181D01*
X212368718Y-126125910D01*
X212288423Y-126451675D01*
X212283968Y-126465970D01*
X212164992Y-126779682D01*
X212158846Y-126793337D01*
X212002927Y-127090415D01*
X211995181Y-127103229D01*
X211804584Y-127379356D01*
X211795349Y-127391143D01*
X211572864Y-127642276D01*
X211562276Y-127652864D01*
X211311143Y-127875349D01*
X211299356Y-127884584D01*
X211023229Y-128075181D01*
X211010415Y-128082927D01*
X210713337Y-128238846D01*
X210699682Y-128244992D01*
X210385970Y-128363968D01*
X210371675Y-128368423D01*
X210045910Y-128448718D01*
X210031181Y-128451417D01*
X209697181Y-128491973D01*
X209684106Y-128492863D01*
X209516337Y-128495396D01*
X209514465Y-128495410D01*
X189913541Y-128495410D01*
X189846502Y-128475725D01*
X189800747Y-128422921D01*
X189790803Y-128353763D01*
X189819828Y-128290207D01*
X189825860Y-128283729D01*
X190898308Y-127211281D01*
X192073729Y-126035860D01*
X192073733Y-126035858D01*
X192160858Y-125948733D01*
X192185025Y-125912564D01*
X192223046Y-125855663D01*
X192223047Y-125855660D01*
X192226496Y-125850499D01*
X192229312Y-125846285D01*
X192259293Y-125773903D01*
X192276463Y-125732452D01*
X192300500Y-125611606D01*
X192300500Y-125319491D01*
X208017972Y-125319491D01*
X208030642Y-125395417D01*
X208058818Y-125564272D01*
X208139394Y-125798982D01*
X208139399Y-125798992D01*
X208257504Y-126017232D01*
X208257510Y-126017241D01*
X208409927Y-126213066D01*
X208409930Y-126213070D01*
X208409932Y-126213072D01*
X208409933Y-126213073D01*
X208592512Y-126381149D01*
X208800265Y-126516881D01*
X209027526Y-126616567D01*
X209268095Y-126677487D01*
X209350533Y-126684318D01*
X209515404Y-126697981D01*
X209515410Y-126697981D01*
X209515416Y-126697981D01*
X209663799Y-126685684D01*
X209762725Y-126677487D01*
X210003294Y-126616567D01*
X210230555Y-126516881D01*
X210438308Y-126381149D01*
X210620887Y-126213073D01*
X210773312Y-126017238D01*
X210891424Y-125798986D01*
X210972002Y-125564269D01*
X211012848Y-125319491D01*
X211015410Y-125195410D01*
X211012848Y-125071329D01*
X210972002Y-124826551D01*
X210956895Y-124782547D01*
X210898861Y-124613498D01*
X210891424Y-124591834D01*
X210812717Y-124446396D01*
X210773315Y-124373587D01*
X210773309Y-124373578D01*
X210620892Y-124177753D01*
X210620889Y-124177749D01*
X210532506Y-124096387D01*
X210438308Y-124009671D01*
X210412410Y-123992751D01*
X210230556Y-123873939D01*
X210003294Y-123774253D01*
X209762721Y-123713332D01*
X209515416Y-123692840D01*
X209515404Y-123692840D01*
X209268098Y-123713332D01*
X209027525Y-123774253D01*
X208800263Y-123873939D01*
X208592514Y-124009669D01*
X208592510Y-124009672D01*
X208409930Y-124177749D01*
X208409927Y-124177753D01*
X208257510Y-124373578D01*
X208257504Y-124373587D01*
X208139399Y-124591827D01*
X208139394Y-124591837D01*
X208058818Y-124826547D01*
X208035938Y-124963664D01*
X208017972Y-125071329D01*
X208017972Y-125319491D01*
X192300500Y-125319491D01*
X192300500Y-122915391D01*
X192320185Y-122848352D01*
X192332352Y-122832417D01*
X192332533Y-122832216D01*
X192427179Y-122668284D01*
X192485674Y-122488256D01*
X192505460Y-122300000D01*
X192485674Y-122111744D01*
X192427179Y-121931716D01*
X192332533Y-121767784D01*
X192205871Y-121627112D01*
X192196323Y-121620175D01*
X192052734Y-121515851D01*
X192052729Y-121515848D01*
X191879807Y-121438857D01*
X191879802Y-121438855D01*
X191734001Y-121407865D01*
X191694646Y-121399500D01*
X191505354Y-121399500D01*
X191472897Y-121406398D01*
X191320197Y-121438855D01*
X191320192Y-121438857D01*
X191147270Y-121515848D01*
X191147265Y-121515851D01*
X190994129Y-121627111D01*
X190867466Y-121767785D01*
X190772821Y-121931715D01*
X190772818Y-121931722D01*
X190714327Y-122111740D01*
X190714326Y-122111744D01*
X190694540Y-122300000D01*
X190714326Y-122488256D01*
X190714327Y-122488259D01*
X190772818Y-122668277D01*
X190772821Y-122668284D01*
X190867467Y-122832216D01*
X190955814Y-122930335D01*
X190994129Y-122972888D01*
X190998381Y-122975977D01*
X191041049Y-123031305D01*
X191049500Y-123076298D01*
X191049500Y-125239548D01*
X191029815Y-125306587D01*
X191013181Y-125327229D01*
X188802229Y-127538181D01*
X188740906Y-127571666D01*
X188714548Y-127574500D01*
X175149976Y-127574500D01*
X175082937Y-127554815D01*
X175037182Y-127502011D01*
X175027238Y-127432853D01*
X175056263Y-127369297D01*
X175097571Y-127338118D01*
X175202830Y-127289035D01*
X175396401Y-127153495D01*
X175563495Y-126986401D01*
X175699035Y-126792830D01*
X175798903Y-126578663D01*
X175860063Y-126350408D01*
X175880659Y-126115000D01*
X175860063Y-125879592D01*
X175798903Y-125651337D01*
X175699035Y-125437171D01*
X175693424Y-125429158D01*
X175563496Y-125243600D01*
X175505738Y-125185842D01*
X175441567Y-125121671D01*
X175427228Y-125095410D01*
X177986493Y-125095410D01*
X178006291Y-125340665D01*
X178055054Y-125538498D01*
X178065177Y-125579569D01*
X178161621Y-125805933D01*
X178251919Y-125948728D01*
X178293129Y-126013897D01*
X178456289Y-126198067D01*
X178488783Y-126224597D01*
X178646886Y-126353684D01*
X178646888Y-126353685D01*
X178646895Y-126353690D01*
X178859972Y-126476710D01*
X178859975Y-126476711D01*
X179090039Y-126563962D01*
X179090041Y-126563962D01*
X179090043Y-126563963D01*
X179331112Y-126613178D01*
X179331116Y-126613178D01*
X179331119Y-126613179D01*
X179404875Y-126616151D01*
X179576966Y-126623087D01*
X179576967Y-126623087D01*
X179576968Y-126623086D01*
X179576973Y-126623087D01*
X179821233Y-126593429D01*
X180057571Y-126524972D01*
X180279869Y-126419491D01*
X180482366Y-126279717D01*
X180653595Y-126115250D01*
X180659819Y-126109272D01*
X180728976Y-126017241D01*
X180807635Y-125912564D01*
X180921982Y-125694694D01*
X180999899Y-125461304D01*
X181019505Y-125340665D01*
X181039368Y-125218446D01*
X181039368Y-125218443D01*
X181039369Y-125218437D01*
X181041844Y-125095410D01*
X181039369Y-124972383D01*
X181039368Y-124972376D01*
X181039368Y-124972373D01*
X180999900Y-124729521D01*
X180999899Y-124729519D01*
X180999899Y-124729516D01*
X180921982Y-124496126D01*
X180807635Y-124278256D01*
X180807632Y-124278252D01*
X180807631Y-124278250D01*
X180659819Y-124081547D01*
X180482368Y-123911104D01*
X180482366Y-123911103D01*
X180279871Y-123771330D01*
X180279869Y-123771328D01*
X180057573Y-123665849D01*
X180057571Y-123665848D01*
X180057568Y-123665847D01*
X180057565Y-123665846D01*
X179928967Y-123628597D01*
X179821233Y-123597391D01*
X179821229Y-123597390D01*
X179821225Y-123597389D01*
X179576966Y-123567732D01*
X179331122Y-123577640D01*
X179331112Y-123577641D01*
X179090043Y-123626856D01*
X178859972Y-123714109D01*
X178646895Y-123837129D01*
X178646888Y-123837134D01*
X178456289Y-123992752D01*
X178293129Y-124176922D01*
X178237688Y-124264596D01*
X178168773Y-124373578D01*
X178161620Y-124384889D01*
X178065177Y-124611250D01*
X178006291Y-124850154D01*
X177986493Y-125095410D01*
X175427228Y-125095410D01*
X175408084Y-125060351D01*
X175413068Y-124990659D01*
X175454939Y-124934725D01*
X175485915Y-124917810D01*
X175617331Y-124868796D01*
X175732546Y-124782546D01*
X175818796Y-124667331D01*
X175869091Y-124532483D01*
X175875500Y-124472873D01*
X175875499Y-122677128D01*
X175869091Y-122617517D01*
X175867810Y-122614083D01*
X175818797Y-122482671D01*
X175818793Y-122482664D01*
X175732547Y-122367455D01*
X175732544Y-122367452D01*
X175617335Y-122281206D01*
X175617328Y-122281202D01*
X175482482Y-122230908D01*
X175482483Y-122230908D01*
X175422883Y-122224501D01*
X175422881Y-122224500D01*
X175422873Y-122224500D01*
X175422864Y-122224500D01*
X173627129Y-122224500D01*
X173627123Y-122224501D01*
X173567516Y-122230908D01*
X173432671Y-122281202D01*
X173432664Y-122281206D01*
X173317455Y-122367452D01*
X173317452Y-122367455D01*
X173231206Y-122482664D01*
X173231203Y-122482669D01*
X173182189Y-122614083D01*
X173140317Y-122670016D01*
X173074853Y-122694433D01*
X173006580Y-122679581D01*
X172978326Y-122658430D01*
X172856402Y-122536506D01*
X172856395Y-122536501D01*
X172662834Y-122400967D01*
X172662830Y-122400965D01*
X172621988Y-122381920D01*
X172448663Y-122301097D01*
X172448659Y-122301096D01*
X172448655Y-122301094D01*
X172220413Y-122239938D01*
X172220403Y-122239936D01*
X171985001Y-122219341D01*
X171984999Y-122219341D01*
X171749596Y-122239936D01*
X171749586Y-122239938D01*
X171521344Y-122301094D01*
X171521337Y-122301096D01*
X171521337Y-122301097D01*
X171520970Y-122301268D01*
X171307171Y-122400964D01*
X171307169Y-122400965D01*
X171113597Y-122536505D01*
X170946505Y-122703597D01*
X170816575Y-122889158D01*
X170761998Y-122932783D01*
X170692500Y-122939977D01*
X170630145Y-122908454D01*
X170613425Y-122889158D01*
X170483494Y-122703597D01*
X170316402Y-122536506D01*
X170316395Y-122536501D01*
X170122834Y-122400967D01*
X170122830Y-122400965D01*
X170081988Y-122381920D01*
X169908663Y-122301097D01*
X169908659Y-122301096D01*
X169908655Y-122301094D01*
X169680413Y-122239938D01*
X169680403Y-122239936D01*
X169445001Y-122219341D01*
X169444999Y-122219341D01*
X169209596Y-122239936D01*
X169209586Y-122239938D01*
X168981344Y-122301094D01*
X168981337Y-122301096D01*
X168981337Y-122301097D01*
X168980970Y-122301268D01*
X168767171Y-122400964D01*
X168767169Y-122400965D01*
X168573597Y-122536505D01*
X168406505Y-122703597D01*
X168276575Y-122889158D01*
X168221998Y-122932783D01*
X168152500Y-122939977D01*
X168090145Y-122908454D01*
X168073425Y-122889158D01*
X167943494Y-122703597D01*
X167776402Y-122536506D01*
X167776395Y-122536501D01*
X167582834Y-122400967D01*
X167582830Y-122400965D01*
X167541988Y-122381920D01*
X167368663Y-122301097D01*
X167368659Y-122301096D01*
X167368655Y-122301094D01*
X167140413Y-122239938D01*
X167140403Y-122239936D01*
X166905001Y-122219341D01*
X166904999Y-122219341D01*
X166669596Y-122239936D01*
X166669586Y-122239938D01*
X166441344Y-122301094D01*
X166441337Y-122301096D01*
X166441337Y-122301097D01*
X166440970Y-122301268D01*
X166227171Y-122400964D01*
X166227169Y-122400965D01*
X166033597Y-122536505D01*
X165866505Y-122703597D01*
X165736575Y-122889158D01*
X165681998Y-122932783D01*
X165612500Y-122939977D01*
X165550145Y-122908454D01*
X165533425Y-122889158D01*
X165403494Y-122703597D01*
X165236402Y-122536506D01*
X165236395Y-122536501D01*
X165042834Y-122400967D01*
X165042830Y-122400965D01*
X165001988Y-122381920D01*
X164828663Y-122301097D01*
X164828659Y-122301096D01*
X164828655Y-122301094D01*
X164600413Y-122239938D01*
X164600403Y-122239936D01*
X164365001Y-122219341D01*
X164364999Y-122219341D01*
X164129596Y-122239936D01*
X164129586Y-122239938D01*
X163901344Y-122301094D01*
X163901337Y-122301096D01*
X163901337Y-122301097D01*
X163900970Y-122301268D01*
X163687171Y-122400964D01*
X163687169Y-122400965D01*
X163493597Y-122536505D01*
X163326505Y-122703597D01*
X163196575Y-122889158D01*
X163141998Y-122932783D01*
X163072500Y-122939977D01*
X163010145Y-122908454D01*
X162993425Y-122889158D01*
X162863494Y-122703597D01*
X162696402Y-122536506D01*
X162696395Y-122536501D01*
X162502834Y-122400967D01*
X162502830Y-122400965D01*
X162461988Y-122381920D01*
X162288663Y-122301097D01*
X162288659Y-122301096D01*
X162288655Y-122301094D01*
X162060413Y-122239938D01*
X162060403Y-122239936D01*
X161825001Y-122219341D01*
X161824999Y-122219341D01*
X161589596Y-122239936D01*
X161589586Y-122239938D01*
X161497098Y-122264720D01*
X161427248Y-122263057D01*
X161369386Y-122223894D01*
X161341882Y-122159665D01*
X161353469Y-122090763D01*
X161377321Y-122057267D01*
X163182075Y-120252513D01*
X200604500Y-120252513D01*
X200636571Y-120496113D01*
X200643007Y-120544993D01*
X200712655Y-120804923D01*
X200719361Y-120829951D01*
X200719364Y-120829961D01*
X200832254Y-121102500D01*
X200832258Y-121102510D01*
X200979761Y-121357993D01*
X201159352Y-121592040D01*
X201159358Y-121592047D01*
X201367952Y-121800641D01*
X201367959Y-121800647D01*
X201602006Y-121980238D01*
X201857489Y-122127741D01*
X201857490Y-122127741D01*
X201857493Y-122127743D01*
X202061525Y-122212256D01*
X202128355Y-122239938D01*
X202130048Y-122240639D01*
X202415007Y-122316993D01*
X202707494Y-122355500D01*
X202707501Y-122355500D01*
X206502499Y-122355500D01*
X206502506Y-122355500D01*
X206794993Y-122316993D01*
X207079952Y-122240639D01*
X207352507Y-122127743D01*
X207607994Y-121980238D01*
X207842042Y-121800646D01*
X208050646Y-121592042D01*
X208230238Y-121357994D01*
X208377743Y-121102507D01*
X208490639Y-120829952D01*
X208566993Y-120544993D01*
X208605500Y-120252506D01*
X208605500Y-119957494D01*
X208566993Y-119665007D01*
X208490639Y-119380048D01*
X208377743Y-119107493D01*
X208324410Y-119015118D01*
X208230238Y-118852006D01*
X208050647Y-118617959D01*
X208050641Y-118617952D01*
X207842047Y-118409358D01*
X207842040Y-118409352D01*
X207607993Y-118229761D01*
X207352510Y-118082258D01*
X207352500Y-118082254D01*
X207079961Y-117969364D01*
X207079954Y-117969362D01*
X207079952Y-117969361D01*
X206794993Y-117893007D01*
X206746113Y-117886571D01*
X206502513Y-117854500D01*
X206502506Y-117854500D01*
X202707494Y-117854500D01*
X202707486Y-117854500D01*
X202429085Y-117891153D01*
X202415007Y-117893007D01*
X202130048Y-117969361D01*
X202130038Y-117969364D01*
X201857499Y-118082254D01*
X201857489Y-118082258D01*
X201602006Y-118229761D01*
X201367959Y-118409352D01*
X201367952Y-118409358D01*
X201159358Y-118617952D01*
X201159352Y-118617959D01*
X200979761Y-118852006D01*
X200832258Y-119107489D01*
X200832254Y-119107499D01*
X200719364Y-119380038D01*
X200719361Y-119380048D01*
X200643008Y-119665004D01*
X200643006Y-119665015D01*
X200604500Y-119957486D01*
X200604500Y-120252513D01*
X163182075Y-120252513D01*
X168307238Y-115127351D01*
X197774500Y-115127351D01*
X197806522Y-115329534D01*
X197869781Y-115524223D01*
X197962715Y-115706613D01*
X198083028Y-115872213D01*
X198227786Y-116016971D01*
X198382749Y-116129556D01*
X198393390Y-116137287D01*
X198509607Y-116196503D01*
X198575776Y-116230218D01*
X198575778Y-116230218D01*
X198575781Y-116230220D01*
X198651477Y-116254815D01*
X198770465Y-116293477D01*
X198871557Y-116309488D01*
X198972648Y-116325500D01*
X198972649Y-116325500D01*
X200077351Y-116325500D01*
X200077352Y-116325500D01*
X200279534Y-116293477D01*
X200474219Y-116230220D01*
X200656610Y-116137287D01*
X200749590Y-116069732D01*
X200822213Y-116016971D01*
X200822215Y-116016968D01*
X200822219Y-116016966D01*
X200966966Y-115872219D01*
X200966968Y-115872215D01*
X200966971Y-115872213D01*
X201039133Y-115772889D01*
X201087287Y-115706610D01*
X201180220Y-115524219D01*
X201243477Y-115329534D01*
X201275500Y-115127352D01*
X201275500Y-114922648D01*
X201243477Y-114720466D01*
X201180220Y-114525781D01*
X201180218Y-114525778D01*
X201180218Y-114525776D01*
X201133187Y-114433474D01*
X201087287Y-114343390D01*
X201067279Y-114315851D01*
X200966971Y-114177786D01*
X200822213Y-114033028D01*
X200656614Y-113912715D01*
X200650006Y-113909348D01*
X200563917Y-113865483D01*
X200513123Y-113817511D01*
X200496328Y-113749690D01*
X200518865Y-113683555D01*
X200563917Y-113644516D01*
X200656610Y-113597287D01*
X200733888Y-113541142D01*
X200822213Y-113476971D01*
X200822215Y-113476968D01*
X200822219Y-113476966D01*
X200966966Y-113332219D01*
X200966968Y-113332215D01*
X200966971Y-113332213D01*
X201019732Y-113259590D01*
X201087287Y-113166610D01*
X201180220Y-112984219D01*
X201243477Y-112789534D01*
X201275500Y-112587352D01*
X201275500Y-112382648D01*
X201251979Y-112234142D01*
X201243477Y-112180465D01*
X201187151Y-112007112D01*
X201180220Y-111985781D01*
X201180218Y-111985778D01*
X201180218Y-111985776D01*
X201095871Y-111820238D01*
X201087287Y-111803390D01*
X201069930Y-111779500D01*
X200966971Y-111637786D01*
X200822213Y-111493028D01*
X200656613Y-111372715D01*
X200656612Y-111372714D01*
X200656610Y-111372713D01*
X200599653Y-111343691D01*
X200474223Y-111279781D01*
X200279534Y-111216522D01*
X200104995Y-111188878D01*
X200077352Y-111184500D01*
X198972648Y-111184500D01*
X198948329Y-111188351D01*
X198770465Y-111216522D01*
X198575776Y-111279781D01*
X198393386Y-111372715D01*
X198227786Y-111493028D01*
X198083028Y-111637786D01*
X197962715Y-111803386D01*
X197869781Y-111985776D01*
X197806522Y-112180465D01*
X197774500Y-112382648D01*
X197774500Y-112587351D01*
X197806522Y-112789534D01*
X197869781Y-112984223D01*
X197962715Y-113166613D01*
X198083028Y-113332213D01*
X198227786Y-113476971D01*
X198370284Y-113580500D01*
X198393390Y-113597287D01*
X198484840Y-113643883D01*
X198486080Y-113644515D01*
X198536876Y-113692490D01*
X198553671Y-113760311D01*
X198531134Y-113826446D01*
X198486080Y-113865485D01*
X198393386Y-113912715D01*
X198227786Y-114033028D01*
X198083028Y-114177786D01*
X197962715Y-114343386D01*
X197869781Y-114525776D01*
X197806522Y-114720465D01*
X197774500Y-114922648D01*
X197774500Y-115127351D01*
X168307238Y-115127351D01*
X173336745Y-110097844D01*
X176850000Y-110097844D01*
X176856401Y-110157372D01*
X176856403Y-110157379D01*
X176906645Y-110292086D01*
X176906649Y-110292093D01*
X176992809Y-110407187D01*
X176992812Y-110407190D01*
X177107906Y-110493350D01*
X177107913Y-110493354D01*
X177242620Y-110543596D01*
X177242627Y-110543598D01*
X177302155Y-110549999D01*
X177302172Y-110550000D01*
X177950000Y-110550000D01*
X177950000Y-109633012D01*
X178007007Y-109665925D01*
X178134174Y-109700000D01*
X178265826Y-109700000D01*
X178392993Y-109665925D01*
X178450000Y-109633012D01*
X178450000Y-110550000D01*
X179097828Y-110550000D01*
X179097844Y-110549999D01*
X179157372Y-110543598D01*
X179157379Y-110543596D01*
X179292086Y-110493354D01*
X179292093Y-110493350D01*
X179407187Y-110407190D01*
X179407190Y-110407187D01*
X179493350Y-110292093D01*
X179493354Y-110292086D01*
X179543596Y-110157379D01*
X179543598Y-110157372D01*
X179549999Y-110097844D01*
X179550000Y-110097827D01*
X179550000Y-110092513D01*
X200604500Y-110092513D01*
X200636571Y-110336113D01*
X200643007Y-110384993D01*
X200719361Y-110669951D01*
X200719364Y-110669961D01*
X200832254Y-110942500D01*
X200832258Y-110942510D01*
X200979761Y-111197993D01*
X201159352Y-111432040D01*
X201159358Y-111432047D01*
X201367952Y-111640641D01*
X201367959Y-111640647D01*
X201602006Y-111820238D01*
X201857489Y-111967741D01*
X201857490Y-111967741D01*
X201857493Y-111967743D01*
X202130048Y-112080639D01*
X202415007Y-112156993D01*
X202707494Y-112195500D01*
X202707501Y-112195500D01*
X206502499Y-112195500D01*
X206502506Y-112195500D01*
X206794993Y-112156993D01*
X207079952Y-112080639D01*
X207352507Y-111967743D01*
X207607994Y-111820238D01*
X207842042Y-111640646D01*
X208050646Y-111432042D01*
X208230238Y-111197994D01*
X208377743Y-110942507D01*
X208490639Y-110669952D01*
X208566993Y-110384993D01*
X208605500Y-110092506D01*
X208605500Y-109797494D01*
X208566993Y-109505007D01*
X208490639Y-109220048D01*
X208377743Y-108947493D01*
X208308239Y-108827109D01*
X208230238Y-108692006D01*
X208050647Y-108457959D01*
X208050641Y-108457952D01*
X207842047Y-108249358D01*
X207842040Y-108249352D01*
X207607993Y-108069761D01*
X207352510Y-107922258D01*
X207352500Y-107922254D01*
X207079961Y-107809364D01*
X207079954Y-107809362D01*
X207079952Y-107809361D01*
X206794993Y-107733007D01*
X206737972Y-107725500D01*
X206502513Y-107694500D01*
X206502506Y-107694500D01*
X202707494Y-107694500D01*
X202707486Y-107694500D01*
X202429085Y-107731153D01*
X202415007Y-107733007D01*
X202284403Y-107768002D01*
X202130048Y-107809361D01*
X202130038Y-107809364D01*
X201857499Y-107922254D01*
X201857489Y-107922258D01*
X201602006Y-108069761D01*
X201367959Y-108249352D01*
X201367952Y-108249358D01*
X201159358Y-108457952D01*
X201159352Y-108457959D01*
X200979761Y-108692006D01*
X200832258Y-108947489D01*
X200832254Y-108947499D01*
X200719364Y-109220038D01*
X200719361Y-109220048D01*
X200643008Y-109505004D01*
X200643006Y-109505015D01*
X200604500Y-109797486D01*
X200604500Y-110092513D01*
X179550000Y-110092513D01*
X179550000Y-109450000D01*
X178633012Y-109450000D01*
X178665925Y-109392993D01*
X178700000Y-109265826D01*
X178700000Y-109134174D01*
X178665925Y-109007007D01*
X178633012Y-108950000D01*
X179550000Y-108950000D01*
X179550000Y-108302172D01*
X179549999Y-108302155D01*
X179543598Y-108242627D01*
X179543596Y-108242620D01*
X179493354Y-108107913D01*
X179493350Y-108107906D01*
X179407190Y-107992812D01*
X179407187Y-107992809D01*
X179292093Y-107906649D01*
X179292086Y-107906645D01*
X179157379Y-107856403D01*
X179157372Y-107856401D01*
X179097844Y-107850000D01*
X178450000Y-107850000D01*
X178450000Y-108766988D01*
X178392993Y-108734075D01*
X178265826Y-108700000D01*
X178134174Y-108700000D01*
X178007007Y-108734075D01*
X177950000Y-108766988D01*
X177950000Y-107850000D01*
X177302155Y-107850000D01*
X177242627Y-107856401D01*
X177242620Y-107856403D01*
X177107913Y-107906645D01*
X177107906Y-107906649D01*
X176992812Y-107992809D01*
X176992809Y-107992812D01*
X176906649Y-108107906D01*
X176906645Y-108107913D01*
X176856403Y-108242620D01*
X176856401Y-108242627D01*
X176850000Y-108302155D01*
X176850000Y-108950000D01*
X177766988Y-108950000D01*
X177734075Y-109007007D01*
X177700000Y-109134174D01*
X177700000Y-109265826D01*
X177734075Y-109392993D01*
X177766988Y-109450000D01*
X176850000Y-109450000D01*
X176850000Y-110097844D01*
X173336745Y-110097844D01*
X177572771Y-105861819D01*
X177634094Y-105828334D01*
X177660452Y-105825500D01*
X190641607Y-105825500D01*
X190702029Y-105813481D01*
X190762452Y-105801463D01*
X190796842Y-105787218D01*
X190876286Y-105754312D01*
X190927509Y-105720084D01*
X190978733Y-105685858D01*
X191065858Y-105598733D01*
X191065858Y-105598731D01*
X191076066Y-105588524D01*
X191076067Y-105588521D01*
X194434354Y-102230235D01*
X194495675Y-102196752D01*
X194554123Y-102198142D01*
X194654592Y-102225063D01*
X194825319Y-102240000D01*
X194889999Y-102245659D01*
X194890000Y-102245659D01*
X194890001Y-102245659D01*
X194954681Y-102240000D01*
X195125408Y-102225063D01*
X195353663Y-102163903D01*
X195567830Y-102064035D01*
X195761401Y-101928495D01*
X195928495Y-101761401D01*
X196058425Y-101575842D01*
X196113002Y-101532217D01*
X196182500Y-101525023D01*
X196244855Y-101556546D01*
X196261575Y-101575842D01*
X196391500Y-101761395D01*
X196391505Y-101761401D01*
X196558599Y-101928495D01*
X196655384Y-101996265D01*
X196752165Y-102064032D01*
X196752167Y-102064033D01*
X196752170Y-102064035D01*
X196966337Y-102163903D01*
X196966343Y-102163904D01*
X196966344Y-102163905D01*
X197021285Y-102178626D01*
X197194592Y-102225063D01*
X197365319Y-102240000D01*
X197429999Y-102245659D01*
X197430000Y-102245659D01*
X197430001Y-102245659D01*
X197494681Y-102240000D01*
X197665408Y-102225063D01*
X197893663Y-102163903D01*
X198107830Y-102064035D01*
X198301401Y-101928495D01*
X198468495Y-101761401D01*
X198598425Y-101575842D01*
X198653002Y-101532217D01*
X198722500Y-101525023D01*
X198784855Y-101556546D01*
X198801575Y-101575842D01*
X198931500Y-101761395D01*
X198931505Y-101761401D01*
X199098599Y-101928495D01*
X199195384Y-101996265D01*
X199292165Y-102064032D01*
X199292167Y-102064033D01*
X199292170Y-102064035D01*
X199506337Y-102163903D01*
X199506343Y-102163904D01*
X199506344Y-102163905D01*
X199561285Y-102178626D01*
X199734592Y-102225063D01*
X199905319Y-102240000D01*
X199969999Y-102245659D01*
X199970000Y-102245659D01*
X199970001Y-102245659D01*
X200034681Y-102240000D01*
X200205408Y-102225063D01*
X200433663Y-102163903D01*
X200647830Y-102064035D01*
X200841401Y-101928495D01*
X201008495Y-101761401D01*
X201138425Y-101575842D01*
X201193002Y-101532217D01*
X201262500Y-101525023D01*
X201324855Y-101556546D01*
X201341575Y-101575842D01*
X201471500Y-101761395D01*
X201471505Y-101761401D01*
X201638599Y-101928495D01*
X201735384Y-101996265D01*
X201832165Y-102064032D01*
X201832167Y-102064033D01*
X201832170Y-102064035D01*
X202046337Y-102163903D01*
X202046343Y-102163904D01*
X202046344Y-102163905D01*
X202101285Y-102178626D01*
X202274592Y-102225063D01*
X202445319Y-102240000D01*
X202509999Y-102245659D01*
X202510000Y-102245659D01*
X202510001Y-102245659D01*
X202574681Y-102240000D01*
X202745408Y-102225063D01*
X202973663Y-102163903D01*
X203187830Y-102064035D01*
X203381401Y-101928495D01*
X203503717Y-101806178D01*
X203565036Y-101772696D01*
X203634728Y-101777680D01*
X203690662Y-101819551D01*
X203707577Y-101850528D01*
X203756646Y-101982088D01*
X203756649Y-101982093D01*
X203842809Y-102097187D01*
X203842812Y-102097190D01*
X203957906Y-102183350D01*
X203957913Y-102183354D01*
X204092620Y-102233596D01*
X204092627Y-102233598D01*
X204152155Y-102239999D01*
X204152172Y-102240000D01*
X204800000Y-102240000D01*
X204800000Y-101334560D01*
X204853147Y-101365245D01*
X204982857Y-101400000D01*
X205117143Y-101400000D01*
X205246853Y-101365245D01*
X205300000Y-101334560D01*
X205300000Y-102240000D01*
X205947828Y-102240000D01*
X205947844Y-102239999D01*
X206007372Y-102233598D01*
X206007379Y-102233596D01*
X206142086Y-102183354D01*
X206142093Y-102183350D01*
X206257187Y-102097190D01*
X206257190Y-102097187D01*
X206343350Y-101982093D01*
X206343354Y-101982086D01*
X206392422Y-101850529D01*
X206434293Y-101794595D01*
X206499757Y-101770178D01*
X206568030Y-101785030D01*
X206596285Y-101806181D01*
X206718599Y-101928495D01*
X206815384Y-101996265D01*
X206912165Y-102064032D01*
X206912167Y-102064033D01*
X206912170Y-102064035D01*
X207126337Y-102163903D01*
X207126343Y-102163904D01*
X207126344Y-102163905D01*
X207181285Y-102178626D01*
X207354592Y-102225063D01*
X207525319Y-102240000D01*
X207589999Y-102245659D01*
X207590000Y-102245659D01*
X207590001Y-102245659D01*
X207654681Y-102240000D01*
X207825408Y-102225063D01*
X208053663Y-102163903D01*
X208267830Y-102064035D01*
X208461401Y-101928495D01*
X208628495Y-101761401D01*
X208758425Y-101575842D01*
X208813002Y-101532217D01*
X208882500Y-101525023D01*
X208944855Y-101556546D01*
X208961575Y-101575842D01*
X209091500Y-101761395D01*
X209091505Y-101761401D01*
X209258599Y-101928495D01*
X209355384Y-101996265D01*
X209452165Y-102064032D01*
X209452167Y-102064033D01*
X209452170Y-102064035D01*
X209666337Y-102163903D01*
X209666343Y-102163904D01*
X209666344Y-102163905D01*
X209721285Y-102178626D01*
X209894592Y-102225063D01*
X210065319Y-102240000D01*
X210129999Y-102245659D01*
X210130000Y-102245659D01*
X210130001Y-102245659D01*
X210194681Y-102240000D01*
X210365408Y-102225063D01*
X210593663Y-102163903D01*
X210807830Y-102064035D01*
X211001401Y-101928495D01*
X211168495Y-101761401D01*
X211304035Y-101567830D01*
X211403903Y-101353663D01*
X211465063Y-101125408D01*
X211485659Y-100890000D01*
X211465063Y-100654592D01*
X211403903Y-100426337D01*
X211304035Y-100212171D01*
X211298425Y-100204158D01*
X211168494Y-100018597D01*
X211001402Y-99851506D01*
X211001395Y-99851501D01*
X210807834Y-99715967D01*
X210807830Y-99715965D01*
X210736727Y-99682809D01*
X210593663Y-99616097D01*
X210593659Y-99616096D01*
X210593655Y-99616094D01*
X210365413Y-99554938D01*
X210365403Y-99554936D01*
X210130001Y-99534341D01*
X210129999Y-99534341D01*
X209894596Y-99554936D01*
X209894586Y-99554938D01*
X209666344Y-99616094D01*
X209666335Y-99616098D01*
X209452171Y-99715964D01*
X209452169Y-99715965D01*
X209258597Y-99851505D01*
X209091505Y-100018597D01*
X208961575Y-100204158D01*
X208906998Y-100247783D01*
X208837500Y-100254977D01*
X208775145Y-100223454D01*
X208758425Y-100204158D01*
X208628494Y-100018597D01*
X208461402Y-99851506D01*
X208461395Y-99851501D01*
X208267834Y-99715967D01*
X208267830Y-99715965D01*
X208196727Y-99682809D01*
X208053663Y-99616097D01*
X208053659Y-99616096D01*
X208053655Y-99616094D01*
X207825413Y-99554938D01*
X207825403Y-99554936D01*
X207590001Y-99534341D01*
X207589999Y-99534341D01*
X207354596Y-99554936D01*
X207354586Y-99554938D01*
X207126344Y-99616094D01*
X207126335Y-99616098D01*
X206912171Y-99715964D01*
X206912169Y-99715965D01*
X206718600Y-99851503D01*
X206596284Y-99973819D01*
X206534961Y-100007303D01*
X206465269Y-100002319D01*
X206409336Y-99960447D01*
X206392421Y-99929470D01*
X206343354Y-99797913D01*
X206343350Y-99797906D01*
X206257190Y-99682812D01*
X206257187Y-99682809D01*
X206142093Y-99596649D01*
X206142086Y-99596645D01*
X206007379Y-99546403D01*
X206007372Y-99546401D01*
X205947844Y-99540000D01*
X205300000Y-99540000D01*
X205300000Y-100445439D01*
X205246853Y-100414755D01*
X205117143Y-100380000D01*
X204982857Y-100380000D01*
X204853147Y-100414755D01*
X204800000Y-100445439D01*
X204800000Y-99540000D01*
X204152155Y-99540000D01*
X204092627Y-99546401D01*
X204092620Y-99546403D01*
X203957913Y-99596645D01*
X203957906Y-99596649D01*
X203842812Y-99682809D01*
X203842809Y-99682812D01*
X203756649Y-99797906D01*
X203756645Y-99797913D01*
X203707578Y-99929470D01*
X203665707Y-99985404D01*
X203600242Y-100009821D01*
X203531969Y-99994969D01*
X203503715Y-99973819D01*
X203459366Y-99929470D01*
X203381401Y-99851505D01*
X203381397Y-99851502D01*
X203381396Y-99851501D01*
X203187834Y-99715967D01*
X203187830Y-99715965D01*
X203116727Y-99682809D01*
X202973663Y-99616097D01*
X202973659Y-99616096D01*
X202973655Y-99616094D01*
X202745413Y-99554938D01*
X202745403Y-99554936D01*
X202510001Y-99534341D01*
X202509999Y-99534341D01*
X202274596Y-99554936D01*
X202274586Y-99554938D01*
X202046344Y-99616094D01*
X202046335Y-99616098D01*
X201832171Y-99715964D01*
X201832169Y-99715965D01*
X201638597Y-99851505D01*
X201471505Y-100018597D01*
X201341575Y-100204158D01*
X201286998Y-100247783D01*
X201217500Y-100254977D01*
X201155145Y-100223454D01*
X201138425Y-100204158D01*
X201008494Y-100018597D01*
X200841402Y-99851506D01*
X200841395Y-99851501D01*
X200647834Y-99715967D01*
X200647830Y-99715965D01*
X200576727Y-99682809D01*
X200433663Y-99616097D01*
X200433659Y-99616096D01*
X200433655Y-99616094D01*
X200205413Y-99554938D01*
X200205403Y-99554936D01*
X199970001Y-99534341D01*
X199969999Y-99534341D01*
X199734596Y-99554936D01*
X199734586Y-99554938D01*
X199506344Y-99616094D01*
X199506335Y-99616098D01*
X199292171Y-99715964D01*
X199292169Y-99715965D01*
X199098597Y-99851505D01*
X198931505Y-100018597D01*
X198801575Y-100204158D01*
X198746998Y-100247783D01*
X198677500Y-100254977D01*
X198615145Y-100223454D01*
X198598425Y-100204158D01*
X198468494Y-100018597D01*
X198301402Y-99851506D01*
X198301395Y-99851501D01*
X198107834Y-99715967D01*
X198107830Y-99715965D01*
X198036727Y-99682809D01*
X197893663Y-99616097D01*
X197893659Y-99616096D01*
X197893655Y-99616094D01*
X197665413Y-99554938D01*
X197665403Y-99554936D01*
X197430001Y-99534341D01*
X197429999Y-99534341D01*
X197194596Y-99554936D01*
X197194586Y-99554938D01*
X196966344Y-99616094D01*
X196966335Y-99616098D01*
X196752171Y-99715964D01*
X196752169Y-99715965D01*
X196558597Y-99851505D01*
X196391505Y-100018597D01*
X196261575Y-100204158D01*
X196206998Y-100247783D01*
X196137500Y-100254977D01*
X196075145Y-100223454D01*
X196058425Y-100204158D01*
X195928494Y-100018597D01*
X195761402Y-99851506D01*
X195761395Y-99851501D01*
X195567834Y-99715967D01*
X195567830Y-99715965D01*
X195496727Y-99682809D01*
X195353663Y-99616097D01*
X195353659Y-99616096D01*
X195353655Y-99616094D01*
X195125413Y-99554938D01*
X195125403Y-99554936D01*
X194890001Y-99534341D01*
X194889999Y-99534341D01*
X194654596Y-99554936D01*
X194654586Y-99554938D01*
X194426344Y-99616094D01*
X194426335Y-99616098D01*
X194212171Y-99715964D01*
X194212169Y-99715965D01*
X194018600Y-99851503D01*
X193896284Y-99973819D01*
X193834961Y-100007303D01*
X193765269Y-100002319D01*
X193709336Y-99960447D01*
X193692421Y-99929470D01*
X193643354Y-99797913D01*
X193643350Y-99797906D01*
X193557190Y-99682812D01*
X193557187Y-99682809D01*
X193442093Y-99596649D01*
X193442086Y-99596645D01*
X193307379Y-99546403D01*
X193307372Y-99546401D01*
X193247844Y-99540000D01*
X192600000Y-99540000D01*
X192600000Y-100445439D01*
X192546853Y-100414755D01*
X192417143Y-100380000D01*
X192282857Y-100380000D01*
X192153147Y-100414755D01*
X192100000Y-100445439D01*
X192100000Y-99540000D01*
X191452155Y-99540000D01*
X191392627Y-99546401D01*
X191392620Y-99546403D01*
X191257913Y-99596645D01*
X191257906Y-99596649D01*
X191142812Y-99682809D01*
X191142809Y-99682812D01*
X191056649Y-99797906D01*
X191056645Y-99797913D01*
X191007578Y-99929470D01*
X190965707Y-99985404D01*
X190900242Y-100009821D01*
X190831969Y-99994969D01*
X190803715Y-99973819D01*
X190759366Y-99929470D01*
X190681401Y-99851505D01*
X190681397Y-99851502D01*
X190681396Y-99851501D01*
X190487834Y-99715967D01*
X190487830Y-99715965D01*
X190416727Y-99682809D01*
X190273663Y-99616097D01*
X190273659Y-99616096D01*
X190273655Y-99616094D01*
X190045413Y-99554938D01*
X190045403Y-99554936D01*
X189810001Y-99534341D01*
X189809999Y-99534341D01*
X189574596Y-99554936D01*
X189574586Y-99554938D01*
X189346344Y-99616094D01*
X189346335Y-99616098D01*
X189132171Y-99715964D01*
X189132169Y-99715965D01*
X188938597Y-99851505D01*
X188771505Y-100018597D01*
X188641575Y-100204158D01*
X188586998Y-100247783D01*
X188517500Y-100254977D01*
X188455145Y-100223454D01*
X188438425Y-100204158D01*
X188308494Y-100018597D01*
X188141402Y-99851506D01*
X188141395Y-99851501D01*
X187947834Y-99715967D01*
X187947830Y-99715965D01*
X187876727Y-99682809D01*
X187733663Y-99616097D01*
X187733659Y-99616096D01*
X187733655Y-99616094D01*
X187505413Y-99554938D01*
X187505403Y-99554936D01*
X187270001Y-99534341D01*
X187269999Y-99534341D01*
X187034596Y-99554936D01*
X187034586Y-99554938D01*
X186806344Y-99616094D01*
X186806335Y-99616098D01*
X186592171Y-99715964D01*
X186592169Y-99715965D01*
X186398597Y-99851505D01*
X186231505Y-100018597D01*
X186101575Y-100204158D01*
X186046998Y-100247783D01*
X185977500Y-100254977D01*
X185915145Y-100223454D01*
X185898425Y-100204158D01*
X185768494Y-100018597D01*
X185601402Y-99851506D01*
X185601395Y-99851501D01*
X185407834Y-99715967D01*
X185407830Y-99715965D01*
X185336727Y-99682809D01*
X185193663Y-99616097D01*
X185193659Y-99616096D01*
X185193655Y-99616094D01*
X184965413Y-99554938D01*
X184965403Y-99554936D01*
X184730001Y-99534341D01*
X184729999Y-99534341D01*
X184494596Y-99554936D01*
X184494586Y-99554938D01*
X184266344Y-99616094D01*
X184266335Y-99616098D01*
X184052171Y-99715964D01*
X184052169Y-99715965D01*
X183858597Y-99851505D01*
X183691505Y-100018597D01*
X183561575Y-100204158D01*
X183506998Y-100247783D01*
X183437500Y-100254977D01*
X183375145Y-100223454D01*
X183358425Y-100204158D01*
X183228494Y-100018597D01*
X183061402Y-99851506D01*
X183061395Y-99851501D01*
X182867834Y-99715967D01*
X182867830Y-99715965D01*
X182796727Y-99682809D01*
X182653663Y-99616097D01*
X182653659Y-99616096D01*
X182653655Y-99616094D01*
X182425413Y-99554938D01*
X182425403Y-99554936D01*
X182190001Y-99534341D01*
X182189999Y-99534341D01*
X181954596Y-99554936D01*
X181954586Y-99554938D01*
X181726344Y-99616094D01*
X181726335Y-99616098D01*
X181512171Y-99715964D01*
X181512169Y-99715965D01*
X181318600Y-99851503D01*
X181196284Y-99973819D01*
X181134961Y-100007303D01*
X181065269Y-100002319D01*
X181009336Y-99960447D01*
X180992421Y-99929470D01*
X180943354Y-99797913D01*
X180943350Y-99797906D01*
X180857190Y-99682812D01*
X180857187Y-99682809D01*
X180742093Y-99596649D01*
X180742086Y-99596645D01*
X180607379Y-99546403D01*
X180607372Y-99546401D01*
X180547844Y-99540000D01*
X179900000Y-99540000D01*
X179900000Y-100445439D01*
X179846853Y-100414755D01*
X179717143Y-100380000D01*
X179582857Y-100380000D01*
X179453147Y-100414755D01*
X179400000Y-100445439D01*
X179400000Y-99540000D01*
X178752155Y-99540000D01*
X178692627Y-99546401D01*
X178692620Y-99546403D01*
X178557913Y-99596645D01*
X178557906Y-99596649D01*
X178442812Y-99682809D01*
X178442809Y-99682812D01*
X178356649Y-99797906D01*
X178356645Y-99797913D01*
X178307578Y-99929470D01*
X178265707Y-99985404D01*
X178200242Y-100009821D01*
X178131969Y-99994969D01*
X178103715Y-99973819D01*
X178059366Y-99929470D01*
X177981401Y-99851505D01*
X177981397Y-99851502D01*
X177981396Y-99851501D01*
X177787834Y-99715967D01*
X177787830Y-99715965D01*
X177716727Y-99682809D01*
X177573663Y-99616097D01*
X177573659Y-99616096D01*
X177573655Y-99616094D01*
X177345413Y-99554938D01*
X177345403Y-99554936D01*
X177110001Y-99534341D01*
X177109999Y-99534341D01*
X176874596Y-99554936D01*
X176874586Y-99554938D01*
X176646344Y-99616094D01*
X176646335Y-99616098D01*
X176432171Y-99715964D01*
X176432169Y-99715965D01*
X176238597Y-99851505D01*
X176071505Y-100018597D01*
X175941575Y-100204158D01*
X175886998Y-100247783D01*
X175817500Y-100254977D01*
X175755145Y-100223454D01*
X175738425Y-100204158D01*
X175608494Y-100018597D01*
X175441402Y-99851506D01*
X175441395Y-99851501D01*
X175247834Y-99715967D01*
X175247830Y-99715965D01*
X175176727Y-99682809D01*
X175033663Y-99616097D01*
X175033659Y-99616096D01*
X175033655Y-99616094D01*
X174805413Y-99554938D01*
X174805403Y-99554936D01*
X174570001Y-99534341D01*
X174569999Y-99534341D01*
X174334596Y-99554936D01*
X174334586Y-99554938D01*
X174106344Y-99616094D01*
X174106335Y-99616098D01*
X173892171Y-99715964D01*
X173892169Y-99715965D01*
X173698597Y-99851505D01*
X173531505Y-100018597D01*
X173401575Y-100204158D01*
X173346998Y-100247783D01*
X173277500Y-100254977D01*
X173215145Y-100223454D01*
X173198425Y-100204158D01*
X173068494Y-100018597D01*
X172901402Y-99851506D01*
X172901395Y-99851501D01*
X172707834Y-99715967D01*
X172707830Y-99715965D01*
X172636727Y-99682809D01*
X172493663Y-99616097D01*
X172493659Y-99616096D01*
X172493655Y-99616094D01*
X172265413Y-99554938D01*
X172265403Y-99554936D01*
X172030001Y-99534341D01*
X172029999Y-99534341D01*
X171794596Y-99554936D01*
X171794586Y-99554938D01*
X171566344Y-99616094D01*
X171566335Y-99616098D01*
X171352171Y-99715964D01*
X171352169Y-99715965D01*
X171158597Y-99851505D01*
X170991505Y-100018597D01*
X170861575Y-100204158D01*
X170806998Y-100247783D01*
X170737500Y-100254977D01*
X170675145Y-100223454D01*
X170658425Y-100204158D01*
X170528494Y-100018597D01*
X170361402Y-99851506D01*
X170361395Y-99851501D01*
X170167834Y-99715967D01*
X170167830Y-99715965D01*
X170096727Y-99682809D01*
X169953663Y-99616097D01*
X169953659Y-99616096D01*
X169953655Y-99616094D01*
X169725413Y-99554938D01*
X169725403Y-99554936D01*
X169490001Y-99534341D01*
X169489999Y-99534341D01*
X169254596Y-99554936D01*
X169254586Y-99554938D01*
X169026344Y-99616094D01*
X169026335Y-99616098D01*
X168812171Y-99715964D01*
X168812169Y-99715965D01*
X168618600Y-99851503D01*
X168496284Y-99973819D01*
X168434961Y-100007303D01*
X168365269Y-100002319D01*
X168309336Y-99960447D01*
X168292421Y-99929470D01*
X168243354Y-99797913D01*
X168243350Y-99797906D01*
X168157190Y-99682812D01*
X168157187Y-99682809D01*
X168042093Y-99596649D01*
X168042086Y-99596645D01*
X167907379Y-99546403D01*
X167907372Y-99546401D01*
X167847844Y-99540000D01*
X167200000Y-99540000D01*
X167200000Y-100445439D01*
X167146853Y-100414755D01*
X167017143Y-100380000D01*
X166882857Y-100380000D01*
X166753147Y-100414755D01*
X166700000Y-100445439D01*
X166700000Y-99540000D01*
X166052155Y-99540000D01*
X165992627Y-99546401D01*
X165992620Y-99546403D01*
X165857913Y-99596645D01*
X165857906Y-99596649D01*
X165742812Y-99682809D01*
X165742809Y-99682812D01*
X165656649Y-99797906D01*
X165656645Y-99797913D01*
X165607578Y-99929470D01*
X165565707Y-99985404D01*
X165500242Y-100009821D01*
X165431969Y-99994969D01*
X165403715Y-99973819D01*
X165359366Y-99929470D01*
X165281401Y-99851505D01*
X165281397Y-99851502D01*
X165281396Y-99851501D01*
X165087834Y-99715967D01*
X165087830Y-99715965D01*
X165016727Y-99682809D01*
X164873663Y-99616097D01*
X164873659Y-99616096D01*
X164873655Y-99616094D01*
X164645413Y-99554938D01*
X164645403Y-99554936D01*
X164410001Y-99534341D01*
X164409999Y-99534341D01*
X164174596Y-99554936D01*
X164174586Y-99554938D01*
X163946344Y-99616094D01*
X163946335Y-99616098D01*
X163732171Y-99715964D01*
X163732169Y-99715965D01*
X163538597Y-99851505D01*
X163371505Y-100018597D01*
X163241575Y-100204158D01*
X163186998Y-100247783D01*
X163117500Y-100254977D01*
X163055145Y-100223454D01*
X163038425Y-100204158D01*
X162908494Y-100018597D01*
X162741402Y-99851506D01*
X162741395Y-99851501D01*
X162547834Y-99715967D01*
X162547830Y-99715965D01*
X162476727Y-99682809D01*
X162333663Y-99616097D01*
X162333659Y-99616096D01*
X162333655Y-99616094D01*
X162105413Y-99554938D01*
X162105403Y-99554936D01*
X161870001Y-99534341D01*
X161869999Y-99534341D01*
X161634596Y-99554936D01*
X161634586Y-99554938D01*
X161406344Y-99616094D01*
X161406335Y-99616098D01*
X161192171Y-99715964D01*
X161192169Y-99715965D01*
X160998597Y-99851505D01*
X160831505Y-100018597D01*
X160695965Y-100212169D01*
X160695964Y-100212171D01*
X160596098Y-100426335D01*
X160596094Y-100426344D01*
X160534938Y-100654586D01*
X160534936Y-100654596D01*
X160514341Y-100889999D01*
X160514341Y-100890000D01*
X160534936Y-101125403D01*
X160534938Y-101125413D01*
X160596094Y-101353655D01*
X160596096Y-101353659D01*
X160596097Y-101353663D01*
X160641020Y-101450000D01*
X160695965Y-101567830D01*
X160695967Y-101567834D01*
X160745280Y-101638259D01*
X160831505Y-101761401D01*
X160998599Y-101928495D01*
X161095384Y-101996265D01*
X161192165Y-102064032D01*
X161192167Y-102064033D01*
X161192170Y-102064035D01*
X161406337Y-102163903D01*
X161406343Y-102163904D01*
X161406344Y-102163905D01*
X161461285Y-102178626D01*
X161634592Y-102225063D01*
X161805319Y-102240000D01*
X161869999Y-102245659D01*
X161870000Y-102245659D01*
X161870001Y-102245659D01*
X161934681Y-102240000D01*
X162105408Y-102225063D01*
X162333663Y-102163903D01*
X162547830Y-102064035D01*
X162741401Y-101928495D01*
X162908495Y-101761401D01*
X163038425Y-101575842D01*
X163093002Y-101532217D01*
X163162500Y-101525023D01*
X163224855Y-101556546D01*
X163241575Y-101575842D01*
X163371501Y-101761396D01*
X163371506Y-101761402D01*
X163538597Y-101928493D01*
X163538603Y-101928498D01*
X163538913Y-101928715D01*
X163731624Y-102063653D01*
X163775248Y-102118228D01*
X163784500Y-102165226D01*
X163784500Y-105679545D01*
X163764815Y-105746584D01*
X163748181Y-105767226D01*
X160952229Y-108563179D01*
X160890906Y-108596664D01*
X160864548Y-108599498D01*
X160805354Y-108599498D01*
X160772897Y-108606396D01*
X160620197Y-108638853D01*
X160620192Y-108638855D01*
X160447270Y-108715846D01*
X160447265Y-108715849D01*
X160294129Y-108827109D01*
X160166650Y-108968689D01*
X160107163Y-109005338D01*
X160037306Y-109004007D01*
X159979258Y-108965121D01*
X159951448Y-108901024D01*
X159950500Y-108885717D01*
X159950500Y-94540000D01*
X160744341Y-94540000D01*
X160764936Y-94775403D01*
X160764938Y-94775413D01*
X160826094Y-95003655D01*
X160826096Y-95003659D01*
X160826097Y-95003663D01*
X160871253Y-95100500D01*
X160925965Y-95217830D01*
X160925967Y-95217834D01*
X161034281Y-95372521D01*
X161061505Y-95411401D01*
X161228599Y-95578495D01*
X161265848Y-95604577D01*
X161422165Y-95714032D01*
X161422167Y-95714033D01*
X161422170Y-95714035D01*
X161636337Y-95813903D01*
X161864592Y-95875063D01*
X162052918Y-95891539D01*
X162099999Y-95895659D01*
X162100000Y-95895659D01*
X162100001Y-95895659D01*
X162139234Y-95892226D01*
X162335408Y-95875063D01*
X162563663Y-95813903D01*
X162777830Y-95714035D01*
X162971401Y-95578495D01*
X163138495Y-95411401D01*
X163274035Y-95217830D01*
X163373903Y-95003663D01*
X163435063Y-94775408D01*
X163455659Y-94540000D01*
X163445598Y-94425002D01*
X205714723Y-94425002D01*
X205720733Y-94493695D01*
X205730664Y-94607216D01*
X205733793Y-94642975D01*
X205733793Y-94642979D01*
X205790422Y-94854322D01*
X205790424Y-94854326D01*
X205790425Y-94854330D01*
X205833090Y-94945825D01*
X205882897Y-95052638D01*
X205907998Y-95088486D01*
X206008402Y-95231877D01*
X206163123Y-95386598D01*
X206342361Y-95512102D01*
X206540670Y-95604575D01*
X206752023Y-95661207D01*
X206934926Y-95677208D01*
X206969998Y-95680277D01*
X206970000Y-95680277D01*
X206970002Y-95680277D01*
X206998254Y-95677805D01*
X207187977Y-95661207D01*
X207399330Y-95604575D01*
X207597639Y-95512102D01*
X207776877Y-95386598D01*
X207931598Y-95231877D01*
X208057102Y-95052639D01*
X208149575Y-94854330D01*
X208184227Y-94725006D01*
X208594700Y-94725006D01*
X208613864Y-94956297D01*
X208613866Y-94956308D01*
X208670842Y-95181300D01*
X208764075Y-95393848D01*
X208891016Y-95588147D01*
X208891019Y-95588151D01*
X208891021Y-95588153D01*
X209048216Y-95758913D01*
X209048219Y-95758915D01*
X209048222Y-95758918D01*
X209231365Y-95901464D01*
X209231371Y-95901468D01*
X209231374Y-95901470D01*
X209435497Y-96011936D01*
X209549487Y-96051068D01*
X209655015Y-96087297D01*
X209655017Y-96087297D01*
X209655019Y-96087298D01*
X209883951Y-96125500D01*
X209883952Y-96125500D01*
X210116048Y-96125500D01*
X210116049Y-96125500D01*
X210344981Y-96087298D01*
X210564503Y-96011936D01*
X210768626Y-95901470D01*
X210802557Y-95875061D01*
X210881130Y-95813905D01*
X210951784Y-95758913D01*
X211108979Y-95588153D01*
X211235924Y-95393849D01*
X211329157Y-95181300D01*
X211386134Y-94956305D01*
X211387002Y-94945828D01*
X211405300Y-94725006D01*
X211405300Y-94724993D01*
X211386135Y-94493702D01*
X211386133Y-94493691D01*
X211329157Y-94268699D01*
X211235924Y-94056151D01*
X211108983Y-93861852D01*
X211108980Y-93861849D01*
X211108979Y-93861847D01*
X210951784Y-93691087D01*
X210951779Y-93691083D01*
X210951777Y-93691081D01*
X210768634Y-93548535D01*
X210768628Y-93548531D01*
X210564504Y-93438064D01*
X210564495Y-93438061D01*
X210344984Y-93362702D01*
X210173282Y-93334050D01*
X210116049Y-93324500D01*
X209883951Y-93324500D01*
X209838164Y-93332140D01*
X209655015Y-93362702D01*
X209435504Y-93438061D01*
X209435495Y-93438064D01*
X209231371Y-93548531D01*
X209231365Y-93548535D01*
X209048222Y-93691081D01*
X209048219Y-93691084D01*
X209048216Y-93691086D01*
X209048216Y-93691087D01*
X209033829Y-93706716D01*
X208891016Y-93861852D01*
X208764075Y-94056151D01*
X208670842Y-94268699D01*
X208613866Y-94493691D01*
X208613864Y-94493702D01*
X208594700Y-94724993D01*
X208594700Y-94725006D01*
X208184227Y-94725006D01*
X208206207Y-94642977D01*
X208225277Y-94425000D01*
X208206207Y-94207023D01*
X208149575Y-93995670D01*
X208057102Y-93797362D01*
X208057100Y-93797359D01*
X208057099Y-93797357D01*
X207931599Y-93618124D01*
X207856259Y-93542784D01*
X207776877Y-93463402D01*
X207599009Y-93338857D01*
X207597638Y-93337897D01*
X207496740Y-93290848D01*
X207399330Y-93245425D01*
X207399326Y-93245424D01*
X207399322Y-93245422D01*
X207187977Y-93188793D01*
X206970002Y-93169723D01*
X206969998Y-93169723D01*
X206824682Y-93182436D01*
X206752023Y-93188793D01*
X206752020Y-93188793D01*
X206540677Y-93245422D01*
X206540668Y-93245426D01*
X206342361Y-93337898D01*
X206342357Y-93337900D01*
X206163121Y-93463402D01*
X206008402Y-93618121D01*
X205882900Y-93797357D01*
X205882898Y-93797361D01*
X205790426Y-93995668D01*
X205790422Y-93995677D01*
X205733793Y-94207020D01*
X205733793Y-94207024D01*
X205714723Y-94424997D01*
X205714723Y-94425002D01*
X163445598Y-94425002D01*
X163435063Y-94304592D01*
X163373903Y-94076337D01*
X163274035Y-93862171D01*
X163273808Y-93861847D01*
X163138496Y-93668600D01*
X163088017Y-93618121D01*
X163016179Y-93546283D01*
X162982696Y-93484963D01*
X162987680Y-93415271D01*
X163029551Y-93359337D01*
X163060529Y-93342422D01*
X163192086Y-93293354D01*
X163192093Y-93293350D01*
X163307187Y-93207190D01*
X163307190Y-93207187D01*
X163393350Y-93092093D01*
X163393354Y-93092086D01*
X163443596Y-92957379D01*
X163443598Y-92957372D01*
X163449999Y-92897844D01*
X163450000Y-92897827D01*
X163450000Y-92250000D01*
X162544560Y-92250000D01*
X162575245Y-92196853D01*
X162610000Y-92067143D01*
X162610000Y-91932857D01*
X162575245Y-91803147D01*
X162544560Y-91750000D01*
X163450000Y-91750000D01*
X163450000Y-91102172D01*
X163449999Y-91102155D01*
X163443598Y-91042627D01*
X163443596Y-91042620D01*
X163393354Y-90907913D01*
X163393350Y-90907906D01*
X163307190Y-90792812D01*
X163307187Y-90792809D01*
X163192093Y-90706649D01*
X163192088Y-90706646D01*
X163060528Y-90657577D01*
X163004595Y-90615705D01*
X162980178Y-90550241D01*
X162995030Y-90481968D01*
X163016175Y-90453720D01*
X163138495Y-90331401D01*
X163274035Y-90137830D01*
X163373903Y-89923663D01*
X163435063Y-89695408D01*
X163445598Y-89575000D01*
X205714723Y-89575000D01*
X205733247Y-89786740D01*
X205733793Y-89792975D01*
X205733793Y-89792979D01*
X205790422Y-90004322D01*
X205790424Y-90004326D01*
X205790425Y-90004330D01*
X205815196Y-90057452D01*
X205882897Y-90202638D01*
X205882898Y-90202639D01*
X206008402Y-90381877D01*
X206163123Y-90536598D01*
X206342361Y-90662102D01*
X206540670Y-90754575D01*
X206752023Y-90811207D01*
X206934926Y-90827208D01*
X206969998Y-90830277D01*
X206970000Y-90830277D01*
X206970002Y-90830277D01*
X206998254Y-90827805D01*
X207187977Y-90811207D01*
X207399330Y-90754575D01*
X207597639Y-90662102D01*
X207776877Y-90536598D01*
X207931598Y-90381877D01*
X208057102Y-90202639D01*
X208149575Y-90004330D01*
X208206207Y-89792977D01*
X208225277Y-89575000D01*
X208206207Y-89357023D01*
X208184231Y-89275006D01*
X208594700Y-89275006D01*
X208613864Y-89506297D01*
X208613866Y-89506308D01*
X208670842Y-89731300D01*
X208764075Y-89943848D01*
X208891016Y-90138147D01*
X208891019Y-90138151D01*
X208891021Y-90138153D01*
X209048216Y-90308913D01*
X209048219Y-90308915D01*
X209048222Y-90308918D01*
X209231365Y-90451464D01*
X209231371Y-90451468D01*
X209231374Y-90451470D01*
X209388667Y-90536593D01*
X209421403Y-90554309D01*
X209435497Y-90561936D01*
X209475008Y-90575500D01*
X209655015Y-90637297D01*
X209655017Y-90637297D01*
X209655019Y-90637298D01*
X209883951Y-90675500D01*
X209883952Y-90675500D01*
X210116048Y-90675500D01*
X210116049Y-90675500D01*
X210344981Y-90637298D01*
X210564503Y-90561936D01*
X210768626Y-90451470D01*
X210951784Y-90308913D01*
X211108979Y-90138153D01*
X211235924Y-89943849D01*
X211329157Y-89731300D01*
X211386134Y-89506305D01*
X211389971Y-89459999D01*
X211405300Y-89275006D01*
X211405300Y-89274993D01*
X211386135Y-89043702D01*
X211386133Y-89043691D01*
X211329157Y-88818699D01*
X211235924Y-88606151D01*
X211108983Y-88411852D01*
X211108980Y-88411849D01*
X211108979Y-88411847D01*
X210951784Y-88241087D01*
X210951779Y-88241083D01*
X210951777Y-88241081D01*
X210768634Y-88098535D01*
X210768628Y-88098531D01*
X210564504Y-87988064D01*
X210564495Y-87988061D01*
X210344984Y-87912702D01*
X210173282Y-87884050D01*
X210116049Y-87874500D01*
X209883951Y-87874500D01*
X209838164Y-87882140D01*
X209655015Y-87912702D01*
X209435504Y-87988061D01*
X209435495Y-87988064D01*
X209231371Y-88098531D01*
X209231365Y-88098535D01*
X209048222Y-88241081D01*
X209048219Y-88241084D01*
X208891016Y-88411852D01*
X208764075Y-88606151D01*
X208670842Y-88818699D01*
X208613866Y-89043691D01*
X208613864Y-89043702D01*
X208594700Y-89274993D01*
X208594700Y-89275006D01*
X208184231Y-89275006D01*
X208149575Y-89145670D01*
X208057102Y-88947362D01*
X208057100Y-88947359D01*
X208057099Y-88947357D01*
X207931599Y-88768124D01*
X207913475Y-88750000D01*
X207776877Y-88613402D01*
X207638978Y-88516844D01*
X207597638Y-88487897D01*
X207498484Y-88441661D01*
X207399330Y-88395425D01*
X207399326Y-88395424D01*
X207399322Y-88395422D01*
X207187977Y-88338793D01*
X206970002Y-88319723D01*
X206969998Y-88319723D01*
X206824682Y-88332436D01*
X206752023Y-88338793D01*
X206752020Y-88338793D01*
X206540677Y-88395422D01*
X206540668Y-88395426D01*
X206342361Y-88487898D01*
X206342357Y-88487900D01*
X206163121Y-88613402D01*
X206008402Y-88768121D01*
X205882900Y-88947357D01*
X205882898Y-88947361D01*
X205790426Y-89145668D01*
X205790422Y-89145677D01*
X205733793Y-89357020D01*
X205733793Y-89357024D01*
X205720733Y-89506308D01*
X205714723Y-89575000D01*
X163445598Y-89575000D01*
X163455659Y-89460000D01*
X163435063Y-89224592D01*
X163376818Y-89007216D01*
X163373905Y-88996344D01*
X163373904Y-88996343D01*
X163373903Y-88996337D01*
X163274035Y-88782171D01*
X163264200Y-88768124D01*
X163138494Y-88588597D01*
X162971402Y-88421506D01*
X162971395Y-88421501D01*
X162970148Y-88420628D01*
X162914585Y-88381722D01*
X162777834Y-88285967D01*
X162777830Y-88285965D01*
X162681589Y-88241087D01*
X162563663Y-88186097D01*
X162563659Y-88186096D01*
X162563655Y-88186094D01*
X162335413Y-88124938D01*
X162335403Y-88124936D01*
X162100001Y-88104341D01*
X162099999Y-88104341D01*
X161864596Y-88124936D01*
X161864586Y-88124938D01*
X161636344Y-88186094D01*
X161636335Y-88186098D01*
X161422171Y-88285964D01*
X161422169Y-88285965D01*
X161228597Y-88421505D01*
X161061505Y-88588597D01*
X160925965Y-88782169D01*
X160925964Y-88782171D01*
X160826098Y-88996335D01*
X160826094Y-88996344D01*
X160764938Y-89224586D01*
X160764936Y-89224596D01*
X160744341Y-89459999D01*
X160744341Y-89460000D01*
X160764936Y-89695403D01*
X160764938Y-89695413D01*
X160826094Y-89923655D01*
X160826096Y-89923659D01*
X160826097Y-89923663D01*
X160870500Y-90018885D01*
X160925965Y-90137830D01*
X160925967Y-90137834D01*
X161012723Y-90261733D01*
X161061501Y-90331396D01*
X161061506Y-90331402D01*
X161183818Y-90453714D01*
X161217303Y-90515037D01*
X161212319Y-90584729D01*
X161170447Y-90640662D01*
X161139471Y-90657577D01*
X161007912Y-90706646D01*
X161007906Y-90706649D01*
X160892812Y-90792809D01*
X160892809Y-90792812D01*
X160806649Y-90907906D01*
X160806645Y-90907913D01*
X160756403Y-91042620D01*
X160756401Y-91042627D01*
X160750000Y-91102155D01*
X160750000Y-91750000D01*
X161655440Y-91750000D01*
X161624755Y-91803147D01*
X161590000Y-91932857D01*
X161590000Y-92067143D01*
X161624755Y-92196853D01*
X161655440Y-92250000D01*
X160750000Y-92250000D01*
X160750000Y-92897844D01*
X160756401Y-92957372D01*
X160756403Y-92957379D01*
X160806645Y-93092086D01*
X160806649Y-93092093D01*
X160892809Y-93207187D01*
X160892812Y-93207190D01*
X161007906Y-93293350D01*
X161007913Y-93293354D01*
X161139470Y-93342421D01*
X161195403Y-93384292D01*
X161219821Y-93449756D01*
X161204970Y-93518029D01*
X161183819Y-93546284D01*
X161061503Y-93668600D01*
X160925965Y-93862169D01*
X160925964Y-93862171D01*
X160856219Y-94011740D01*
X160826721Y-94075000D01*
X160826098Y-94076335D01*
X160826094Y-94076344D01*
X160764938Y-94304586D01*
X160764936Y-94304596D01*
X160744341Y-94539999D01*
X160744341Y-94540000D01*
X159950500Y-94540000D01*
X159950500Y-82285452D01*
X159970185Y-82218413D01*
X159986819Y-82197771D01*
X161122772Y-81061819D01*
X161184095Y-81028334D01*
X161210453Y-81025500D01*
X171549548Y-81025500D01*
X171616587Y-81045185D01*
X171637229Y-81061819D01*
X172118070Y-81542660D01*
X172151555Y-81603983D01*
X172146571Y-81673675D01*
X172104699Y-81729608D01*
X172039235Y-81754025D01*
X172030389Y-81754341D01*
X172029999Y-81754341D01*
X171794596Y-81774936D01*
X171794586Y-81774938D01*
X171566344Y-81836094D01*
X171566335Y-81836098D01*
X171352171Y-81935964D01*
X171352169Y-81935965D01*
X171158597Y-82071505D01*
X170991505Y-82238597D01*
X170861575Y-82424158D01*
X170806998Y-82467783D01*
X170737500Y-82474977D01*
X170675145Y-82443454D01*
X170658425Y-82424158D01*
X170528494Y-82238597D01*
X170361402Y-82071506D01*
X170361395Y-82071501D01*
X170167834Y-81935967D01*
X170167830Y-81935965D01*
X170096727Y-81902809D01*
X169953663Y-81836097D01*
X169953659Y-81836096D01*
X169953655Y-81836094D01*
X169725413Y-81774938D01*
X169725403Y-81774936D01*
X169490001Y-81754341D01*
X169489999Y-81754341D01*
X169254596Y-81774936D01*
X169254586Y-81774938D01*
X169026344Y-81836094D01*
X169026335Y-81836098D01*
X168812171Y-81935964D01*
X168812169Y-81935965D01*
X168618600Y-82071503D01*
X168496284Y-82193819D01*
X168434961Y-82227303D01*
X168365269Y-82222319D01*
X168309336Y-82180447D01*
X168292421Y-82149470D01*
X168243354Y-82017913D01*
X168243350Y-82017906D01*
X168157190Y-81902812D01*
X168157187Y-81902809D01*
X168042093Y-81816649D01*
X168042086Y-81816645D01*
X167907379Y-81766403D01*
X167907372Y-81766401D01*
X167847844Y-81760000D01*
X167200000Y-81760000D01*
X167200000Y-82665439D01*
X167146853Y-82634755D01*
X167017143Y-82600000D01*
X166882857Y-82600000D01*
X166753147Y-82634755D01*
X166700000Y-82665439D01*
X166700000Y-81760000D01*
X166052155Y-81760000D01*
X165992627Y-81766401D01*
X165992620Y-81766403D01*
X165857913Y-81816645D01*
X165857906Y-81816649D01*
X165742812Y-81902809D01*
X165742809Y-81902812D01*
X165656649Y-82017906D01*
X165656645Y-82017913D01*
X165607578Y-82149470D01*
X165565707Y-82205404D01*
X165500242Y-82229821D01*
X165431969Y-82214969D01*
X165403715Y-82193819D01*
X165359366Y-82149470D01*
X165281401Y-82071505D01*
X165281397Y-82071502D01*
X165281396Y-82071501D01*
X165087834Y-81935967D01*
X165087830Y-81935965D01*
X165016727Y-81902809D01*
X164873663Y-81836097D01*
X164873659Y-81836096D01*
X164873655Y-81836094D01*
X164645413Y-81774938D01*
X164645403Y-81774936D01*
X164410001Y-81754341D01*
X164409999Y-81754341D01*
X164174596Y-81774936D01*
X164174586Y-81774938D01*
X163946344Y-81836094D01*
X163946335Y-81836098D01*
X163732171Y-81935964D01*
X163732169Y-81935965D01*
X163538597Y-82071505D01*
X163371505Y-82238597D01*
X163241575Y-82424158D01*
X163186998Y-82467783D01*
X163117500Y-82474977D01*
X163055145Y-82443454D01*
X163038425Y-82424158D01*
X162908494Y-82238597D01*
X162741402Y-82071506D01*
X162741395Y-82071501D01*
X162547834Y-81935967D01*
X162547830Y-81935965D01*
X162476727Y-81902809D01*
X162333663Y-81836097D01*
X162333659Y-81836096D01*
X162333655Y-81836094D01*
X162105413Y-81774938D01*
X162105403Y-81774936D01*
X161870001Y-81754341D01*
X161869999Y-81754341D01*
X161634596Y-81774936D01*
X161634586Y-81774938D01*
X161406344Y-81836094D01*
X161406335Y-81836098D01*
X161192171Y-81935964D01*
X161192169Y-81935965D01*
X160998597Y-82071505D01*
X160831505Y-82238597D01*
X160695965Y-82432169D01*
X160695964Y-82432171D01*
X160596098Y-82646335D01*
X160596094Y-82646344D01*
X160534938Y-82874586D01*
X160534936Y-82874596D01*
X160514341Y-83109999D01*
X160514341Y-83110000D01*
X160534936Y-83345403D01*
X160534938Y-83345413D01*
X160596094Y-83573655D01*
X160596096Y-83573659D01*
X160596097Y-83573663D01*
X160635183Y-83657482D01*
X160695965Y-83787830D01*
X160695967Y-83787834D01*
X160779790Y-83907544D01*
X160831505Y-83981401D01*
X160998599Y-84148495D01*
X161035737Y-84174499D01*
X161192165Y-84284032D01*
X161192167Y-84284033D01*
X161192170Y-84284035D01*
X161406337Y-84383903D01*
X161634592Y-84445063D01*
X161805319Y-84460000D01*
X161869999Y-84465659D01*
X161870000Y-84465659D01*
X161870001Y-84465659D01*
X161934681Y-84460000D01*
X162105408Y-84445063D01*
X162333663Y-84383903D01*
X162547830Y-84284035D01*
X162741401Y-84148495D01*
X162908495Y-83981401D01*
X163038425Y-83795842D01*
X163093002Y-83752217D01*
X163162500Y-83745023D01*
X163224855Y-83776546D01*
X163241575Y-83795842D01*
X163371500Y-83981395D01*
X163371505Y-83981401D01*
X163538599Y-84148495D01*
X163575737Y-84174499D01*
X163732165Y-84284032D01*
X163732167Y-84284033D01*
X163732170Y-84284035D01*
X163946337Y-84383903D01*
X164174592Y-84445063D01*
X164345319Y-84460000D01*
X164409999Y-84465659D01*
X164410000Y-84465659D01*
X164410001Y-84465659D01*
X164474681Y-84460000D01*
X164645408Y-84445063D01*
X164873663Y-84383903D01*
X165087830Y-84284035D01*
X165281401Y-84148495D01*
X165403717Y-84026178D01*
X165465036Y-83992696D01*
X165534728Y-83997680D01*
X165590662Y-84039551D01*
X165607577Y-84070528D01*
X165656646Y-84202088D01*
X165656649Y-84202093D01*
X165742809Y-84317187D01*
X165742812Y-84317190D01*
X165857906Y-84403350D01*
X165857913Y-84403354D01*
X165992620Y-84453596D01*
X165992627Y-84453598D01*
X166052155Y-84459999D01*
X166052172Y-84460000D01*
X166700000Y-84460000D01*
X166700000Y-83554560D01*
X166753147Y-83585245D01*
X166882857Y-83620000D01*
X167017143Y-83620000D01*
X167146853Y-83585245D01*
X167200000Y-83554560D01*
X167200000Y-84460000D01*
X167847828Y-84460000D01*
X167847844Y-84459999D01*
X167907372Y-84453598D01*
X167907379Y-84453596D01*
X168042086Y-84403354D01*
X168042093Y-84403350D01*
X168157187Y-84317190D01*
X168157190Y-84317187D01*
X168243350Y-84202093D01*
X168243354Y-84202086D01*
X168292422Y-84070529D01*
X168334293Y-84014595D01*
X168399757Y-83990178D01*
X168468030Y-84005030D01*
X168496285Y-84026181D01*
X168618599Y-84148495D01*
X168655737Y-84174499D01*
X168812165Y-84284032D01*
X168812167Y-84284033D01*
X168812170Y-84284035D01*
X169026337Y-84383903D01*
X169254592Y-84445063D01*
X169425319Y-84460000D01*
X169489999Y-84465659D01*
X169490000Y-84465659D01*
X169490001Y-84465659D01*
X169554681Y-84460000D01*
X169725408Y-84445063D01*
X169953663Y-84383903D01*
X170167830Y-84284035D01*
X170361401Y-84148495D01*
X170528495Y-83981401D01*
X170658425Y-83795842D01*
X170713002Y-83752217D01*
X170782500Y-83745023D01*
X170844855Y-83776546D01*
X170861575Y-83795842D01*
X170991500Y-83981395D01*
X170991505Y-83981401D01*
X171158599Y-84148495D01*
X171195737Y-84174499D01*
X171352165Y-84284032D01*
X171352167Y-84284033D01*
X171352170Y-84284035D01*
X171566337Y-84383903D01*
X171794592Y-84445063D01*
X171965319Y-84460000D01*
X172029999Y-84465659D01*
X172030000Y-84465659D01*
X172030001Y-84465659D01*
X172094681Y-84460000D01*
X172265408Y-84445063D01*
X172493663Y-84383903D01*
X172707830Y-84284035D01*
X172901401Y-84148495D01*
X173068495Y-83981401D01*
X173198425Y-83795842D01*
X173253002Y-83752217D01*
X173322500Y-83745023D01*
X173384855Y-83776546D01*
X173401575Y-83795842D01*
X173531500Y-83981395D01*
X173531505Y-83981401D01*
X173698599Y-84148495D01*
X173735737Y-84174499D01*
X173892165Y-84284032D01*
X173892167Y-84284033D01*
X173892170Y-84284035D01*
X174106337Y-84383903D01*
X174334592Y-84445063D01*
X174505319Y-84460000D01*
X174569999Y-84465659D01*
X174570000Y-84465659D01*
X174570001Y-84465659D01*
X174634681Y-84460000D01*
X174805408Y-84445063D01*
X175033663Y-84383903D01*
X175247830Y-84284035D01*
X175441401Y-84148495D01*
X175608495Y-83981401D01*
X175738425Y-83795842D01*
X175793002Y-83752217D01*
X175862500Y-83745023D01*
X175924855Y-83776546D01*
X175941575Y-83795842D01*
X176071500Y-83981395D01*
X176071505Y-83981401D01*
X176238599Y-84148495D01*
X176275737Y-84174499D01*
X176432165Y-84284032D01*
X176432167Y-84284033D01*
X176432170Y-84284035D01*
X176646337Y-84383903D01*
X176874592Y-84445063D01*
X177045319Y-84460000D01*
X177109999Y-84465659D01*
X177110000Y-84465659D01*
X177110001Y-84465659D01*
X177174681Y-84460000D01*
X177345408Y-84445063D01*
X177573663Y-84383903D01*
X177787830Y-84284035D01*
X177981401Y-84148495D01*
X178103717Y-84026178D01*
X178165036Y-83992696D01*
X178234728Y-83997680D01*
X178290662Y-84039551D01*
X178307577Y-84070528D01*
X178356646Y-84202088D01*
X178356649Y-84202093D01*
X178442809Y-84317187D01*
X178442812Y-84317190D01*
X178557906Y-84403350D01*
X178557913Y-84403354D01*
X178692620Y-84453596D01*
X178692627Y-84453598D01*
X178752155Y-84459999D01*
X178752172Y-84460000D01*
X179400000Y-84460000D01*
X179400000Y-83554560D01*
X179453147Y-83585245D01*
X179582857Y-83620000D01*
X179717143Y-83620000D01*
X179846853Y-83585245D01*
X179900000Y-83554560D01*
X179900000Y-84460000D01*
X180547828Y-84460000D01*
X180547844Y-84459999D01*
X180607372Y-84453598D01*
X180607379Y-84453596D01*
X180742086Y-84403354D01*
X180742093Y-84403350D01*
X180857187Y-84317190D01*
X180857190Y-84317187D01*
X180943350Y-84202093D01*
X180943354Y-84202086D01*
X180992422Y-84070529D01*
X181034293Y-84014595D01*
X181099757Y-83990178D01*
X181168030Y-84005030D01*
X181196285Y-84026181D01*
X181318599Y-84148495D01*
X181355737Y-84174499D01*
X181512165Y-84284032D01*
X181512167Y-84284033D01*
X181512170Y-84284035D01*
X181726337Y-84383903D01*
X181954592Y-84445063D01*
X182125319Y-84460000D01*
X182189999Y-84465659D01*
X182190000Y-84465659D01*
X182190001Y-84465659D01*
X182254681Y-84460000D01*
X182425408Y-84445063D01*
X182653663Y-84383903D01*
X182867830Y-84284035D01*
X183061401Y-84148495D01*
X183228495Y-83981401D01*
X183358425Y-83795842D01*
X183413002Y-83752217D01*
X183482500Y-83745023D01*
X183544855Y-83776546D01*
X183561575Y-83795842D01*
X183691500Y-83981395D01*
X183691505Y-83981401D01*
X183858599Y-84148495D01*
X183895737Y-84174499D01*
X184052165Y-84284032D01*
X184052167Y-84284033D01*
X184052170Y-84284035D01*
X184266337Y-84383903D01*
X184494592Y-84445063D01*
X184665319Y-84460000D01*
X184729999Y-84465659D01*
X184730000Y-84465659D01*
X184730001Y-84465659D01*
X184794681Y-84460000D01*
X184965408Y-84445063D01*
X185193663Y-84383903D01*
X185407830Y-84284035D01*
X185601401Y-84148495D01*
X185768495Y-83981401D01*
X185898425Y-83795842D01*
X185953002Y-83752217D01*
X186022500Y-83745023D01*
X186084855Y-83776546D01*
X186101575Y-83795842D01*
X186231500Y-83981395D01*
X186231505Y-83981401D01*
X186398599Y-84148495D01*
X186435737Y-84174499D01*
X186592165Y-84284032D01*
X186592167Y-84284033D01*
X186592170Y-84284035D01*
X186806337Y-84383903D01*
X187034592Y-84445063D01*
X187205319Y-84460000D01*
X187269999Y-84465659D01*
X187270000Y-84465659D01*
X187270001Y-84465659D01*
X187334681Y-84460000D01*
X187505408Y-84445063D01*
X187733663Y-84383903D01*
X187947830Y-84284035D01*
X188141401Y-84148495D01*
X188308495Y-83981401D01*
X188438425Y-83795842D01*
X188493002Y-83752217D01*
X188562500Y-83745023D01*
X188624855Y-83776546D01*
X188641575Y-83795842D01*
X188771500Y-83981395D01*
X188771505Y-83981401D01*
X188938599Y-84148495D01*
X188975737Y-84174499D01*
X189132165Y-84284032D01*
X189132167Y-84284033D01*
X189132170Y-84284035D01*
X189346337Y-84383903D01*
X189574592Y-84445063D01*
X189745319Y-84460000D01*
X189809999Y-84465659D01*
X189810000Y-84465659D01*
X189810001Y-84465659D01*
X189874681Y-84460000D01*
X190045408Y-84445063D01*
X190273663Y-84383903D01*
X190487830Y-84284035D01*
X190681401Y-84148495D01*
X190803717Y-84026178D01*
X190865036Y-83992696D01*
X190934728Y-83997680D01*
X190990662Y-84039551D01*
X191007577Y-84070528D01*
X191056646Y-84202088D01*
X191056649Y-84202093D01*
X191142809Y-84317187D01*
X191142812Y-84317190D01*
X191257906Y-84403350D01*
X191257913Y-84403354D01*
X191392620Y-84453596D01*
X191392627Y-84453598D01*
X191452155Y-84459999D01*
X191452172Y-84460000D01*
X192100000Y-84460000D01*
X192100000Y-83554560D01*
X192153147Y-83585245D01*
X192282857Y-83620000D01*
X192417143Y-83620000D01*
X192546853Y-83585245D01*
X192600000Y-83554560D01*
X192600000Y-84460000D01*
X193247828Y-84460000D01*
X193247844Y-84459999D01*
X193307372Y-84453598D01*
X193307379Y-84453596D01*
X193442086Y-84403354D01*
X193442093Y-84403350D01*
X193557187Y-84317190D01*
X193557190Y-84317187D01*
X193643350Y-84202093D01*
X193643354Y-84202086D01*
X193692422Y-84070529D01*
X193734293Y-84014595D01*
X193799757Y-83990178D01*
X193868030Y-84005030D01*
X193896285Y-84026181D01*
X194018599Y-84148495D01*
X194055737Y-84174499D01*
X194212165Y-84284032D01*
X194212167Y-84284033D01*
X194212170Y-84284035D01*
X194426337Y-84383903D01*
X194654592Y-84445063D01*
X194825319Y-84460000D01*
X194889999Y-84465659D01*
X194890000Y-84465659D01*
X194890001Y-84465659D01*
X194954681Y-84460000D01*
X195125408Y-84445063D01*
X195353663Y-84383903D01*
X195567830Y-84284035D01*
X195761401Y-84148495D01*
X195928495Y-83981401D01*
X196058425Y-83795842D01*
X196113002Y-83752217D01*
X196182500Y-83745023D01*
X196244855Y-83776546D01*
X196261575Y-83795842D01*
X196391500Y-83981395D01*
X196391505Y-83981401D01*
X196558599Y-84148495D01*
X196595737Y-84174499D01*
X196752165Y-84284032D01*
X196752167Y-84284033D01*
X196752170Y-84284035D01*
X196966337Y-84383903D01*
X197194592Y-84445063D01*
X197365319Y-84460000D01*
X197429999Y-84465659D01*
X197430000Y-84465659D01*
X197430001Y-84465659D01*
X197494681Y-84460000D01*
X197665408Y-84445063D01*
X197893663Y-84383903D01*
X198107830Y-84284035D01*
X198301401Y-84148495D01*
X198468495Y-83981401D01*
X198598425Y-83795842D01*
X198653002Y-83752217D01*
X198722500Y-83745023D01*
X198784855Y-83776546D01*
X198801575Y-83795842D01*
X198931500Y-83981395D01*
X198931505Y-83981401D01*
X199098599Y-84148495D01*
X199135737Y-84174499D01*
X199292165Y-84284032D01*
X199292167Y-84284033D01*
X199292170Y-84284035D01*
X199506337Y-84383903D01*
X199734592Y-84445063D01*
X199905319Y-84460000D01*
X199969999Y-84465659D01*
X199970000Y-84465659D01*
X199970001Y-84465659D01*
X200034681Y-84460000D01*
X200205408Y-84445063D01*
X200433663Y-84383903D01*
X200647830Y-84284035D01*
X200841401Y-84148495D01*
X201008495Y-83981401D01*
X201138425Y-83795842D01*
X201193002Y-83752217D01*
X201262500Y-83745023D01*
X201324855Y-83776546D01*
X201341575Y-83795842D01*
X201471500Y-83981395D01*
X201471505Y-83981401D01*
X201638599Y-84148495D01*
X201675737Y-84174499D01*
X201832165Y-84284032D01*
X201832167Y-84284033D01*
X201832170Y-84284035D01*
X202046337Y-84383903D01*
X202274592Y-84445063D01*
X202445319Y-84460000D01*
X202509999Y-84465659D01*
X202510000Y-84465659D01*
X202510001Y-84465659D01*
X202574681Y-84460000D01*
X202745408Y-84445063D01*
X202973663Y-84383903D01*
X203187830Y-84284035D01*
X203381401Y-84148495D01*
X203503717Y-84026178D01*
X203565036Y-83992696D01*
X203634728Y-83997680D01*
X203690662Y-84039551D01*
X203707577Y-84070528D01*
X203756646Y-84202088D01*
X203756649Y-84202093D01*
X203842809Y-84317187D01*
X203842812Y-84317190D01*
X203957906Y-84403350D01*
X203957913Y-84403354D01*
X204092620Y-84453596D01*
X204092627Y-84453598D01*
X204152155Y-84459999D01*
X204152172Y-84460000D01*
X204800000Y-84460000D01*
X204800000Y-83554560D01*
X204853147Y-83585245D01*
X204982857Y-83620000D01*
X205117143Y-83620000D01*
X205246853Y-83585245D01*
X205300000Y-83554560D01*
X205300000Y-84460000D01*
X205947828Y-84460000D01*
X205947844Y-84459999D01*
X206007372Y-84453598D01*
X206007379Y-84453596D01*
X206142086Y-84403354D01*
X206142093Y-84403350D01*
X206257187Y-84317190D01*
X206257190Y-84317187D01*
X206343350Y-84202093D01*
X206343354Y-84202086D01*
X206392422Y-84070529D01*
X206434293Y-84014595D01*
X206499757Y-83990178D01*
X206568030Y-84005030D01*
X206596285Y-84026181D01*
X206718599Y-84148495D01*
X206755737Y-84174499D01*
X206912165Y-84284032D01*
X206912167Y-84284033D01*
X206912170Y-84284035D01*
X207126337Y-84383903D01*
X207354592Y-84445063D01*
X207525319Y-84460000D01*
X207589999Y-84465659D01*
X207590000Y-84465659D01*
X207590001Y-84465659D01*
X207654681Y-84460000D01*
X207825408Y-84445063D01*
X208053663Y-84383903D01*
X208267830Y-84284035D01*
X208461401Y-84148495D01*
X208628495Y-83981401D01*
X208758425Y-83795842D01*
X208813002Y-83752217D01*
X208882500Y-83745023D01*
X208944855Y-83776546D01*
X208961575Y-83795842D01*
X209091500Y-83981395D01*
X209091505Y-83981401D01*
X209258599Y-84148495D01*
X209295737Y-84174499D01*
X209452165Y-84284032D01*
X209452167Y-84284033D01*
X209452170Y-84284035D01*
X209666337Y-84383903D01*
X209894592Y-84445063D01*
X210065319Y-84460000D01*
X210129999Y-84465659D01*
X210130000Y-84465659D01*
X210130001Y-84465659D01*
X210194681Y-84460000D01*
X210365408Y-84445063D01*
X210593663Y-84383903D01*
X210807830Y-84284035D01*
X211001401Y-84148495D01*
X211168495Y-83981401D01*
X211304035Y-83787830D01*
X211403903Y-83573663D01*
X211465063Y-83345408D01*
X211485659Y-83110000D01*
X211485525Y-83108474D01*
X211479785Y-83042857D01*
X211465063Y-82874592D01*
X211403903Y-82646337D01*
X211304035Y-82432171D01*
X211298425Y-82424158D01*
X211168494Y-82238597D01*
X211001402Y-82071506D01*
X211001395Y-82071501D01*
X210807834Y-81935967D01*
X210807830Y-81935965D01*
X210736727Y-81902809D01*
X210593663Y-81836097D01*
X210593659Y-81836096D01*
X210593655Y-81836094D01*
X210365413Y-81774938D01*
X210365403Y-81774936D01*
X210130001Y-81754341D01*
X210129999Y-81754341D01*
X209894596Y-81774936D01*
X209894586Y-81774938D01*
X209666344Y-81836094D01*
X209666335Y-81836098D01*
X209452171Y-81935964D01*
X209452169Y-81935965D01*
X209258597Y-82071505D01*
X209091505Y-82238597D01*
X208961575Y-82424158D01*
X208906998Y-82467783D01*
X208837500Y-82474977D01*
X208775145Y-82443454D01*
X208758425Y-82424158D01*
X208628494Y-82238597D01*
X208461402Y-82071506D01*
X208461395Y-82071501D01*
X208267834Y-81935967D01*
X208267830Y-81935965D01*
X208196727Y-81902809D01*
X208053663Y-81836097D01*
X208053659Y-81836096D01*
X208053655Y-81836094D01*
X207825413Y-81774938D01*
X207825403Y-81774936D01*
X207590001Y-81754341D01*
X207589999Y-81754341D01*
X207354596Y-81774936D01*
X207354586Y-81774938D01*
X207126344Y-81836094D01*
X207126335Y-81836098D01*
X206912171Y-81935964D01*
X206912169Y-81935965D01*
X206718600Y-82071503D01*
X206596284Y-82193819D01*
X206534961Y-82227303D01*
X206465269Y-82222319D01*
X206409336Y-82180447D01*
X206392421Y-82149470D01*
X206343354Y-82017913D01*
X206343350Y-82017906D01*
X206257190Y-81902812D01*
X206257187Y-81902809D01*
X206142093Y-81816649D01*
X206142086Y-81816645D01*
X206007379Y-81766403D01*
X206007372Y-81766401D01*
X205947844Y-81760000D01*
X205300000Y-81760000D01*
X205300000Y-82665439D01*
X205246853Y-82634755D01*
X205117143Y-82600000D01*
X204982857Y-82600000D01*
X204853147Y-82634755D01*
X204800000Y-82665439D01*
X204800000Y-81760000D01*
X204152155Y-81760000D01*
X204092627Y-81766401D01*
X204092620Y-81766403D01*
X203957913Y-81816645D01*
X203957906Y-81816649D01*
X203842812Y-81902809D01*
X203842809Y-81902812D01*
X203756649Y-82017906D01*
X203756645Y-82017913D01*
X203707578Y-82149470D01*
X203665707Y-82205404D01*
X203600242Y-82229821D01*
X203531969Y-82214969D01*
X203503715Y-82193819D01*
X203459366Y-82149470D01*
X203381401Y-82071505D01*
X203381397Y-82071502D01*
X203381396Y-82071501D01*
X203187834Y-81935967D01*
X203187830Y-81935965D01*
X203116727Y-81902809D01*
X202973663Y-81836097D01*
X202973659Y-81836096D01*
X202973655Y-81836094D01*
X202745413Y-81774938D01*
X202745403Y-81774936D01*
X202510001Y-81754341D01*
X202509999Y-81754341D01*
X202274596Y-81774936D01*
X202274586Y-81774938D01*
X202174126Y-81801856D01*
X202104276Y-81800193D01*
X202054352Y-81769762D01*
X196482434Y-76197844D01*
X203750000Y-76197844D01*
X203756401Y-76257372D01*
X203756403Y-76257379D01*
X203806645Y-76392086D01*
X203806649Y-76392093D01*
X203892809Y-76507187D01*
X203892812Y-76507190D01*
X204007906Y-76593350D01*
X204007913Y-76593354D01*
X204142620Y-76643596D01*
X204142627Y-76643598D01*
X204202155Y-76649999D01*
X204202172Y-76650000D01*
X204850000Y-76650000D01*
X204850000Y-75733012D01*
X204907007Y-75765925D01*
X205034174Y-75800000D01*
X205165826Y-75800000D01*
X205292993Y-75765925D01*
X205350000Y-75733012D01*
X205350000Y-76650000D01*
X205997828Y-76650000D01*
X205997844Y-76649999D01*
X206057372Y-76643598D01*
X206057379Y-76643596D01*
X206192086Y-76593354D01*
X206192093Y-76593350D01*
X206307187Y-76507190D01*
X206307190Y-76507187D01*
X206393350Y-76392093D01*
X206393354Y-76392086D01*
X206443596Y-76257379D01*
X206443598Y-76257372D01*
X206449999Y-76197844D01*
X206450000Y-76197827D01*
X206450000Y-75550000D01*
X205533012Y-75550000D01*
X205565925Y-75492993D01*
X205600000Y-75365826D01*
X205600000Y-75234174D01*
X205565925Y-75107007D01*
X205533012Y-75050000D01*
X206450000Y-75050000D01*
X206450000Y-74869489D01*
X208017972Y-74869489D01*
X208058818Y-75114272D01*
X208139394Y-75348982D01*
X208139399Y-75348992D01*
X208257504Y-75567232D01*
X208257510Y-75567241D01*
X208409927Y-75763066D01*
X208409930Y-75763070D01*
X208409932Y-75763072D01*
X208409933Y-75763073D01*
X208592512Y-75931149D01*
X208592514Y-75931150D01*
X208783400Y-76055863D01*
X208800265Y-76066881D01*
X209027526Y-76166567D01*
X209268095Y-76227487D01*
X209350533Y-76234318D01*
X209515404Y-76247981D01*
X209515410Y-76247981D01*
X209515416Y-76247981D01*
X209663799Y-76235684D01*
X209762725Y-76227487D01*
X210003294Y-76166567D01*
X210230555Y-76066881D01*
X210438308Y-75931149D01*
X210620887Y-75763073D01*
X210773312Y-75567238D01*
X210891424Y-75348986D01*
X210972002Y-75114269D01*
X211012848Y-74869491D01*
X211015410Y-74745410D01*
X211012848Y-74621329D01*
X210972002Y-74376551D01*
X210891424Y-74141834D01*
X210824624Y-74018399D01*
X210773315Y-73923587D01*
X210773309Y-73923578D01*
X210620892Y-73727753D01*
X210620889Y-73727749D01*
X210438309Y-73559672D01*
X210438305Y-73559669D01*
X210230556Y-73423939D01*
X210003294Y-73324253D01*
X209762721Y-73263332D01*
X209515416Y-73242840D01*
X209515404Y-73242840D01*
X209268098Y-73263332D01*
X209027525Y-73324253D01*
X208800263Y-73423939D01*
X208592514Y-73559669D01*
X208592510Y-73559672D01*
X208409930Y-73727749D01*
X208409927Y-73727753D01*
X208257510Y-73923578D01*
X208257504Y-73923587D01*
X208139399Y-74141827D01*
X208139394Y-74141837D01*
X208058818Y-74376547D01*
X208017972Y-74621330D01*
X208017972Y-74869489D01*
X206450000Y-74869489D01*
X206450000Y-74402172D01*
X206449999Y-74402155D01*
X206443598Y-74342627D01*
X206443596Y-74342620D01*
X206393354Y-74207913D01*
X206393350Y-74207906D01*
X206307190Y-74092812D01*
X206307187Y-74092809D01*
X206192093Y-74006649D01*
X206192086Y-74006645D01*
X206057379Y-73956403D01*
X206057372Y-73956401D01*
X205997844Y-73950000D01*
X205350000Y-73950000D01*
X205350000Y-74866988D01*
X205292993Y-74834075D01*
X205165826Y-74800000D01*
X205034174Y-74800000D01*
X204907007Y-74834075D01*
X204850000Y-74866988D01*
X204850000Y-73950000D01*
X204202155Y-73950000D01*
X204142627Y-73956401D01*
X204142620Y-73956403D01*
X204007913Y-74006645D01*
X204007906Y-74006649D01*
X203892812Y-74092809D01*
X203892809Y-74092812D01*
X203806649Y-74207906D01*
X203806645Y-74207913D01*
X203756403Y-74342620D01*
X203756401Y-74342627D01*
X203750000Y-74402155D01*
X203750000Y-75050000D01*
X204666988Y-75050000D01*
X204634075Y-75107007D01*
X204600000Y-75234174D01*
X204600000Y-75365826D01*
X204634075Y-75492993D01*
X204666988Y-75550000D01*
X203750000Y-75550000D01*
X203750000Y-76197844D01*
X196482434Y-76197844D01*
X192396271Y-72111681D01*
X192362786Y-72050358D01*
X192367770Y-71980666D01*
X192409642Y-71924733D01*
X192475106Y-71900316D01*
X192483952Y-71900000D01*
X210062892Y-71900000D01*
X210092567Y-71903603D01*
G37*
%TD.AperFunction*%
%TA.AperFunction,Conductor*%
G36*
X124783086Y-71919685D02*
G01*
X124828841Y-71972489D01*
X124838785Y-72041647D01*
X124809760Y-72105203D01*
X124803728Y-72111681D01*
X124101270Y-72814139D01*
X124101267Y-72814142D01*
X124057703Y-72857706D01*
X124014139Y-72901269D01*
X124014138Y-72901271D01*
X123981329Y-72950374D01*
X123981328Y-72950376D01*
X123945690Y-73003709D01*
X123945688Y-73003713D01*
X123945688Y-73003714D01*
X123925331Y-73052861D01*
X123898538Y-73117544D01*
X123898535Y-73117556D01*
X123874500Y-73238389D01*
X123874500Y-77051611D01*
X123876488Y-77061605D01*
X123876488Y-77061606D01*
X123898535Y-77172444D01*
X123898537Y-77172452D01*
X123912347Y-77205792D01*
X123912347Y-77205793D01*
X123945685Y-77286281D01*
X123945687Y-77286284D01*
X123977260Y-77333535D01*
X123977261Y-77333537D01*
X124014141Y-77388733D01*
X124105586Y-77480178D01*
X124105608Y-77480198D01*
X124761016Y-78135606D01*
X124761045Y-78135637D01*
X124851263Y-78225855D01*
X124851267Y-78225858D01*
X124944391Y-78288082D01*
X124989196Y-78341694D01*
X124999500Y-78391184D01*
X124999500Y-78637869D01*
X124999501Y-78637876D01*
X125005908Y-78697483D01*
X125056202Y-78832328D01*
X125056206Y-78832335D01*
X125142452Y-78947544D01*
X125142455Y-78947547D01*
X125257664Y-79033793D01*
X125257671Y-79033797D01*
X125392517Y-79084091D01*
X125392516Y-79084091D01*
X125397828Y-79084662D01*
X125452127Y-79090500D01*
X127247872Y-79090499D01*
X127307483Y-79084091D01*
X127442331Y-79033796D01*
X127557546Y-78947546D01*
X127643796Y-78832331D01*
X127692810Y-78700916D01*
X127734681Y-78644984D01*
X127800145Y-78620566D01*
X127868418Y-78635417D01*
X127896673Y-78656569D01*
X128018599Y-78778495D01*
X128115384Y-78846265D01*
X128212165Y-78914032D01*
X128212167Y-78914033D01*
X128212170Y-78914035D01*
X128426337Y-79013903D01*
X128426343Y-79013904D01*
X128426344Y-79013905D01*
X128467062Y-79024815D01*
X128654592Y-79075063D01*
X128831034Y-79090500D01*
X128889999Y-79095659D01*
X128890000Y-79095659D01*
X128890001Y-79095659D01*
X128948966Y-79090500D01*
X129125408Y-79075063D01*
X129353663Y-79013903D01*
X129567830Y-78914035D01*
X129761401Y-78778495D01*
X129928495Y-78611401D01*
X130058425Y-78425842D01*
X130113002Y-78382217D01*
X130182500Y-78375023D01*
X130244855Y-78406546D01*
X130261575Y-78425842D01*
X130391500Y-78611395D01*
X130391505Y-78611401D01*
X130558599Y-78778495D01*
X130655384Y-78846265D01*
X130752165Y-78914032D01*
X130752167Y-78914033D01*
X130752170Y-78914035D01*
X130966337Y-79013903D01*
X130966343Y-79013904D01*
X130966344Y-79013905D01*
X131007062Y-79024815D01*
X131194592Y-79075063D01*
X131371034Y-79090500D01*
X131429999Y-79095659D01*
X131430000Y-79095659D01*
X131430001Y-79095659D01*
X131488966Y-79090500D01*
X131665408Y-79075063D01*
X131893663Y-79013903D01*
X132107830Y-78914035D01*
X132301401Y-78778495D01*
X132468495Y-78611401D01*
X132598425Y-78425842D01*
X132653002Y-78382217D01*
X132722500Y-78375023D01*
X132784855Y-78406546D01*
X132801575Y-78425842D01*
X132931500Y-78611395D01*
X132931505Y-78611401D01*
X133098599Y-78778495D01*
X133195384Y-78846265D01*
X133292165Y-78914032D01*
X133292167Y-78914033D01*
X133292170Y-78914035D01*
X133506337Y-79013903D01*
X133506343Y-79013904D01*
X133506344Y-79013905D01*
X133547062Y-79024815D01*
X133734592Y-79075063D01*
X133911034Y-79090500D01*
X133969999Y-79095659D01*
X133970000Y-79095659D01*
X133970001Y-79095659D01*
X134028966Y-79090500D01*
X134205408Y-79075063D01*
X134433663Y-79013903D01*
X134647830Y-78914035D01*
X134841401Y-78778495D01*
X135008495Y-78611401D01*
X135138730Y-78425405D01*
X135193307Y-78381781D01*
X135262805Y-78374587D01*
X135325160Y-78406110D01*
X135341879Y-78425405D01*
X135471890Y-78611078D01*
X135638917Y-78778105D01*
X135832421Y-78913600D01*
X136046507Y-79013429D01*
X136046516Y-79013433D01*
X136260000Y-79070634D01*
X136260000Y-78173012D01*
X136317007Y-78205925D01*
X136444174Y-78240000D01*
X136575826Y-78240000D01*
X136702993Y-78205925D01*
X136760000Y-78173012D01*
X136760000Y-79070633D01*
X136973483Y-79013433D01*
X136973492Y-79013429D01*
X137187578Y-78913600D01*
X137381082Y-78778105D01*
X137548105Y-78611082D01*
X137678119Y-78425405D01*
X137732696Y-78381781D01*
X137802195Y-78374588D01*
X137864549Y-78406110D01*
X137881269Y-78425405D01*
X138011505Y-78611401D01*
X138178599Y-78778495D01*
X138275384Y-78846265D01*
X138372165Y-78914032D01*
X138372167Y-78914033D01*
X138372170Y-78914035D01*
X138586337Y-79013903D01*
X138586343Y-79013904D01*
X138586344Y-79013905D01*
X138627062Y-79024815D01*
X138814592Y-79075063D01*
X138991034Y-79090500D01*
X139049999Y-79095659D01*
X139050000Y-79095659D01*
X139050001Y-79095659D01*
X139108966Y-79090500D01*
X139285408Y-79075063D01*
X139513663Y-79013903D01*
X139727830Y-78914035D01*
X139921401Y-78778495D01*
X140088495Y-78611401D01*
X140218425Y-78425842D01*
X140273002Y-78382217D01*
X140342500Y-78375023D01*
X140404855Y-78406546D01*
X140421575Y-78425842D01*
X140551500Y-78611395D01*
X140551505Y-78611401D01*
X140718599Y-78778495D01*
X140815384Y-78846265D01*
X140912165Y-78914032D01*
X140912167Y-78914033D01*
X140912170Y-78914035D01*
X141126337Y-79013903D01*
X141126343Y-79013904D01*
X141126344Y-79013905D01*
X141167062Y-79024815D01*
X141354592Y-79075063D01*
X141531034Y-79090500D01*
X141589999Y-79095659D01*
X141590000Y-79095659D01*
X141590001Y-79095659D01*
X141648966Y-79090500D01*
X141825408Y-79075063D01*
X142053663Y-79013903D01*
X142267830Y-78914035D01*
X142461401Y-78778495D01*
X142628495Y-78611401D01*
X142758425Y-78425842D01*
X142813002Y-78382217D01*
X142882500Y-78375023D01*
X142944855Y-78406546D01*
X142961575Y-78425842D01*
X143091500Y-78611395D01*
X143091505Y-78611401D01*
X143258599Y-78778495D01*
X143355384Y-78846265D01*
X143452165Y-78914032D01*
X143452167Y-78914033D01*
X143452170Y-78914035D01*
X143524037Y-78947547D01*
X143627905Y-78995982D01*
X143680344Y-79042155D01*
X143699500Y-79108364D01*
X143699500Y-80925500D01*
X143679815Y-80992539D01*
X143627011Y-81038294D01*
X143575500Y-81049500D01*
X137138388Y-81049500D01*
X137017555Y-81073535D01*
X137017547Y-81073537D01*
X136903717Y-81120687D01*
X136866299Y-81145689D01*
X136801266Y-81189142D01*
X136801262Y-81189145D01*
X135562180Y-82428228D01*
X135500857Y-82461713D01*
X135431165Y-82456729D01*
X135375232Y-82414857D01*
X135350815Y-82349393D01*
X135350499Y-82340547D01*
X135350499Y-81802129D01*
X135350498Y-81802123D01*
X135350497Y-81802116D01*
X135344091Y-81742517D01*
X135339276Y-81729608D01*
X135293797Y-81607671D01*
X135293793Y-81607664D01*
X135207547Y-81492455D01*
X135207544Y-81492452D01*
X135092335Y-81406206D01*
X135092328Y-81406202D01*
X134957482Y-81355908D01*
X134957483Y-81355908D01*
X134897883Y-81349501D01*
X134897881Y-81349500D01*
X134897873Y-81349500D01*
X134897864Y-81349500D01*
X133102129Y-81349500D01*
X133102123Y-81349501D01*
X133042516Y-81355908D01*
X132907671Y-81406202D01*
X132907664Y-81406206D01*
X132792455Y-81492452D01*
X132792452Y-81492455D01*
X132706206Y-81607664D01*
X132706202Y-81607671D01*
X132655908Y-81742517D01*
X132649708Y-81800193D01*
X132649501Y-81802123D01*
X132649500Y-81802135D01*
X132649500Y-83597870D01*
X132649501Y-83597876D01*
X132655908Y-83657483D01*
X132706202Y-83792328D01*
X132706206Y-83792335D01*
X132792452Y-83907544D01*
X132792455Y-83907547D01*
X132907664Y-83993793D01*
X132907671Y-83993797D01*
X133042517Y-84044091D01*
X133042516Y-84044091D01*
X133049444Y-84044835D01*
X133102127Y-84050500D01*
X133855808Y-84050499D01*
X133922847Y-84070183D01*
X133968602Y-84122987D01*
X133978546Y-84192146D01*
X133977426Y-84198685D01*
X133974502Y-84213385D01*
X133974502Y-84451311D01*
X133954817Y-84518350D01*
X133942652Y-84534283D01*
X133867468Y-84617783D01*
X133772823Y-84781714D01*
X133772820Y-84781721D01*
X133714329Y-84961739D01*
X133714328Y-84961743D01*
X133694542Y-85149999D01*
X133714328Y-85338255D01*
X133714329Y-85338258D01*
X133772820Y-85518276D01*
X133772823Y-85518283D01*
X133867469Y-85682215D01*
X133994131Y-85822887D01*
X134147267Y-85934147D01*
X134147272Y-85934150D01*
X134320194Y-86011141D01*
X134320199Y-86011143D01*
X134505356Y-86050499D01*
X134505357Y-86050499D01*
X134694646Y-86050499D01*
X134694648Y-86050499D01*
X134879805Y-86011143D01*
X135052732Y-85934150D01*
X135205873Y-85822887D01*
X135332535Y-85682215D01*
X135427181Y-85518283D01*
X135485676Y-85338255D01*
X135505462Y-85149999D01*
X135485676Y-84961743D01*
X135427181Y-84781715D01*
X135332535Y-84617783D01*
X135320905Y-84604867D01*
X135290676Y-84541877D01*
X135299300Y-84472542D01*
X135325371Y-84434217D01*
X137422772Y-82336819D01*
X137484095Y-82303334D01*
X137510453Y-82300500D01*
X143600500Y-82300500D01*
X143667539Y-82320185D01*
X143713294Y-82372989D01*
X143724500Y-82424500D01*
X143724500Y-89276312D01*
X143704815Y-89343351D01*
X143692650Y-89359284D01*
X143617466Y-89442784D01*
X143522821Y-89606715D01*
X143522819Y-89606719D01*
X143463869Y-89788149D01*
X143424431Y-89845824D01*
X143360072Y-89873022D01*
X143291226Y-89861107D01*
X143239750Y-89813863D01*
X143228007Y-89788148D01*
X143177181Y-89631721D01*
X143177178Y-89631715D01*
X143082533Y-89467784D01*
X142955871Y-89327112D01*
X142955870Y-89327111D01*
X142802734Y-89215851D01*
X142802729Y-89215848D01*
X142629807Y-89138857D01*
X142629802Y-89138855D01*
X142484001Y-89107865D01*
X142444646Y-89099500D01*
X142255354Y-89099500D01*
X142222897Y-89106398D01*
X142070197Y-89138855D01*
X142070192Y-89138857D01*
X141897270Y-89215848D01*
X141897265Y-89215851D01*
X141744130Y-89327110D01*
X141744126Y-89327114D01*
X141738400Y-89333474D01*
X141678913Y-89370121D01*
X141646252Y-89374500D01*
X137369027Y-89374500D01*
X137301988Y-89354815D01*
X137256233Y-89302011D01*
X137246289Y-89232853D01*
X137261640Y-89188501D01*
X137302176Y-89118289D01*
X137302175Y-89118289D01*
X137302179Y-89118284D01*
X137360674Y-88938256D01*
X137380460Y-88750000D01*
X137360674Y-88561744D01*
X137302179Y-88381716D01*
X137207533Y-88217784D01*
X137178999Y-88186094D01*
X137132350Y-88134284D01*
X137102120Y-88071292D01*
X137100500Y-88051312D01*
X137100500Y-85560452D01*
X137120185Y-85493413D01*
X137136819Y-85472771D01*
X138172771Y-84436819D01*
X138234094Y-84403334D01*
X138260452Y-84400500D01*
X140696252Y-84400500D01*
X140763291Y-84420185D01*
X140788400Y-84441526D01*
X140794126Y-84447885D01*
X140794130Y-84447889D01*
X140947265Y-84559148D01*
X140947270Y-84559151D01*
X141120192Y-84636142D01*
X141120197Y-84636144D01*
X141305354Y-84675500D01*
X141305355Y-84675500D01*
X141494644Y-84675500D01*
X141494646Y-84675500D01*
X141679803Y-84636144D01*
X141852730Y-84559151D01*
X142005871Y-84447888D01*
X142132533Y-84307216D01*
X142227179Y-84143284D01*
X142285674Y-83963256D01*
X142305460Y-83775000D01*
X142285674Y-83586744D01*
X142227179Y-83406716D01*
X142132533Y-83242784D01*
X142005871Y-83102112D01*
X142005870Y-83102111D01*
X141852734Y-82990851D01*
X141852729Y-82990848D01*
X141679807Y-82913857D01*
X141679802Y-82913855D01*
X141534001Y-82882865D01*
X141494646Y-82874500D01*
X141305354Y-82874500D01*
X141272897Y-82881398D01*
X141120197Y-82913855D01*
X141120192Y-82913857D01*
X140947270Y-82990848D01*
X140947265Y-82990851D01*
X140794130Y-83102110D01*
X140794126Y-83102114D01*
X140788400Y-83108474D01*
X140728913Y-83145121D01*
X140696252Y-83149500D01*
X137888389Y-83149500D01*
X137827971Y-83161518D01*
X137790259Y-83169019D01*
X137767550Y-83173536D01*
X137767548Y-83173537D01*
X137734207Y-83187347D01*
X137653719Y-83220684D01*
X137653705Y-83220692D01*
X137551272Y-83289138D01*
X137551264Y-83289144D01*
X136800858Y-84039551D01*
X136076270Y-84764139D01*
X136076267Y-84764142D01*
X136039143Y-84801266D01*
X135989142Y-84851266D01*
X135972639Y-84875964D01*
X135956247Y-84900498D01*
X135920689Y-84953713D01*
X135920688Y-84953714D01*
X135894247Y-85017547D01*
X135894248Y-85017548D01*
X135878596Y-85055337D01*
X135878594Y-85055342D01*
X135873537Y-85067547D01*
X135859446Y-85138394D01*
X135859445Y-85138394D01*
X135849500Y-85188389D01*
X135849500Y-88051312D01*
X135829815Y-88118351D01*
X135817650Y-88134284D01*
X135742466Y-88217784D01*
X135647821Y-88381715D01*
X135647818Y-88381722D01*
X135599845Y-88529369D01*
X135589326Y-88561744D01*
X135569540Y-88750000D01*
X135589326Y-88938256D01*
X135589327Y-88938259D01*
X135647818Y-89118277D01*
X135647823Y-89118289D01*
X135688360Y-89188501D01*
X135704833Y-89256401D01*
X135681980Y-89322428D01*
X135627059Y-89365618D01*
X135580973Y-89374500D01*
X133860453Y-89374500D01*
X133793414Y-89354815D01*
X133772772Y-89338181D01*
X132963960Y-88529369D01*
X132930475Y-88468046D01*
X132928323Y-88454668D01*
X132910674Y-88286744D01*
X132852179Y-88106716D01*
X132757533Y-87942784D01*
X132630871Y-87802112D01*
X132630870Y-87802111D01*
X132477734Y-87690851D01*
X132477729Y-87690848D01*
X132304807Y-87613857D01*
X132304802Y-87613855D01*
X132159001Y-87582865D01*
X132119646Y-87574500D01*
X132119645Y-87574500D01*
X132060452Y-87574500D01*
X131993413Y-87554815D01*
X131972771Y-87538181D01*
X129361819Y-84927229D01*
X129328334Y-84865906D01*
X129325500Y-84839548D01*
X129325500Y-84174499D01*
X129345185Y-84107460D01*
X129397989Y-84061705D01*
X129449500Y-84050499D01*
X129597871Y-84050499D01*
X129597872Y-84050499D01*
X129657483Y-84044091D01*
X129792331Y-83993796D01*
X129907546Y-83907546D01*
X129993796Y-83792331D01*
X130044091Y-83657483D01*
X130050500Y-83597873D01*
X130050499Y-81802128D01*
X130044091Y-81742517D01*
X130039276Y-81729608D01*
X129993797Y-81607671D01*
X129993793Y-81607664D01*
X129907547Y-81492455D01*
X129907544Y-81492452D01*
X129792335Y-81406206D01*
X129792328Y-81406202D01*
X129657482Y-81355908D01*
X129657483Y-81355908D01*
X129597883Y-81349501D01*
X129597881Y-81349500D01*
X129597873Y-81349500D01*
X129597864Y-81349500D01*
X127802129Y-81349500D01*
X127802123Y-81349501D01*
X127742516Y-81355908D01*
X127607671Y-81406202D01*
X127607664Y-81406206D01*
X127492455Y-81492452D01*
X127492452Y-81492455D01*
X127406206Y-81607664D01*
X127406202Y-81607671D01*
X127355908Y-81742517D01*
X127349708Y-81800193D01*
X127349501Y-81802123D01*
X127349500Y-81802135D01*
X127349500Y-83597870D01*
X127349501Y-83597876D01*
X127355908Y-83657483D01*
X127406202Y-83792328D01*
X127406206Y-83792335D01*
X127492452Y-83907544D01*
X127492455Y-83907547D01*
X127607664Y-83993793D01*
X127607671Y-83993797D01*
X127637789Y-84005030D01*
X127742517Y-84044091D01*
X127802127Y-84050500D01*
X127950500Y-84050499D01*
X128017539Y-84070183D01*
X128063294Y-84122987D01*
X128074500Y-84174499D01*
X128074500Y-85211611D01*
X128098535Y-85332444D01*
X128098540Y-85332461D01*
X128145685Y-85446281D01*
X128145690Y-85446290D01*
X128166832Y-85477930D01*
X128166833Y-85477931D01*
X128214141Y-85548732D01*
X128214144Y-85548736D01*
X128305586Y-85640178D01*
X128305608Y-85640198D01*
X131086038Y-88420628D01*
X131119523Y-88481951D01*
X131121678Y-88495347D01*
X131128657Y-88561744D01*
X131139326Y-88663256D01*
X131139327Y-88663259D01*
X131197818Y-88843277D01*
X131197821Y-88843284D01*
X131292467Y-89007216D01*
X131392478Y-89118289D01*
X131419129Y-89147888D01*
X131572265Y-89259148D01*
X131572270Y-89259151D01*
X131745192Y-89336142D01*
X131745197Y-89336144D01*
X131930354Y-89375500D01*
X131989548Y-89375500D01*
X132056587Y-89395185D01*
X132077229Y-89411819D01*
X133151263Y-90485855D01*
X133151267Y-90485858D01*
X133253710Y-90554309D01*
X133253711Y-90554309D01*
X133253715Y-90554312D01*
X133304868Y-90575500D01*
X133367548Y-90601463D01*
X133387597Y-90605451D01*
X133421196Y-90612134D01*
X133488392Y-90625501D01*
X133488394Y-90625501D01*
X133617721Y-90625501D01*
X133617741Y-90625500D01*
X141646252Y-90625500D01*
X141713291Y-90645185D01*
X141738400Y-90666526D01*
X141744126Y-90672885D01*
X141744130Y-90672889D01*
X141897265Y-90784148D01*
X141897270Y-90784151D01*
X142070192Y-90861142D01*
X142070197Y-90861144D01*
X142255354Y-90900500D01*
X142314548Y-90900500D01*
X142381587Y-90920185D01*
X142402229Y-90936819D01*
X153238181Y-101772771D01*
X153271666Y-101834094D01*
X153274500Y-101860452D01*
X153274500Y-106289548D01*
X153254815Y-106356587D01*
X153238181Y-106377229D01*
X153177229Y-106438181D01*
X153115906Y-106471666D01*
X153089548Y-106474500D01*
X141161605Y-106474500D01*
X141038391Y-106474500D01*
X141006412Y-106480861D01*
X141006411Y-106480860D01*
X140917552Y-106498535D01*
X140917542Y-106498538D01*
X140898215Y-106506544D01*
X140898214Y-106506544D01*
X140803716Y-106545685D01*
X140803712Y-106545687D01*
X140791870Y-106553601D01*
X140725192Y-106574480D01*
X140722977Y-106574500D01*
X140630352Y-106574500D01*
X140597895Y-106581398D01*
X140445195Y-106613855D01*
X140445190Y-106613857D01*
X140272268Y-106690848D01*
X140272263Y-106690851D01*
X140119127Y-106802111D01*
X139992464Y-106942785D01*
X139897819Y-107106715D01*
X139897816Y-107106722D01*
X139839325Y-107286740D01*
X139839324Y-107286744D01*
X139819538Y-107475000D01*
X139839324Y-107663256D01*
X139839325Y-107663259D01*
X139897816Y-107843277D01*
X139897819Y-107843284D01*
X139992465Y-108007216D01*
X140083127Y-108107906D01*
X140119127Y-108147888D01*
X140272263Y-108259148D01*
X140272268Y-108259151D01*
X140445190Y-108336142D01*
X140445195Y-108336144D01*
X140630352Y-108375500D01*
X140630353Y-108375500D01*
X140819642Y-108375500D01*
X140819644Y-108375500D01*
X141004801Y-108336144D01*
X141177728Y-108259151D01*
X141330869Y-108147888D01*
X141457531Y-108007216D01*
X141552177Y-107843284D01*
X141562608Y-107811182D01*
X141602046Y-107753506D01*
X141666404Y-107726308D01*
X141680539Y-107725500D01*
X143847537Y-107725500D01*
X143914576Y-107745185D01*
X143960331Y-107797989D01*
X143970857Y-107862460D01*
X143969540Y-107875000D01*
X143989326Y-108063256D01*
X143989327Y-108063259D01*
X144047818Y-108243277D01*
X144047821Y-108243284D01*
X144142467Y-108407216D01*
X144263401Y-108541526D01*
X144269129Y-108547888D01*
X144422265Y-108659148D01*
X144422270Y-108659151D01*
X144595192Y-108736142D01*
X144595197Y-108736144D01*
X144780354Y-108775500D01*
X144780355Y-108775500D01*
X144969644Y-108775500D01*
X144969646Y-108775500D01*
X145154803Y-108736144D01*
X145327730Y-108659151D01*
X145480871Y-108547888D01*
X145483788Y-108544647D01*
X145486600Y-108541526D01*
X145546087Y-108504879D01*
X145578748Y-108500500D01*
X155761607Y-108500500D01*
X155822029Y-108488481D01*
X155882452Y-108476463D01*
X155944968Y-108450568D01*
X155944969Y-108450567D01*
X155944971Y-108450567D01*
X155996281Y-108429314D01*
X155996280Y-108429314D01*
X155996286Y-108429312D01*
X156047509Y-108395084D01*
X156098733Y-108360858D01*
X156185858Y-108273733D01*
X156185859Y-108273731D01*
X156192925Y-108266665D01*
X156192928Y-108266661D01*
X156998729Y-107460860D01*
X156998733Y-107460858D01*
X157085858Y-107373733D01*
X157154311Y-107271286D01*
X157201463Y-107157452D01*
X157214711Y-107090849D01*
X157225500Y-107036607D01*
X157225500Y-106913393D01*
X157225500Y-102163394D01*
X157201463Y-102042548D01*
X157184364Y-102001267D01*
X157154312Y-101928714D01*
X157113599Y-101867784D01*
X157085858Y-101826267D01*
X157085856Y-101826264D01*
X156995637Y-101736045D01*
X156995606Y-101736016D01*
X149893769Y-94634179D01*
X149860284Y-94572856D01*
X149865268Y-94503164D01*
X149889296Y-94463530D01*
X150007533Y-94332216D01*
X150102179Y-94168284D01*
X150160674Y-93988256D01*
X150178321Y-93820345D01*
X150204905Y-93755732D01*
X150213952Y-93745636D01*
X153598729Y-90360860D01*
X153598733Y-90360858D01*
X153685858Y-90273733D01*
X153754311Y-90171286D01*
X153801463Y-90057452D01*
X153812031Y-90004322D01*
X153825094Y-89938650D01*
X153825099Y-89938651D01*
X153825099Y-89938620D01*
X153825500Y-89936607D01*
X153825500Y-89813393D01*
X153825500Y-85510452D01*
X153845185Y-85443413D01*
X153861819Y-85422771D01*
X156615645Y-82668945D01*
X157940061Y-81344529D01*
X158001383Y-81311045D01*
X158071075Y-81316029D01*
X158127008Y-81357901D01*
X158151425Y-81423365D01*
X158136573Y-81491638D01*
X158130842Y-81501103D01*
X158095690Y-81553709D01*
X158095685Y-81553718D01*
X158074866Y-81603983D01*
X158062347Y-81634207D01*
X158056823Y-81647543D01*
X158048537Y-81667545D01*
X158048535Y-81667553D01*
X158024500Y-81788389D01*
X158024500Y-115114547D01*
X158004815Y-115181586D01*
X157988181Y-115202228D01*
X156702229Y-116488181D01*
X156640906Y-116521666D01*
X156614548Y-116524500D01*
X129463388Y-116524500D01*
X129342555Y-116548535D01*
X129342547Y-116548537D01*
X129228716Y-116595687D01*
X129126265Y-116664142D01*
X129126262Y-116664145D01*
X125835562Y-119954848D01*
X125774239Y-119988333D01*
X125747881Y-119991167D01*
X122600969Y-119991167D01*
X122533930Y-119971482D01*
X122508821Y-119950141D01*
X122503094Y-119943781D01*
X122503090Y-119943777D01*
X122349955Y-119832518D01*
X122349950Y-119832515D01*
X122177028Y-119755524D01*
X122177023Y-119755522D01*
X122031222Y-119724532D01*
X121991867Y-119716167D01*
X121802575Y-119716167D01*
X121770118Y-119723065D01*
X121617418Y-119755522D01*
X121617413Y-119755524D01*
X121444491Y-119832515D01*
X121444486Y-119832518D01*
X121291350Y-119943778D01*
X121164687Y-120084452D01*
X121070042Y-120248382D01*
X121070039Y-120248389D01*
X121012903Y-120424238D01*
X121011547Y-120428411D01*
X120995739Y-120578822D01*
X120991761Y-120616667D01*
X121004465Y-120737539D01*
X120991895Y-120806269D01*
X120944163Y-120857292D01*
X120881144Y-120874500D01*
X120710462Y-120874500D01*
X120643423Y-120854815D01*
X120622781Y-120838181D01*
X120538960Y-120754360D01*
X120505475Y-120693037D01*
X120503323Y-120679661D01*
X120485674Y-120511734D01*
X120427179Y-120331706D01*
X120332533Y-120167774D01*
X120205871Y-120027102D01*
X120156411Y-119991167D01*
X120052734Y-119915841D01*
X120052729Y-119915838D01*
X119879807Y-119838847D01*
X119879802Y-119838845D01*
X119734001Y-119807855D01*
X119694646Y-119799490D01*
X119505354Y-119799490D01*
X119472897Y-119806388D01*
X119320197Y-119838845D01*
X119320192Y-119838847D01*
X119147270Y-119915838D01*
X119147265Y-119915841D01*
X118994129Y-120027101D01*
X118867466Y-120167775D01*
X118772821Y-120331705D01*
X118772818Y-120331712D01*
X118741399Y-120428411D01*
X118714326Y-120511734D01*
X118694540Y-120699990D01*
X118714326Y-120888246D01*
X118714327Y-120888249D01*
X118772818Y-121068267D01*
X118772821Y-121068274D01*
X118867467Y-121232206D01*
X118980727Y-121357994D01*
X118994129Y-121372878D01*
X119147265Y-121484138D01*
X119147270Y-121484141D01*
X119320192Y-121561132D01*
X119320197Y-121561134D01*
X119505354Y-121600490D01*
X119564548Y-121600490D01*
X119631587Y-121620175D01*
X119652229Y-121636809D01*
X119911026Y-121895606D01*
X119911055Y-121895637D01*
X120001274Y-121985856D01*
X120039811Y-122011606D01*
X120039812Y-122011606D01*
X120103724Y-122054312D01*
X120184217Y-122087652D01*
X120217558Y-122101463D01*
X120261292Y-122110162D01*
X120338400Y-122125499D01*
X120338402Y-122125500D01*
X125618579Y-122125500D01*
X125685618Y-122145185D01*
X125731373Y-122197989D01*
X125741317Y-122267147D01*
X125712292Y-122330703D01*
X125670984Y-122361882D01*
X125587171Y-122400964D01*
X125587169Y-122400965D01*
X125393597Y-122536505D01*
X125226505Y-122703597D01*
X125090965Y-122897169D01*
X125090964Y-122897171D01*
X124991098Y-123111335D01*
X124991094Y-123111344D01*
X124929938Y-123339586D01*
X124929936Y-123339596D01*
X124909341Y-123574999D01*
X124909341Y-123575000D01*
X124929936Y-123810403D01*
X124929938Y-123810413D01*
X124991094Y-124038655D01*
X124991096Y-124038659D01*
X124991097Y-124038663D01*
X125055954Y-124177749D01*
X125090965Y-124252830D01*
X125090967Y-124252834D01*
X125175514Y-124373578D01*
X125226501Y-124446396D01*
X125226506Y-124446402D01*
X125393597Y-124613493D01*
X125393603Y-124613498D01*
X125579158Y-124743425D01*
X125622783Y-124798002D01*
X125629977Y-124867500D01*
X125598454Y-124929855D01*
X125579158Y-124946575D01*
X125393597Y-125076505D01*
X125226505Y-125243597D01*
X125090965Y-125437169D01*
X125090964Y-125437171D01*
X124991098Y-125651335D01*
X124991094Y-125651344D01*
X124929938Y-125879586D01*
X124929936Y-125879596D01*
X124909341Y-126114999D01*
X124909341Y-126115000D01*
X124929936Y-126350403D01*
X124929938Y-126350413D01*
X124991094Y-126578655D01*
X124991096Y-126578659D01*
X124991097Y-126578663D01*
X125046736Y-126697981D01*
X125090965Y-126792830D01*
X125090967Y-126792834D01*
X125160793Y-126892555D01*
X125226505Y-126986401D01*
X125393599Y-127153495D01*
X125476126Y-127211281D01*
X125587165Y-127289032D01*
X125587167Y-127289033D01*
X125587170Y-127289035D01*
X125692429Y-127338118D01*
X125744868Y-127384290D01*
X125764020Y-127451484D01*
X125743804Y-127518365D01*
X125690639Y-127563700D01*
X125640024Y-127574500D01*
X115410453Y-127574500D01*
X115343414Y-127554815D01*
X115322772Y-127538181D01*
X114476819Y-126692228D01*
X114443334Y-126630905D01*
X114440500Y-126604547D01*
X114440500Y-125775226D01*
X114460185Y-125708187D01*
X114493374Y-125673654D01*
X114686401Y-125538495D01*
X114853495Y-125371401D01*
X114983425Y-125185842D01*
X115038002Y-125142217D01*
X115107500Y-125135023D01*
X115169855Y-125166546D01*
X115186575Y-125185842D01*
X115316500Y-125371395D01*
X115316505Y-125371401D01*
X115483599Y-125538495D01*
X115562938Y-125594049D01*
X115677165Y-125674032D01*
X115677167Y-125674033D01*
X115677170Y-125674035D01*
X115891337Y-125773903D01*
X115891343Y-125773904D01*
X115891344Y-125773905D01*
X115946285Y-125788626D01*
X116119592Y-125835063D01*
X116296034Y-125850500D01*
X116354999Y-125855659D01*
X116355000Y-125855659D01*
X116355001Y-125855659D01*
X116413966Y-125850500D01*
X116590408Y-125835063D01*
X116818663Y-125773903D01*
X117032830Y-125674035D01*
X117226401Y-125538495D01*
X117378236Y-125386660D01*
X119947616Y-125386660D01*
X119967918Y-125638151D01*
X120028300Y-125883132D01*
X120127192Y-126115241D01*
X120127195Y-126115246D01*
X120127197Y-126115250D01*
X120231199Y-126279716D01*
X120262051Y-126328504D01*
X120429358Y-126517355D01*
X120624800Y-126676928D01*
X120624805Y-126676932D01*
X120843306Y-126803083D01*
X120843308Y-126803084D01*
X121079222Y-126892555D01*
X121199762Y-126917163D01*
X121326426Y-126943022D01*
X121326430Y-126943022D01*
X121326433Y-126943023D01*
X121402064Y-126946071D01*
X121578532Y-126953183D01*
X121578533Y-126953183D01*
X121578534Y-126953182D01*
X121578539Y-126953183D01*
X121829009Y-126922770D01*
X122071357Y-126852573D01*
X122299307Y-126744409D01*
X122506954Y-126601081D01*
X122688921Y-126426300D01*
X122840494Y-126224592D01*
X122957748Y-126001183D01*
X123037647Y-125761858D01*
X123062066Y-125611603D01*
X123078119Y-125512824D01*
X123078119Y-125512821D01*
X123078120Y-125512815D01*
X123080658Y-125386660D01*
X123078120Y-125260505D01*
X123078119Y-125260498D01*
X123078119Y-125260495D01*
X123037647Y-125011462D01*
X123037647Y-125011461D01*
X122957748Y-124772138D01*
X122957747Y-124772134D01*
X122874485Y-124613493D01*
X122840494Y-124548728D01*
X122840491Y-124548724D01*
X122840490Y-124548722D01*
X122688919Y-124347017D01*
X122512695Y-124177753D01*
X122506954Y-124172239D01*
X122299307Y-124028911D01*
X122299308Y-124028911D01*
X122299306Y-124028910D01*
X122299303Y-124028908D01*
X122134639Y-123950775D01*
X122071357Y-123920747D01*
X122071354Y-123920746D01*
X122071351Y-123920745D01*
X121909757Y-123873939D01*
X121829009Y-123850550D01*
X121829007Y-123850549D01*
X121829001Y-123850548D01*
X121578532Y-123820136D01*
X121326436Y-123830296D01*
X121326426Y-123830297D01*
X121079224Y-123880764D01*
X120843306Y-123970236D01*
X120624805Y-124096387D01*
X120624800Y-124096391D01*
X120429358Y-124255964D01*
X120262051Y-124444815D01*
X120127192Y-124658078D01*
X120028300Y-124890187D01*
X119967918Y-125135168D01*
X119947616Y-125386660D01*
X117378236Y-125386660D01*
X117393495Y-125371401D01*
X117529035Y-125177830D01*
X117628903Y-124963663D01*
X117690063Y-124735408D01*
X117710659Y-124500000D01*
X117690063Y-124264592D01*
X117628903Y-124036337D01*
X117529035Y-123822171D01*
X117523425Y-123814158D01*
X117393494Y-123628597D01*
X117226402Y-123461506D01*
X117226395Y-123461501D01*
X117032834Y-123325967D01*
X117032830Y-123325965D01*
X117032828Y-123325964D01*
X116818663Y-123226097D01*
X116818659Y-123226096D01*
X116818655Y-123226094D01*
X116590413Y-123164938D01*
X116590403Y-123164936D01*
X116355001Y-123144341D01*
X116354999Y-123144341D01*
X116119596Y-123164936D01*
X116119586Y-123164938D01*
X115891344Y-123226094D01*
X115891335Y-123226098D01*
X115677171Y-123325964D01*
X115677169Y-123325965D01*
X115483597Y-123461505D01*
X115316505Y-123628597D01*
X115186575Y-123814158D01*
X115131998Y-123857783D01*
X115062500Y-123864977D01*
X115000145Y-123833454D01*
X114983425Y-123814158D01*
X114853494Y-123628597D01*
X114686402Y-123461506D01*
X114686395Y-123461501D01*
X114492834Y-123325967D01*
X114492830Y-123325965D01*
X114492828Y-123325964D01*
X114278663Y-123226097D01*
X114278659Y-123226096D01*
X114278655Y-123226094D01*
X114050413Y-123164938D01*
X114050403Y-123164936D01*
X113815001Y-123144341D01*
X113814999Y-123144341D01*
X113579596Y-123164936D01*
X113579586Y-123164938D01*
X113479126Y-123191856D01*
X113409276Y-123190193D01*
X113359352Y-123159762D01*
X112086509Y-121886919D01*
X112053024Y-121825596D01*
X112058008Y-121755904D01*
X112099880Y-121699971D01*
X112165344Y-121675554D01*
X112174190Y-121675238D01*
X116256869Y-121675238D01*
X116317291Y-121663219D01*
X116377714Y-121651201D01*
X116377717Y-121651199D01*
X116377720Y-121651199D01*
X116411049Y-121637392D01*
X116411048Y-121637392D01*
X116411054Y-121637390D01*
X116491548Y-121604050D01*
X116542771Y-121569822D01*
X116593995Y-121535596D01*
X116681120Y-121448471D01*
X116681121Y-121448469D01*
X116688187Y-121441403D01*
X116688189Y-121441399D01*
X120442771Y-117686819D01*
X120504094Y-117653334D01*
X120530452Y-117650500D01*
X123400209Y-117650500D01*
X123460631Y-117638481D01*
X123521054Y-117626463D01*
X123521057Y-117626461D01*
X123521060Y-117626461D01*
X123554389Y-117612654D01*
X123554388Y-117612654D01*
X123554394Y-117612652D01*
X123634888Y-117579312D01*
X123691410Y-117541544D01*
X123737335Y-117510858D01*
X123824460Y-117423733D01*
X123824461Y-117423731D01*
X123831527Y-117416665D01*
X123831529Y-117416661D01*
X125486373Y-115761819D01*
X125547696Y-115728334D01*
X125574054Y-115725500D01*
X127496252Y-115725500D01*
X127563291Y-115745185D01*
X127588400Y-115766526D01*
X127594126Y-115772885D01*
X127594130Y-115772889D01*
X127747265Y-115884148D01*
X127747270Y-115884151D01*
X127920192Y-115961142D01*
X127920197Y-115961144D01*
X128105354Y-116000500D01*
X128105355Y-116000500D01*
X128294644Y-116000500D01*
X128294646Y-116000500D01*
X128479803Y-115961144D01*
X128652730Y-115884151D01*
X128805871Y-115772888D01*
X128932533Y-115632216D01*
X129027179Y-115468284D01*
X129085674Y-115288256D01*
X129105460Y-115100000D01*
X129085674Y-114911744D01*
X129027179Y-114731716D01*
X128932533Y-114567784D01*
X128805871Y-114427112D01*
X128805870Y-114427111D01*
X128652734Y-114315851D01*
X128652729Y-114315848D01*
X128479807Y-114238857D01*
X128479802Y-114238855D01*
X128334001Y-114207865D01*
X128294646Y-114199500D01*
X128105354Y-114199500D01*
X128072897Y-114206398D01*
X127920197Y-114238855D01*
X127920192Y-114238857D01*
X127747270Y-114315848D01*
X127747265Y-114315851D01*
X127594130Y-114427110D01*
X127594126Y-114427114D01*
X127588400Y-114433474D01*
X127528913Y-114470121D01*
X127496252Y-114474500D01*
X125201991Y-114474500D01*
X125141573Y-114486518D01*
X125103861Y-114494019D01*
X125081152Y-114498536D01*
X125081150Y-114498537D01*
X125047809Y-114512347D01*
X124967320Y-114545685D01*
X124967311Y-114545690D01*
X124920250Y-114577137D01*
X124920249Y-114577138D01*
X124864870Y-114614140D01*
X124821307Y-114657703D01*
X124777744Y-114701267D01*
X124777741Y-114701270D01*
X123115831Y-116363181D01*
X123054508Y-116396666D01*
X123028150Y-116399500D01*
X120281607Y-116399500D01*
X120158393Y-116399500D01*
X120119989Y-116407139D01*
X120119988Y-116407138D01*
X120037554Y-116423535D01*
X120037545Y-116423537D01*
X120017543Y-116431823D01*
X120004207Y-116437347D01*
X119923718Y-116470685D01*
X119923715Y-116470687D01*
X119923714Y-116470688D01*
X119877951Y-116501267D01*
X119821267Y-116539142D01*
X119734142Y-116626267D01*
X119734139Y-116626270D01*
X115972491Y-120387919D01*
X115911168Y-120421404D01*
X115884810Y-120424238D01*
X113195101Y-120424238D01*
X113128062Y-120404553D01*
X113082307Y-120351749D01*
X113072363Y-120282592D01*
X113080500Y-120226000D01*
X113080500Y-117649000D01*
X113068947Y-117541544D01*
X113057741Y-117490033D01*
X113057637Y-117489722D01*
X113023616Y-117387502D01*
X113023613Y-117387496D01*
X112945828Y-117266462D01*
X112945825Y-117266457D01*
X112945820Y-117266451D01*
X112900076Y-117213659D01*
X112900072Y-117213656D01*
X112900070Y-117213653D01*
X112791336Y-117119433D01*
X112791333Y-117119431D01*
X112791331Y-117119430D01*
X112660460Y-117059662D01*
X112647989Y-117056000D01*
X112589212Y-117018224D01*
X112560189Y-116954668D01*
X112570134Y-116885510D01*
X112595243Y-116849346D01*
X116062772Y-113381819D01*
X116124095Y-113348334D01*
X116150453Y-113345500D01*
X140463671Y-113345500D01*
X140530710Y-113365185D01*
X140536537Y-113369168D01*
X140667266Y-113464148D01*
X140667270Y-113464151D01*
X140840192Y-113541142D01*
X140840197Y-113541144D01*
X141025354Y-113580500D01*
X141025355Y-113580500D01*
X141214644Y-113580500D01*
X141214646Y-113580500D01*
X141399803Y-113541144D01*
X141572730Y-113464151D01*
X141725871Y-113352888D01*
X141852533Y-113212216D01*
X141947179Y-113048284D01*
X142005674Y-112868256D01*
X142025460Y-112680000D01*
X142005674Y-112491744D01*
X141947179Y-112311716D01*
X141852533Y-112147784D01*
X141725871Y-112007112D01*
X141725863Y-112007106D01*
X141572734Y-111895851D01*
X141572729Y-111895848D01*
X141399807Y-111818857D01*
X141399802Y-111818855D01*
X141254001Y-111787865D01*
X141214646Y-111779500D01*
X141025354Y-111779500D01*
X140992897Y-111786398D01*
X140840197Y-111818855D01*
X140840192Y-111818857D01*
X140667270Y-111895848D01*
X140667265Y-111895851D01*
X140514135Y-112007106D01*
X140514133Y-112007107D01*
X140499104Y-112023798D01*
X140472383Y-112053474D01*
X140412899Y-112090121D01*
X140380236Y-112094500D01*
X115907741Y-112094500D01*
X115907721Y-112094499D01*
X115901607Y-112094499D01*
X115778394Y-112094499D01*
X115778392Y-112094499D01*
X115686481Y-112112782D01*
X115664730Y-112117108D01*
X115657547Y-112118537D01*
X115635342Y-112127735D01*
X115543717Y-112165686D01*
X115543708Y-112165691D01*
X115441267Y-112234141D01*
X115441263Y-112234144D01*
X111437229Y-116238181D01*
X111375906Y-116271666D01*
X111349548Y-116274500D01*
X109854500Y-116274500D01*
X109787461Y-116254815D01*
X109741706Y-116202011D01*
X109730500Y-116150500D01*
X109730500Y-114608931D01*
X109730179Y-114590949D01*
X109730178Y-114590937D01*
X109730178Y-114590905D01*
X109729862Y-114582059D01*
X109728896Y-114564042D01*
X109698312Y-114423450D01*
X109673895Y-114357986D01*
X109604944Y-114231711D01*
X109604938Y-114231705D01*
X109541591Y-114168355D01*
X109508107Y-114107031D01*
X109513093Y-114037340D01*
X109541591Y-113992997D01*
X110348729Y-113185860D01*
X110348733Y-113185858D01*
X110435858Y-113098733D01*
X110496658Y-113007740D01*
X110496659Y-113007739D01*
X110504309Y-112996289D01*
X110504312Y-112996285D01*
X110535244Y-112921607D01*
X110551463Y-112882452D01*
X110575500Y-112761606D01*
X110575500Y-112699504D01*
X110577883Y-112675313D01*
X110595528Y-112586606D01*
X110595528Y-112586600D01*
X110600500Y-112561609D01*
X110600500Y-107322870D01*
X119649500Y-107322870D01*
X119649501Y-107322876D01*
X119655908Y-107382483D01*
X119706202Y-107517328D01*
X119706206Y-107517335D01*
X119792452Y-107632544D01*
X119792455Y-107632547D01*
X119907664Y-107718793D01*
X119907671Y-107718797D01*
X119945773Y-107733008D01*
X120039598Y-107768002D01*
X120095531Y-107809873D01*
X120119949Y-107875337D01*
X120105098Y-107943610D01*
X120083947Y-107971865D01*
X119961886Y-108093926D01*
X119826400Y-108287420D01*
X119826399Y-108287422D01*
X119726570Y-108501507D01*
X119726567Y-108501513D01*
X119669364Y-108714999D01*
X119669364Y-108715000D01*
X120566988Y-108715000D01*
X120534075Y-108772007D01*
X120500000Y-108899174D01*
X120500000Y-109030826D01*
X120534075Y-109157993D01*
X120566988Y-109215000D01*
X119669364Y-109215000D01*
X119726567Y-109428486D01*
X119726570Y-109428492D01*
X119826399Y-109642578D01*
X119961894Y-109836082D01*
X120128917Y-110003105D01*
X120322421Y-110138600D01*
X120536507Y-110238429D01*
X120536516Y-110238433D01*
X120750000Y-110295634D01*
X120750000Y-109398012D01*
X120807007Y-109430925D01*
X120934174Y-109465000D01*
X121065826Y-109465000D01*
X121192993Y-109430925D01*
X121250000Y-109398012D01*
X121250000Y-110295633D01*
X121463483Y-110238433D01*
X121463492Y-110238429D01*
X121677578Y-110138600D01*
X121871082Y-110003105D01*
X122038105Y-109836082D01*
X122173600Y-109642578D01*
X122273429Y-109428492D01*
X122273432Y-109428486D01*
X122330636Y-109215000D01*
X121433012Y-109215000D01*
X121465925Y-109157993D01*
X121500000Y-109030826D01*
X121500000Y-108899174D01*
X121465925Y-108772007D01*
X121433012Y-108715000D01*
X122330636Y-108715000D01*
X122330635Y-108714999D01*
X122273432Y-108501513D01*
X122273429Y-108501507D01*
X122173600Y-108287422D01*
X122173599Y-108287420D01*
X122038113Y-108093926D01*
X122038108Y-108093920D01*
X121916053Y-107971865D01*
X121882568Y-107910542D01*
X121887552Y-107840850D01*
X121929424Y-107784917D01*
X121960400Y-107768002D01*
X122092331Y-107718796D01*
X122207546Y-107632546D01*
X122293796Y-107517331D01*
X122344091Y-107382483D01*
X122350500Y-107322873D01*
X122350500Y-107322870D01*
X131449500Y-107322870D01*
X131449501Y-107322876D01*
X131455908Y-107382483D01*
X131506202Y-107517328D01*
X131506206Y-107517335D01*
X131592452Y-107632544D01*
X131592455Y-107632547D01*
X131707664Y-107718793D01*
X131707671Y-107718797D01*
X131745773Y-107733008D01*
X131839598Y-107768002D01*
X131895531Y-107809873D01*
X131919949Y-107875337D01*
X131905098Y-107943610D01*
X131883947Y-107971865D01*
X131761886Y-108093926D01*
X131626400Y-108287420D01*
X131626399Y-108287422D01*
X131526570Y-108501507D01*
X131526567Y-108501513D01*
X131469364Y-108714999D01*
X131469364Y-108715000D01*
X132366988Y-108715000D01*
X132334075Y-108772007D01*
X132300000Y-108899174D01*
X132300000Y-109030826D01*
X132334075Y-109157993D01*
X132366988Y-109215000D01*
X131469364Y-109215000D01*
X131526567Y-109428486D01*
X131526570Y-109428492D01*
X131626399Y-109642578D01*
X131761894Y-109836082D01*
X131928917Y-110003105D01*
X132122421Y-110138600D01*
X132336507Y-110238429D01*
X132336516Y-110238433D01*
X132550000Y-110295634D01*
X132550000Y-109398012D01*
X132607007Y-109430925D01*
X132734174Y-109465000D01*
X132865826Y-109465000D01*
X132992993Y-109430925D01*
X133050000Y-109398012D01*
X133050000Y-110295633D01*
X133263483Y-110238433D01*
X133263492Y-110238429D01*
X133477578Y-110138600D01*
X133671082Y-110003105D01*
X133838105Y-109836082D01*
X133973600Y-109642578D01*
X134073429Y-109428492D01*
X134073432Y-109428486D01*
X134130636Y-109215000D01*
X133233012Y-109215000D01*
X133265925Y-109157993D01*
X133300000Y-109030826D01*
X133300000Y-108899174D01*
X133265925Y-108772007D01*
X133233012Y-108715000D01*
X134130636Y-108715000D01*
X134130635Y-108714999D01*
X134073432Y-108501513D01*
X134073429Y-108501507D01*
X133973600Y-108287422D01*
X133973599Y-108287420D01*
X133838113Y-108093926D01*
X133838108Y-108093920D01*
X133716053Y-107971865D01*
X133682568Y-107910542D01*
X133687552Y-107840850D01*
X133729424Y-107784917D01*
X133760400Y-107768002D01*
X133892331Y-107718796D01*
X134007546Y-107632546D01*
X134093796Y-107517331D01*
X134144091Y-107382483D01*
X134150500Y-107322873D01*
X134150499Y-105527128D01*
X134144091Y-105467517D01*
X134093796Y-105332669D01*
X134093795Y-105332668D01*
X134093793Y-105332664D01*
X134007547Y-105217455D01*
X134007544Y-105217452D01*
X133892335Y-105131206D01*
X133892328Y-105131202D01*
X133757482Y-105080908D01*
X133757483Y-105080908D01*
X133697883Y-105074501D01*
X133697881Y-105074500D01*
X133697873Y-105074500D01*
X133697864Y-105074500D01*
X131902129Y-105074500D01*
X131902123Y-105074501D01*
X131842516Y-105080908D01*
X131707671Y-105131202D01*
X131707664Y-105131206D01*
X131592455Y-105217452D01*
X131592452Y-105217455D01*
X131506206Y-105332664D01*
X131506202Y-105332671D01*
X131455908Y-105467517D01*
X131451390Y-105509548D01*
X131449501Y-105527123D01*
X131449500Y-105527135D01*
X131449500Y-107322870D01*
X122350500Y-107322870D01*
X122350499Y-105527128D01*
X122344091Y-105467517D01*
X122293796Y-105332669D01*
X122293795Y-105332668D01*
X122293793Y-105332664D01*
X122207547Y-105217455D01*
X122207544Y-105217452D01*
X122092335Y-105131206D01*
X122092328Y-105131202D01*
X121957482Y-105080908D01*
X121957483Y-105080908D01*
X121897883Y-105074501D01*
X121897881Y-105074500D01*
X121897873Y-105074500D01*
X121897864Y-105074500D01*
X120102129Y-105074500D01*
X120102123Y-105074501D01*
X120042516Y-105080908D01*
X119907671Y-105131202D01*
X119907664Y-105131206D01*
X119792455Y-105217452D01*
X119792452Y-105217455D01*
X119706206Y-105332664D01*
X119706202Y-105332671D01*
X119655908Y-105467517D01*
X119651390Y-105509548D01*
X119649501Y-105527123D01*
X119649500Y-105527135D01*
X119649500Y-107322870D01*
X110600500Y-107322870D01*
X110600500Y-105310452D01*
X110620185Y-105243413D01*
X110636819Y-105222771D01*
X114409591Y-101450000D01*
X131169540Y-101450000D01*
X131189326Y-101638256D01*
X131189327Y-101638259D01*
X131247818Y-101818277D01*
X131247821Y-101818284D01*
X131342467Y-101982216D01*
X131438108Y-102088436D01*
X131469129Y-102122888D01*
X131622265Y-102234148D01*
X131622270Y-102234151D01*
X131795192Y-102311142D01*
X131795197Y-102311144D01*
X131980354Y-102350500D01*
X131980355Y-102350500D01*
X132169644Y-102350500D01*
X132169646Y-102350500D01*
X132354803Y-102311144D01*
X132527730Y-102234151D01*
X132679090Y-102124182D01*
X132744896Y-102100702D01*
X132751975Y-102100500D01*
X134818267Y-102100500D01*
X134885306Y-102120185D01*
X134891152Y-102124182D01*
X135008098Y-102209148D01*
X135008103Y-102209151D01*
X135181025Y-102286142D01*
X135181030Y-102286144D01*
X135366187Y-102325500D01*
X135366188Y-102325500D01*
X135555477Y-102325500D01*
X135555479Y-102325500D01*
X135740636Y-102286144D01*
X135913563Y-102209151D01*
X135954216Y-102179615D01*
X136030514Y-102124182D01*
X136096320Y-102100702D01*
X136103399Y-102100500D01*
X141241844Y-102100500D01*
X141308883Y-102120185D01*
X141314729Y-102124182D01*
X141397265Y-102184148D01*
X141397270Y-102184151D01*
X141570192Y-102261142D01*
X141570197Y-102261144D01*
X141755354Y-102300500D01*
X141814548Y-102300500D01*
X141881587Y-102320185D01*
X141902229Y-102336819D01*
X142451263Y-102885855D01*
X142451267Y-102885858D01*
X142553708Y-102954308D01*
X142553715Y-102954312D01*
X142617504Y-102980734D01*
X142667548Y-103001463D01*
X142687597Y-103005451D01*
X142721196Y-103012134D01*
X142788392Y-103025501D01*
X142788394Y-103025501D01*
X142917721Y-103025501D01*
X142917741Y-103025500D01*
X147256252Y-103025500D01*
X147323291Y-103045185D01*
X147348400Y-103066526D01*
X147354126Y-103072885D01*
X147354130Y-103072889D01*
X147507265Y-103184148D01*
X147507270Y-103184151D01*
X147680192Y-103261142D01*
X147680197Y-103261144D01*
X147865354Y-103300500D01*
X147865355Y-103300500D01*
X148054644Y-103300500D01*
X148054646Y-103300500D01*
X148239803Y-103261144D01*
X148412730Y-103184151D01*
X148565871Y-103072888D01*
X148692533Y-102932216D01*
X148787179Y-102768284D01*
X148845674Y-102588256D01*
X148865460Y-102400000D01*
X148845674Y-102211744D01*
X148787179Y-102031716D01*
X148692533Y-101867784D01*
X148565871Y-101727112D01*
X148565870Y-101727111D01*
X148412734Y-101615851D01*
X148412729Y-101615848D01*
X148239807Y-101538857D01*
X148239802Y-101538855D01*
X148094001Y-101507865D01*
X148054646Y-101499500D01*
X147865354Y-101499500D01*
X147832897Y-101506398D01*
X147680197Y-101538855D01*
X147680192Y-101538857D01*
X147507270Y-101615848D01*
X147507265Y-101615851D01*
X147354130Y-101727110D01*
X147354126Y-101727114D01*
X147348400Y-101733474D01*
X147288913Y-101770121D01*
X147256252Y-101774500D01*
X143160453Y-101774500D01*
X143093414Y-101754815D01*
X143072772Y-101738181D01*
X142788960Y-101454369D01*
X142755475Y-101393046D01*
X142753323Y-101379668D01*
X142735674Y-101211744D01*
X142677179Y-101031716D01*
X142582533Y-100867784D01*
X142455871Y-100727112D01*
X142455870Y-100727111D01*
X142302734Y-100615851D01*
X142302729Y-100615848D01*
X142129807Y-100538857D01*
X142129802Y-100538855D01*
X141984001Y-100507865D01*
X141944646Y-100499500D01*
X141755354Y-100499500D01*
X141722897Y-100506398D01*
X141570197Y-100538855D01*
X141570192Y-100538857D01*
X141397270Y-100615848D01*
X141397265Y-100615851D01*
X141244129Y-100727111D01*
X141170872Y-100808472D01*
X141111385Y-100845121D01*
X141078722Y-100849500D01*
X136209601Y-100849500D01*
X136142562Y-100829815D01*
X136117451Y-100808472D01*
X136066703Y-100752111D01*
X136066697Y-100752106D01*
X135913567Y-100640851D01*
X135913562Y-100640848D01*
X135740640Y-100563857D01*
X135740635Y-100563855D01*
X135594834Y-100532865D01*
X135555479Y-100524500D01*
X135366187Y-100524500D01*
X135333730Y-100531398D01*
X135181030Y-100563855D01*
X135181025Y-100563857D01*
X135008103Y-100640848D01*
X135008098Y-100640851D01*
X134854968Y-100752106D01*
X134854962Y-100752111D01*
X134804215Y-100808472D01*
X134744728Y-100845121D01*
X134712065Y-100849500D01*
X132801258Y-100849500D01*
X132734219Y-100829815D01*
X132709109Y-100808473D01*
X132680871Y-100777112D01*
X132680864Y-100777106D01*
X132527734Y-100665851D01*
X132527729Y-100665848D01*
X132354807Y-100588857D01*
X132354802Y-100588855D01*
X132209001Y-100557865D01*
X132169646Y-100549500D01*
X131980354Y-100549500D01*
X131947897Y-100556398D01*
X131795197Y-100588855D01*
X131795192Y-100588857D01*
X131622270Y-100665848D01*
X131622265Y-100665851D01*
X131469129Y-100777111D01*
X131342466Y-100917785D01*
X131247821Y-101081715D01*
X131247818Y-101081722D01*
X131189327Y-101261740D01*
X131189326Y-101261744D01*
X131169540Y-101450000D01*
X114409591Y-101450000D01*
X117447772Y-98411819D01*
X117509095Y-98378334D01*
X117535453Y-98375500D01*
X136187058Y-98375500D01*
X136247480Y-98363481D01*
X136307903Y-98351463D01*
X136307906Y-98351461D01*
X136307909Y-98351461D01*
X136341239Y-98337654D01*
X136341243Y-98337652D01*
X136380187Y-98321521D01*
X136427634Y-98312085D01*
X136558510Y-98312085D01*
X136558512Y-98312085D01*
X136743669Y-98272729D01*
X136916596Y-98195736D01*
X137069737Y-98084473D01*
X137196399Y-97943801D01*
X137291045Y-97779869D01*
X137349540Y-97599841D01*
X137369326Y-97411585D01*
X137349540Y-97223329D01*
X137291045Y-97043301D01*
X137196399Y-96879369D01*
X137069737Y-96738697D01*
X137069736Y-96738696D01*
X136916600Y-96627436D01*
X136916595Y-96627433D01*
X136743673Y-96550442D01*
X136743668Y-96550440D01*
X136597867Y-96519450D01*
X136558512Y-96511085D01*
X136369220Y-96511085D01*
X136336763Y-96517983D01*
X136184063Y-96550440D01*
X136184058Y-96550442D01*
X136011136Y-96627433D01*
X136011131Y-96627436D01*
X135857995Y-96738696D01*
X135731332Y-96879370D01*
X135636685Y-97043304D01*
X135634042Y-97049241D01*
X135631718Y-97048206D01*
X135598726Y-97096477D01*
X135534373Y-97123689D01*
X135520213Y-97124500D01*
X117163389Y-97124500D01*
X117102971Y-97136518D01*
X117059743Y-97145116D01*
X117042546Y-97148537D01*
X116928716Y-97195687D01*
X116826265Y-97264142D01*
X116826262Y-97264145D01*
X109942181Y-104148227D01*
X109880858Y-104181712D01*
X109811166Y-104176728D01*
X109755233Y-104134856D01*
X109730816Y-104069392D01*
X109730500Y-104060546D01*
X109730500Y-95204500D01*
X109750185Y-95137461D01*
X109802989Y-95091706D01*
X109854500Y-95080500D01*
X113850990Y-95080500D01*
X113851000Y-95080500D01*
X113958456Y-95068947D01*
X114009967Y-95057741D01*
X114044197Y-95046347D01*
X114112497Y-95023616D01*
X114112501Y-95023613D01*
X114112504Y-95023613D01*
X114233543Y-94945825D01*
X114286347Y-94900070D01*
X114380567Y-94791336D01*
X114440338Y-94660459D01*
X114460023Y-94593420D01*
X114460024Y-94593416D01*
X114480500Y-94451000D01*
X114480500Y-94075000D01*
X135644540Y-94075000D01*
X135664326Y-94263256D01*
X135664327Y-94263259D01*
X135722818Y-94443277D01*
X135722821Y-94443284D01*
X135817467Y-94607216D01*
X135923526Y-94725006D01*
X135944129Y-94747888D01*
X136097265Y-94859148D01*
X136097270Y-94859151D01*
X136270192Y-94936142D01*
X136270197Y-94936144D01*
X136455354Y-94975500D01*
X136455355Y-94975500D01*
X136644644Y-94975500D01*
X136644646Y-94975500D01*
X136829803Y-94936144D01*
X137002730Y-94859151D01*
X137004776Y-94857664D01*
X137016452Y-94849182D01*
X137082258Y-94825702D01*
X137089337Y-94825500D01*
X140871252Y-94825500D01*
X140938291Y-94845185D01*
X140963400Y-94866526D01*
X140969126Y-94872885D01*
X140969130Y-94872889D01*
X141122265Y-94984148D01*
X141122270Y-94984151D01*
X141295192Y-95061142D01*
X141295197Y-95061144D01*
X141480354Y-95100500D01*
X141480355Y-95100500D01*
X141669644Y-95100500D01*
X141669646Y-95100500D01*
X141854803Y-95061144D01*
X142027730Y-94984151D01*
X142180871Y-94872888D01*
X142307533Y-94732216D01*
X142402179Y-94568284D01*
X142460674Y-94388256D01*
X142480460Y-94200000D01*
X142460674Y-94011744D01*
X142402179Y-93831716D01*
X142307533Y-93667784D01*
X142180871Y-93527112D01*
X142180870Y-93527111D01*
X142027734Y-93415851D01*
X142027729Y-93415848D01*
X141854807Y-93338857D01*
X141854802Y-93338855D01*
X141709001Y-93307865D01*
X141669646Y-93299500D01*
X141480354Y-93299500D01*
X141447897Y-93306398D01*
X141295197Y-93338855D01*
X141295192Y-93338857D01*
X141122270Y-93415848D01*
X141122265Y-93415851D01*
X140969130Y-93527110D01*
X140969126Y-93527114D01*
X140963400Y-93533474D01*
X140903913Y-93570121D01*
X140871252Y-93574500D01*
X137366298Y-93574500D01*
X137299259Y-93554815D01*
X137274148Y-93533472D01*
X137268423Y-93527114D01*
X137155871Y-93402112D01*
X137101628Y-93362702D01*
X137002734Y-93290851D01*
X137002729Y-93290848D01*
X136829807Y-93213857D01*
X136829802Y-93213855D01*
X136684001Y-93182865D01*
X136644646Y-93174500D01*
X136455354Y-93174500D01*
X136435966Y-93178621D01*
X136270197Y-93213855D01*
X136270192Y-93213857D01*
X136097270Y-93290848D01*
X136097265Y-93290851D01*
X135944129Y-93402111D01*
X135817466Y-93542785D01*
X135722821Y-93706715D01*
X135722818Y-93706722D01*
X135672414Y-93861852D01*
X135664326Y-93886744D01*
X135644540Y-94075000D01*
X114480500Y-94075000D01*
X114480500Y-82804500D01*
X114500185Y-82737461D01*
X114552989Y-82691706D01*
X114604500Y-82680500D01*
X116150990Y-82680500D01*
X116151000Y-82680500D01*
X116258456Y-82668947D01*
X116309967Y-82657741D01*
X116344236Y-82646335D01*
X116412497Y-82623616D01*
X116412501Y-82623613D01*
X116412504Y-82623613D01*
X116533543Y-82545825D01*
X116586347Y-82500070D01*
X116586355Y-82500063D01*
X116595908Y-82489037D01*
X116650462Y-82452583D01*
X116737504Y-82423613D01*
X116858543Y-82345825D01*
X116911347Y-82300070D01*
X117005567Y-82191336D01*
X117065338Y-82060459D01*
X117085023Y-81993420D01*
X117085024Y-81993416D01*
X117105500Y-81851000D01*
X117105500Y-79999000D01*
X117093947Y-79891544D01*
X117082741Y-79840033D01*
X117070852Y-79804312D01*
X117048616Y-79737502D01*
X117048613Y-79737496D01*
X116970828Y-79616462D01*
X116970826Y-79616458D01*
X116965437Y-79610239D01*
X116925070Y-79563653D01*
X116843767Y-79493202D01*
X116807317Y-79438647D01*
X116798615Y-79412500D01*
X116798613Y-79412496D01*
X116720828Y-79291462D01*
X116720825Y-79291457D01*
X116720820Y-79291451D01*
X116675076Y-79238659D01*
X116675072Y-79238656D01*
X116675070Y-79238653D01*
X116566336Y-79144433D01*
X116566333Y-79144431D01*
X116566331Y-79144430D01*
X116435465Y-79084664D01*
X116435460Y-79084662D01*
X116435459Y-79084662D01*
X116368420Y-79064977D01*
X116368422Y-79064977D01*
X116368417Y-79064976D01*
X116320944Y-79058150D01*
X116226000Y-79044500D01*
X116225998Y-79044500D01*
X114904500Y-79044500D01*
X114837461Y-79024815D01*
X114791706Y-78972011D01*
X114780500Y-78920500D01*
X114780500Y-75545410D01*
X119931699Y-75545410D01*
X119952207Y-75799454D01*
X120013202Y-76046923D01*
X120113099Y-76281388D01*
X120113102Y-76281393D01*
X120113104Y-76281397D01*
X120247292Y-76493598D01*
X120249327Y-76496816D01*
X120418332Y-76687584D01*
X120615758Y-76848777D01*
X120615761Y-76848780D01*
X120791465Y-76950222D01*
X120836485Y-76976214D01*
X121074794Y-77066593D01*
X121324515Y-77117574D01*
X121579180Y-77127837D01*
X121832193Y-77097115D01*
X122077002Y-77026206D01*
X122307266Y-76916944D01*
X122517021Y-76772160D01*
X122700835Y-76595605D01*
X122853947Y-76391849D01*
X122972392Y-76166172D01*
X123053101Y-75924417D01*
X123074160Y-75794839D01*
X123093985Y-75672854D01*
X123093985Y-75672852D01*
X123093986Y-75672846D01*
X123096549Y-75545410D01*
X123093986Y-75417974D01*
X123082775Y-75348992D01*
X123053102Y-75166408D01*
X123053101Y-75166406D01*
X123053101Y-75166403D01*
X122972392Y-74924648D01*
X122853947Y-74698971D01*
X122853944Y-74698967D01*
X122853943Y-74698965D01*
X122700833Y-74495212D01*
X122517023Y-74318661D01*
X122517021Y-74318660D01*
X122307267Y-74173876D01*
X122182358Y-74114606D01*
X122077002Y-74064614D01*
X122032970Y-74051860D01*
X121832195Y-73993705D01*
X121579172Y-73962982D01*
X121324518Y-73973245D01*
X121324510Y-73973246D01*
X121074789Y-74024228D01*
X120836483Y-74114606D01*
X120615761Y-74242039D01*
X120615758Y-74242042D01*
X120418332Y-74403235D01*
X120249327Y-74594003D01*
X120182946Y-74698976D01*
X120133120Y-74777771D01*
X120113099Y-74809431D01*
X120013202Y-75043896D01*
X119952207Y-75291365D01*
X119931699Y-75545410D01*
X114780500Y-75545410D01*
X114780500Y-72024000D01*
X114800185Y-71956961D01*
X114852989Y-71911206D01*
X114904500Y-71900000D01*
X124716047Y-71900000D01*
X124783086Y-71919685D01*
G37*
%TD.AperFunction*%
%TA.AperFunction,Conductor*%
G36*
X167200000Y-102240000D02*
G01*
X167847828Y-102240000D01*
X167847844Y-102239999D01*
X167907372Y-102233598D01*
X167907379Y-102233596D01*
X168042086Y-102183354D01*
X168042093Y-102183350D01*
X168157187Y-102097190D01*
X168157190Y-102097187D01*
X168243350Y-101982093D01*
X168243354Y-101982086D01*
X168292422Y-101850529D01*
X168334293Y-101794595D01*
X168399757Y-101770178D01*
X168468030Y-101785030D01*
X168496285Y-101806181D01*
X168618597Y-101928493D01*
X168618603Y-101928498D01*
X168618913Y-101928715D01*
X168811624Y-102063653D01*
X168855248Y-102118228D01*
X168864500Y-102165226D01*
X168864500Y-106924547D01*
X168844815Y-106991586D01*
X168828181Y-107012228D01*
X160007546Y-115832863D01*
X159946223Y-115866348D01*
X159876531Y-115861364D01*
X159820598Y-115819492D01*
X159796181Y-115754028D01*
X159811033Y-115685755D01*
X159816752Y-115676306D01*
X159849217Y-115627721D01*
X159879312Y-115582682D01*
X159926463Y-115468847D01*
X159950500Y-115348003D01*
X159950500Y-115224789D01*
X159950500Y-110114278D01*
X159970185Y-110047239D01*
X160022989Y-110001484D01*
X160092147Y-109991540D01*
X160155703Y-110020565D01*
X160166650Y-110031306D01*
X160167465Y-110032212D01*
X160167467Y-110032214D01*
X160226561Y-110097844D01*
X160294129Y-110172886D01*
X160447265Y-110284146D01*
X160447270Y-110284149D01*
X160620192Y-110361140D01*
X160620197Y-110361142D01*
X160805354Y-110400498D01*
X160805355Y-110400498D01*
X160994644Y-110400498D01*
X160994646Y-110400498D01*
X161179803Y-110361142D01*
X161352730Y-110284149D01*
X161505871Y-110172886D01*
X161632533Y-110032214D01*
X161727179Y-109868282D01*
X161785674Y-109688254D01*
X161803321Y-109520343D01*
X161829905Y-109455730D01*
X161838952Y-109445634D01*
X164895858Y-106388731D01*
X164964312Y-106286283D01*
X164996827Y-106207784D01*
X165011463Y-106172450D01*
X165019277Y-106133165D01*
X165035501Y-106051604D01*
X165035501Y-105928391D01*
X165035501Y-105923281D01*
X165035500Y-105923255D01*
X165035500Y-102165226D01*
X165055185Y-102098187D01*
X165088374Y-102063654D01*
X165281401Y-101928495D01*
X165403717Y-101806178D01*
X165465036Y-101772696D01*
X165534728Y-101777680D01*
X165590662Y-101819551D01*
X165607577Y-101850528D01*
X165656646Y-101982088D01*
X165656649Y-101982093D01*
X165742809Y-102097187D01*
X165742812Y-102097190D01*
X165857906Y-102183350D01*
X165857913Y-102183354D01*
X165992620Y-102233596D01*
X165992627Y-102233598D01*
X166052155Y-102239999D01*
X166052172Y-102240000D01*
X166700000Y-102240000D01*
X166700000Y-101334560D01*
X166753147Y-101365245D01*
X166882857Y-101400000D01*
X167017143Y-101400000D01*
X167146853Y-101365245D01*
X167200000Y-101334560D01*
X167200000Y-102240000D01*
G37*
%TD.AperFunction*%
%TA.AperFunction,Conductor*%
G36*
X192600000Y-102244047D02*
G01*
X192580315Y-102311086D01*
X192563682Y-102331726D01*
X191125552Y-103769858D01*
X190357229Y-104538181D01*
X190295906Y-104571666D01*
X190269548Y-104574500D01*
X187309452Y-104574500D01*
X187242413Y-104554815D01*
X187196658Y-104502011D01*
X187186714Y-104432853D01*
X187215739Y-104369297D01*
X187221771Y-104362819D01*
X187589680Y-103994910D01*
X189354353Y-102230235D01*
X189415674Y-102196752D01*
X189474125Y-102198143D01*
X189508780Y-102207428D01*
X189574592Y-102225063D01*
X189745319Y-102240000D01*
X189809999Y-102245659D01*
X189810000Y-102245659D01*
X189810001Y-102245659D01*
X189874681Y-102240000D01*
X190045408Y-102225063D01*
X190273663Y-102163903D01*
X190487830Y-102064035D01*
X190681401Y-101928495D01*
X190803717Y-101806178D01*
X190865036Y-101772696D01*
X190934728Y-101777680D01*
X190990662Y-101819551D01*
X191007577Y-101850528D01*
X191056646Y-101982088D01*
X191056649Y-101982093D01*
X191142809Y-102097187D01*
X191142812Y-102097190D01*
X191257906Y-102183350D01*
X191257913Y-102183354D01*
X191392620Y-102233596D01*
X191392627Y-102233598D01*
X191452155Y-102239999D01*
X191452172Y-102240000D01*
X192100000Y-102240000D01*
X192100000Y-101334560D01*
X192153147Y-101365245D01*
X192282857Y-101400000D01*
X192417143Y-101400000D01*
X192546853Y-101365245D01*
X192600000Y-101334560D01*
X192600000Y-102244047D01*
G37*
%TD.AperFunction*%
%TA.AperFunction,Conductor*%
G36*
X179900000Y-102240000D02*
G01*
X180547828Y-102240000D01*
X180547844Y-102239999D01*
X180607372Y-102233598D01*
X180607379Y-102233596D01*
X180742086Y-102183354D01*
X180742093Y-102183350D01*
X180857187Y-102097190D01*
X180857190Y-102097187D01*
X180943350Y-101982093D01*
X180943354Y-101982086D01*
X180992422Y-101850529D01*
X181034293Y-101794595D01*
X181099757Y-101770178D01*
X181168030Y-101785030D01*
X181196285Y-101806181D01*
X181318599Y-101928495D01*
X181415384Y-101996265D01*
X181512165Y-102064032D01*
X181512167Y-102064033D01*
X181512170Y-102064035D01*
X181726337Y-102163903D01*
X181726343Y-102163904D01*
X181726344Y-102163905D01*
X181781285Y-102178626D01*
X181954592Y-102225063D01*
X182125319Y-102240000D01*
X182189999Y-102245659D01*
X182190000Y-102245659D01*
X182190001Y-102245659D01*
X182254681Y-102240000D01*
X182425408Y-102225063D01*
X182653663Y-102163903D01*
X182867830Y-102064035D01*
X183061401Y-101928495D01*
X183228495Y-101761401D01*
X183358425Y-101575842D01*
X183413002Y-101532217D01*
X183482500Y-101525023D01*
X183544855Y-101556546D01*
X183561575Y-101575842D01*
X183691500Y-101761395D01*
X183691505Y-101761401D01*
X183858599Y-101928495D01*
X183955384Y-101996265D01*
X184052165Y-102064032D01*
X184052167Y-102064033D01*
X184052170Y-102064035D01*
X184266337Y-102163903D01*
X184266343Y-102163904D01*
X184266344Y-102163905D01*
X184321285Y-102178626D01*
X184494592Y-102225063D01*
X184665319Y-102240000D01*
X184729999Y-102245659D01*
X184730000Y-102245659D01*
X184730001Y-102245659D01*
X184794681Y-102240000D01*
X184965408Y-102225063D01*
X185193663Y-102163903D01*
X185407830Y-102064035D01*
X185601401Y-101928495D01*
X185768495Y-101761401D01*
X185898425Y-101575842D01*
X185953002Y-101532217D01*
X186022500Y-101525023D01*
X186084855Y-101556546D01*
X186101575Y-101575842D01*
X186231500Y-101761395D01*
X186231505Y-101761401D01*
X186398599Y-101928495D01*
X186495384Y-101996265D01*
X186592165Y-102064032D01*
X186592167Y-102064033D01*
X186592170Y-102064035D01*
X186806337Y-102163903D01*
X186806343Y-102163904D01*
X186806344Y-102163905D01*
X186861285Y-102178626D01*
X187034592Y-102225063D01*
X187205319Y-102240000D01*
X187269999Y-102245659D01*
X187270388Y-102245659D01*
X187270553Y-102245707D01*
X187275394Y-102246131D01*
X187275308Y-102247103D01*
X187337427Y-102265344D01*
X187383182Y-102318148D01*
X187393126Y-102387306D01*
X187364101Y-102450862D01*
X187358069Y-102457340D01*
X186177229Y-103638181D01*
X186115906Y-103671666D01*
X186089548Y-103674500D01*
X177584451Y-103674500D01*
X177517412Y-103654815D01*
X177471657Y-103602011D01*
X177461713Y-103532853D01*
X177490738Y-103469297D01*
X177496761Y-103462828D01*
X177501656Y-103457932D01*
X177501665Y-103457925D01*
X177508731Y-103450859D01*
X177508733Y-103450858D01*
X177595858Y-103363733D01*
X177638108Y-103300502D01*
X177638109Y-103300501D01*
X177664309Y-103261290D01*
X177664312Y-103261286D01*
X177711463Y-103147451D01*
X177735500Y-103026607D01*
X177735500Y-102903393D01*
X177735500Y-102165226D01*
X177755185Y-102098187D01*
X177788374Y-102063654D01*
X177981401Y-101928495D01*
X178103717Y-101806178D01*
X178165036Y-101772696D01*
X178234728Y-101777680D01*
X178290662Y-101819551D01*
X178307577Y-101850528D01*
X178356646Y-101982088D01*
X178356649Y-101982093D01*
X178442809Y-102097187D01*
X178442812Y-102097190D01*
X178557906Y-102183350D01*
X178557913Y-102183354D01*
X178692620Y-102233596D01*
X178692627Y-102233598D01*
X178752155Y-102239999D01*
X178752172Y-102240000D01*
X179400000Y-102240000D01*
X179400000Y-101334560D01*
X179453147Y-101365245D01*
X179582857Y-101400000D01*
X179717143Y-101400000D01*
X179846853Y-101365245D01*
X179900000Y-101334560D01*
X179900000Y-102240000D01*
G37*
%TD.AperFunction*%
%TA.AperFunction,Conductor*%
G36*
X147302546Y-73965595D02*
G01*
X147348301Y-74018399D01*
X147358245Y-74087557D01*
X147329220Y-74151113D01*
X147306630Y-74171484D01*
X147293568Y-74180630D01*
X147265969Y-74199955D01*
X147105066Y-74360858D01*
X146974544Y-74547265D01*
X146974543Y-74547267D01*
X146878373Y-74753502D01*
X146878370Y-74753511D01*
X146819478Y-74973302D01*
X146819476Y-74973313D01*
X146799644Y-75199998D01*
X146799644Y-75200001D01*
X146819476Y-75426686D01*
X146819478Y-75426697D01*
X146878370Y-75646488D01*
X146878373Y-75646497D01*
X146974543Y-75852732D01*
X146974544Y-75852734D01*
X147105066Y-76039141D01*
X147265970Y-76200045D01*
X147265973Y-76200047D01*
X147452378Y-76330568D01*
X147658616Y-76426739D01*
X147878420Y-76485635D01*
X148040342Y-76499801D01*
X148105110Y-76505468D01*
X148105112Y-76505468D01*
X148105114Y-76505468D01*
X148167623Y-76499999D01*
X148331804Y-76485635D01*
X148551608Y-76426739D01*
X148757846Y-76330568D01*
X148944251Y-76200047D01*
X149101806Y-76042491D01*
X149163128Y-76009008D01*
X149232819Y-76013992D01*
X149288753Y-76055863D01*
X149310163Y-76101658D01*
X149311514Y-76107378D01*
X149361757Y-76242086D01*
X149361761Y-76242093D01*
X149447921Y-76357187D01*
X149447924Y-76357190D01*
X149563018Y-76443350D01*
X149563025Y-76443354D01*
X149697732Y-76493596D01*
X149697739Y-76493598D01*
X149757267Y-76499999D01*
X149757284Y-76500000D01*
X150355112Y-76500000D01*
X150355112Y-75515686D01*
X150359506Y-75520080D01*
X150450718Y-75572741D01*
X150552451Y-75600000D01*
X150657773Y-75600000D01*
X150759506Y-75572741D01*
X150850718Y-75520080D01*
X150855112Y-75515686D01*
X150855112Y-76500000D01*
X151452940Y-76500000D01*
X151452956Y-76499999D01*
X151512484Y-76493598D01*
X151512491Y-76493596D01*
X151647198Y-76443354D01*
X151647205Y-76443350D01*
X151762299Y-76357190D01*
X151762302Y-76357187D01*
X151848462Y-76242093D01*
X151848466Y-76242086D01*
X151898708Y-76107379D01*
X151898710Y-76107372D01*
X151905111Y-76047844D01*
X151905112Y-76047827D01*
X151905112Y-75450000D01*
X150920798Y-75450000D01*
X150925192Y-75445606D01*
X150977853Y-75354394D01*
X151005112Y-75252661D01*
X151005112Y-75147339D01*
X150977853Y-75045606D01*
X150925192Y-74954394D01*
X150920798Y-74950000D01*
X151905112Y-74950000D01*
X151905112Y-74352172D01*
X151905111Y-74352155D01*
X151898710Y-74292627D01*
X151898708Y-74292620D01*
X151848466Y-74157913D01*
X151848464Y-74157909D01*
X151838218Y-74144223D01*
X151813799Y-74078759D01*
X151828649Y-74010486D01*
X151878053Y-73961079D01*
X151937483Y-73945910D01*
X178723251Y-73945910D01*
X178790290Y-73965595D01*
X178836045Y-74018399D01*
X178845989Y-74087557D01*
X178816964Y-74151113D01*
X178785251Y-74177297D01*
X178632106Y-74265714D01*
X178632101Y-74265718D01*
X178438266Y-74423979D01*
X178438262Y-74423983D01*
X178272326Y-74611286D01*
X178138574Y-74822797D01*
X178040490Y-75053012D01*
X177980603Y-75295980D01*
X177960468Y-75545410D01*
X177980603Y-75794839D01*
X178040490Y-76037807D01*
X178040491Y-76037810D01*
X178067694Y-76101658D01*
X178130035Y-76247981D01*
X178138577Y-76268028D01*
X178272323Y-76479529D01*
X178272326Y-76479533D01*
X178438262Y-76666836D01*
X178438266Y-76666840D01*
X178539967Y-76749876D01*
X178613676Y-76810058D01*
X178632101Y-76825101D01*
X178632106Y-76825105D01*
X178791175Y-76916943D01*
X178848818Y-76950223D01*
X179082798Y-77038960D01*
X179327982Y-77089015D01*
X179396174Y-77091763D01*
X179578013Y-77099091D01*
X179578015Y-77099091D01*
X179578016Y-77099090D01*
X179578021Y-77099091D01*
X179826438Y-77068928D01*
X180066800Y-76999306D01*
X180292881Y-76892029D01*
X180498826Y-76749876D01*
X180679301Y-76576527D01*
X180829632Y-76376473D01*
X180945925Y-76154895D01*
X181025168Y-75917532D01*
X181045108Y-75794839D01*
X181065309Y-75670540D01*
X181065309Y-75670537D01*
X181065310Y-75670531D01*
X181067827Y-75545410D01*
X181065310Y-75420289D01*
X181065309Y-75420282D01*
X181065309Y-75420279D01*
X181025169Y-75173293D01*
X181025168Y-75173291D01*
X181025168Y-75173288D01*
X180945925Y-74935925D01*
X180829632Y-74714347D01*
X180829629Y-74714343D01*
X180829628Y-74714341D01*
X180752190Y-74611291D01*
X180679301Y-74514293D01*
X180535893Y-74376547D01*
X180498831Y-74340948D01*
X180498827Y-74340945D01*
X180481414Y-74328926D01*
X180292881Y-74198791D01*
X180257363Y-74181937D01*
X180205236Y-74135414D01*
X180186535Y-74068094D01*
X180207200Y-74001350D01*
X180260668Y-73956373D01*
X180310522Y-73945910D01*
X183184958Y-73945910D01*
X183251997Y-73965595D01*
X183272639Y-73982229D01*
X184068181Y-74777771D01*
X184101666Y-74839094D01*
X184104500Y-74865452D01*
X184104500Y-81834773D01*
X184084815Y-81901812D01*
X184051623Y-81936348D01*
X183858597Y-82071505D01*
X183691505Y-82238597D01*
X183561575Y-82424158D01*
X183506998Y-82467783D01*
X183437500Y-82474977D01*
X183375145Y-82443454D01*
X183358425Y-82424158D01*
X183228494Y-82238597D01*
X183061402Y-82071506D01*
X183061395Y-82071501D01*
X182867834Y-81935967D01*
X182867830Y-81935965D01*
X182796727Y-81902809D01*
X182653663Y-81836097D01*
X182653659Y-81836096D01*
X182653655Y-81836094D01*
X182425413Y-81774938D01*
X182425403Y-81774936D01*
X182190001Y-81754341D01*
X182189999Y-81754341D01*
X181954596Y-81774936D01*
X181954586Y-81774938D01*
X181726344Y-81836094D01*
X181726335Y-81836098D01*
X181512171Y-81935964D01*
X181512169Y-81935965D01*
X181318600Y-82071503D01*
X181196284Y-82193819D01*
X181134961Y-82227303D01*
X181065269Y-82222319D01*
X181009336Y-82180447D01*
X180992421Y-82149470D01*
X180943354Y-82017913D01*
X180943350Y-82017906D01*
X180857190Y-81902812D01*
X180857187Y-81902809D01*
X180742093Y-81816649D01*
X180742086Y-81816645D01*
X180607379Y-81766403D01*
X180607372Y-81766401D01*
X180547844Y-81760000D01*
X179900000Y-81760000D01*
X179900000Y-82665439D01*
X179846853Y-82634755D01*
X179717143Y-82600000D01*
X179582857Y-82600000D01*
X179453147Y-82634755D01*
X179400000Y-82665439D01*
X179400000Y-81760000D01*
X178752155Y-81760000D01*
X178692627Y-81766401D01*
X178692620Y-81766403D01*
X178557913Y-81816645D01*
X178557906Y-81816649D01*
X178442812Y-81902809D01*
X178442809Y-81902812D01*
X178356649Y-82017906D01*
X178356645Y-82017913D01*
X178307578Y-82149470D01*
X178265707Y-82205404D01*
X178200242Y-82229821D01*
X178131969Y-82214969D01*
X178103715Y-82193819D01*
X178059366Y-82149470D01*
X177981401Y-82071505D01*
X177869880Y-81993417D01*
X177788376Y-81936347D01*
X177744751Y-81881770D01*
X177735500Y-81834772D01*
X177735500Y-81548393D01*
X177735499Y-81548389D01*
X177734359Y-81542660D01*
X177711463Y-81427548D01*
X177664311Y-81313714D01*
X177664310Y-81313713D01*
X177664307Y-81313707D01*
X177595858Y-81211267D01*
X177595855Y-81211263D01*
X177505637Y-81121045D01*
X177505606Y-81121016D01*
X176471771Y-80087181D01*
X176438286Y-80025858D01*
X176443270Y-79956166D01*
X176485142Y-79900233D01*
X176550606Y-79875816D01*
X176559452Y-79875500D01*
X179961607Y-79875500D01*
X180022029Y-79863481D01*
X180082452Y-79851463D01*
X180082455Y-79851461D01*
X180082458Y-79851461D01*
X180115787Y-79837654D01*
X180115786Y-79837654D01*
X180115792Y-79837652D01*
X180196286Y-79804312D01*
X180247509Y-79770084D01*
X180298733Y-79735858D01*
X180385858Y-79648733D01*
X180385858Y-79648731D01*
X180396066Y-79638524D01*
X180396067Y-79638521D01*
X182097772Y-77936819D01*
X182159095Y-77903334D01*
X182185453Y-77900500D01*
X182244644Y-77900500D01*
X182244646Y-77900500D01*
X182429803Y-77861144D01*
X182602730Y-77784151D01*
X182755871Y-77672888D01*
X182882533Y-77532216D01*
X182977179Y-77368284D01*
X183035674Y-77188256D01*
X183055460Y-77000000D01*
X183035674Y-76811744D01*
X182977179Y-76631716D01*
X182882533Y-76467784D01*
X182755871Y-76327112D01*
X182755870Y-76327111D01*
X182602734Y-76215851D01*
X182602729Y-76215848D01*
X182429807Y-76138857D01*
X182429802Y-76138855D01*
X182281681Y-76107372D01*
X182244646Y-76099500D01*
X182055354Y-76099500D01*
X182022897Y-76106398D01*
X181870197Y-76138855D01*
X181870192Y-76138857D01*
X181697270Y-76215848D01*
X181697265Y-76215851D01*
X181544129Y-76327111D01*
X181417466Y-76467785D01*
X181322821Y-76631715D01*
X181322818Y-76631722D01*
X181273822Y-76782517D01*
X181264326Y-76811744D01*
X181252066Y-76928393D01*
X181246679Y-76979649D01*
X181220094Y-77044263D01*
X181211039Y-77054368D01*
X179677229Y-78588181D01*
X179615906Y-78621666D01*
X179589548Y-78624500D01*
X159217741Y-78624500D01*
X159217721Y-78624499D01*
X159211607Y-78624499D01*
X159088394Y-78624499D01*
X158987597Y-78644548D01*
X158987592Y-78644548D01*
X158967549Y-78648536D01*
X158967547Y-78648536D01*
X158920397Y-78668067D01*
X158853719Y-78695685D01*
X158853717Y-78695686D01*
X158751266Y-78764141D01*
X158751263Y-78764144D01*
X154272625Y-83242784D01*
X152801269Y-84714140D01*
X152801267Y-84714142D01*
X152757704Y-84757704D01*
X152714142Y-84801266D01*
X152697381Y-84826350D01*
X152680734Y-84851266D01*
X152680733Y-84851267D01*
X152645690Y-84903710D01*
X152645685Y-84903719D01*
X152624978Y-84953713D01*
X152624978Y-84953714D01*
X152598537Y-85017547D01*
X152598535Y-85017553D01*
X152586519Y-85077957D01*
X152586520Y-85077958D01*
X152584450Y-85088373D01*
X152584446Y-85088394D01*
X152574500Y-85138392D01*
X152574500Y-89564548D01*
X152554815Y-89631587D01*
X152538181Y-89652229D01*
X149327229Y-92863181D01*
X149265906Y-92896666D01*
X149239548Y-92899500D01*
X149180354Y-92899500D01*
X149147897Y-92906398D01*
X148995197Y-92938855D01*
X148995192Y-92938857D01*
X148822270Y-93015848D01*
X148822265Y-93015851D01*
X148669129Y-93127111D01*
X148669128Y-93127112D01*
X148622749Y-93178621D01*
X148563262Y-93215269D01*
X148493405Y-93213938D01*
X148442919Y-93183329D01*
X145288960Y-90029370D01*
X145255475Y-89968047D01*
X145253323Y-89954671D01*
X145235674Y-89786744D01*
X145177179Y-89606716D01*
X145082533Y-89442784D01*
X145039675Y-89395185D01*
X145007350Y-89359284D01*
X144977120Y-89296292D01*
X144975500Y-89276312D01*
X144975500Y-81817741D01*
X144975501Y-81817720D01*
X144975501Y-81688391D01*
X144952883Y-81574685D01*
X144950500Y-81550493D01*
X144950500Y-78878686D01*
X144970185Y-78811647D01*
X144997933Y-78782781D01*
X144997256Y-78781974D01*
X145001400Y-78778496D01*
X145084211Y-78695685D01*
X145168495Y-78611401D01*
X145304035Y-78417830D01*
X145403903Y-78203663D01*
X145465063Y-77975408D01*
X145485659Y-77740000D01*
X145465063Y-77504592D01*
X145406568Y-77286284D01*
X145403905Y-77276344D01*
X145403904Y-77276343D01*
X145403903Y-77276337D01*
X145304035Y-77062171D01*
X145303640Y-77061606D01*
X145168494Y-76868597D01*
X145001402Y-76701506D01*
X145001396Y-76701501D01*
X144815842Y-76571575D01*
X144772217Y-76516998D01*
X144765023Y-76447500D01*
X144796546Y-76385145D01*
X144815842Y-76368425D01*
X144928054Y-76289853D01*
X145001401Y-76238495D01*
X145168495Y-76071401D01*
X145304035Y-75877830D01*
X145403903Y-75663663D01*
X145465063Y-75435408D01*
X145485659Y-75200000D01*
X145465063Y-74964592D01*
X145405482Y-74742230D01*
X145403905Y-74736344D01*
X145403904Y-74736343D01*
X145403903Y-74736337D01*
X145304035Y-74522171D01*
X145298731Y-74514595D01*
X145168494Y-74328597D01*
X144997573Y-74157677D01*
X144999374Y-74155875D01*
X144966657Y-74106448D01*
X144965714Y-74036585D01*
X145002691Y-73977302D01*
X145065849Y-73947422D01*
X145085152Y-73945910D01*
X147235507Y-73945910D01*
X147302546Y-73965595D01*
G37*
%TD.AperFunction*%
%TA.AperFunction,Conductor*%
G36*
X186946997Y-73515595D02*
G01*
X186967639Y-73532229D01*
X194978070Y-81542660D01*
X195011555Y-81603983D01*
X195006571Y-81673675D01*
X194964699Y-81729608D01*
X194899235Y-81754025D01*
X194890389Y-81754341D01*
X194889999Y-81754341D01*
X194654596Y-81774936D01*
X194654586Y-81774938D01*
X194426344Y-81836094D01*
X194426335Y-81836098D01*
X194212171Y-81935964D01*
X194212169Y-81935965D01*
X194018600Y-82071503D01*
X193896284Y-82193819D01*
X193834961Y-82227303D01*
X193765269Y-82222319D01*
X193709336Y-82180447D01*
X193692421Y-82149470D01*
X193643354Y-82017913D01*
X193643350Y-82017906D01*
X193557190Y-81902812D01*
X193557187Y-81902809D01*
X193442093Y-81816649D01*
X193442086Y-81816645D01*
X193307379Y-81766403D01*
X193307372Y-81766401D01*
X193247844Y-81760000D01*
X192600000Y-81760000D01*
X192600000Y-82665439D01*
X192546853Y-82634755D01*
X192417143Y-82600000D01*
X192282857Y-82600000D01*
X192153147Y-82634755D01*
X192100000Y-82665439D01*
X192100000Y-81760000D01*
X191452155Y-81760000D01*
X191392627Y-81766401D01*
X191392620Y-81766403D01*
X191257913Y-81816645D01*
X191257906Y-81816649D01*
X191142812Y-81902809D01*
X191142809Y-81902812D01*
X191056649Y-82017906D01*
X191056645Y-82017913D01*
X191007578Y-82149470D01*
X190965707Y-82205404D01*
X190900242Y-82229821D01*
X190831969Y-82214969D01*
X190803715Y-82193819D01*
X190759366Y-82149470D01*
X190681401Y-82071505D01*
X190681397Y-82071502D01*
X190681396Y-82071501D01*
X190487834Y-81935967D01*
X190487830Y-81935965D01*
X190416727Y-81902809D01*
X190273663Y-81836097D01*
X190273659Y-81836096D01*
X190273655Y-81836094D01*
X190045413Y-81774938D01*
X190045403Y-81774936D01*
X189810001Y-81754341D01*
X189809999Y-81754341D01*
X189574596Y-81774936D01*
X189574586Y-81774938D01*
X189346344Y-81836094D01*
X189346335Y-81836098D01*
X189132171Y-81935964D01*
X189132169Y-81935965D01*
X188938597Y-82071505D01*
X188771505Y-82238597D01*
X188641575Y-82424158D01*
X188586998Y-82467783D01*
X188517500Y-82474977D01*
X188455145Y-82443454D01*
X188438425Y-82424158D01*
X188308494Y-82238597D01*
X188141402Y-82071506D01*
X188141395Y-82071501D01*
X187947834Y-81935967D01*
X187947830Y-81935965D01*
X187876727Y-81902809D01*
X187733663Y-81836097D01*
X187733659Y-81836096D01*
X187733655Y-81836094D01*
X187505413Y-81774938D01*
X187505403Y-81774936D01*
X187270001Y-81754341D01*
X187269999Y-81754341D01*
X187034596Y-81774936D01*
X187034586Y-81774938D01*
X186806344Y-81836094D01*
X186806335Y-81836098D01*
X186592171Y-81935964D01*
X186592169Y-81935965D01*
X186398597Y-82071505D01*
X186231505Y-82238597D01*
X186101575Y-82424158D01*
X186046998Y-82467783D01*
X185977500Y-82474977D01*
X185915145Y-82443454D01*
X185898425Y-82424158D01*
X185768494Y-82238597D01*
X185601402Y-82071506D01*
X185601401Y-82071505D01*
X185408376Y-81936347D01*
X185364751Y-81881770D01*
X185355500Y-81834772D01*
X185355500Y-74493396D01*
X185355500Y-74493394D01*
X185331463Y-74372548D01*
X185325875Y-74359058D01*
X185311962Y-74325468D01*
X185311947Y-74325435D01*
X185311932Y-74325397D01*
X185284312Y-74258715D01*
X185255263Y-74215241D01*
X185244745Y-74199499D01*
X185244745Y-74199500D01*
X185215858Y-74156267D01*
X185215855Y-74156264D01*
X185215853Y-74156261D01*
X185125637Y-74066045D01*
X185125606Y-74066016D01*
X184767181Y-73707591D01*
X184733696Y-73646268D01*
X184738680Y-73576576D01*
X184780552Y-73520643D01*
X184846016Y-73496226D01*
X184854862Y-73495910D01*
X186879958Y-73495910D01*
X186946997Y-73515595D01*
G37*
%TD.AperFunction*%
%TA.AperFunction,Conductor*%
G36*
X135012176Y-73515595D02*
G01*
X135057931Y-73568399D01*
X135067875Y-73637557D01*
X135038850Y-73701113D01*
X135032818Y-73707591D01*
X134851269Y-73889140D01*
X134851267Y-73889142D01*
X134816831Y-73923578D01*
X134764136Y-73976272D01*
X134763166Y-73977455D01*
X134762501Y-73977907D01*
X134759834Y-73980575D01*
X134759327Y-73980068D01*
X134705418Y-74016786D01*
X134635573Y-74018653D01*
X134614912Y-74011167D01*
X134433492Y-73926570D01*
X134433486Y-73926567D01*
X134220000Y-73869364D01*
X134220000Y-74766988D01*
X134162993Y-74734075D01*
X134035826Y-74700000D01*
X133904174Y-74700000D01*
X133777007Y-74734075D01*
X133720000Y-74766988D01*
X133720000Y-73869364D01*
X133719999Y-73869364D01*
X133506513Y-73926567D01*
X133506507Y-73926570D01*
X133292422Y-74026399D01*
X133292420Y-74026400D01*
X133098926Y-74161886D01*
X133098920Y-74161891D01*
X132931891Y-74328920D01*
X132931890Y-74328922D01*
X132801880Y-74514595D01*
X132747303Y-74558219D01*
X132677804Y-74565412D01*
X132615450Y-74533890D01*
X132598730Y-74514594D01*
X132468494Y-74328597D01*
X132301402Y-74161506D01*
X132301395Y-74161501D01*
X132295932Y-74157676D01*
X132247543Y-74123793D01*
X132107834Y-74025967D01*
X132107830Y-74025965D01*
X132074635Y-74010486D01*
X131893663Y-73926097D01*
X131893659Y-73926096D01*
X131893655Y-73926094D01*
X131665413Y-73864938D01*
X131665403Y-73864936D01*
X131566397Y-73856274D01*
X131501328Y-73830821D01*
X131460350Y-73774230D01*
X131456472Y-73704468D01*
X131489522Y-73645067D01*
X131602362Y-73532226D01*
X131663684Y-73498744D01*
X131690042Y-73495910D01*
X134945137Y-73495910D01*
X135012176Y-73515595D01*
G37*
%TD.AperFunction*%
%TD*%
M02*
