%TF.GenerationSoftware,KiCad,Pcbnew,8.0.1*%
%TF.CreationDate,2024-04-08T22:08:02+02:00*%
%TF.ProjectId,ProbeBoardPublicV5,50726f62-6542-46f6-9172-645075626c69,5.1*%
%TF.SameCoordinates,Original*%
%TF.FileFunction,Paste,Top*%
%TF.FilePolarity,Positive*%
%FSLAX46Y46*%
G04 Gerber Fmt 4.6, Leading zero omitted, Abs format (unit mm)*
G04 Created by KiCad (PCBNEW 8.0.1) date 2024-04-08 22:08:02*
%MOMM*%
%LPD*%
G01*
G04 APERTURE LIST*
G04 Aperture macros list*
%AMRoundRect*
0 Rectangle with rounded corners*
0 $1 Rounding radius*
0 $2 $3 $4 $5 $6 $7 $8 $9 X,Y pos of 4 corners*
0 Add a 4 corners polygon primitive as box body*
4,1,4,$2,$3,$4,$5,$6,$7,$8,$9,$2,$3,0*
0 Add four circle primitives for the rounded corners*
1,1,$1+$1,$2,$3*
1,1,$1+$1,$4,$5*
1,1,$1+$1,$6,$7*
1,1,$1+$1,$8,$9*
0 Add four rect primitives between the rounded corners*
20,1,$1+$1,$2,$3,$4,$5,0*
20,1,$1+$1,$4,$5,$6,$7,0*
20,1,$1+$1,$6,$7,$8,$9,0*
20,1,$1+$1,$8,$9,$2,$3,0*%
G04 Aperture macros list end*
%ADD10RoundRect,0.250000X0.337500X0.475000X-0.337500X0.475000X-0.337500X-0.475000X0.337500X-0.475000X0*%
%ADD11RoundRect,0.150000X0.150000X-0.825000X0.150000X0.825000X-0.150000X0.825000X-0.150000X-0.825000X0*%
%ADD12RoundRect,0.250000X-0.350000X-0.450000X0.350000X-0.450000X0.350000X0.450000X-0.350000X0.450000X0*%
%ADD13RoundRect,0.150000X-0.150000X0.587500X-0.150000X-0.587500X0.150000X-0.587500X0.150000X0.587500X0*%
%ADD14RoundRect,0.250000X0.350000X0.450000X-0.350000X0.450000X-0.350000X-0.450000X0.350000X-0.450000X0*%
%ADD15RoundRect,0.250000X-0.337500X-0.475000X0.337500X-0.475000X0.337500X0.475000X-0.337500X0.475000X0*%
%ADD16RoundRect,0.250000X-0.450000X0.350000X-0.450000X-0.350000X0.450000X-0.350000X0.450000X0.350000X0*%
%ADD17RoundRect,0.150000X-0.150000X0.512500X-0.150000X-0.512500X0.150000X-0.512500X0.150000X0.512500X0*%
%ADD18RoundRect,0.150000X0.150000X-0.587500X0.150000X0.587500X-0.150000X0.587500X-0.150000X-0.587500X0*%
%ADD19RoundRect,0.250000X0.450000X-0.350000X0.450000X0.350000X-0.450000X0.350000X-0.450000X-0.350000X0*%
%ADD20R,1.270000X1.270000*%
%ADD21RoundRect,0.250000X-0.475000X0.337500X-0.475000X-0.337500X0.475000X-0.337500X0.475000X0.337500X0*%
%ADD22RoundRect,0.225000X0.375000X-0.225000X0.375000X0.225000X-0.375000X0.225000X-0.375000X-0.225000X0*%
%ADD23RoundRect,0.225000X-0.225000X-0.375000X0.225000X-0.375000X0.225000X0.375000X-0.225000X0.375000X0*%
%ADD24RoundRect,0.250000X-0.325000X-0.450000X0.325000X-0.450000X0.325000X0.450000X-0.325000X0.450000X0*%
%ADD25RoundRect,0.250000X-1.100000X0.325000X-1.100000X-0.325000X1.100000X-0.325000X1.100000X0.325000X0*%
%ADD26R,1.200000X1.200000*%
%ADD27RoundRect,0.250000X0.325000X0.450000X-0.325000X0.450000X-0.325000X-0.450000X0.325000X-0.450000X0*%
%ADD28RoundRect,0.250000X0.475000X-0.337500X0.475000X0.337500X-0.475000X0.337500X-0.475000X-0.337500X0*%
%ADD29RoundRect,0.250000X0.650000X-0.412500X0.650000X0.412500X-0.650000X0.412500X-0.650000X-0.412500X0*%
G04 APERTURE END LIST*
D10*
%TO.C,C60*%
X150362500Y-97600000D03*
X148287500Y-97600000D03*
%TD*%
D11*
%TO.C,U2*%
X138540000Y-91750000D03*
X139810000Y-91750000D03*
X141080000Y-91750000D03*
X142350000Y-91750000D03*
X143620000Y-91750000D03*
X144890000Y-91750000D03*
X146160000Y-91750000D03*
X146160000Y-86800000D03*
X144890000Y-86800000D03*
X143620000Y-86800000D03*
X142350000Y-86800000D03*
X141080000Y-86800000D03*
X139810000Y-86800000D03*
X138540000Y-86800000D03*
%TD*%
D12*
%TO.C,R27*%
X139771666Y-99875000D03*
X141771666Y-99875000D03*
%TD*%
D13*
%TO.C,Q1*%
X155583332Y-81162500D03*
X153683332Y-81162500D03*
X154633332Y-83037500D03*
%TD*%
D10*
%TO.C,C55*%
X157137500Y-107100000D03*
X155062500Y-107100000D03*
%TD*%
D14*
%TO.C,R22*%
X137400000Y-96500000D03*
X135400000Y-96500000D03*
%TD*%
%TO.C,R38*%
X157100000Y-104700000D03*
X155100000Y-104700000D03*
%TD*%
D15*
%TO.C,C71*%
X191762500Y-108800000D03*
X193837500Y-108800000D03*
%TD*%
D12*
%TO.C,R4*%
X110100000Y-121637500D03*
X112100000Y-121637500D03*
%TD*%
D15*
%TO.C,C58*%
X142662500Y-81700000D03*
X144737500Y-81700000D03*
%TD*%
D13*
%TO.C,Q2*%
X149450000Y-81162500D03*
X147550000Y-81162500D03*
X148500000Y-83037500D03*
%TD*%
D16*
%TO.C,R5*%
X120475000Y-117107500D03*
X120475000Y-119107500D03*
%TD*%
D14*
%TO.C,R39*%
X130200000Y-112975000D03*
X128200000Y-112975000D03*
%TD*%
D17*
%TO.C,U4*%
X193387500Y-74712500D03*
X192437500Y-74712500D03*
X191487500Y-74712500D03*
X191487500Y-76987500D03*
X193387500Y-76987500D03*
%TD*%
D18*
%TO.C,Q4*%
X118830000Y-113937500D03*
X120730000Y-113937500D03*
X119780000Y-112062500D03*
%TD*%
D19*
%TO.C,R14*%
X168700000Y-76800000D03*
X168700000Y-74800000D03*
%TD*%
D20*
%TO.C,TR2*%
X182505000Y-110145000D03*
X182505000Y-112000000D03*
X182505000Y-113855000D03*
X189615000Y-113855000D03*
X189615000Y-112000000D03*
X189615000Y-110145000D03*
%TD*%
D21*
%TO.C,C1*%
X122900000Y-117100000D03*
X122900000Y-119175000D03*
%TD*%
D10*
%TO.C,C59*%
X146150000Y-99905000D03*
X144075000Y-99905000D03*
%TD*%
D21*
%TO.C,C5*%
X195475000Y-74837500D03*
X195475000Y-76912500D03*
%TD*%
D16*
%TO.C,R10*%
X151566666Y-81030000D03*
X151566666Y-83030000D03*
%TD*%
D22*
%TO.C,CR3*%
X127445000Y-89550000D03*
X127445000Y-86250000D03*
%TD*%
D23*
%TO.C,CR5*%
X142395000Y-113050000D03*
X145695000Y-113050000D03*
%TD*%
D10*
%TO.C,C61*%
X134937500Y-113000000D03*
X132862500Y-113000000D03*
%TD*%
D14*
%TO.C,R56*%
X193600000Y-113800000D03*
X191600000Y-113800000D03*
%TD*%
D13*
%TO.C,Q5*%
X114670000Y-112062500D03*
X112770000Y-112062500D03*
X113720000Y-113937500D03*
%TD*%
D12*
%TO.C,R28*%
X148295000Y-95227500D03*
X150295000Y-95227500D03*
%TD*%
D17*
%TO.C,U6*%
X185675000Y-74712500D03*
X184725000Y-74712500D03*
X183775000Y-74712500D03*
X183775000Y-76987500D03*
X185675000Y-76987500D03*
%TD*%
D21*
%TO.C,C2*%
X115655000Y-117100000D03*
X115655000Y-119175000D03*
%TD*%
D14*
%TO.C,R30*%
X140500000Y-81700000D03*
X138500000Y-81700000D03*
%TD*%
D21*
%TO.C,C4*%
X187750000Y-74837500D03*
X187750000Y-76912500D03*
%TD*%
D24*
%TO.C,D3*%
X110120000Y-127441250D03*
X112170000Y-127441250D03*
%TD*%
D25*
%TO.C,C52*%
X128870000Y-105650000D03*
X128870000Y-108600000D03*
%TD*%
D16*
%TO.C,R24*%
X115355000Y-106725000D03*
X115355000Y-108725000D03*
%TD*%
D14*
%TO.C,R25*%
X141775000Y-96525000D03*
X139775000Y-96525000D03*
%TD*%
D10*
%TO.C,C62*%
X139837500Y-113000000D03*
X137762500Y-113000000D03*
%TD*%
D23*
%TO.C,CR7*%
X127950000Y-117100000D03*
X131250000Y-117100000D03*
%TD*%
D11*
%TO.C,U3*%
X138540000Y-109575000D03*
X139810000Y-109575000D03*
X141080000Y-109575000D03*
X142350000Y-109575000D03*
X143620000Y-109575000D03*
X144890000Y-109575000D03*
X146160000Y-109575000D03*
X146160000Y-104625000D03*
X144890000Y-104625000D03*
X143620000Y-104625000D03*
X142350000Y-104625000D03*
X141080000Y-104625000D03*
X139810000Y-104625000D03*
X138540000Y-104625000D03*
%TD*%
D26*
%TO.C,D1*%
X194400000Y-120000000D03*
X191600000Y-120000000D03*
%TD*%
D15*
%TO.C,C7*%
X155075000Y-102400000D03*
X157150000Y-102400000D03*
%TD*%
D12*
%TO.C,R52*%
X197200000Y-125000000D03*
X199200000Y-125000000D03*
%TD*%
D27*
%TO.C,D2*%
X117550000Y-127441250D03*
X115500000Y-127441250D03*
%TD*%
D10*
%TO.C,C53*%
X150392500Y-86900000D03*
X148317500Y-86900000D03*
%TD*%
D23*
%TO.C,CR13*%
X133350000Y-117000000D03*
X136650000Y-117000000D03*
%TD*%
D16*
%TO.C,R33*%
X136475000Y-104225000D03*
X136475000Y-106225000D03*
%TD*%
D22*
%TO.C,CR4*%
X124500000Y-89550000D03*
X124500000Y-86250000D03*
%TD*%
D19*
%TO.C,R15*%
X176400000Y-76800000D03*
X176400000Y-74800000D03*
%TD*%
D23*
%TO.C,CR6*%
X147520000Y-113050000D03*
X150820000Y-113050000D03*
%TD*%
D14*
%TO.C,R29*%
X150295000Y-99972500D03*
X148295000Y-99972500D03*
%TD*%
D11*
%TO.C,U1*%
X130720000Y-91750000D03*
X131990000Y-91750000D03*
X133260000Y-91750000D03*
X134530000Y-91750000D03*
X134530000Y-86800000D03*
X133260000Y-86800000D03*
X131990000Y-86800000D03*
X130720000Y-86800000D03*
%TD*%
D10*
%TO.C,C56*%
X149837500Y-117120000D03*
X147762500Y-117120000D03*
%TD*%
D28*
%TO.C,C54*%
X117600000Y-108792500D03*
X117600000Y-106717500D03*
%TD*%
D19*
%TO.C,R23*%
X113140000Y-108725000D03*
X113140000Y-106725000D03*
%TD*%
D25*
%TO.C,C51*%
X124870000Y-105650000D03*
X124870000Y-108600000D03*
%TD*%
D19*
%TO.C,R11*%
X157700000Y-83000000D03*
X157700000Y-81000000D03*
%TD*%
D14*
%TO.C,R41*%
X144600000Y-117150000D03*
X142600000Y-117150000D03*
%TD*%
D29*
%TO.C,F1*%
X110500000Y-119062500D03*
X110500000Y-115937500D03*
%TD*%
D16*
%TO.C,R6*%
X118080000Y-117107500D03*
X118080000Y-119107500D03*
%TD*%
D12*
%TO.C,R26*%
X131075000Y-99875000D03*
X133075000Y-99875000D03*
%TD*%
D14*
%TO.C,R31*%
X137460833Y-99875000D03*
X135460833Y-99875000D03*
%TD*%
D19*
%TO.C,R16*%
X173833332Y-76800000D03*
X173833332Y-74800000D03*
%TD*%
%TO.C,R13*%
X171266666Y-76800000D03*
X171266666Y-74800000D03*
%TD*%
D14*
%TO.C,R3*%
X117525000Y-121637500D03*
X115525000Y-121637500D03*
%TD*%
D19*
%TO.C,R32*%
X136550000Y-92125000D03*
X136550000Y-90125000D03*
%TD*%
M02*
