%TF.GenerationSoftware,KiCad,Pcbnew,8.0.1*%
%TF.CreationDate,2024-04-08T22:08:02+02:00*%
%TF.ProjectId,ProbeBoardPublicV5,50726f62-6542-46f6-9172-645075626c69,5.1*%
%TF.SameCoordinates,Original*%
%TF.FileFunction,Profile,NP*%
%FSLAX46Y46*%
G04 Gerber Fmt 4.6, Leading zero omitted, Abs format (unit mm)*
G04 Created by KiCad (PCBNEW 8.0.1) date 2024-04-08 22:08:02*
%MOMM*%
%LPD*%
G01*
G04 APERTURE LIST*
%TA.AperFunction,Profile*%
%ADD10C,0.050000*%
%TD*%
G04 APERTURE END LIST*
D10*
X98515410Y-74745410D02*
X98465410Y-125595410D01*
X209515410Y-71845410D02*
G75*
G02*
X212415390Y-74745410I-10J-2899990D01*
G01*
X121615354Y-128493745D02*
X179515410Y-128495410D01*
X211015410Y-74745410D02*
G75*
G02*
X208015410Y-74745410I-1500000J0D01*
G01*
X208015410Y-74745410D02*
G75*
G02*
X211015410Y-74745410I1500000J0D01*
G01*
X101365410Y-128495410D02*
G75*
G02*
X98465390Y-125595410I-10J2900010D01*
G01*
X101415410Y-71845410D02*
X209515410Y-71845410D01*
X212415410Y-125595410D02*
G75*
G02*
X209515410Y-128495410I-2900010J10D01*
G01*
X115565410Y-128495410D02*
X121615354Y-128493745D01*
X212415410Y-125195410D02*
X212415410Y-74745410D01*
X123080658Y-125386660D02*
G75*
G02*
X119950162Y-125386660I-1565248J0D01*
G01*
X119950162Y-125386660D02*
G75*
G02*
X123080658Y-125386660I1565248J0D01*
G01*
X181067827Y-75545410D02*
G75*
G02*
X177962993Y-75545410I-1552417J0D01*
G01*
X177962993Y-75545410D02*
G75*
G02*
X181067827Y-75545410I1552417J0D01*
G01*
X212415410Y-125195410D02*
X212415410Y-125595410D01*
X123096549Y-75545410D02*
G75*
G02*
X119934271Y-75545410I-1581139J0D01*
G01*
X119934271Y-75545410D02*
G75*
G02*
X123096549Y-75545410I1581139J0D01*
G01*
X179515410Y-128495410D02*
X209515410Y-128495410D01*
X211015410Y-125195410D02*
G75*
G02*
X208015410Y-125195410I-1500000J0D01*
G01*
X208015410Y-125195410D02*
G75*
G02*
X211015410Y-125195410I1500000J0D01*
G01*
X107280000Y-76425000D02*
G75*
G02*
X103780000Y-76425000I-1750000J0D01*
G01*
X103780000Y-76425000D02*
G75*
G02*
X107280000Y-76425000I1750000J0D01*
G01*
X115565410Y-128495410D02*
X101365410Y-128495410D01*
X98515410Y-74745410D02*
G75*
G02*
X101415410Y-71845410I2899990J10D01*
G01*
X181041844Y-125095410D02*
G75*
G02*
X177988976Y-125095410I-1526434J0D01*
G01*
X177988976Y-125095410D02*
G75*
G02*
X181041844Y-125095410I1526434J0D01*
G01*
M02*
