M48
; DRILL file {KiCad 8.0.1} date 2024-04-08T22:07:58+0200
; FORMAT={-:-/ absolute / inch / decimal}
; #@! TF.CreationDate,2024-04-08T22:07:58+02:00
; #@! TF.GenerationSoftware,Kicad,Pcbnew,8.0.1
; #@! TF.FileFunction,Plated,1,2,PTH
FMAT,2
INCH
; #@! TA.AperFunction,Plated,PTH,ViaDrill
T1C0.0157
; #@! TA.AperFunction,Plated,PTH,ViaDrill
T2C0.0236
; #@! TA.AperFunction,Plated,PTH,ComponentDrill
T3C0.0315
; #@! TA.AperFunction,Plated,PTH,ComponentDrill
T4C0.0350
; #@! TA.AperFunction,Plated,PTH,ComponentDrill
T5C0.0394
; #@! TA.AperFunction,Plated,PTH,ComponentDrill
T6C0.0402
; #@! TA.AperFunction,Plated,PTH,ComponentDrill
T7C0.0791
; #@! TA.AperFunction,Plated,PTH,ComponentDrill
T8C0.1260
%
G90
G05
T1
X4.2077Y-4.8012
X4.2264Y-4.2024
X4.7087Y-4.752
X4.7991Y-4.7487
X5.0472Y-4.5315
X5.1978Y-3.4833
X5.1998Y-3.9941
X5.2992Y-3.3524
X5.3331Y-3.9931
X5.3726Y-3.8351
X5.373Y-3.4941
X5.376Y-3.7037
X5.5404Y-4.2313
X5.5559Y-4.4362
X5.5669Y-3.2982
X5.5738Y-3.7087
X5.5846Y-3.9921
X5.6043Y-3.5433
X5.6831Y-3.5423
X5.7037Y-4.247
X5.8252Y-4.0315
X5.877Y-3.6929
X6.3346Y-4.311
X7.1713Y-3.0315
X7.5433Y-4.815
T2
X3.9675Y-4.9124
X3.9695Y-4.6654
X3.9872Y-3.3091
X4.2441Y-4.4689
X4.3809Y-4.4685
X4.4715Y-3.7677
X4.5531Y-4.5443
X4.7451Y-4.5502
X4.8519Y-4.4722
X4.9262Y-3.2096
X5.1063Y-3.9331
X5.3819Y-4.2854
X5.5551Y-4.5374
X5.627Y-3.2884
X5.75Y-3.8356
X5.7963Y-3.3415
X5.9665Y-3.3494
X6.0098Y-4.0866
X6.0551Y-3.8287
X7.1742Y-2.9311
X7.6969Y-2.8868
T3
X5.8309Y-2.9606
X5.9293Y-2.9606
T4
X7.8553Y-4.4285
X7.8553Y-4.5285
T5
X4.0535Y-4.2797
X4.0535Y-4.3888
X4.0535Y-4.4978
X4.0535Y-4.6069
X4.1654Y-4.2252
X4.1654Y-4.3343
X4.1654Y-4.4433
X4.1654Y-4.5524
X4.1654Y-4.6614
X4.3809Y-4.9016
X4.4809Y-4.9016
X4.5809Y-4.9016
X4.7638Y-4.19
X4.7638Y-4.29
X4.9711Y-4.8652
X4.9711Y-4.9652
X4.9744Y-2.9606
X4.9744Y-3.0606
X5.0669Y-3.2559
X5.0711Y-4.8652
X5.0711Y-4.9652
X5.0744Y-2.9606
X5.0744Y-3.0606
X5.1711Y-4.8652
X5.1711Y-4.9652
X5.1744Y-2.9606
X5.1744Y-3.0606
X5.2283Y-4.19
X5.2283Y-4.29
X5.2711Y-4.8652
X5.2711Y-4.9652
X5.2744Y-2.9606
X5.2744Y-3.0606
X5.2756Y-3.2559
X5.3711Y-4.8652
X5.3711Y-4.9652
X5.3744Y-2.9606
X5.3744Y-3.0606
X5.4711Y-4.8652
X5.4711Y-4.9652
X5.4744Y-2.9606
X5.4744Y-3.0606
X5.5711Y-4.8652
X5.5711Y-4.9652
X5.5744Y-2.9606
X5.5744Y-3.0606
X5.6711Y-4.8652
X5.6711Y-4.9652
X5.6744Y-2.9606
X5.6744Y-3.0606
X5.7711Y-4.8652
X5.7711Y-4.9652
X5.8711Y-4.8652
X5.8711Y-4.9652
X5.9711Y-4.8652
X5.9711Y-4.9652
X6.0711Y-4.8652
X6.0711Y-4.9652
X6.1711Y-4.8652
X6.1711Y-4.9652
X6.2711Y-4.8652
X6.2711Y-4.9652
X6.3711Y-4.8652
X6.3711Y-4.9652
X6.4711Y-4.8652
X6.4711Y-4.9652
X6.5711Y-4.8652
X6.5711Y-4.9652
X6.6711Y-4.8652
X6.6711Y-4.9652
X6.7711Y-4.8652
X6.7711Y-4.9652
X6.8711Y-4.8652
X6.8711Y-4.9652
X7.0157Y-4.2992
X8.0748Y-2.9646
T6
X6.3728Y-3.272
X6.3728Y-3.972
X6.3819Y-3.522
X6.3819Y-3.622
X6.3819Y-3.722
X6.4728Y-3.272
X6.4728Y-3.972
X6.5728Y-3.272
X6.5728Y-3.972
X6.6728Y-3.272
X6.6728Y-3.972
X6.7728Y-3.272
X6.7728Y-3.972
X6.8728Y-3.272
X6.8728Y-3.972
X6.9728Y-3.272
X6.9728Y-3.972
X7.0728Y-3.272
X7.0728Y-3.972
X7.1728Y-3.272
X7.1728Y-3.972
X7.2728Y-3.272
X7.2728Y-3.972
X7.3728Y-3.272
X7.3728Y-3.972
X7.4728Y-3.272
X7.4728Y-3.972
X7.5728Y-3.272
X7.5728Y-3.972
X7.6728Y-3.272
X7.6728Y-3.972
X7.7728Y-3.272
X7.7728Y-3.972
X7.8728Y-3.272
X7.8728Y-3.972
X7.9728Y-3.272
X7.9728Y-3.972
X8.0728Y-3.272
X8.0728Y-3.972
X8.1728Y-3.272
X8.1728Y-3.972
X8.2728Y-3.272
X8.2728Y-3.972
T7
X8.0553Y-4.3285
X8.0553Y-4.7285
T8
X4.1535Y-3.9512
X4.1535Y-4.9354
M30
