G04 #@! TF.GenerationSoftware,KiCad,Pcbnew,8.0.1*
G04 #@! TF.CreationDate,2024-05-09T19:23:35+02:00*
G04 #@! TF.ProjectId,FluCom5,466c7543-6f6d-4352-9e6b-696361645f70,5.1*
G04 #@! TF.SameCoordinates,Original*
G04 #@! TF.FileFunction,Legend,Bot*
G04 #@! TF.FilePolarity,Positive*
%FSLAX46Y46*%
G04 Gerber Fmt 4.6, Leading zero omitted, Abs format (unit mm)*
G04 Created by KiCad (PCBNEW 8.0.1) date 2024-05-09 19:23:35*
%MOMM*%
%LPD*%
G01*
G04 APERTURE LIST*
G04 Aperture macros list*
%AMRoundRect*
0 Rectangle with rounded corners*
0 $1 Rounding radius*
0 $2 $3 $4 $5 $6 $7 $8 $9 X,Y pos of 4 corners*
0 Add a 4 corners polygon primitive as box body*
4,1,4,$2,$3,$4,$5,$6,$7,$8,$9,$2,$3,0*
0 Add four circle primitives for the rounded corners*
1,1,$1+$1,$2,$3*
1,1,$1+$1,$4,$5*
1,1,$1+$1,$6,$7*
1,1,$1+$1,$8,$9*
0 Add four rect primitives between the rounded corners*
20,1,$1+$1,$2,$3,$4,$5,0*
20,1,$1+$1,$4,$5,$6,$7,0*
20,1,$1+$1,$6,$7,$8,$9,0*
20,1,$1+$1,$8,$9,$2,$3,0*%
G04 Aperture macros list end*
%ADD10R,1.700000X1.700000*%
%ADD11O,1.700000X1.700000*%
%ADD12R,3.500000X3.500000*%
%ADD13RoundRect,0.750000X0.750000X1.000000X-0.750000X1.000000X-0.750000X-1.000000X0.750000X-1.000000X0*%
%ADD14RoundRect,0.875000X0.875000X0.875000X-0.875000X0.875000X-0.875000X-0.875000X0.875000X-0.875000X0*%
%ADD15R,3.000000X3.000000*%
%ADD16C,3.000000*%
%ADD17R,1.500000X2.000000*%
%ADD18O,1.500000X2.000000*%
%ADD19R,1.600000X1.600000*%
%ADD20C,1.600000*%
%ADD21O,2.000000X1.200000*%
G04 APERTURE END LIST*
%LPC*%
D10*
X133000000Y-135500000D03*
D11*
X133000000Y-138040000D03*
X130460000Y-135500000D03*
X130460000Y-138040000D03*
X127920000Y-135500000D03*
X127920000Y-138040000D03*
X125380000Y-135500000D03*
X125380000Y-138040000D03*
X122840000Y-135500000D03*
X122840000Y-138040000D03*
X120300000Y-135500000D03*
X120300000Y-138040000D03*
X117760000Y-135500000D03*
X117760000Y-138040000D03*
X115220000Y-135500000D03*
X115220000Y-138040000D03*
X112680000Y-135500000D03*
X112680000Y-138040000D03*
X110140000Y-135500000D03*
X110140000Y-138040000D03*
X107600000Y-135500000D03*
X107600000Y-138040000D03*
X105060000Y-135500000D03*
X105060000Y-138040000D03*
X102520000Y-135500000D03*
X102520000Y-138040000D03*
X99980000Y-135500000D03*
X99980000Y-138040000D03*
X97440000Y-135500000D03*
X97440000Y-138040000D03*
X94900000Y-135500000D03*
X94900000Y-138040000D03*
X92360000Y-135500000D03*
X92360000Y-138040000D03*
X89820000Y-135500000D03*
X89820000Y-138040000D03*
X87280000Y-135500000D03*
X87280000Y-138040000D03*
X84740000Y-135500000D03*
X84740000Y-138040000D03*
D10*
X72785000Y-127325000D03*
D11*
X72785000Y-124785000D03*
X72785000Y-122245000D03*
X72785000Y-119705000D03*
X72785000Y-117165000D03*
X72785000Y-114625000D03*
X72785000Y-112085000D03*
X72785000Y-109545000D03*
X72785000Y-107005000D03*
X72785000Y-104465000D03*
X72785000Y-101925000D03*
X72785000Y-99385000D03*
X72785000Y-96845000D03*
X75325000Y-127325000D03*
X75325000Y-124785000D03*
X75325000Y-122245000D03*
X75325000Y-119705000D03*
X75325000Y-117165000D03*
X75325000Y-114625000D03*
X75325000Y-112085000D03*
X75325000Y-109545000D03*
X75325000Y-107005000D03*
X75325000Y-104465000D03*
X75325000Y-101925000D03*
X75325000Y-99385000D03*
X75325000Y-96845000D03*
D12*
X156814000Y-100050000D03*
D13*
X162814000Y-100050000D03*
D14*
X159814000Y-95350000D03*
D15*
X166900000Y-109825000D03*
D16*
X166900000Y-114905000D03*
X166900000Y-119985000D03*
X166900000Y-125065000D03*
X166900000Y-130145000D03*
D15*
X155560000Y-88700000D03*
D16*
X160640000Y-88700000D03*
D10*
X152146000Y-131300000D03*
D11*
X149606000Y-131300000D03*
D10*
X166925000Y-91525000D03*
D17*
X159650000Y-135225000D03*
D18*
X157110000Y-135225000D03*
X154570000Y-135225000D03*
X152030000Y-135225000D03*
D19*
X64450000Y-128525000D03*
D20*
X64450000Y-125755000D03*
X64450000Y-122985000D03*
X64450000Y-120215000D03*
X64450000Y-117445000D03*
X64450000Y-114675000D03*
X64450000Y-111905000D03*
X64450000Y-109135000D03*
X64450000Y-106365000D03*
X64450000Y-103595000D03*
X64450000Y-100825000D03*
X64450000Y-98055000D03*
X64450000Y-95285000D03*
X61910000Y-127140000D03*
X61910000Y-124370000D03*
X61910000Y-121600000D03*
X61910000Y-118830000D03*
X61910000Y-116060000D03*
X61910000Y-113290000D03*
X61910000Y-110520000D03*
X61910000Y-107750000D03*
X61910000Y-104980000D03*
X61910000Y-102210000D03*
X61910000Y-99440000D03*
X61910000Y-96670000D03*
D10*
X123710000Y-130500000D03*
D11*
X126250000Y-130500000D03*
D10*
X124010000Y-87500000D03*
D11*
X121470000Y-87500000D03*
D10*
X143150000Y-130600000D03*
D11*
X145690000Y-130600000D03*
X143150000Y-133140000D03*
X145690000Y-133140000D03*
X143150000Y-135680000D03*
X145690000Y-135680000D03*
X143150000Y-138220000D03*
X145690000Y-138220000D03*
D10*
X84836000Y-89662000D03*
D11*
X84836000Y-87122000D03*
X87376000Y-89662000D03*
X87376000Y-87122000D03*
X89916000Y-89662000D03*
X89916000Y-87122000D03*
X92456000Y-89662000D03*
X92456000Y-87122000D03*
X94996000Y-89662000D03*
X94996000Y-87122000D03*
X97536000Y-89662000D03*
X97536000Y-87122000D03*
X100076000Y-89662000D03*
X100076000Y-87122000D03*
X102616000Y-89662000D03*
X102616000Y-87122000D03*
D21*
X149500000Y-97590000D03*
X149500000Y-102670000D03*
X149500000Y-105210000D03*
X149500000Y-110290000D03*
X130094000Y-119434000D03*
D10*
X136825000Y-92450000D03*
D11*
X139365000Y-92450000D03*
D10*
X74200000Y-135425000D03*
D11*
X74200000Y-137965000D03*
%LPD*%
M02*
