G04 #@! TF.GenerationSoftware,KiCad,Pcbnew,8.0.1*
G04 #@! TF.CreationDate,2024-05-09T19:23:35+02:00*
G04 #@! TF.ProjectId,FluCom5,466c7543-6f6d-4352-9e6b-696361645f70,5.1*
G04 #@! TF.SameCoordinates,Original*
G04 #@! TF.FileFunction,Profile,NP*
%FSLAX46Y46*%
G04 Gerber Fmt 4.6, Leading zero omitted, Abs format (unit mm)*
G04 Created by KiCad (PCBNEW 8.0.1) date 2024-05-09 19:23:35*
%MOMM*%
%LPD*%
G01*
G04 APERTURE LIST*
G04 #@! TA.AperFunction,Profile*
%ADD10C,0.050000*%
G04 #@! TD*
G04 APERTURE END LIST*
D10*
X80099944Y-140398335D02*
X138000000Y-140400000D01*
X59850000Y-140400000D02*
G75*
G02*
X56950000Y-137500000I0J2900000D01*
G01*
X74050000Y-140400000D02*
X59850000Y-140400000D01*
X59900000Y-83750000D02*
X168000000Y-83750000D01*
X170900000Y-137500000D02*
G75*
G02*
X168000000Y-140400000I-2900000J0D01*
G01*
X169500000Y-137100000D02*
G75*
G02*
X166500000Y-137100000I-1500000J0D01*
G01*
X166500000Y-137100000D02*
G75*
G02*
X169500000Y-137100000I1500000J0D01*
G01*
X170900000Y-137100000D02*
X170900000Y-137500000D01*
X81581139Y-87450000D02*
G75*
G02*
X78418861Y-87450000I-1581139J0D01*
G01*
X78418861Y-87450000D02*
G75*
G02*
X81581139Y-87450000I1581139J0D01*
G01*
X74050000Y-140400000D02*
X80099944Y-140398335D01*
X65675000Y-135650000D02*
G75*
G02*
X62175000Y-135650000I-1750000J0D01*
G01*
X62175000Y-135650000D02*
G75*
G02*
X65675000Y-135650000I1750000J0D01*
G01*
X168000000Y-83750000D02*
G75*
G02*
X170900000Y-86650000I0J-2900000D01*
G01*
X57000000Y-86650000D02*
G75*
G02*
X59900000Y-83750000I2900000J0D01*
G01*
X81565248Y-137000000D02*
G75*
G02*
X78434752Y-137000000I-1565248J0D01*
G01*
X78434752Y-137000000D02*
G75*
G02*
X81565248Y-137000000I1565248J0D01*
G01*
X139526434Y-137000000D02*
G75*
G02*
X136473566Y-137000000I-1526434J0D01*
G01*
X136473566Y-137000000D02*
G75*
G02*
X139526434Y-137000000I1526434J0D01*
G01*
X57000000Y-86650000D02*
X56950000Y-137500000D01*
X170900000Y-137100000D02*
X170900000Y-86650000D01*
X138000000Y-140400000D02*
X168000000Y-140400000D01*
X169500000Y-86650000D02*
G75*
G02*
X166500000Y-86650000I-1500000J0D01*
G01*
X166500000Y-86650000D02*
G75*
G02*
X169500000Y-86650000I1500000J0D01*
G01*
X139552417Y-87450000D02*
G75*
G02*
X136447583Y-87450000I-1552417J0D01*
G01*
X136447583Y-87450000D02*
G75*
G02*
X139552417Y-87450000I1552417J0D01*
G01*
X65775000Y-88350000D02*
G75*
G02*
X62275000Y-88350000I-1750000J0D01*
G01*
X62275000Y-88350000D02*
G75*
G02*
X65775000Y-88350000I1750000J0D01*
G01*
M02*
