G04 #@! TF.GenerationSoftware,KiCad,Pcbnew,8.0.1*
G04 #@! TF.CreationDate,2024-05-09T19:23:35+02:00*
G04 #@! TF.ProjectId,FluCom5,466c7543-6f6d-4352-9e6b-696361645f70,5.1*
G04 #@! TF.SameCoordinates,Original*
G04 #@! TF.FileFunction,Soldermask,Top*
G04 #@! TF.FilePolarity,Negative*
%FSLAX46Y46*%
G04 Gerber Fmt 4.6, Leading zero omitted, Abs format (unit mm)*
G04 Created by KiCad (PCBNEW 8.0.1) date 2024-05-09 19:23:35*
%MOMM*%
%LPD*%
G01*
G04 APERTURE LIST*
G04 Aperture macros list*
%AMRoundRect*
0 Rectangle with rounded corners*
0 $1 Rounding radius*
0 $2 $3 $4 $5 $6 $7 $8 $9 X,Y pos of 4 corners*
0 Add a 4 corners polygon primitive as box body*
4,1,4,$2,$3,$4,$5,$6,$7,$8,$9,$2,$3,0*
0 Add four circle primitives for the rounded corners*
1,1,$1+$1,$2,$3*
1,1,$1+$1,$4,$5*
1,1,$1+$1,$6,$7*
1,1,$1+$1,$8,$9*
0 Add four rect primitives between the rounded corners*
20,1,$1+$1,$2,$3,$4,$5,0*
20,1,$1+$1,$4,$5,$6,$7,0*
20,1,$1+$1,$6,$7,$8,$9,0*
20,1,$1+$1,$8,$9,$2,$3,0*%
G04 Aperture macros list end*
%ADD10RoundRect,0.250000X-0.475000X0.337500X-0.475000X-0.337500X0.475000X-0.337500X0.475000X0.337500X0*%
%ADD11RoundRect,0.250000X0.475000X-0.337500X0.475000X0.337500X-0.475000X0.337500X-0.475000X-0.337500X0*%
%ADD12RoundRect,0.250000X0.450000X-0.325000X0.450000X0.325000X-0.450000X0.325000X-0.450000X-0.325000X0*%
%ADD13RoundRect,0.250000X-0.450000X0.325000X-0.450000X-0.325000X0.450000X-0.325000X0.450000X0.325000X0*%
%ADD14R,3.300000X2.500000*%
%ADD15R,1.700000X1.700000*%
%ADD16O,1.700000X1.700000*%
%ADD17R,3.500000X3.500000*%
%ADD18RoundRect,0.750000X0.750000X1.000000X-0.750000X1.000000X-0.750000X-1.000000X0.750000X-1.000000X0*%
%ADD19RoundRect,0.875000X0.875000X0.875000X-0.875000X0.875000X-0.875000X-0.875000X0.875000X-0.875000X0*%
%ADD20R,3.000000X3.000000*%
%ADD21C,3.000000*%
%ADD22R,0.800000X0.900000*%
%ADD23RoundRect,0.250000X0.450000X-0.350000X0.450000X0.350000X-0.450000X0.350000X-0.450000X-0.350000X0*%
%ADD24RoundRect,0.250000X0.350000X0.450000X-0.350000X0.450000X-0.350000X-0.450000X0.350000X-0.450000X0*%
%ADD25RoundRect,0.150000X0.150000X-0.825000X0.150000X0.825000X-0.150000X0.825000X-0.150000X-0.825000X0*%
%ADD26R,1.500000X2.000000*%
%ADD27O,1.500000X2.000000*%
%ADD28RoundRect,0.250000X-0.450000X0.350000X-0.450000X-0.350000X0.450000X-0.350000X0.450000X0.350000X0*%
%ADD29RoundRect,0.250000X-0.350000X-0.450000X0.350000X-0.450000X0.350000X0.450000X-0.350000X0.450000X0*%
%ADD30RoundRect,0.250000X-0.337500X-0.475000X0.337500X-0.475000X0.337500X0.475000X-0.337500X0.475000X0*%
%ADD31R,1.600000X1.600000*%
%ADD32C,1.600000*%
%ADD33RoundRect,0.150000X-0.512500X-0.150000X0.512500X-0.150000X0.512500X0.150000X-0.512500X0.150000X0*%
%ADD34RoundRect,0.600000X-4.400000X2.400000X-4.400000X-2.400000X4.400000X-2.400000X4.400000X2.400000X0*%
%ADD35O,2.000000X1.200000*%
%ADD36R,0.900000X1.000000*%
G04 APERTURE END LIST*
D10*
X79603600Y-121542900D03*
X79603600Y-123617900D03*
X90424000Y-121542900D03*
X90424000Y-123617900D03*
D11*
X90322400Y-108835100D03*
X90322400Y-106760100D03*
D10*
X163703000Y-134598500D03*
X163703000Y-136673500D03*
D12*
X155875000Y-115735000D03*
X155875000Y-113685000D03*
D13*
X155875000Y-124100000D03*
X155875000Y-126150000D03*
D12*
X155875000Y-120920000D03*
X155875000Y-118870000D03*
X155875000Y-110550000D03*
X155875000Y-108500000D03*
D14*
X146750000Y-92350000D03*
X146750000Y-85550000D03*
D15*
X133000000Y-135500000D03*
D16*
X133000000Y-138040000D03*
X130460000Y-135500000D03*
X130460000Y-138040000D03*
X127920000Y-135500000D03*
X127920000Y-138040000D03*
X125380000Y-135500000D03*
X125380000Y-138040000D03*
X122840000Y-135500000D03*
X122840000Y-138040000D03*
X120300000Y-135500000D03*
X120300000Y-138040000D03*
X117760000Y-135500000D03*
X117760000Y-138040000D03*
X115220000Y-135500000D03*
X115220000Y-138040000D03*
X112680000Y-135500000D03*
X112680000Y-138040000D03*
X110140000Y-135500000D03*
X110140000Y-138040000D03*
X107600000Y-135500000D03*
X107600000Y-138040000D03*
X105060000Y-135500000D03*
X105060000Y-138040000D03*
X102520000Y-135500000D03*
X102520000Y-138040000D03*
X99980000Y-135500000D03*
X99980000Y-138040000D03*
X97440000Y-135500000D03*
X97440000Y-138040000D03*
X94900000Y-135500000D03*
X94900000Y-138040000D03*
X92360000Y-135500000D03*
X92360000Y-138040000D03*
X89820000Y-135500000D03*
X89820000Y-138040000D03*
X87280000Y-135500000D03*
X87280000Y-138040000D03*
X84740000Y-135500000D03*
X84740000Y-138040000D03*
D15*
X72785000Y-127325000D03*
D16*
X72785000Y-124785000D03*
X72785000Y-122245000D03*
X72785000Y-119705000D03*
X72785000Y-117165000D03*
X72785000Y-114625000D03*
X72785000Y-112085000D03*
X72785000Y-109545000D03*
X72785000Y-107005000D03*
X72785000Y-104465000D03*
X72785000Y-101925000D03*
X72785000Y-99385000D03*
X72785000Y-96845000D03*
X75325000Y-127325000D03*
X75325000Y-124785000D03*
X75325000Y-122245000D03*
X75325000Y-119705000D03*
X75325000Y-117165000D03*
X75325000Y-114625000D03*
X75325000Y-112085000D03*
X75325000Y-109545000D03*
X75325000Y-107005000D03*
X75325000Y-104465000D03*
X75325000Y-101925000D03*
X75325000Y-99385000D03*
X75325000Y-96845000D03*
D17*
X156814000Y-100050000D03*
D18*
X162814000Y-100050000D03*
D19*
X159814000Y-95350000D03*
D20*
X166900000Y-109825000D03*
D21*
X166900000Y-114905000D03*
X166900000Y-119985000D03*
X166900000Y-125065000D03*
X166900000Y-130145000D03*
D20*
X155560000Y-88700000D03*
D21*
X160640000Y-88700000D03*
D15*
X152146000Y-131300000D03*
D16*
X149606000Y-131300000D03*
D22*
X110050000Y-116500000D03*
X111950000Y-116500000D03*
X111000000Y-114500000D03*
D23*
X159175000Y-115741666D03*
X159175000Y-113741666D03*
X159175000Y-120933332D03*
X159175000Y-118933332D03*
X159175000Y-110550000D03*
X159175000Y-108550000D03*
D24*
X112100000Y-121100000D03*
X110100000Y-121100000D03*
D15*
X166925000Y-91525000D03*
D25*
X79590000Y-117522000D03*
X80860000Y-117522000D03*
X82130000Y-117522000D03*
X83400000Y-117522000D03*
X84670000Y-117522000D03*
X85940000Y-117522000D03*
X87210000Y-117522000D03*
X87210000Y-112572000D03*
X85940000Y-112572000D03*
X84670000Y-112572000D03*
X83400000Y-112572000D03*
X82130000Y-112572000D03*
X80860000Y-112572000D03*
X79590000Y-112572000D03*
X90373200Y-117522000D03*
X91643200Y-117522000D03*
X92913200Y-117522000D03*
X94183200Y-117522000D03*
X95453200Y-117522000D03*
X96723200Y-117522000D03*
X97993200Y-117522000D03*
X97993200Y-112572000D03*
X96723200Y-112572000D03*
X95453200Y-112572000D03*
X94183200Y-112572000D03*
X92913200Y-112572000D03*
X91643200Y-112572000D03*
X90373200Y-112572000D03*
D26*
X159650000Y-135225000D03*
D27*
X157110000Y-135225000D03*
X154570000Y-135225000D03*
X152030000Y-135225000D03*
D24*
X102352000Y-121150000D03*
X100352000Y-121150000D03*
D28*
X99275000Y-106700000D03*
X99275000Y-108700000D03*
D22*
X100402000Y-116550000D03*
X102302000Y-116550000D03*
X101352000Y-114550000D03*
D28*
X112257600Y-106800000D03*
X112257600Y-108800000D03*
D29*
X123650001Y-124550001D03*
X125650001Y-124550001D03*
D11*
X79502000Y-108835100D03*
X79502000Y-106760100D03*
D10*
X115265200Y-121542900D03*
X115265200Y-123617900D03*
D11*
X115265200Y-108867500D03*
X115265200Y-106792500D03*
D25*
X115238000Y-117522000D03*
X116508000Y-117522000D03*
X117778000Y-117522000D03*
X119048000Y-117522000D03*
X120318000Y-117522000D03*
X121588000Y-117522000D03*
X122858000Y-117522000D03*
X122858000Y-112572000D03*
X121588000Y-112572000D03*
X120318000Y-112572000D03*
X119048000Y-112572000D03*
X117778000Y-112572000D03*
X116508000Y-112572000D03*
X115238000Y-112572000D03*
D30*
X155937500Y-131000000D03*
X158012500Y-131000000D03*
D23*
X159175000Y-126125000D03*
X159175000Y-124125000D03*
D31*
X64450000Y-128525000D03*
D32*
X64450000Y-125755000D03*
X64450000Y-122985000D03*
X64450000Y-120215000D03*
X64450000Y-117445000D03*
X64450000Y-114675000D03*
X64450000Y-111905000D03*
X64450000Y-109135000D03*
X64450000Y-106365000D03*
X64450000Y-103595000D03*
X64450000Y-100825000D03*
X64450000Y-98055000D03*
X64450000Y-95285000D03*
X61910000Y-127140000D03*
X61910000Y-124370000D03*
X61910000Y-121600000D03*
X61910000Y-118830000D03*
X61910000Y-116060000D03*
X61910000Y-113290000D03*
X61910000Y-110520000D03*
X61910000Y-107750000D03*
X61910000Y-104980000D03*
X61910000Y-102210000D03*
X61910000Y-99440000D03*
X61910000Y-96670000D03*
D15*
X123710000Y-130500000D03*
D16*
X126250000Y-130500000D03*
D15*
X124010000Y-87500000D03*
D16*
X121470000Y-87500000D03*
D10*
X109250000Y-106792500D03*
X109250000Y-108867500D03*
D15*
X143150000Y-130600000D03*
D16*
X145690000Y-130600000D03*
X143150000Y-133140000D03*
X145690000Y-133140000D03*
X143150000Y-135680000D03*
X145690000Y-135680000D03*
X143150000Y-138220000D03*
X145690000Y-138220000D03*
D29*
X124500000Y-99400000D03*
X126500000Y-99400000D03*
D11*
X126625000Y-108887500D03*
X126625000Y-106812500D03*
D33*
X104012500Y-106700000D03*
X104012500Y-107650000D03*
X104012500Y-108600000D03*
X106287500Y-108600000D03*
X106287500Y-106700000D03*
D15*
X84836000Y-89662000D03*
D16*
X84836000Y-87122000D03*
X87376000Y-89662000D03*
X87376000Y-87122000D03*
X89916000Y-89662000D03*
X89916000Y-87122000D03*
X92456000Y-89662000D03*
X92456000Y-87122000D03*
X94996000Y-89662000D03*
X94996000Y-87122000D03*
X97536000Y-89662000D03*
X97536000Y-87122000D03*
X100076000Y-89662000D03*
X100076000Y-87122000D03*
X102616000Y-89662000D03*
X102616000Y-87122000D03*
D34*
X138349000Y-102670000D03*
D35*
X149500000Y-97590000D03*
X149500000Y-102670000D03*
X149500000Y-105210000D03*
X149500000Y-110290000D03*
X130094000Y-119434000D03*
D33*
X122112500Y-106750000D03*
X122112500Y-107700000D03*
X122112500Y-108650000D03*
X124387500Y-108650000D03*
X124387500Y-106750000D03*
D36*
X131900000Y-88300000D03*
X127800000Y-88300000D03*
X131900000Y-86700000D03*
X127800000Y-86700000D03*
D15*
X136825000Y-92450000D03*
D16*
X139365000Y-92450000D03*
D15*
X74200000Y-135425000D03*
D16*
X74200000Y-137965000D03*
M02*
