G04 #@! TF.GenerationSoftware,KiCad,Pcbnew,8.0.1*
G04 #@! TF.CreationDate,2024-05-09T19:23:35+02:00*
G04 #@! TF.ProjectId,FluCom5,466c7543-6f6d-4352-9e6b-696361645f70,5.1*
G04 #@! TF.SameCoordinates,Original*
G04 #@! TF.FileFunction,Paste,Top*
G04 #@! TF.FilePolarity,Positive*
%FSLAX46Y46*%
G04 Gerber Fmt 4.6, Leading zero omitted, Abs format (unit mm)*
G04 Created by KiCad (PCBNEW 8.0.1) date 2024-05-09 19:23:35*
%MOMM*%
%LPD*%
G01*
G04 APERTURE LIST*
G04 Aperture macros list*
%AMRoundRect*
0 Rectangle with rounded corners*
0 $1 Rounding radius*
0 $2 $3 $4 $5 $6 $7 $8 $9 X,Y pos of 4 corners*
0 Add a 4 corners polygon primitive as box body*
4,1,4,$2,$3,$4,$5,$6,$7,$8,$9,$2,$3,0*
0 Add four circle primitives for the rounded corners*
1,1,$1+$1,$2,$3*
1,1,$1+$1,$4,$5*
1,1,$1+$1,$6,$7*
1,1,$1+$1,$8,$9*
0 Add four rect primitives between the rounded corners*
20,1,$1+$1,$2,$3,$4,$5,0*
20,1,$1+$1,$4,$5,$6,$7,0*
20,1,$1+$1,$6,$7,$8,$9,0*
20,1,$1+$1,$8,$9,$2,$3,0*%
G04 Aperture macros list end*
%ADD10RoundRect,0.250000X-0.475000X0.337500X-0.475000X-0.337500X0.475000X-0.337500X0.475000X0.337500X0*%
%ADD11RoundRect,0.250000X0.475000X-0.337500X0.475000X0.337500X-0.475000X0.337500X-0.475000X-0.337500X0*%
%ADD12RoundRect,0.250000X0.450000X-0.325000X0.450000X0.325000X-0.450000X0.325000X-0.450000X-0.325000X0*%
%ADD13RoundRect,0.250000X-0.450000X0.325000X-0.450000X-0.325000X0.450000X-0.325000X0.450000X0.325000X0*%
%ADD14R,3.300000X2.500000*%
%ADD15R,0.800000X0.900000*%
%ADD16RoundRect,0.250000X0.450000X-0.350000X0.450000X0.350000X-0.450000X0.350000X-0.450000X-0.350000X0*%
%ADD17RoundRect,0.250000X0.350000X0.450000X-0.350000X0.450000X-0.350000X-0.450000X0.350000X-0.450000X0*%
%ADD18RoundRect,0.150000X0.150000X-0.825000X0.150000X0.825000X-0.150000X0.825000X-0.150000X-0.825000X0*%
%ADD19RoundRect,0.250000X-0.450000X0.350000X-0.450000X-0.350000X0.450000X-0.350000X0.450000X0.350000X0*%
%ADD20RoundRect,0.250000X-0.350000X-0.450000X0.350000X-0.450000X0.350000X0.450000X-0.350000X0.450000X0*%
%ADD21RoundRect,0.250000X-0.337500X-0.475000X0.337500X-0.475000X0.337500X0.475000X-0.337500X0.475000X0*%
%ADD22RoundRect,0.150000X-0.512500X-0.150000X0.512500X-0.150000X0.512500X0.150000X-0.512500X0.150000X0*%
%ADD23R,0.900000X1.000000*%
G04 APERTURE END LIST*
D10*
X79603600Y-121542900D03*
X79603600Y-123617900D03*
X90424000Y-121542900D03*
X90424000Y-123617900D03*
D11*
X90322400Y-108835100D03*
X90322400Y-106760100D03*
D10*
X163703000Y-134598500D03*
X163703000Y-136673500D03*
D12*
X155875000Y-115735000D03*
X155875000Y-113685000D03*
D13*
X155875000Y-124100000D03*
X155875000Y-126150000D03*
D12*
X155875000Y-120920000D03*
X155875000Y-118870000D03*
X155875000Y-110550000D03*
X155875000Y-108500000D03*
D14*
X146750000Y-92350000D03*
X146750000Y-85550000D03*
D15*
X110050000Y-116500000D03*
X111950000Y-116500000D03*
X111000000Y-114500000D03*
D16*
X159175000Y-115741666D03*
X159175000Y-113741666D03*
X159175000Y-120933332D03*
X159175000Y-118933332D03*
X159175000Y-110550000D03*
X159175000Y-108550000D03*
D17*
X112100000Y-121100000D03*
X110100000Y-121100000D03*
D18*
X79590000Y-117522000D03*
X80860000Y-117522000D03*
X82130000Y-117522000D03*
X83400000Y-117522000D03*
X84670000Y-117522000D03*
X85940000Y-117522000D03*
X87210000Y-117522000D03*
X87210000Y-112572000D03*
X85940000Y-112572000D03*
X84670000Y-112572000D03*
X83400000Y-112572000D03*
X82130000Y-112572000D03*
X80860000Y-112572000D03*
X79590000Y-112572000D03*
X90373200Y-117522000D03*
X91643200Y-117522000D03*
X92913200Y-117522000D03*
X94183200Y-117522000D03*
X95453200Y-117522000D03*
X96723200Y-117522000D03*
X97993200Y-117522000D03*
X97993200Y-112572000D03*
X96723200Y-112572000D03*
X95453200Y-112572000D03*
X94183200Y-112572000D03*
X92913200Y-112572000D03*
X91643200Y-112572000D03*
X90373200Y-112572000D03*
D17*
X102352000Y-121150000D03*
X100352000Y-121150000D03*
D19*
X99275000Y-106700000D03*
X99275000Y-108700000D03*
D15*
X100402000Y-116550000D03*
X102302000Y-116550000D03*
X101352000Y-114550000D03*
D19*
X112257600Y-106800000D03*
X112257600Y-108800000D03*
D20*
X123650001Y-124550001D03*
X125650001Y-124550001D03*
D11*
X79502000Y-108835100D03*
X79502000Y-106760100D03*
D10*
X115265200Y-121542900D03*
X115265200Y-123617900D03*
D11*
X115265200Y-108867500D03*
X115265200Y-106792500D03*
D18*
X115238000Y-117522000D03*
X116508000Y-117522000D03*
X117778000Y-117522000D03*
X119048000Y-117522000D03*
X120318000Y-117522000D03*
X121588000Y-117522000D03*
X122858000Y-117522000D03*
X122858000Y-112572000D03*
X121588000Y-112572000D03*
X120318000Y-112572000D03*
X119048000Y-112572000D03*
X117778000Y-112572000D03*
X116508000Y-112572000D03*
X115238000Y-112572000D03*
D21*
X155937500Y-131000000D03*
X158012500Y-131000000D03*
D16*
X159175000Y-126125000D03*
X159175000Y-124125000D03*
D10*
X109250000Y-106792500D03*
X109250000Y-108867500D03*
D20*
X124500000Y-99400000D03*
X126500000Y-99400000D03*
D11*
X126625000Y-108887500D03*
X126625000Y-106812500D03*
D22*
X104012500Y-106700000D03*
X104012500Y-107650000D03*
X104012500Y-108600000D03*
X106287500Y-108600000D03*
X106287500Y-106700000D03*
X122112500Y-106750000D03*
X122112500Y-107700000D03*
X122112500Y-108650000D03*
X124387500Y-108650000D03*
X124387500Y-106750000D03*
D23*
X131900000Y-88300000D03*
X127800000Y-88300000D03*
X131900000Y-86700000D03*
X127800000Y-86700000D03*
M02*
