M48
; DRILL file {KiCad 8.0.1} date 2024-05-09T19:23:31+0200
; FORMAT={-:-/ absolute / inch / decimal}
; #@! TF.CreationDate,2024-05-09T19:23:31+02:00
; #@! TF.GenerationSoftware,Kicad,Pcbnew,8.0.1
; #@! TF.FileFunction,Plated,1,2,PTH
FMAT,2
INCH
; #@! TA.AperFunction,Plated,PTH,ViaDrill
T1C0.0157
; #@! TA.AperFunction,Plated,PTH,ViaDrill
T2C0.0236
; #@! TA.AperFunction,Plated,PTH,ComponentDrill
T3C0.0276
; #@! TA.AperFunction,Plated,PTH,ComponentDrill
T4C0.0315
; #@! TA.AperFunction,Plated,PTH,ComponentDrill
T5C0.0394
; #@! TA.AperFunction,Plated,PTH,ComponentDrill
T6C0.0598
%
G90
G05
T1
X3.0914Y-4.6622
X3.134Y-4.354
X3.1351Y-4.7139
X3.222Y-5.006
X3.29Y-4.284
X3.4335Y-4.4931
X3.556Y-4.3505
X3.558Y-4.716
X3.642Y-4.5238
X3.658Y-4.322
X3.858Y-4.498
X3.9075Y-4.3554
X3.95Y-4.715
X4.3327Y-4.7173
X4.538Y-4.352
X4.538Y-4.718
X4.63Y-4.2
X4.684Y-4.028
X4.686Y-4.564
X4.7323Y-4.0293
X4.762Y-4.564
X4.838Y-4.4975
X4.9557Y-4.7894
X4.994Y-4.502
X5.0216Y-4.8521
X5.2165Y-4.3583
X5.23Y-5.194
X5.2717Y-4.3543
X5.28Y-5.232
X5.2835Y-3.9449
X5.2835Y-3.9941
X5.2835Y-4.0433
X5.2835Y-4.0925
X5.2835Y-4.1417
X5.3307Y-3.9449
X5.3307Y-3.9941
X5.3307Y-4.0433
X5.3307Y-4.0925
X5.3307Y-4.1417
X5.378Y-3.9449
X5.378Y-3.9941
X5.378Y-4.0433
X5.378Y-4.0925
X5.378Y-4.1417
X5.4252Y-3.9449
X5.4252Y-3.9941
X5.4252Y-4.0433
X5.4252Y-4.0925
X5.4252Y-4.1417
X5.4724Y-3.9449
X5.4724Y-3.9941
X5.4724Y-4.0433
X5.4724Y-4.0925
X5.4724Y-4.1417
X5.5197Y-3.9449
X5.5197Y-3.9941
X5.5197Y-4.0433
X5.5197Y-4.0925
X5.5197Y-4.1417
X5.5669Y-3.9449
X5.5669Y-3.9941
X5.5669Y-4.0433
X5.5669Y-4.0925
X5.5669Y-4.1417
X5.6142Y-3.9449
X5.6142Y-3.9941
X5.6142Y-4.0433
X5.6142Y-4.0925
X5.6142Y-4.1417
T2
X3.1959Y-5.3012
X3.384Y-4.2165
X3.4016Y-4.9449
X3.522Y-3.84
X3.522Y-4.068
X3.5512Y-4.9449
X3.8984Y-4.0504
X3.937Y-4.9409
X4.0384Y-5.2559
X4.2313Y-4.939
X4.3268Y-3.9213
X4.436Y-4.1289
X4.4724Y-4.9488
X4.628Y-5.19
X4.758Y-4.9449
X4.8789Y-4.6299
X4.8829Y-4.3553
X4.9923Y-4.3625
X5.4173Y-5.1063
X5.54Y-5.162
X6.002Y-5.058
X6.38Y-4.844
T3
X5.9854Y-5.3238
X6.0854Y-5.3238
X6.1854Y-5.3238
X6.2854Y-5.3238
T4
X5.1218Y-4.7021
X5.8858Y-3.8421
X5.8858Y-4.0421
X5.8858Y-4.1421
X5.8858Y-4.3421
T5
X2.4374Y-3.8059
X2.4374Y-3.915
X2.4374Y-4.024
X2.4374Y-4.1331
X2.4374Y-4.2421
X2.4374Y-4.3512
X2.4374Y-4.4602
X2.4374Y-4.5693
X2.4374Y-4.6783
X2.4374Y-4.7874
X2.4374Y-4.8965
X2.4374Y-5.0055
X2.5374Y-3.7514
X2.5374Y-3.8604
X2.5374Y-3.9695
X2.5374Y-4.0785
X2.5374Y-4.1876
X2.5374Y-4.2967
X2.5374Y-4.4057
X2.5374Y-4.5148
X2.5374Y-4.6238
X2.5374Y-4.7329
X2.5374Y-4.8419
X2.5374Y-4.951
X2.5374Y-5.06
X2.8656Y-3.8128
X2.8656Y-3.9128
X2.8656Y-4.0128
X2.8656Y-4.1128
X2.8656Y-4.2128
X2.8656Y-4.3128
X2.8656Y-4.4128
X2.8656Y-4.5128
X2.8656Y-4.6128
X2.8656Y-4.7128
X2.8656Y-4.8128
X2.8656Y-4.9128
X2.8656Y-5.0128
X2.9213Y-5.3317
X2.9213Y-5.4317
X2.9656Y-3.8128
X2.9656Y-3.9128
X2.9656Y-4.0128
X2.9656Y-4.1128
X2.9656Y-4.2128
X2.9656Y-4.3128
X2.9656Y-4.4128
X2.9656Y-4.5128
X2.9656Y-4.6128
X2.9656Y-4.7128
X2.9656Y-4.8128
X2.9656Y-4.9128
X2.9656Y-5.0128
X3.3362Y-5.3346
X3.3362Y-5.4346
X3.34Y-3.43
X3.34Y-3.53
X3.4362Y-5.3346
X3.4362Y-5.4346
X3.44Y-3.43
X3.44Y-3.53
X3.5362Y-5.3346
X3.5362Y-5.4346
X3.54Y-3.43
X3.54Y-3.53
X3.6362Y-5.3346
X3.6362Y-5.4346
X3.64Y-3.43
X3.64Y-3.53
X3.7362Y-5.3346
X3.7362Y-5.4346
X3.74Y-3.43
X3.74Y-3.53
X3.8362Y-5.3346
X3.8362Y-5.4346
X3.84Y-3.43
X3.84Y-3.53
X3.9362Y-5.3346
X3.9362Y-5.4346
X3.94Y-3.43
X3.94Y-3.53
X4.0362Y-5.3346
X4.0362Y-5.4346
X4.04Y-3.43
X4.04Y-3.53
X4.1362Y-5.3346
X4.1362Y-5.4346
X4.2362Y-5.3346
X4.2362Y-5.4346
X4.3362Y-5.3346
X4.3362Y-5.4346
X4.4362Y-5.3346
X4.4362Y-5.4346
X4.5362Y-5.3346
X4.5362Y-5.4346
X4.6362Y-5.3346
X4.6362Y-5.4346
X4.7362Y-5.3346
X4.7362Y-5.4346
X4.7823Y-3.4449
X4.8362Y-5.3346
X4.8362Y-5.4346
X4.8705Y-5.1378
X4.8823Y-3.4449
X4.9362Y-5.3346
X4.9362Y-5.4346
X4.9705Y-5.1378
X5.0362Y-5.3346
X5.0362Y-5.4346
X5.1362Y-5.3346
X5.1362Y-5.4346
X5.2362Y-5.3346
X5.2362Y-5.4346
X5.3868Y-3.6398
X5.4868Y-3.6398
X5.6358Y-5.1417
X5.6358Y-5.2417
X5.6358Y-5.3417
X5.6358Y-5.4417
X5.7358Y-5.1417
X5.7358Y-5.2417
X5.7358Y-5.3417
X5.7358Y-5.4417
X5.89Y-5.1693
X5.99Y-5.1693
X6.5719Y-3.6033
T6
X6.1244Y-3.4921
X6.3244Y-3.4921
X6.5709Y-4.3238
X6.5709Y-4.5238
X6.5709Y-4.7238
X6.5709Y-4.9238
X6.5709Y-5.1238
T5
G00X6.1738Y-3.9783
M15
G01X6.1738Y-3.8996
M16
G05
G00X6.3313Y-3.7539
M15
G01X6.2525Y-3.7539
M16
G05
G00X6.41Y-3.9783
M15
G01X6.41Y-3.8996
M16
G05
M30
