%TF.GenerationSoftware,KiCad,Pcbnew,(6.0.7-1)-1*%
%TF.CreationDate,2022-11-01T15:55:19+01:00*%
%TF.ProjectId,ProbeBoardPublic,50726f62-6542-46f6-9172-645075626c69,Public 1.0*%
%TF.SameCoordinates,Original*%
%TF.FileFunction,Soldermask,Bot*%
%TF.FilePolarity,Negative*%
%FSLAX46Y46*%
G04 Gerber Fmt 4.6, Leading zero omitted, Abs format (unit mm)*
G04 Created by KiCad (PCBNEW (6.0.7-1)-1) date 2022-11-01 15:55:19*
%MOMM*%
%LPD*%
G01*
G04 APERTURE LIST*
%ADD10R,1.700000X1.700000*%
%ADD11O,1.700000X1.700000*%
%ADD12O,1.500000X1.500000*%
%ADD13O,1.800000X1.800000*%
%ADD14C,4.000000*%
%ADD15R,1.600000X1.600000*%
%ADD16C,1.600000*%
%ADD17R,3.500000X3.500000*%
G04 APERTURE END LIST*
D10*
%TO.C,J2*%
X126350000Y-77740000D03*
D11*
X126350000Y-75200000D03*
X128890000Y-77740000D03*
X128890000Y-75200000D03*
X131430000Y-77740000D03*
X131430000Y-75200000D03*
X133970000Y-77740000D03*
X133970000Y-75200000D03*
X136510000Y-77740000D03*
X136510000Y-75200000D03*
X139050000Y-77740000D03*
X139050000Y-75200000D03*
X141590000Y-77740000D03*
X141590000Y-75200000D03*
X144130000Y-77740000D03*
X144130000Y-75200000D03*
%TD*%
D10*
%TO.C,TP6*%
X139250000Y-104000000D03*
%TD*%
D12*
%TO.C,U5*%
X206970000Y-94425000D03*
X206970000Y-89575000D03*
D13*
X210000000Y-94725000D03*
X210000000Y-89275000D03*
D11*
X210130000Y-83110000D03*
X207590000Y-83110000D03*
D10*
X205050000Y-83110000D03*
D11*
X202510000Y-83110000D03*
X199970000Y-83110000D03*
X197430000Y-83110000D03*
X194890000Y-83110000D03*
D10*
X192350000Y-83110000D03*
D11*
X189810000Y-83110000D03*
X187270000Y-83110000D03*
X184730000Y-83110000D03*
X182190000Y-83110000D03*
D10*
X179650000Y-83110000D03*
D11*
X177110000Y-83110000D03*
X174570000Y-83110000D03*
X172030000Y-83110000D03*
X169490000Y-83110000D03*
D10*
X166950000Y-83110000D03*
D11*
X164410000Y-83110000D03*
X161870000Y-83110000D03*
X161870000Y-100890000D03*
X164410000Y-100890000D03*
D10*
X166950000Y-100890000D03*
D11*
X169490000Y-100890000D03*
X172030000Y-100890000D03*
X174570000Y-100890000D03*
X177110000Y-100890000D03*
D10*
X179650000Y-100890000D03*
D11*
X182190000Y-100890000D03*
X184730000Y-100890000D03*
X187270000Y-100890000D03*
X189810000Y-100890000D03*
D10*
X192350000Y-100890000D03*
D11*
X194890000Y-100890000D03*
X197430000Y-100890000D03*
X199970000Y-100890000D03*
X202510000Y-100890000D03*
D10*
X205050000Y-100890000D03*
D11*
X207590000Y-100890000D03*
X210130000Y-100890000D03*
X162100000Y-89460000D03*
D10*
X162100000Y-92000000D03*
D11*
X162100000Y-94540000D03*
%TD*%
D10*
%TO.C,TP2*%
X203000000Y-75500000D03*
%TD*%
%TO.C,TP8*%
X156000000Y-109600000D03*
%TD*%
D14*
%TO.C,J1*%
X105500000Y-100360000D03*
X105500000Y-125360000D03*
D15*
X105800000Y-118400000D03*
D16*
X105800000Y-115630000D03*
X105800000Y-112860000D03*
X105800000Y-110090000D03*
X105800000Y-107320000D03*
X102960000Y-117015000D03*
X102960000Y-114245000D03*
X102960000Y-111475000D03*
X102960000Y-108705000D03*
%TD*%
D10*
%TO.C,TP1*%
X131400000Y-95300000D03*
%TD*%
D17*
%TO.C,J10*%
X204200000Y-115400000D03*
D14*
X209225000Y-120425000D03*
X199175000Y-110375000D03*
X199175000Y-120425000D03*
X209225000Y-110375000D03*
%TD*%
D10*
%TO.C,TP5*%
X139250000Y-86500000D03*
%TD*%
%TO.C,TP4*%
X124000000Y-85100000D03*
%TD*%
D15*
%TO.C,C3*%
X150605112Y-75200000D03*
D16*
X148105112Y-75200000D03*
%TD*%
M02*
