%TF.GenerationSoftware,KiCad,Pcbnew,(6.0.7-1)-1*%
%TF.CreationDate,2022-11-01T15:55:19+01:00*%
%TF.ProjectId,ProbeBoardPublic,50726f62-6542-46f6-9172-645075626c69,Public 1.0*%
%TF.SameCoordinates,Original*%
%TF.FileFunction,Legend,Top*%
%TF.FilePolarity,Positive*%
%FSLAX46Y46*%
G04 Gerber Fmt 4.6, Leading zero omitted, Abs format (unit mm)*
G04 Created by KiCad (PCBNEW (6.0.7-1)-1) date 2022-11-01 15:55:19*
%MOMM*%
%LPD*%
G01*
G04 APERTURE LIST*
%ADD10C,0.200000*%
%ADD11C,0.150000*%
%ADD12C,0.120000*%
G04 APERTURE END LIST*
D10*
X138776190Y-90152380D02*
X138776190Y-89152380D01*
X138776190Y-89628571D02*
X139347619Y-89628571D01*
X139347619Y-90152380D02*
X139347619Y-89152380D01*
X139823809Y-90152380D02*
X139823809Y-89152380D01*
X139085714Y-107552380D02*
X138609523Y-107552380D01*
X138609523Y-106552380D01*
X139609523Y-106552380D02*
X139800000Y-106552380D01*
X139895238Y-106600000D01*
X139990476Y-106695238D01*
X140038095Y-106885714D01*
X140038095Y-107219047D01*
X139990476Y-107409523D01*
X139895238Y-107504761D01*
X139800000Y-107552380D01*
X139609523Y-107552380D01*
X139514285Y-107504761D01*
X139419047Y-107409523D01*
X139371428Y-107219047D01*
X139371428Y-106885714D01*
X139419047Y-106695238D01*
X139514285Y-106600000D01*
X139609523Y-106552380D01*
D11*
X163319047Y-112637380D02*
X163319047Y-111637380D01*
X163557142Y-111637380D01*
X163700000Y-111685000D01*
X163795238Y-111780238D01*
X163842857Y-111875476D01*
X163890476Y-112065952D01*
X163890476Y-112208809D01*
X163842857Y-112399285D01*
X163795238Y-112494523D01*
X163700000Y-112589761D01*
X163557142Y-112637380D01*
X163319047Y-112637380D01*
X164747619Y-111970714D02*
X164747619Y-112637380D01*
X164319047Y-111970714D02*
X164319047Y-112494523D01*
X164366666Y-112589761D01*
X164461904Y-112637380D01*
X164604761Y-112637380D01*
X164700000Y-112589761D01*
X164747619Y-112542142D01*
X165223809Y-112637380D02*
X165223809Y-111637380D01*
X165319047Y-112256428D02*
X165604761Y-112637380D01*
X165604761Y-111970714D02*
X165223809Y-112351666D01*
X166414285Y-112589761D02*
X166319047Y-112637380D01*
X166128571Y-112637380D01*
X166033333Y-112589761D01*
X165985714Y-112494523D01*
X165985714Y-112113571D01*
X166033333Y-112018333D01*
X166128571Y-111970714D01*
X166319047Y-111970714D01*
X166414285Y-112018333D01*
X166461904Y-112113571D01*
X166461904Y-112208809D01*
X165985714Y-112304047D01*
X167985714Y-112113571D02*
X167652380Y-112113571D01*
X167652380Y-112637380D02*
X167652380Y-111637380D01*
X168128571Y-111637380D01*
X168652380Y-112637380D02*
X168557142Y-112589761D01*
X168509523Y-112494523D01*
X168509523Y-111637380D01*
X169461904Y-111970714D02*
X169461904Y-112637380D01*
X169033333Y-111970714D02*
X169033333Y-112494523D01*
X169080952Y-112589761D01*
X169176190Y-112637380D01*
X169319047Y-112637380D01*
X169414285Y-112589761D01*
X169461904Y-112542142D01*
X169938095Y-112637380D02*
X169938095Y-111637380D01*
X170033333Y-112256428D02*
X170319047Y-112637380D01*
X170319047Y-111970714D02*
X169938095Y-112351666D01*
X170747619Y-112113571D02*
X171080952Y-112113571D01*
X171223809Y-112637380D02*
X170747619Y-112637380D01*
X170747619Y-111637380D01*
X171223809Y-111637380D01*
X171652380Y-112637380D02*
X171652380Y-111637380D01*
X171985714Y-112351666D01*
X172319047Y-111637380D01*
X172319047Y-112637380D01*
X160057142Y-114247380D02*
X160057142Y-113247380D01*
X160438095Y-113247380D01*
X160533333Y-113295000D01*
X160580952Y-113342619D01*
X160628571Y-113437857D01*
X160628571Y-113580714D01*
X160580952Y-113675952D01*
X160533333Y-113723571D01*
X160438095Y-113771190D01*
X160057142Y-113771190D01*
X161057142Y-114247380D02*
X161057142Y-113580714D01*
X161057142Y-113771190D02*
X161104761Y-113675952D01*
X161152380Y-113628333D01*
X161247619Y-113580714D01*
X161342857Y-113580714D01*
X161819047Y-114247380D02*
X161723809Y-114199761D01*
X161676190Y-114152142D01*
X161628571Y-114056904D01*
X161628571Y-113771190D01*
X161676190Y-113675952D01*
X161723809Y-113628333D01*
X161819047Y-113580714D01*
X161961904Y-113580714D01*
X162057142Y-113628333D01*
X162104761Y-113675952D01*
X162152380Y-113771190D01*
X162152380Y-114056904D01*
X162104761Y-114152142D01*
X162057142Y-114199761D01*
X161961904Y-114247380D01*
X161819047Y-114247380D01*
X162580952Y-114247380D02*
X162580952Y-113247380D01*
X162580952Y-113628333D02*
X162676190Y-113580714D01*
X162866666Y-113580714D01*
X162961904Y-113628333D01*
X163009523Y-113675952D01*
X163057142Y-113771190D01*
X163057142Y-114056904D01*
X163009523Y-114152142D01*
X162961904Y-114199761D01*
X162866666Y-114247380D01*
X162676190Y-114247380D01*
X162580952Y-114199761D01*
X163866666Y-114199761D02*
X163771428Y-114247380D01*
X163580952Y-114247380D01*
X163485714Y-114199761D01*
X163438095Y-114104523D01*
X163438095Y-113723571D01*
X163485714Y-113628333D01*
X163580952Y-113580714D01*
X163771428Y-113580714D01*
X163866666Y-113628333D01*
X163914285Y-113723571D01*
X163914285Y-113818809D01*
X163438095Y-113914047D01*
X165057142Y-113961666D02*
X165533333Y-113961666D01*
X164961904Y-114247380D02*
X165295238Y-113247380D01*
X165628571Y-114247380D01*
X166390476Y-114247380D02*
X166390476Y-113247380D01*
X166390476Y-114199761D02*
X166295238Y-114247380D01*
X166104761Y-114247380D01*
X166009523Y-114199761D01*
X165961904Y-114152142D01*
X165914285Y-114056904D01*
X165914285Y-113771190D01*
X165961904Y-113675952D01*
X166009523Y-113628333D01*
X166104761Y-113580714D01*
X166295238Y-113580714D01*
X166390476Y-113628333D01*
X167295238Y-114247380D02*
X167295238Y-113247380D01*
X167295238Y-114199761D02*
X167200000Y-114247380D01*
X167009523Y-114247380D01*
X166914285Y-114199761D01*
X166866666Y-114152142D01*
X166819047Y-114056904D01*
X166819047Y-113771190D01*
X166866666Y-113675952D01*
X166914285Y-113628333D01*
X167009523Y-113580714D01*
X167200000Y-113580714D01*
X167295238Y-113628333D01*
X167771428Y-113866428D02*
X168533333Y-113866428D01*
X169200000Y-113247380D02*
X169390476Y-113247380D01*
X169485714Y-113295000D01*
X169580952Y-113390238D01*
X169628571Y-113580714D01*
X169628571Y-113914047D01*
X169580952Y-114104523D01*
X169485714Y-114199761D01*
X169390476Y-114247380D01*
X169200000Y-114247380D01*
X169104761Y-114199761D01*
X169009523Y-114104523D01*
X168961904Y-113914047D01*
X168961904Y-113580714D01*
X169009523Y-113390238D01*
X169104761Y-113295000D01*
X169200000Y-113247380D01*
X170057142Y-113580714D02*
X170057142Y-114247380D01*
X170057142Y-113675952D02*
X170104761Y-113628333D01*
X170200000Y-113580714D01*
X170342857Y-113580714D01*
X170438095Y-113628333D01*
X170485714Y-113723571D01*
X170485714Y-114247380D01*
X172057142Y-113723571D02*
X172200000Y-113771190D01*
X172247619Y-113818809D01*
X172295238Y-113914047D01*
X172295238Y-114056904D01*
X172247619Y-114152142D01*
X172200000Y-114199761D01*
X172104761Y-114247380D01*
X171723809Y-114247380D01*
X171723809Y-113247380D01*
X172057142Y-113247380D01*
X172152380Y-113295000D01*
X172200000Y-113342619D01*
X172247619Y-113437857D01*
X172247619Y-113533095D01*
X172200000Y-113628333D01*
X172152380Y-113675952D01*
X172057142Y-113723571D01*
X171723809Y-113723571D01*
X172866666Y-114247380D02*
X172771428Y-114199761D01*
X172723809Y-114152142D01*
X172676190Y-114056904D01*
X172676190Y-113771190D01*
X172723809Y-113675952D01*
X172771428Y-113628333D01*
X172866666Y-113580714D01*
X173009523Y-113580714D01*
X173104761Y-113628333D01*
X173152380Y-113675952D01*
X173200000Y-113771190D01*
X173200000Y-114056904D01*
X173152380Y-114152142D01*
X173104761Y-114199761D01*
X173009523Y-114247380D01*
X172866666Y-114247380D01*
X174057142Y-114247380D02*
X174057142Y-113723571D01*
X174009523Y-113628333D01*
X173914285Y-113580714D01*
X173723809Y-113580714D01*
X173628571Y-113628333D01*
X174057142Y-114199761D02*
X173961904Y-114247380D01*
X173723809Y-114247380D01*
X173628571Y-114199761D01*
X173580952Y-114104523D01*
X173580952Y-114009285D01*
X173628571Y-113914047D01*
X173723809Y-113866428D01*
X173961904Y-113866428D01*
X174057142Y-113818809D01*
X174533333Y-114247380D02*
X174533333Y-113580714D01*
X174533333Y-113771190D02*
X174580952Y-113675952D01*
X174628571Y-113628333D01*
X174723809Y-113580714D01*
X174819047Y-113580714D01*
X175580952Y-114247380D02*
X175580952Y-113247380D01*
X175580952Y-114199761D02*
X175485714Y-114247380D01*
X175295238Y-114247380D01*
X175200000Y-114199761D01*
X175152380Y-114152142D01*
X175104761Y-114056904D01*
X175104761Y-113771190D01*
X175152380Y-113675952D01*
X175200000Y-113628333D01*
X175295238Y-113580714D01*
X175485714Y-113580714D01*
X175580952Y-113628333D01*
X164104761Y-115857380D02*
X164104761Y-114857380D01*
X164485714Y-114857380D01*
X164580952Y-114905000D01*
X164628571Y-114952619D01*
X164676190Y-115047857D01*
X164676190Y-115190714D01*
X164628571Y-115285952D01*
X164580952Y-115333571D01*
X164485714Y-115381190D01*
X164104761Y-115381190D01*
X165533333Y-115190714D02*
X165533333Y-115857380D01*
X165104761Y-115190714D02*
X165104761Y-115714523D01*
X165152380Y-115809761D01*
X165247619Y-115857380D01*
X165390476Y-115857380D01*
X165485714Y-115809761D01*
X165533333Y-115762142D01*
X166009523Y-115857380D02*
X166009523Y-114857380D01*
X166009523Y-115238333D02*
X166104761Y-115190714D01*
X166295238Y-115190714D01*
X166390476Y-115238333D01*
X166438095Y-115285952D01*
X166485714Y-115381190D01*
X166485714Y-115666904D01*
X166438095Y-115762142D01*
X166390476Y-115809761D01*
X166295238Y-115857380D01*
X166104761Y-115857380D01*
X166009523Y-115809761D01*
X167057142Y-115857380D02*
X166961904Y-115809761D01*
X166914285Y-115714523D01*
X166914285Y-114857380D01*
X167438095Y-115857380D02*
X167438095Y-115190714D01*
X167438095Y-114857380D02*
X167390476Y-114905000D01*
X167438095Y-114952619D01*
X167485714Y-114905000D01*
X167438095Y-114857380D01*
X167438095Y-114952619D01*
X168342857Y-115809761D02*
X168247619Y-115857380D01*
X168057142Y-115857380D01*
X167961904Y-115809761D01*
X167914285Y-115762142D01*
X167866666Y-115666904D01*
X167866666Y-115381190D01*
X167914285Y-115285952D01*
X167961904Y-115238333D01*
X168057142Y-115190714D01*
X168247619Y-115190714D01*
X168342857Y-115238333D01*
X169390476Y-114857380D02*
X169723809Y-115857380D01*
X170057142Y-114857380D01*
X170914285Y-115857380D02*
X170342857Y-115857380D01*
X170628571Y-115857380D02*
X170628571Y-114857380D01*
X170533333Y-115000238D01*
X170438095Y-115095476D01*
X170342857Y-115143095D01*
X171342857Y-115762142D02*
X171390476Y-115809761D01*
X171342857Y-115857380D01*
X171295238Y-115809761D01*
X171342857Y-115762142D01*
X171342857Y-115857380D01*
X172009523Y-114857380D02*
X172104761Y-114857380D01*
X172200000Y-114905000D01*
X172247619Y-114952619D01*
X172295238Y-115047857D01*
X172342857Y-115238333D01*
X172342857Y-115476428D01*
X172295238Y-115666904D01*
X172247619Y-115762142D01*
X172200000Y-115809761D01*
X172104761Y-115857380D01*
X172009523Y-115857380D01*
X171914285Y-115809761D01*
X171866666Y-115762142D01*
X171819047Y-115666904D01*
X171771428Y-115476428D01*
X171771428Y-115238333D01*
X171819047Y-115047857D01*
X171866666Y-114952619D01*
X171914285Y-114905000D01*
X172009523Y-114857380D01*
X165080952Y-117467380D02*
X165080952Y-116467380D01*
X165652380Y-117467380D01*
X165652380Y-116467380D01*
X166319047Y-116467380D02*
X166509523Y-116467380D01*
X166604761Y-116515000D01*
X166700000Y-116610238D01*
X166747619Y-116800714D01*
X166747619Y-117134047D01*
X166700000Y-117324523D01*
X166604761Y-117419761D01*
X166509523Y-117467380D01*
X166319047Y-117467380D01*
X166223809Y-117419761D01*
X166128571Y-117324523D01*
X166080952Y-117134047D01*
X166080952Y-116800714D01*
X166128571Y-116610238D01*
X166223809Y-116515000D01*
X166319047Y-116467380D01*
X167033333Y-116467380D02*
X167366666Y-117467380D01*
X167700000Y-116467380D01*
X168033333Y-117467380D02*
X168033333Y-116467380D01*
X168509523Y-117467380D02*
X168509523Y-116467380D01*
X169080952Y-117467380D01*
X169080952Y-116467380D01*
X169414285Y-116467380D02*
X169985714Y-116467380D01*
X169700000Y-117467380D02*
X169700000Y-116467380D01*
X170319047Y-117467380D02*
X170319047Y-116467380D01*
X171366666Y-117372142D02*
X171319047Y-117419761D01*
X171176190Y-117467380D01*
X171080952Y-117467380D01*
X170938095Y-117419761D01*
X170842857Y-117324523D01*
X170795238Y-117229285D01*
X170747619Y-117038809D01*
X170747619Y-116895952D01*
X170795238Y-116705476D01*
X170842857Y-116610238D01*
X170938095Y-116515000D01*
X171080952Y-116467380D01*
X171176190Y-116467380D01*
X171319047Y-116515000D01*
X171366666Y-116562619D01*
%TO.C,C60*%
X150057142Y-101157142D02*
X150009523Y-101204761D01*
X149866666Y-101252380D01*
X149771428Y-101252380D01*
X149628571Y-101204761D01*
X149533333Y-101109523D01*
X149485714Y-101014285D01*
X149438095Y-100823809D01*
X149438095Y-100680952D01*
X149485714Y-100490476D01*
X149533333Y-100395238D01*
X149628571Y-100300000D01*
X149771428Y-100252380D01*
X149866666Y-100252380D01*
X150009523Y-100300000D01*
X150057142Y-100347619D01*
X150914285Y-100252380D02*
X150723809Y-100252380D01*
X150628571Y-100300000D01*
X150580952Y-100347619D01*
X150485714Y-100490476D01*
X150438095Y-100680952D01*
X150438095Y-101061904D01*
X150485714Y-101157142D01*
X150533333Y-101204761D01*
X150628571Y-101252380D01*
X150819047Y-101252380D01*
X150914285Y-101204761D01*
X150961904Y-101157142D01*
X151009523Y-101061904D01*
X151009523Y-100823809D01*
X150961904Y-100728571D01*
X150914285Y-100680952D01*
X150819047Y-100633333D01*
X150628571Y-100633333D01*
X150533333Y-100680952D01*
X150485714Y-100728571D01*
X150438095Y-100823809D01*
X151628571Y-100252380D02*
X151723809Y-100252380D01*
X151819047Y-100300000D01*
X151866666Y-100347619D01*
X151914285Y-100442857D01*
X151961904Y-100633333D01*
X151961904Y-100871428D01*
X151914285Y-101061904D01*
X151866666Y-101157142D01*
X151819047Y-101204761D01*
X151723809Y-101252380D01*
X151628571Y-101252380D01*
X151533333Y-101204761D01*
X151485714Y-101157142D01*
X151438095Y-101061904D01*
X151390476Y-100871428D01*
X151390476Y-100633333D01*
X151438095Y-100442857D01*
X151485714Y-100347619D01*
X151533333Y-100300000D01*
X151628571Y-100252380D01*
%TO.C,J2*%
X123472380Y-76803333D02*
X124186666Y-76803333D01*
X124329523Y-76850952D01*
X124424761Y-76946190D01*
X124472380Y-77089047D01*
X124472380Y-77184285D01*
X123567619Y-76374761D02*
X123520000Y-76327142D01*
X123472380Y-76231904D01*
X123472380Y-75993809D01*
X123520000Y-75898571D01*
X123567619Y-75850952D01*
X123662857Y-75803333D01*
X123758095Y-75803333D01*
X123900952Y-75850952D01*
X124472380Y-76422380D01*
X124472380Y-75803333D01*
%TO.C,TP6*%
X141552380Y-105361904D02*
X141552380Y-104790476D01*
X142552380Y-105076190D02*
X141552380Y-105076190D01*
X142552380Y-104457142D02*
X141552380Y-104457142D01*
X141552380Y-104076190D01*
X141600000Y-103980952D01*
X141647619Y-103933333D01*
X141742857Y-103885714D01*
X141885714Y-103885714D01*
X141980952Y-103933333D01*
X142028571Y-103980952D01*
X142076190Y-104076190D01*
X142076190Y-104457142D01*
X141552380Y-103028571D02*
X141552380Y-103219047D01*
X141600000Y-103314285D01*
X141647619Y-103361904D01*
X141790476Y-103457142D01*
X141980952Y-103504761D01*
X142361904Y-103504761D01*
X142457142Y-103457142D01*
X142504761Y-103409523D01*
X142552380Y-103314285D01*
X142552380Y-103123809D01*
X142504761Y-103028571D01*
X142457142Y-102980952D01*
X142361904Y-102933333D01*
X142123809Y-102933333D01*
X142028571Y-102980952D01*
X141980952Y-103028571D01*
X141933333Y-103123809D01*
X141933333Y-103314285D01*
X141980952Y-103409523D01*
X142028571Y-103457142D01*
X142123809Y-103504761D01*
%TO.C,U2*%
X126052380Y-93761904D02*
X126861904Y-93761904D01*
X126957142Y-93714285D01*
X127004761Y-93666666D01*
X127052380Y-93571428D01*
X127052380Y-93380952D01*
X127004761Y-93285714D01*
X126957142Y-93238095D01*
X126861904Y-93190476D01*
X126052380Y-93190476D01*
X126147619Y-92761904D02*
X126100000Y-92714285D01*
X126052380Y-92619047D01*
X126052380Y-92380952D01*
X126100000Y-92285714D01*
X126147619Y-92238095D01*
X126242857Y-92190476D01*
X126338095Y-92190476D01*
X126480952Y-92238095D01*
X127052380Y-92809523D01*
X127052380Y-92190476D01*
%TO.C,R27*%
X145457142Y-97152380D02*
X145123809Y-96676190D01*
X144885714Y-97152380D02*
X144885714Y-96152380D01*
X145266666Y-96152380D01*
X145361904Y-96200000D01*
X145409523Y-96247619D01*
X145457142Y-96342857D01*
X145457142Y-96485714D01*
X145409523Y-96580952D01*
X145361904Y-96628571D01*
X145266666Y-96676190D01*
X144885714Y-96676190D01*
X145838095Y-96247619D02*
X145885714Y-96200000D01*
X145980952Y-96152380D01*
X146219047Y-96152380D01*
X146314285Y-96200000D01*
X146361904Y-96247619D01*
X146409523Y-96342857D01*
X146409523Y-96438095D01*
X146361904Y-96580952D01*
X145790476Y-97152380D01*
X146409523Y-97152380D01*
X146742857Y-96152380D02*
X147409523Y-96152380D01*
X146980952Y-97152380D01*
%TO.C,Q1*%
X154838093Y-85347619D02*
X154742855Y-85300000D01*
X154647617Y-85204761D01*
X154504760Y-85061904D01*
X154409522Y-85014285D01*
X154314284Y-85014285D01*
X154361903Y-85252380D02*
X154266665Y-85204761D01*
X154171427Y-85109523D01*
X154123808Y-84919047D01*
X154123808Y-84585714D01*
X154171427Y-84395238D01*
X154266665Y-84300000D01*
X154361903Y-84252380D01*
X154552379Y-84252380D01*
X154647617Y-84300000D01*
X154742855Y-84395238D01*
X154790474Y-84585714D01*
X154790474Y-84919047D01*
X154742855Y-85109523D01*
X154647617Y-85204761D01*
X154552379Y-85252380D01*
X154361903Y-85252380D01*
X155742855Y-85252380D02*
X155171427Y-85252380D01*
X155457141Y-85252380D02*
X155457141Y-84252380D01*
X155361903Y-84395238D01*
X155266665Y-84490476D01*
X155171427Y-84538095D01*
%TO.C,C55*%
X148157142Y-109437142D02*
X148109523Y-109484761D01*
X147966666Y-109532380D01*
X147871428Y-109532380D01*
X147728571Y-109484761D01*
X147633333Y-109389523D01*
X147585714Y-109294285D01*
X147538095Y-109103809D01*
X147538095Y-108960952D01*
X147585714Y-108770476D01*
X147633333Y-108675238D01*
X147728571Y-108580000D01*
X147871428Y-108532380D01*
X147966666Y-108532380D01*
X148109523Y-108580000D01*
X148157142Y-108627619D01*
X149061904Y-108532380D02*
X148585714Y-108532380D01*
X148538095Y-109008571D01*
X148585714Y-108960952D01*
X148680952Y-108913333D01*
X148919047Y-108913333D01*
X149014285Y-108960952D01*
X149061904Y-109008571D01*
X149109523Y-109103809D01*
X149109523Y-109341904D01*
X149061904Y-109437142D01*
X149014285Y-109484761D01*
X148919047Y-109532380D01*
X148680952Y-109532380D01*
X148585714Y-109484761D01*
X148538095Y-109437142D01*
X150014285Y-108532380D02*
X149538095Y-108532380D01*
X149490476Y-109008571D01*
X149538095Y-108960952D01*
X149633333Y-108913333D01*
X149871428Y-108913333D01*
X149966666Y-108960952D01*
X150014285Y-109008571D01*
X150061904Y-109103809D01*
X150061904Y-109341904D01*
X150014285Y-109437142D01*
X149966666Y-109484761D01*
X149871428Y-109532380D01*
X149633333Y-109532380D01*
X149538095Y-109484761D01*
X149490476Y-109437142D01*
%TO.C,U5*%
X185452380Y-92761904D02*
X186261904Y-92761904D01*
X186357142Y-92714285D01*
X186404761Y-92666666D01*
X186452380Y-92571428D01*
X186452380Y-92380952D01*
X186404761Y-92285714D01*
X186357142Y-92238095D01*
X186261904Y-92190476D01*
X185452380Y-92190476D01*
X185452380Y-91238095D02*
X185452380Y-91714285D01*
X185928571Y-91761904D01*
X185880952Y-91714285D01*
X185833333Y-91619047D01*
X185833333Y-91380952D01*
X185880952Y-91285714D01*
X185928571Y-91238095D01*
X186023809Y-91190476D01*
X186261904Y-91190476D01*
X186357142Y-91238095D01*
X186404761Y-91285714D01*
X186452380Y-91380952D01*
X186452380Y-91619047D01*
X186404761Y-91714285D01*
X186357142Y-91761904D01*
X207721218Y-79786903D02*
X207748155Y-79867715D01*
X207828967Y-79948528D01*
X207936717Y-80002402D01*
X208044467Y-80002402D01*
X208125279Y-79975465D01*
X208259966Y-79894653D01*
X208340778Y-79813841D01*
X208421590Y-79679154D01*
X208448528Y-79598341D01*
X208448528Y-79490592D01*
X208394653Y-79382842D01*
X208340778Y-79328967D01*
X208233028Y-79275093D01*
X208179154Y-79275093D01*
X207990592Y-79463654D01*
X208098341Y-79571404D01*
X207990592Y-78978781D02*
X207424906Y-79544467D01*
X207209407Y-79328967D01*
X207182470Y-79248155D01*
X207182470Y-79194280D01*
X207209407Y-79113468D01*
X207290219Y-79032656D01*
X207371032Y-79005719D01*
X207424906Y-79005719D01*
X207505719Y-79032656D01*
X207721218Y-79248155D01*
X207128595Y-78116784D02*
X207451844Y-78440033D01*
X207290219Y-78278409D02*
X206724534Y-78844094D01*
X206859221Y-78817157D01*
X206966971Y-78817157D01*
X207047783Y-78844094D01*
X160123809Y-99295238D02*
X160161904Y-99180952D01*
X160161904Y-98990476D01*
X160123809Y-98914285D01*
X160085714Y-98876190D01*
X160009523Y-98838095D01*
X159933333Y-98838095D01*
X159857142Y-98876190D01*
X159819047Y-98914285D01*
X159780952Y-98990476D01*
X159742857Y-99142857D01*
X159704761Y-99219047D01*
X159666666Y-99257142D01*
X159590476Y-99295238D01*
X159514285Y-99295238D01*
X159438095Y-99257142D01*
X159400000Y-99219047D01*
X159361904Y-99142857D01*
X159361904Y-98952380D01*
X159400000Y-98838095D01*
X159361904Y-98571428D02*
X160161904Y-98380952D01*
X159590476Y-98228571D01*
X160161904Y-98076190D01*
X159361904Y-97885714D01*
X160161904Y-97580952D02*
X159361904Y-97580952D01*
X159361904Y-97390476D01*
X159400000Y-97276190D01*
X159476190Y-97200000D01*
X159552380Y-97161904D01*
X159704761Y-97123809D01*
X159819047Y-97123809D01*
X159971428Y-97161904D01*
X160047619Y-97200000D01*
X160123809Y-97276190D01*
X160161904Y-97390476D01*
X160161904Y-97580952D01*
X160161904Y-96780952D02*
X159361904Y-96780952D01*
X159361904Y-96247619D02*
X159361904Y-96095238D01*
X159400000Y-96019047D01*
X159476190Y-95942857D01*
X159628571Y-95904761D01*
X159895238Y-95904761D01*
X160047619Y-95942857D01*
X160123809Y-96019047D01*
X160161904Y-96095238D01*
X160161904Y-96247619D01*
X160123809Y-96323809D01*
X160047619Y-96400000D01*
X159895238Y-96438095D01*
X159628571Y-96438095D01*
X159476190Y-96400000D01*
X159400000Y-96323809D01*
X159361904Y-96247619D01*
X160123809Y-88109523D02*
X160161904Y-87995238D01*
X160161904Y-87804761D01*
X160123809Y-87728571D01*
X160085714Y-87690476D01*
X160009523Y-87652380D01*
X159933333Y-87652380D01*
X159857142Y-87690476D01*
X159819047Y-87728571D01*
X159780952Y-87804761D01*
X159742857Y-87957142D01*
X159704761Y-88033333D01*
X159666666Y-88071428D01*
X159590476Y-88109523D01*
X159514285Y-88109523D01*
X159438095Y-88071428D01*
X159400000Y-88033333D01*
X159361904Y-87957142D01*
X159361904Y-87766666D01*
X159400000Y-87652380D01*
X159361904Y-87385714D02*
X160161904Y-87195238D01*
X159590476Y-87042857D01*
X160161904Y-86890476D01*
X159361904Y-86700000D01*
X160085714Y-85938095D02*
X160123809Y-85976190D01*
X160161904Y-86090476D01*
X160161904Y-86166666D01*
X160123809Y-86280952D01*
X160047619Y-86357142D01*
X159971428Y-86395238D01*
X159819047Y-86433333D01*
X159704761Y-86433333D01*
X159552380Y-86395238D01*
X159476190Y-86357142D01*
X159400000Y-86280952D01*
X159361904Y-86166666D01*
X159361904Y-86090476D01*
X159400000Y-85976190D01*
X159438095Y-85938095D01*
X160161904Y-85214285D02*
X160161904Y-85595238D01*
X159361904Y-85595238D01*
X160161904Y-84947619D02*
X159361904Y-84947619D01*
X160161904Y-84490476D02*
X159704761Y-84833333D01*
X159361904Y-84490476D02*
X159819047Y-84947619D01*
X177500592Y-79902277D02*
X177527529Y-79983089D01*
X177608341Y-80063902D01*
X177716091Y-80117776D01*
X177823841Y-80117776D01*
X177904653Y-80090839D01*
X178039340Y-80010027D01*
X178120152Y-79929215D01*
X178200964Y-79794528D01*
X178227902Y-79713715D01*
X178227902Y-79605966D01*
X178174027Y-79498216D01*
X178120152Y-79444341D01*
X178012402Y-79390467D01*
X177958528Y-79390467D01*
X177769966Y-79579028D01*
X177877715Y-79686778D01*
X177769966Y-79094155D02*
X177204280Y-79659841D01*
X176988781Y-79444341D01*
X176961844Y-79363529D01*
X176961844Y-79309654D01*
X176988781Y-79228842D01*
X177069593Y-79148030D01*
X177150406Y-79121093D01*
X177204280Y-79121093D01*
X177285093Y-79148030D01*
X177500592Y-79363529D01*
X176907969Y-78232158D02*
X177231218Y-78555407D01*
X177069593Y-78393783D02*
X176503908Y-78959468D01*
X176638595Y-78932531D01*
X176746345Y-78932531D01*
X176827157Y-78959468D01*
X175992097Y-78447658D02*
X175938223Y-78393783D01*
X175911285Y-78312971D01*
X175911285Y-78259096D01*
X175938223Y-78178284D01*
X176019035Y-78043597D01*
X176153722Y-77908910D01*
X176288409Y-77828097D01*
X176369221Y-77801160D01*
X176423096Y-77801160D01*
X176503908Y-77828097D01*
X176557783Y-77881972D01*
X176584720Y-77962784D01*
X176584720Y-78016659D01*
X176557783Y-78097471D01*
X176476971Y-78232158D01*
X176342284Y-78366845D01*
X176207597Y-78447658D01*
X176126784Y-78474595D01*
X176072910Y-78474595D01*
X175992097Y-78447658D01*
X202631218Y-79786903D02*
X202658155Y-79867715D01*
X202738967Y-79948528D01*
X202846717Y-80002402D01*
X202954467Y-80002402D01*
X203035279Y-79975465D01*
X203169966Y-79894653D01*
X203250778Y-79813841D01*
X203331590Y-79679154D01*
X203358528Y-79598341D01*
X203358528Y-79490592D01*
X203304653Y-79382842D01*
X203250778Y-79328967D01*
X203143028Y-79275093D01*
X203089154Y-79275093D01*
X202900592Y-79463654D01*
X203008341Y-79571404D01*
X202900592Y-78978781D02*
X202334906Y-79544467D01*
X202119407Y-79328967D01*
X202092470Y-79248155D01*
X202092470Y-79194280D01*
X202119407Y-79113468D01*
X202200219Y-79032656D01*
X202281032Y-79005719D01*
X202334906Y-79005719D01*
X202415719Y-79032656D01*
X202631218Y-79248155D01*
X201850033Y-78951844D02*
X201796158Y-78951844D01*
X201715346Y-78924906D01*
X201580659Y-78790219D01*
X201553722Y-78709407D01*
X201553722Y-78655532D01*
X201580659Y-78574720D01*
X201634534Y-78520845D01*
X201742284Y-78466971D01*
X202388781Y-78466971D01*
X202038595Y-78116784D01*
X200091218Y-79886903D02*
X200118155Y-79967715D01*
X200198967Y-80048528D01*
X200306717Y-80102402D01*
X200414467Y-80102402D01*
X200495279Y-80075465D01*
X200629966Y-79994653D01*
X200710778Y-79913841D01*
X200791590Y-79779154D01*
X200818528Y-79698341D01*
X200818528Y-79590592D01*
X200764653Y-79482842D01*
X200710778Y-79428967D01*
X200603028Y-79375093D01*
X200549154Y-79375093D01*
X200360592Y-79563654D01*
X200468341Y-79671404D01*
X200360592Y-79078781D02*
X199794906Y-79644467D01*
X199579407Y-79428967D01*
X199552470Y-79348155D01*
X199552470Y-79294280D01*
X199579407Y-79213468D01*
X199660219Y-79132656D01*
X199741032Y-79105719D01*
X199794906Y-79105719D01*
X199875719Y-79132656D01*
X200091218Y-79348155D01*
X199283096Y-79132656D02*
X198932910Y-78782470D01*
X199336971Y-78755532D01*
X199256158Y-78674720D01*
X199229221Y-78593908D01*
X199229221Y-78540033D01*
X199256158Y-78459221D01*
X199390845Y-78324534D01*
X199471658Y-78297597D01*
X199525532Y-78297597D01*
X199606345Y-78324534D01*
X199767969Y-78486158D01*
X199794906Y-78566971D01*
X199794906Y-78620845D01*
X182311218Y-79886903D02*
X182338155Y-79967715D01*
X182418967Y-80048528D01*
X182526717Y-80102402D01*
X182634467Y-80102402D01*
X182715279Y-80075465D01*
X182849966Y-79994653D01*
X182930778Y-79913841D01*
X183011590Y-79779154D01*
X183038528Y-79698341D01*
X183038528Y-79590592D01*
X182984653Y-79482842D01*
X182930778Y-79428967D01*
X182823028Y-79375093D01*
X182769154Y-79375093D01*
X182580592Y-79563654D01*
X182688341Y-79671404D01*
X182580592Y-79078781D02*
X182014906Y-79644467D01*
X181799407Y-79428967D01*
X181772470Y-79348155D01*
X181772470Y-79294280D01*
X181799407Y-79213468D01*
X181880219Y-79132656D01*
X181961032Y-79105719D01*
X182014906Y-79105719D01*
X182095719Y-79132656D01*
X182311218Y-79348155D01*
X181987969Y-78486158D02*
X181880219Y-78378409D01*
X181799407Y-78351471D01*
X181745532Y-78351471D01*
X181610845Y-78378409D01*
X181476158Y-78459221D01*
X181260659Y-78674720D01*
X181233722Y-78755532D01*
X181233722Y-78809407D01*
X181260659Y-78890219D01*
X181368409Y-78997969D01*
X181449221Y-79024906D01*
X181503096Y-79024906D01*
X181583908Y-78997969D01*
X181718595Y-78863282D01*
X181745532Y-78782470D01*
X181745532Y-78728595D01*
X181718595Y-78647783D01*
X181610845Y-78540033D01*
X181530033Y-78513096D01*
X181476158Y-78513096D01*
X181395346Y-78540033D01*
X169880592Y-79902277D02*
X169907529Y-79983089D01*
X169988341Y-80063902D01*
X170096091Y-80117776D01*
X170203841Y-80117776D01*
X170284653Y-80090839D01*
X170419340Y-80010027D01*
X170500152Y-79929215D01*
X170580964Y-79794528D01*
X170607902Y-79713715D01*
X170607902Y-79605966D01*
X170554027Y-79498216D01*
X170500152Y-79444341D01*
X170392402Y-79390467D01*
X170338528Y-79390467D01*
X170149966Y-79579028D01*
X170257715Y-79686778D01*
X170149966Y-79094155D02*
X169584280Y-79659841D01*
X169368781Y-79444341D01*
X169341844Y-79363529D01*
X169341844Y-79309654D01*
X169368781Y-79228842D01*
X169449593Y-79148030D01*
X169530406Y-79121093D01*
X169584280Y-79121093D01*
X169665093Y-79148030D01*
X169880592Y-79363529D01*
X169287969Y-78232158D02*
X169611218Y-78555407D01*
X169449593Y-78393783D02*
X168883908Y-78959468D01*
X169018595Y-78932531D01*
X169126345Y-78932531D01*
X169207157Y-78959468D01*
X168533722Y-78609282D02*
X168183536Y-78259096D01*
X168587597Y-78232158D01*
X168506784Y-78151346D01*
X168479847Y-78070534D01*
X168479847Y-78016659D01*
X168506784Y-77935847D01*
X168641471Y-77801160D01*
X168722284Y-77774223D01*
X168776158Y-77774223D01*
X168856971Y-77801160D01*
X169018595Y-77962784D01*
X169045532Y-78043597D01*
X169045532Y-78097471D01*
X167098155Y-79913841D02*
X167125093Y-79994653D01*
X167205905Y-80075465D01*
X167313654Y-80129340D01*
X167421404Y-80129340D01*
X167502216Y-80102402D01*
X167636903Y-80021590D01*
X167717715Y-79940778D01*
X167798528Y-79806091D01*
X167825465Y-79725279D01*
X167825465Y-79617529D01*
X167771590Y-79509780D01*
X167717715Y-79455905D01*
X167609966Y-79402030D01*
X167556091Y-79402030D01*
X167367529Y-79590592D01*
X167475279Y-79698341D01*
X167367529Y-79105719D02*
X166801844Y-79671404D01*
X167044280Y-78782470D01*
X166478595Y-79348155D01*
X166774906Y-78513096D02*
X166209221Y-79078781D01*
X166074534Y-78944094D01*
X166020659Y-78836345D01*
X166020659Y-78728595D01*
X166047597Y-78647783D01*
X166128409Y-78513096D01*
X166209221Y-78432284D01*
X166343908Y-78351471D01*
X166424720Y-78324534D01*
X166532470Y-78324534D01*
X166640219Y-78378409D01*
X166774906Y-78513096D01*
X162260592Y-79902277D02*
X162287529Y-79983089D01*
X162368341Y-80063902D01*
X162476091Y-80117776D01*
X162583841Y-80117776D01*
X162664653Y-80090839D01*
X162799340Y-80010027D01*
X162880152Y-79929215D01*
X162960964Y-79794528D01*
X162987902Y-79713715D01*
X162987902Y-79605966D01*
X162934027Y-79498216D01*
X162880152Y-79444341D01*
X162772402Y-79390467D01*
X162718528Y-79390467D01*
X162529966Y-79579028D01*
X162637715Y-79686778D01*
X162529966Y-79094155D02*
X161964280Y-79659841D01*
X161748781Y-79444341D01*
X161721844Y-79363529D01*
X161721844Y-79309654D01*
X161748781Y-79228842D01*
X161829593Y-79148030D01*
X161910406Y-79121093D01*
X161964280Y-79121093D01*
X162045093Y-79148030D01*
X162260592Y-79363529D01*
X161667969Y-78232158D02*
X161991218Y-78555407D01*
X161829593Y-78393783D02*
X161263908Y-78959468D01*
X161398595Y-78932531D01*
X161506345Y-78932531D01*
X161587157Y-78959468D01*
X160590473Y-78286033D02*
X160859847Y-78555407D01*
X161156158Y-78312971D01*
X161102284Y-78312971D01*
X161021471Y-78286033D01*
X160886784Y-78151346D01*
X160859847Y-78070534D01*
X160859847Y-78016659D01*
X160886784Y-77935847D01*
X161021471Y-77801160D01*
X161102284Y-77774223D01*
X161156158Y-77774223D01*
X161236971Y-77801160D01*
X161371658Y-77935847D01*
X161398595Y-78016659D01*
X161398595Y-78070534D01*
X164800592Y-79856277D02*
X164827529Y-79937089D01*
X164908341Y-80017902D01*
X165016091Y-80071776D01*
X165123841Y-80071776D01*
X165204653Y-80044839D01*
X165339340Y-79964027D01*
X165420152Y-79883215D01*
X165500964Y-79748528D01*
X165527902Y-79667715D01*
X165527902Y-79559966D01*
X165474027Y-79452216D01*
X165420152Y-79398341D01*
X165312402Y-79344467D01*
X165258528Y-79344467D01*
X165069966Y-79533028D01*
X165177715Y-79640778D01*
X165069966Y-79048155D02*
X164504280Y-79613841D01*
X164288781Y-79398341D01*
X164261844Y-79317529D01*
X164261844Y-79263654D01*
X164288781Y-79182842D01*
X164369593Y-79102030D01*
X164450406Y-79075093D01*
X164504280Y-79075093D01*
X164585093Y-79102030D01*
X164800592Y-79317529D01*
X164207969Y-78186158D02*
X164531218Y-78509407D01*
X164369593Y-78347783D02*
X163803908Y-78913468D01*
X163938595Y-78886531D01*
X164046345Y-78886531D01*
X164127157Y-78913468D01*
X163345972Y-78078409D02*
X163723096Y-77701285D01*
X163265160Y-78428595D02*
X163803908Y-78159221D01*
X163453722Y-77809035D01*
X177490592Y-106010277D02*
X177517529Y-106091089D01*
X177598341Y-106171902D01*
X177706091Y-106225776D01*
X177813841Y-106225776D01*
X177894653Y-106198839D01*
X178029340Y-106118027D01*
X178110152Y-106037215D01*
X178190964Y-105902528D01*
X178217902Y-105821715D01*
X178217902Y-105713966D01*
X178164027Y-105606216D01*
X178110152Y-105552341D01*
X178002402Y-105498467D01*
X177948528Y-105498467D01*
X177759966Y-105687028D01*
X177867715Y-105794778D01*
X177759966Y-105202155D02*
X177194280Y-105767841D01*
X176978781Y-105552341D01*
X176951844Y-105471529D01*
X176951844Y-105417654D01*
X176978781Y-105336842D01*
X177059593Y-105256030D01*
X177140406Y-105229093D01*
X177194280Y-105229093D01*
X177275093Y-105256030D01*
X177490592Y-105471529D01*
X176709407Y-105175218D02*
X176655532Y-105175218D01*
X176574720Y-105148280D01*
X176440033Y-105013593D01*
X176413096Y-104932781D01*
X176413096Y-104878906D01*
X176440033Y-104798094D01*
X176493908Y-104744219D01*
X176601658Y-104690345D01*
X177248155Y-104690345D01*
X176897969Y-104340158D01*
X176359221Y-103801410D02*
X176682470Y-104124659D01*
X176520845Y-103963035D02*
X175955160Y-104528720D01*
X176089847Y-104501783D01*
X176197597Y-104501783D01*
X176278409Y-104528720D01*
X204358308Y-107477868D02*
X204008122Y-107127682D01*
X204412183Y-107100744D01*
X204331370Y-107019932D01*
X204304433Y-106939120D01*
X204304433Y-106885245D01*
X204331370Y-106804433D01*
X204466057Y-106669746D01*
X204546870Y-106642809D01*
X204600744Y-106642809D01*
X204681557Y-106669746D01*
X204843181Y-106831370D01*
X204870118Y-106912183D01*
X204870118Y-106966057D01*
X203846497Y-106966057D02*
X204223621Y-106211810D01*
X203469374Y-106588934D01*
X203334687Y-106454247D02*
X202984500Y-106104061D01*
X203388561Y-106077123D01*
X203307749Y-105996311D01*
X203280812Y-105915499D01*
X203280812Y-105861624D01*
X203307749Y-105780812D01*
X203442436Y-105646125D01*
X203523248Y-105619187D01*
X203577123Y-105619187D01*
X203657935Y-105646125D01*
X203819560Y-105807749D01*
X203846497Y-105888561D01*
X203846497Y-105942436D01*
X203496311Y-105376751D02*
X203065312Y-104945752D01*
X202580439Y-105161251D02*
X202391877Y-104972690D01*
X202607377Y-104595566D02*
X202876751Y-104864940D01*
X202311065Y-105430625D01*
X202041691Y-105161251D01*
X202364940Y-104353129D02*
X201799255Y-104918815D01*
X202041691Y-104029881D01*
X201476006Y-104595566D01*
X205198155Y-105513841D02*
X205225093Y-105594653D01*
X205305905Y-105675465D01*
X205413654Y-105729340D01*
X205521404Y-105729340D01*
X205602216Y-105702402D01*
X205736903Y-105621590D01*
X205817715Y-105540778D01*
X205898528Y-105406091D01*
X205925465Y-105325279D01*
X205925465Y-105217529D01*
X205871590Y-105109780D01*
X205817715Y-105055905D01*
X205709966Y-105002030D01*
X205656091Y-105002030D01*
X205467529Y-105190592D01*
X205575279Y-105298341D01*
X205467529Y-104705719D02*
X204901844Y-105271404D01*
X205144280Y-104382470D01*
X204578595Y-104948155D01*
X204874906Y-104113096D02*
X204309221Y-104678781D01*
X204174534Y-104544094D01*
X204120659Y-104436345D01*
X204120659Y-104328595D01*
X204147597Y-104247783D01*
X204228409Y-104113096D01*
X204309221Y-104032284D01*
X204443908Y-103951471D01*
X204524720Y-103924534D01*
X204632470Y-103924534D01*
X204740219Y-103978409D01*
X204874906Y-104113096D01*
X172420592Y-106010277D02*
X172447529Y-106091089D01*
X172528341Y-106171902D01*
X172636091Y-106225776D01*
X172743841Y-106225776D01*
X172824653Y-106198839D01*
X172959340Y-106118027D01*
X173040152Y-106037215D01*
X173120964Y-105902528D01*
X173147902Y-105821715D01*
X173147902Y-105713966D01*
X173094027Y-105606216D01*
X173040152Y-105552341D01*
X172932402Y-105498467D01*
X172878528Y-105498467D01*
X172689966Y-105687028D01*
X172797715Y-105794778D01*
X172689966Y-105202155D02*
X172124280Y-105767841D01*
X171908781Y-105552341D01*
X171881844Y-105471529D01*
X171881844Y-105417654D01*
X171908781Y-105336842D01*
X171989593Y-105256030D01*
X172070406Y-105229093D01*
X172124280Y-105229093D01*
X172205093Y-105256030D01*
X172420592Y-105471529D01*
X171827969Y-104340158D02*
X172151218Y-104663407D01*
X171989593Y-104501783D02*
X171423908Y-105067468D01*
X171558595Y-105040531D01*
X171666345Y-105040531D01*
X171747157Y-105067468D01*
X171558595Y-104070784D02*
X171450845Y-103963035D01*
X171370033Y-103936097D01*
X171316158Y-103936097D01*
X171181471Y-103963035D01*
X171046784Y-104043847D01*
X170831285Y-104259346D01*
X170804348Y-104340158D01*
X170804348Y-104394033D01*
X170831285Y-104474845D01*
X170939035Y-104582595D01*
X171019847Y-104609532D01*
X171073722Y-104609532D01*
X171154534Y-104582595D01*
X171289221Y-104447908D01*
X171316158Y-104367096D01*
X171316158Y-104313221D01*
X171289221Y-104232409D01*
X171181471Y-104124659D01*
X171100659Y-104097722D01*
X171046784Y-104097722D01*
X170965972Y-104124659D01*
X164800592Y-106010277D02*
X164827529Y-106091089D01*
X164908341Y-106171902D01*
X165016091Y-106225776D01*
X165123841Y-106225776D01*
X165204653Y-106198839D01*
X165339340Y-106118027D01*
X165420152Y-106037215D01*
X165500964Y-105902528D01*
X165527902Y-105821715D01*
X165527902Y-105713966D01*
X165474027Y-105606216D01*
X165420152Y-105552341D01*
X165312402Y-105498467D01*
X165258528Y-105498467D01*
X165069966Y-105687028D01*
X165177715Y-105794778D01*
X165069966Y-105202155D02*
X164504280Y-105767841D01*
X164288781Y-105552341D01*
X164261844Y-105471529D01*
X164261844Y-105417654D01*
X164288781Y-105336842D01*
X164369593Y-105256030D01*
X164450406Y-105229093D01*
X164504280Y-105229093D01*
X164585093Y-105256030D01*
X164800592Y-105471529D01*
X164207969Y-104340158D02*
X164531218Y-104663407D01*
X164369593Y-104501783D02*
X163803908Y-105067468D01*
X163938595Y-105040531D01*
X164046345Y-105040531D01*
X164127157Y-105067468D01*
X163453722Y-104717282D02*
X163076598Y-104340158D01*
X163884720Y-104016910D01*
X195011218Y-79886903D02*
X195038155Y-79967715D01*
X195118967Y-80048528D01*
X195226717Y-80102402D01*
X195334467Y-80102402D01*
X195415279Y-80075465D01*
X195549966Y-79994653D01*
X195630778Y-79913841D01*
X195711590Y-79779154D01*
X195738528Y-79698341D01*
X195738528Y-79590592D01*
X195684653Y-79482842D01*
X195630778Y-79428967D01*
X195523028Y-79375093D01*
X195469154Y-79375093D01*
X195280592Y-79563654D01*
X195388341Y-79671404D01*
X195280592Y-79078781D02*
X194714906Y-79644467D01*
X194499407Y-79428967D01*
X194472470Y-79348155D01*
X194472470Y-79294280D01*
X194499407Y-79213468D01*
X194580219Y-79132656D01*
X194661032Y-79105719D01*
X194714906Y-79105719D01*
X194795719Y-79132656D01*
X195011218Y-79348155D01*
X193879847Y-78809407D02*
X194149221Y-79078781D01*
X194445532Y-78836345D01*
X194391658Y-78836345D01*
X194310845Y-78809407D01*
X194176158Y-78674720D01*
X194149221Y-78593908D01*
X194149221Y-78540033D01*
X194176158Y-78459221D01*
X194310845Y-78324534D01*
X194391658Y-78297597D01*
X194445532Y-78297597D01*
X194526345Y-78324534D01*
X194661032Y-78459221D01*
X194687969Y-78540033D01*
X194687969Y-78593908D01*
X208249966Y-106479526D02*
X208627089Y-105725279D01*
X207872842Y-106102402D01*
X208249966Y-105402030D02*
X208196091Y-105294280D01*
X208061404Y-105159593D01*
X207980592Y-105132656D01*
X207926717Y-105132656D01*
X207845905Y-105159593D01*
X207792030Y-105213468D01*
X207765093Y-105294280D01*
X207765093Y-105348155D01*
X207792030Y-105428967D01*
X207872842Y-105563654D01*
X207899780Y-105644467D01*
X207899780Y-105698341D01*
X207872842Y-105779154D01*
X207818967Y-105833028D01*
X207738155Y-105859966D01*
X207684280Y-105859966D01*
X207603468Y-105833028D01*
X207468781Y-105698341D01*
X207414906Y-105590592D01*
X207334094Y-104971032D02*
X207603468Y-104701658D01*
X207226345Y-105455905D02*
X207334094Y-104971032D01*
X206849221Y-105078781D01*
X207226345Y-104378409D02*
X207172470Y-104270659D01*
X207037783Y-104135972D01*
X206956971Y-104109035D01*
X206903096Y-104109035D01*
X206822284Y-104135972D01*
X206768409Y-104189847D01*
X206741471Y-104270659D01*
X206741471Y-104324534D01*
X206768409Y-104405346D01*
X206849221Y-104540033D01*
X206876158Y-104620845D01*
X206876158Y-104674720D01*
X206849221Y-104755532D01*
X206795346Y-104809407D01*
X206714534Y-104836345D01*
X206660659Y-104836345D01*
X206579847Y-104809407D01*
X206445160Y-104674720D01*
X206391285Y-104566971D01*
X197551218Y-79886903D02*
X197578155Y-79967715D01*
X197658967Y-80048528D01*
X197766717Y-80102402D01*
X197874467Y-80102402D01*
X197955279Y-80075465D01*
X198089966Y-79994653D01*
X198170778Y-79913841D01*
X198251590Y-79779154D01*
X198278528Y-79698341D01*
X198278528Y-79590592D01*
X198224653Y-79482842D01*
X198170778Y-79428967D01*
X198063028Y-79375093D01*
X198009154Y-79375093D01*
X197820592Y-79563654D01*
X197928341Y-79671404D01*
X197820592Y-79078781D02*
X197254906Y-79644467D01*
X197039407Y-79428967D01*
X197012470Y-79348155D01*
X197012470Y-79294280D01*
X197039407Y-79213468D01*
X197120219Y-79132656D01*
X197201032Y-79105719D01*
X197254906Y-79105719D01*
X197335719Y-79132656D01*
X197551218Y-79348155D01*
X196635346Y-78647783D02*
X197012470Y-78270659D01*
X196554534Y-78997969D02*
X197093282Y-78728595D01*
X196743096Y-78378409D01*
X210927309Y-106646870D02*
X211304433Y-105892622D01*
X210550186Y-106269746D01*
X210442436Y-105623248D02*
X210388561Y-105515499D01*
X210388561Y-105461624D01*
X210415499Y-105380812D01*
X210496311Y-105299999D01*
X210577123Y-105273062D01*
X210630998Y-105273062D01*
X210711810Y-105299999D01*
X210927309Y-105515499D01*
X210361624Y-106081184D01*
X210173062Y-105892622D01*
X210146125Y-105811810D01*
X210146125Y-105757935D01*
X210173062Y-105677123D01*
X210226937Y-105623248D01*
X210307749Y-105596311D01*
X210361624Y-105596311D01*
X210442436Y-105623248D01*
X210630998Y-105811810D01*
X209795938Y-105515499D02*
X210253874Y-105057563D01*
X210280812Y-104976751D01*
X210280812Y-104922876D01*
X210253874Y-104842064D01*
X210146125Y-104734314D01*
X210065312Y-104707377D01*
X210011438Y-104707377D01*
X209930625Y-104734314D01*
X209472690Y-105192250D01*
X209769001Y-104411065D02*
X209715126Y-104303316D01*
X209580439Y-104168629D01*
X209499627Y-104141691D01*
X209445752Y-104141691D01*
X209364940Y-104168629D01*
X209311065Y-104222503D01*
X209284128Y-104303316D01*
X209284128Y-104357190D01*
X209311065Y-104438003D01*
X209391877Y-104572690D01*
X209418815Y-104653502D01*
X209418815Y-104707377D01*
X209391877Y-104788189D01*
X209338003Y-104842064D01*
X209257190Y-104869001D01*
X209203316Y-104869001D01*
X209122503Y-104842064D01*
X208987816Y-104707377D01*
X208933942Y-104599627D01*
X162260592Y-106010277D02*
X162287529Y-106091089D01*
X162368341Y-106171902D01*
X162476091Y-106225776D01*
X162583841Y-106225776D01*
X162664653Y-106198839D01*
X162799340Y-106118027D01*
X162880152Y-106037215D01*
X162960964Y-105902528D01*
X162987902Y-105821715D01*
X162987902Y-105713966D01*
X162934027Y-105606216D01*
X162880152Y-105552341D01*
X162772402Y-105498467D01*
X162718528Y-105498467D01*
X162529966Y-105687028D01*
X162637715Y-105794778D01*
X162529966Y-105202155D02*
X161964280Y-105767841D01*
X161748781Y-105552341D01*
X161721844Y-105471529D01*
X161721844Y-105417654D01*
X161748781Y-105336842D01*
X161829593Y-105256030D01*
X161910406Y-105229093D01*
X161964280Y-105229093D01*
X162045093Y-105256030D01*
X162260592Y-105471529D01*
X161667969Y-104340158D02*
X161991218Y-104663407D01*
X161829593Y-104501783D02*
X161263908Y-105067468D01*
X161398595Y-105040531D01*
X161506345Y-105040531D01*
X161587157Y-105067468D01*
X160617410Y-104420971D02*
X160725160Y-104528720D01*
X160805972Y-104555658D01*
X160859847Y-104555658D01*
X160994534Y-104528720D01*
X161129221Y-104447908D01*
X161344720Y-104232409D01*
X161371658Y-104151597D01*
X161371658Y-104097722D01*
X161344720Y-104016910D01*
X161236971Y-103909160D01*
X161156158Y-103882223D01*
X161102284Y-103882223D01*
X161021471Y-103909160D01*
X160886784Y-104043847D01*
X160859847Y-104124659D01*
X160859847Y-104178534D01*
X160886784Y-104259346D01*
X160994534Y-104367096D01*
X161075346Y-104394033D01*
X161129221Y-104394033D01*
X161210033Y-104367096D01*
X187660592Y-106010277D02*
X187687529Y-106091089D01*
X187768341Y-106171902D01*
X187876091Y-106225776D01*
X187983841Y-106225776D01*
X188064653Y-106198839D01*
X188199340Y-106118027D01*
X188280152Y-106037215D01*
X188360964Y-105902528D01*
X188387902Y-105821715D01*
X188387902Y-105713966D01*
X188334027Y-105606216D01*
X188280152Y-105552341D01*
X188172402Y-105498467D01*
X188118528Y-105498467D01*
X187929966Y-105687028D01*
X188037715Y-105794778D01*
X187929966Y-105202155D02*
X187364280Y-105767841D01*
X187148781Y-105552341D01*
X187121844Y-105471529D01*
X187121844Y-105417654D01*
X187148781Y-105336842D01*
X187229593Y-105256030D01*
X187310406Y-105229093D01*
X187364280Y-105229093D01*
X187445093Y-105256030D01*
X187660592Y-105471529D01*
X186879407Y-105175218D02*
X186825532Y-105175218D01*
X186744720Y-105148280D01*
X186610033Y-105013593D01*
X186583096Y-104932781D01*
X186583096Y-104878906D01*
X186610033Y-104798094D01*
X186663908Y-104744219D01*
X186771658Y-104690345D01*
X187418155Y-104690345D01*
X187067969Y-104340158D01*
X186017410Y-104420971D02*
X186125160Y-104528720D01*
X186205972Y-104555658D01*
X186259847Y-104555658D01*
X186394534Y-104528720D01*
X186529221Y-104447908D01*
X186744720Y-104232409D01*
X186771658Y-104151597D01*
X186771658Y-104097722D01*
X186744720Y-104016910D01*
X186636971Y-103909160D01*
X186556158Y-103882223D01*
X186502284Y-103882223D01*
X186421471Y-103909160D01*
X186286784Y-104043847D01*
X186259847Y-104124659D01*
X186259847Y-104178534D01*
X186286784Y-104259346D01*
X186394534Y-104367096D01*
X186475346Y-104394033D01*
X186529221Y-104394033D01*
X186610033Y-104367096D01*
X185403435Y-105161624D02*
X185322622Y-105619560D01*
X185726683Y-105484873D02*
X185160998Y-106050558D01*
X184945499Y-105835059D01*
X184918561Y-105754247D01*
X184918561Y-105700372D01*
X184945499Y-105619560D01*
X185026311Y-105538748D01*
X185107123Y-105511810D01*
X185160998Y-105511810D01*
X185241810Y-105538748D01*
X185457309Y-105754247D01*
X184595312Y-105484873D02*
X185053248Y-105026937D01*
X185080186Y-104946125D01*
X185080186Y-104892250D01*
X185053248Y-104811438D01*
X184945499Y-104703688D01*
X184864687Y-104676751D01*
X184810812Y-104676751D01*
X184730000Y-104703688D01*
X184272064Y-105161624D01*
X184568375Y-104326564D02*
X184002690Y-104892250D01*
X184245126Y-104003316D01*
X183679441Y-104569001D01*
X179798155Y-105513841D02*
X179825093Y-105594653D01*
X179905905Y-105675465D01*
X180013654Y-105729340D01*
X180121404Y-105729340D01*
X180202216Y-105702402D01*
X180336903Y-105621590D01*
X180417715Y-105540778D01*
X180498528Y-105406091D01*
X180525465Y-105325279D01*
X180525465Y-105217529D01*
X180471590Y-105109780D01*
X180417715Y-105055905D01*
X180309966Y-105002030D01*
X180256091Y-105002030D01*
X180067529Y-105190592D01*
X180175279Y-105298341D01*
X180067529Y-104705719D02*
X179501844Y-105271404D01*
X179744280Y-104382470D01*
X179178595Y-104948155D01*
X179474906Y-104113096D02*
X178909221Y-104678781D01*
X178774534Y-104544094D01*
X178720659Y-104436345D01*
X178720659Y-104328595D01*
X178747597Y-104247783D01*
X178828409Y-104113096D01*
X178909221Y-104032284D01*
X179043908Y-103951471D01*
X179124720Y-103924534D01*
X179232470Y-103924534D01*
X179340219Y-103978409D01*
X179474906Y-104113096D01*
X192498155Y-79913841D02*
X192525093Y-79994653D01*
X192605905Y-80075465D01*
X192713654Y-80129340D01*
X192821404Y-80129340D01*
X192902216Y-80102402D01*
X193036903Y-80021590D01*
X193117715Y-79940778D01*
X193198528Y-79806091D01*
X193225465Y-79725279D01*
X193225465Y-79617529D01*
X193171590Y-79509780D01*
X193117715Y-79455905D01*
X193009966Y-79402030D01*
X192956091Y-79402030D01*
X192767529Y-79590592D01*
X192875279Y-79698341D01*
X192767529Y-79105719D02*
X192201844Y-79671404D01*
X192444280Y-78782470D01*
X191878595Y-79348155D01*
X192174906Y-78513096D02*
X191609221Y-79078781D01*
X191474534Y-78944094D01*
X191420659Y-78836345D01*
X191420659Y-78728595D01*
X191447597Y-78647783D01*
X191528409Y-78513096D01*
X191609221Y-78432284D01*
X191743908Y-78351471D01*
X191824720Y-78324534D01*
X191932470Y-78324534D01*
X192040219Y-78378409D01*
X192174906Y-78513096D01*
X200290592Y-105910152D02*
X199940406Y-105559966D01*
X200344467Y-105533028D01*
X200263654Y-105452216D01*
X200236717Y-105371404D01*
X200236717Y-105317529D01*
X200263654Y-105236717D01*
X200398341Y-105102030D01*
X200479154Y-105075093D01*
X200533028Y-105075093D01*
X200613841Y-105102030D01*
X200775465Y-105263654D01*
X200802402Y-105344467D01*
X200802402Y-105398341D01*
X199778781Y-105398341D02*
X200155905Y-104644094D01*
X199401658Y-105021218D01*
X199266971Y-104886531D02*
X198916784Y-104536345D01*
X199320845Y-104509407D01*
X199240033Y-104428595D01*
X199213096Y-104347783D01*
X199213096Y-104293908D01*
X199240033Y-104213096D01*
X199374720Y-104078409D01*
X199455532Y-104051471D01*
X199509407Y-104051471D01*
X199590219Y-104078409D01*
X199751844Y-104240033D01*
X199778781Y-104320845D01*
X199778781Y-104374720D01*
X182580592Y-106010277D02*
X182607529Y-106091089D01*
X182688341Y-106171902D01*
X182796091Y-106225776D01*
X182903841Y-106225776D01*
X182984653Y-106198839D01*
X183119340Y-106118027D01*
X183200152Y-106037215D01*
X183280964Y-105902528D01*
X183307902Y-105821715D01*
X183307902Y-105713966D01*
X183254027Y-105606216D01*
X183200152Y-105552341D01*
X183092402Y-105498467D01*
X183038528Y-105498467D01*
X182849966Y-105687028D01*
X182957715Y-105794778D01*
X182849966Y-105202155D02*
X182284280Y-105767841D01*
X182068781Y-105552341D01*
X182041844Y-105471529D01*
X182041844Y-105417654D01*
X182068781Y-105336842D01*
X182149593Y-105256030D01*
X182230406Y-105229093D01*
X182284280Y-105229093D01*
X182365093Y-105256030D01*
X182580592Y-105471529D01*
X181799407Y-105175218D02*
X181745532Y-105175218D01*
X181664720Y-105148280D01*
X181530033Y-105013593D01*
X181503096Y-104932781D01*
X181503096Y-104878906D01*
X181530033Y-104798094D01*
X181583908Y-104744219D01*
X181691658Y-104690345D01*
X182338155Y-104690345D01*
X181987969Y-104340158D01*
X181260659Y-104636470D02*
X181206784Y-104636470D01*
X181125972Y-104609532D01*
X180991285Y-104474845D01*
X180964348Y-104394033D01*
X180964348Y-104340158D01*
X180991285Y-104259346D01*
X181045160Y-104205471D01*
X181152910Y-104151597D01*
X181799407Y-104151597D01*
X181449221Y-103801410D01*
X169880592Y-106010277D02*
X169907529Y-106091089D01*
X169988341Y-106171902D01*
X170096091Y-106225776D01*
X170203841Y-106225776D01*
X170284653Y-106198839D01*
X170419340Y-106118027D01*
X170500152Y-106037215D01*
X170580964Y-105902528D01*
X170607902Y-105821715D01*
X170607902Y-105713966D01*
X170554027Y-105606216D01*
X170500152Y-105552341D01*
X170392402Y-105498467D01*
X170338528Y-105498467D01*
X170149966Y-105687028D01*
X170257715Y-105794778D01*
X170149966Y-105202155D02*
X169584280Y-105767841D01*
X169368781Y-105552341D01*
X169341844Y-105471529D01*
X169341844Y-105417654D01*
X169368781Y-105336842D01*
X169449593Y-105256030D01*
X169530406Y-105229093D01*
X169584280Y-105229093D01*
X169665093Y-105256030D01*
X169880592Y-105471529D01*
X169287969Y-104340158D02*
X169611218Y-104663407D01*
X169449593Y-104501783D02*
X168883908Y-105067468D01*
X169018595Y-105040531D01*
X169126345Y-105040531D01*
X169207157Y-105067468D01*
X168641471Y-104340158D02*
X168668409Y-104420971D01*
X168668409Y-104474845D01*
X168641471Y-104555658D01*
X168614534Y-104582595D01*
X168533722Y-104609532D01*
X168479847Y-104609532D01*
X168399035Y-104582595D01*
X168291285Y-104474845D01*
X168264348Y-104394033D01*
X168264348Y-104340158D01*
X168291285Y-104259346D01*
X168318223Y-104232409D01*
X168399035Y-104205471D01*
X168452910Y-104205471D01*
X168533722Y-104232409D01*
X168641471Y-104340158D01*
X168722284Y-104367096D01*
X168776158Y-104367096D01*
X168856971Y-104340158D01*
X168964720Y-104232409D01*
X168991658Y-104151597D01*
X168991658Y-104097722D01*
X168964720Y-104016910D01*
X168856971Y-103909160D01*
X168776158Y-103882223D01*
X168722284Y-103882223D01*
X168641471Y-103909160D01*
X168533722Y-104016910D01*
X168506784Y-104097722D01*
X168506784Y-104151597D01*
X168533722Y-104232409D01*
X189931218Y-79886903D02*
X189958155Y-79967715D01*
X190038967Y-80048528D01*
X190146717Y-80102402D01*
X190254467Y-80102402D01*
X190335279Y-80075465D01*
X190469966Y-79994653D01*
X190550778Y-79913841D01*
X190631590Y-79779154D01*
X190658528Y-79698341D01*
X190658528Y-79590592D01*
X190604653Y-79482842D01*
X190550778Y-79428967D01*
X190443028Y-79375093D01*
X190389154Y-79375093D01*
X190200592Y-79563654D01*
X190308341Y-79671404D01*
X190200592Y-79078781D02*
X189634906Y-79644467D01*
X189419407Y-79428967D01*
X189392470Y-79348155D01*
X189392470Y-79294280D01*
X189419407Y-79213468D01*
X189500219Y-79132656D01*
X189581032Y-79105719D01*
X189634906Y-79105719D01*
X189715719Y-79132656D01*
X189931218Y-79348155D01*
X188826784Y-78836345D02*
X188934534Y-78944094D01*
X189015346Y-78971032D01*
X189069221Y-78971032D01*
X189203908Y-78944094D01*
X189338595Y-78863282D01*
X189554094Y-78647783D01*
X189581032Y-78566971D01*
X189581032Y-78513096D01*
X189554094Y-78432284D01*
X189446345Y-78324534D01*
X189365532Y-78297597D01*
X189311658Y-78297597D01*
X189230845Y-78324534D01*
X189096158Y-78459221D01*
X189069221Y-78540033D01*
X189069221Y-78593908D01*
X189096158Y-78674720D01*
X189203908Y-78782470D01*
X189284720Y-78809407D01*
X189338595Y-78809407D01*
X189419407Y-78782470D01*
X190190592Y-106010277D02*
X190217529Y-106091089D01*
X190298341Y-106171902D01*
X190406091Y-106225776D01*
X190513841Y-106225776D01*
X190594653Y-106198839D01*
X190729340Y-106118027D01*
X190810152Y-106037215D01*
X190890964Y-105902528D01*
X190917902Y-105821715D01*
X190917902Y-105713966D01*
X190864027Y-105606216D01*
X190810152Y-105552341D01*
X190702402Y-105498467D01*
X190648528Y-105498467D01*
X190459966Y-105687028D01*
X190567715Y-105794778D01*
X190459966Y-105202155D02*
X189894280Y-105767841D01*
X189678781Y-105552341D01*
X189651844Y-105471529D01*
X189651844Y-105417654D01*
X189678781Y-105336842D01*
X189759593Y-105256030D01*
X189840406Y-105229093D01*
X189894280Y-105229093D01*
X189975093Y-105256030D01*
X190190592Y-105471529D01*
X189409407Y-105175218D02*
X189355532Y-105175218D01*
X189274720Y-105148280D01*
X189140033Y-105013593D01*
X189113096Y-104932781D01*
X189113096Y-104878906D01*
X189140033Y-104798094D01*
X189193908Y-104744219D01*
X189301658Y-104690345D01*
X189948155Y-104690345D01*
X189597969Y-104340158D01*
X188843722Y-104717282D02*
X188466598Y-104340158D01*
X189274720Y-104016910D01*
X179798155Y-79913841D02*
X179825093Y-79994653D01*
X179905905Y-80075465D01*
X180013654Y-80129340D01*
X180121404Y-80129340D01*
X180202216Y-80102402D01*
X180336903Y-80021590D01*
X180417715Y-79940778D01*
X180498528Y-79806091D01*
X180525465Y-79725279D01*
X180525465Y-79617529D01*
X180471590Y-79509780D01*
X180417715Y-79455905D01*
X180309966Y-79402030D01*
X180256091Y-79402030D01*
X180067529Y-79590592D01*
X180175279Y-79698341D01*
X180067529Y-79105719D02*
X179501844Y-79671404D01*
X179744280Y-78782470D01*
X179178595Y-79348155D01*
X179474906Y-78513096D02*
X178909221Y-79078781D01*
X178774534Y-78944094D01*
X178720659Y-78836345D01*
X178720659Y-78728595D01*
X178747597Y-78647783D01*
X178828409Y-78513096D01*
X178909221Y-78432284D01*
X179043908Y-78351471D01*
X179124720Y-78324534D01*
X179232470Y-78324534D01*
X179340219Y-78378409D01*
X179474906Y-78513096D01*
X195534592Y-106010277D02*
X195561529Y-106091089D01*
X195642341Y-106171902D01*
X195750091Y-106225776D01*
X195857841Y-106225776D01*
X195938653Y-106198839D01*
X196073340Y-106118027D01*
X196154152Y-106037215D01*
X196234964Y-105902528D01*
X196261902Y-105821715D01*
X196261902Y-105713966D01*
X196208027Y-105606216D01*
X196154152Y-105552341D01*
X196046402Y-105498467D01*
X195992528Y-105498467D01*
X195803966Y-105687028D01*
X195911715Y-105794778D01*
X195803966Y-105202155D02*
X195238280Y-105767841D01*
X195022781Y-105552341D01*
X194995844Y-105471529D01*
X194995844Y-105417654D01*
X195022781Y-105336842D01*
X195103593Y-105256030D01*
X195184406Y-105229093D01*
X195238280Y-105229093D01*
X195319093Y-105256030D01*
X195534592Y-105471529D01*
X194753407Y-105175218D02*
X194699532Y-105175218D01*
X194618720Y-105148280D01*
X194484033Y-105013593D01*
X194457096Y-104932781D01*
X194457096Y-104878906D01*
X194484033Y-104798094D01*
X194537908Y-104744219D01*
X194645658Y-104690345D01*
X195292155Y-104690345D01*
X194941969Y-104340158D01*
X194295471Y-104340158D02*
X194322409Y-104420971D01*
X194322409Y-104474845D01*
X194295471Y-104555658D01*
X194268534Y-104582595D01*
X194187722Y-104609532D01*
X194133847Y-104609532D01*
X194053035Y-104582595D01*
X193945285Y-104474845D01*
X193918348Y-104394033D01*
X193918348Y-104340158D01*
X193945285Y-104259346D01*
X193972223Y-104232409D01*
X194053035Y-104205471D01*
X194106910Y-104205471D01*
X194187722Y-104232409D01*
X194295471Y-104340158D01*
X194376284Y-104367096D01*
X194430158Y-104367096D01*
X194510971Y-104340158D01*
X194618720Y-104232409D01*
X194645658Y-104151597D01*
X194645658Y-104097722D01*
X194618720Y-104016910D01*
X194510971Y-103909160D01*
X194430158Y-103882223D01*
X194376284Y-103882223D01*
X194295471Y-103909160D01*
X194187722Y-104016910D01*
X194160784Y-104097722D01*
X194160784Y-104151597D01*
X194187722Y-104232409D01*
X174960592Y-79756277D02*
X174987529Y-79837089D01*
X175068341Y-79917902D01*
X175176091Y-79971776D01*
X175283841Y-79971776D01*
X175364653Y-79944839D01*
X175499340Y-79864027D01*
X175580152Y-79783215D01*
X175660964Y-79648528D01*
X175687902Y-79567715D01*
X175687902Y-79459966D01*
X175634027Y-79352216D01*
X175580152Y-79298341D01*
X175472402Y-79244467D01*
X175418528Y-79244467D01*
X175229966Y-79433028D01*
X175337715Y-79540778D01*
X175229966Y-78948155D02*
X174664280Y-79513841D01*
X174448781Y-79298341D01*
X174421844Y-79217529D01*
X174421844Y-79163654D01*
X174448781Y-79082842D01*
X174529593Y-79002030D01*
X174610406Y-78975093D01*
X174664280Y-78975093D01*
X174745093Y-79002030D01*
X174960592Y-79217529D01*
X174367969Y-78086158D02*
X174691218Y-78409407D01*
X174529593Y-78247783D02*
X173963908Y-78813468D01*
X174098595Y-78786531D01*
X174206345Y-78786531D01*
X174287157Y-78813468D01*
X173829221Y-77547410D02*
X174152470Y-77870659D01*
X173990845Y-77709035D02*
X173425160Y-78274720D01*
X173559847Y-78247783D01*
X173667597Y-78247783D01*
X173748409Y-78274720D01*
X193440964Y-105956402D02*
X193171590Y-105687028D01*
X193656463Y-105848653D02*
X192902216Y-106225776D01*
X193279340Y-105471529D01*
X192255719Y-105525404D02*
X192282656Y-105606216D01*
X192363468Y-105687028D01*
X192471218Y-105740903D01*
X192578967Y-105740903D01*
X192659780Y-105713966D01*
X192794467Y-105633154D01*
X192875279Y-105552341D01*
X192956091Y-105417654D01*
X192983028Y-105336842D01*
X192983028Y-105229093D01*
X192929154Y-105121343D01*
X192875279Y-105067468D01*
X192767529Y-105013593D01*
X192713654Y-105013593D01*
X192525093Y-105202155D01*
X192632842Y-105309905D01*
X192525093Y-104717282D02*
X191959407Y-105282967D01*
X192201844Y-104394033D01*
X191636158Y-104959719D01*
X191932470Y-104124659D02*
X191366784Y-104690345D01*
X191232097Y-104555658D01*
X191178223Y-104447908D01*
X191178223Y-104340158D01*
X191205160Y-104259346D01*
X191285972Y-104124659D01*
X191366784Y-104043847D01*
X191501471Y-103963035D01*
X191582284Y-103936097D01*
X191690033Y-103936097D01*
X191797783Y-103989972D01*
X191932470Y-104124659D01*
X174960592Y-106010277D02*
X174987529Y-106091089D01*
X175068341Y-106171902D01*
X175176091Y-106225776D01*
X175283841Y-106225776D01*
X175364653Y-106198839D01*
X175499340Y-106118027D01*
X175580152Y-106037215D01*
X175660964Y-105902528D01*
X175687902Y-105821715D01*
X175687902Y-105713966D01*
X175634027Y-105606216D01*
X175580152Y-105552341D01*
X175472402Y-105498467D01*
X175418528Y-105498467D01*
X175229966Y-105687028D01*
X175337715Y-105794778D01*
X175229966Y-105202155D02*
X174664280Y-105767841D01*
X174448781Y-105552341D01*
X174421844Y-105471529D01*
X174421844Y-105417654D01*
X174448781Y-105336842D01*
X174529593Y-105256030D01*
X174610406Y-105229093D01*
X174664280Y-105229093D01*
X174745093Y-105256030D01*
X174960592Y-105471529D01*
X174179407Y-105175218D02*
X174125532Y-105175218D01*
X174044720Y-105148280D01*
X173910033Y-105013593D01*
X173883096Y-104932781D01*
X173883096Y-104878906D01*
X173910033Y-104798094D01*
X173963908Y-104744219D01*
X174071658Y-104690345D01*
X174718155Y-104690345D01*
X174367969Y-104340158D01*
X173452097Y-104555658D02*
X173398223Y-104501783D01*
X173371285Y-104420971D01*
X173371285Y-104367096D01*
X173398223Y-104286284D01*
X173479035Y-104151597D01*
X173613722Y-104016910D01*
X173748409Y-103936097D01*
X173829221Y-103909160D01*
X173883096Y-103909160D01*
X173963908Y-103936097D01*
X174017783Y-103989972D01*
X174044720Y-104070784D01*
X174044720Y-104124659D01*
X174017783Y-104205471D01*
X173936971Y-104340158D01*
X173802284Y-104474845D01*
X173667597Y-104555658D01*
X173586784Y-104582595D01*
X173532910Y-104582595D01*
X173452097Y-104555658D01*
X210251218Y-79886903D02*
X210278155Y-79967715D01*
X210358967Y-80048528D01*
X210466717Y-80102402D01*
X210574467Y-80102402D01*
X210655279Y-80075465D01*
X210789966Y-79994653D01*
X210870778Y-79913841D01*
X210951590Y-79779154D01*
X210978528Y-79698341D01*
X210978528Y-79590592D01*
X210924653Y-79482842D01*
X210870778Y-79428967D01*
X210763028Y-79375093D01*
X210709154Y-79375093D01*
X210520592Y-79563654D01*
X210628341Y-79671404D01*
X210520592Y-79078781D02*
X209954906Y-79644467D01*
X209739407Y-79428967D01*
X209712470Y-79348155D01*
X209712470Y-79294280D01*
X209739407Y-79213468D01*
X209820219Y-79132656D01*
X209901032Y-79105719D01*
X209954906Y-79105719D01*
X210035719Y-79132656D01*
X210251218Y-79348155D01*
X209281471Y-78971032D02*
X209227597Y-78917157D01*
X209200659Y-78836345D01*
X209200659Y-78782470D01*
X209227597Y-78701658D01*
X209308409Y-78566971D01*
X209443096Y-78432284D01*
X209577783Y-78351471D01*
X209658595Y-78324534D01*
X209712470Y-78324534D01*
X209793282Y-78351471D01*
X209847157Y-78405346D01*
X209874094Y-78486158D01*
X209874094Y-78540033D01*
X209847157Y-78620845D01*
X209766345Y-78755532D01*
X209631658Y-78890219D01*
X209496971Y-78971032D01*
X209416158Y-78997969D01*
X209362284Y-78997969D01*
X209281471Y-78971032D01*
X200533773Y-107845211D02*
X200264399Y-107575837D01*
X200749272Y-107737462D02*
X199995025Y-108114585D01*
X200372149Y-107360338D01*
X200183587Y-107171776D02*
X199617902Y-107737462D01*
X199483215Y-107602775D01*
X199429340Y-107495025D01*
X199429340Y-107387276D01*
X199456277Y-107306463D01*
X199537089Y-107171776D01*
X199617902Y-107090964D01*
X199752589Y-107010152D01*
X199833401Y-106983215D01*
X199941150Y-106983215D01*
X200048900Y-107037089D01*
X200183587Y-107171776D01*
X199240778Y-106336717D02*
X199294653Y-106336717D01*
X199402402Y-106390592D01*
X199456277Y-106444467D01*
X199510152Y-106552216D01*
X199510152Y-106659966D01*
X199483215Y-106740778D01*
X199402402Y-106875465D01*
X199321590Y-106956277D01*
X199186903Y-107037089D01*
X199106091Y-107064027D01*
X198998341Y-107064027D01*
X198890592Y-107010152D01*
X198836717Y-106956277D01*
X198782842Y-106848528D01*
X198782842Y-106794653D01*
X199240778Y-106121218D02*
X198809780Y-105690219D01*
X198136345Y-106255905D02*
X198513468Y-105501658D01*
X197759221Y-105878781D01*
X197813096Y-104801285D02*
X197732284Y-105259221D01*
X198136345Y-105124534D02*
X197570659Y-105690219D01*
X197355160Y-105474720D01*
X197328223Y-105393908D01*
X197328223Y-105340033D01*
X197355160Y-105259221D01*
X197435972Y-105178409D01*
X197516784Y-105151471D01*
X197570659Y-105151471D01*
X197651471Y-105178409D01*
X197866971Y-105393908D01*
X197274348Y-104855160D02*
X197085786Y-104666598D01*
X197301285Y-104289475D02*
X197570659Y-104558849D01*
X197004974Y-105124534D01*
X196735600Y-104855160D01*
X196573975Y-104154788D02*
X196762537Y-104343349D01*
X197058849Y-104047038D02*
X196493163Y-104612723D01*
X196223789Y-104343349D01*
X205198155Y-79913841D02*
X205225093Y-79994653D01*
X205305905Y-80075465D01*
X205413654Y-80129340D01*
X205521404Y-80129340D01*
X205602216Y-80102402D01*
X205736903Y-80021590D01*
X205817715Y-79940778D01*
X205898528Y-79806091D01*
X205925465Y-79725279D01*
X205925465Y-79617529D01*
X205871590Y-79509780D01*
X205817715Y-79455905D01*
X205709966Y-79402030D01*
X205656091Y-79402030D01*
X205467529Y-79590592D01*
X205575279Y-79698341D01*
X205467529Y-79105719D02*
X204901844Y-79671404D01*
X205144280Y-78782470D01*
X204578595Y-79348155D01*
X204874906Y-78513096D02*
X204309221Y-79078781D01*
X204174534Y-78944094D01*
X204120659Y-78836345D01*
X204120659Y-78728595D01*
X204147597Y-78647783D01*
X204228409Y-78513096D01*
X204309221Y-78432284D01*
X204443908Y-78351471D01*
X204524720Y-78324534D01*
X204632470Y-78324534D01*
X204740219Y-78378409D01*
X204874906Y-78513096D01*
X187421218Y-79986903D02*
X187448155Y-80067715D01*
X187528967Y-80148528D01*
X187636717Y-80202402D01*
X187744467Y-80202402D01*
X187825279Y-80175465D01*
X187959966Y-80094653D01*
X188040778Y-80013841D01*
X188121590Y-79879154D01*
X188148528Y-79798341D01*
X188148528Y-79690592D01*
X188094653Y-79582842D01*
X188040778Y-79528967D01*
X187933028Y-79475093D01*
X187879154Y-79475093D01*
X187690592Y-79663654D01*
X187798341Y-79771404D01*
X187690592Y-79178781D02*
X187124906Y-79744467D01*
X186909407Y-79528967D01*
X186882470Y-79448155D01*
X186882470Y-79394280D01*
X186909407Y-79313468D01*
X186990219Y-79232656D01*
X187071032Y-79205719D01*
X187124906Y-79205719D01*
X187205719Y-79232656D01*
X187421218Y-79448155D01*
X186613096Y-79232656D02*
X186235972Y-78855532D01*
X187044094Y-78532284D01*
X167098155Y-105513841D02*
X167125093Y-105594653D01*
X167205905Y-105675465D01*
X167313654Y-105729340D01*
X167421404Y-105729340D01*
X167502216Y-105702402D01*
X167636903Y-105621590D01*
X167717715Y-105540778D01*
X167798528Y-105406091D01*
X167825465Y-105325279D01*
X167825465Y-105217529D01*
X167771590Y-105109780D01*
X167717715Y-105055905D01*
X167609966Y-105002030D01*
X167556091Y-105002030D01*
X167367529Y-105190592D01*
X167475279Y-105298341D01*
X167367529Y-104705719D02*
X166801844Y-105271404D01*
X167044280Y-104382470D01*
X166478595Y-104948155D01*
X166774906Y-104113096D02*
X166209221Y-104678781D01*
X166074534Y-104544094D01*
X166020659Y-104436345D01*
X166020659Y-104328595D01*
X166047597Y-104247783D01*
X166128409Y-104113096D01*
X166209221Y-104032284D01*
X166343908Y-103951471D01*
X166424720Y-103924534D01*
X166532470Y-103924534D01*
X166640219Y-103978409D01*
X166774906Y-104113096D01*
X172420592Y-79756277D02*
X172447529Y-79837089D01*
X172528341Y-79917902D01*
X172636091Y-79971776D01*
X172743841Y-79971776D01*
X172824653Y-79944839D01*
X172959340Y-79864027D01*
X173040152Y-79783215D01*
X173120964Y-79648528D01*
X173147902Y-79567715D01*
X173147902Y-79459966D01*
X173094027Y-79352216D01*
X173040152Y-79298341D01*
X172932402Y-79244467D01*
X172878528Y-79244467D01*
X172689966Y-79433028D01*
X172797715Y-79540778D01*
X172689966Y-78948155D02*
X172124280Y-79513841D01*
X171908781Y-79298341D01*
X171881844Y-79217529D01*
X171881844Y-79163654D01*
X171908781Y-79082842D01*
X171989593Y-79002030D01*
X172070406Y-78975093D01*
X172124280Y-78975093D01*
X172205093Y-79002030D01*
X172420592Y-79217529D01*
X171827969Y-78086158D02*
X172151218Y-78409407D01*
X171989593Y-78247783D02*
X171423908Y-78813468D01*
X171558595Y-78786531D01*
X171666345Y-78786531D01*
X171747157Y-78813468D01*
X171100659Y-78382470D02*
X171046784Y-78382470D01*
X170965972Y-78355532D01*
X170831285Y-78220845D01*
X170804348Y-78140033D01*
X170804348Y-78086158D01*
X170831285Y-78005346D01*
X170885160Y-77951471D01*
X170992910Y-77897597D01*
X171639407Y-77897597D01*
X171289221Y-77547410D01*
X185401218Y-79886903D02*
X185428155Y-79967715D01*
X185508967Y-80048528D01*
X185616717Y-80102402D01*
X185724467Y-80102402D01*
X185805279Y-80075465D01*
X185939966Y-79994653D01*
X186020778Y-79913841D01*
X186101590Y-79779154D01*
X186128528Y-79698341D01*
X186128528Y-79590592D01*
X186074653Y-79482842D01*
X186020778Y-79428967D01*
X185913028Y-79375093D01*
X185859154Y-79375093D01*
X185670592Y-79563654D01*
X185778341Y-79671404D01*
X185670592Y-79078781D02*
X185104906Y-79644467D01*
X184889407Y-79428967D01*
X184862470Y-79348155D01*
X184862470Y-79294280D01*
X184889407Y-79213468D01*
X184970219Y-79132656D01*
X185051032Y-79105719D01*
X185104906Y-79105719D01*
X185185719Y-79132656D01*
X185401218Y-79348155D01*
X184700845Y-78755532D02*
X184727783Y-78836345D01*
X184727783Y-78890219D01*
X184700845Y-78971032D01*
X184673908Y-78997969D01*
X184593096Y-79024906D01*
X184539221Y-79024906D01*
X184458409Y-78997969D01*
X184350659Y-78890219D01*
X184323722Y-78809407D01*
X184323722Y-78755532D01*
X184350659Y-78674720D01*
X184377597Y-78647783D01*
X184458409Y-78620845D01*
X184512284Y-78620845D01*
X184593096Y-78647783D01*
X184700845Y-78755532D01*
X184781658Y-78782470D01*
X184835532Y-78782470D01*
X184916345Y-78755532D01*
X185024094Y-78647783D01*
X185051032Y-78566971D01*
X185051032Y-78513096D01*
X185024094Y-78432284D01*
X184916345Y-78324534D01*
X184835532Y-78297597D01*
X184781658Y-78297597D01*
X184700845Y-78324534D01*
X184593096Y-78432284D01*
X184566158Y-78513096D01*
X184566158Y-78566971D01*
X184593096Y-78647783D01*
%TO.C,R22*%
X111202380Y-96142857D02*
X110726190Y-96476190D01*
X111202380Y-96714285D02*
X110202380Y-96714285D01*
X110202380Y-96333333D01*
X110250000Y-96238095D01*
X110297619Y-96190476D01*
X110392857Y-96142857D01*
X110535714Y-96142857D01*
X110630952Y-96190476D01*
X110678571Y-96238095D01*
X110726190Y-96333333D01*
X110726190Y-96714285D01*
X110297619Y-95761904D02*
X110250000Y-95714285D01*
X110202380Y-95619047D01*
X110202380Y-95380952D01*
X110250000Y-95285714D01*
X110297619Y-95238095D01*
X110392857Y-95190476D01*
X110488095Y-95190476D01*
X110630952Y-95238095D01*
X111202380Y-95809523D01*
X111202380Y-95190476D01*
X110297619Y-94809523D02*
X110250000Y-94761904D01*
X110202380Y-94666666D01*
X110202380Y-94428571D01*
X110250000Y-94333333D01*
X110297619Y-94285714D01*
X110392857Y-94238095D01*
X110488095Y-94238095D01*
X110630952Y-94285714D01*
X111202380Y-94857142D01*
X111202380Y-94238095D01*
%TO.C,R38*%
X142957142Y-109502380D02*
X142623809Y-109026190D01*
X142385714Y-109502380D02*
X142385714Y-108502380D01*
X142766666Y-108502380D01*
X142861904Y-108550000D01*
X142909523Y-108597619D01*
X142957142Y-108692857D01*
X142957142Y-108835714D01*
X142909523Y-108930952D01*
X142861904Y-108978571D01*
X142766666Y-109026190D01*
X142385714Y-109026190D01*
X143290476Y-108502380D02*
X143909523Y-108502380D01*
X143576190Y-108883333D01*
X143719047Y-108883333D01*
X143814285Y-108930952D01*
X143861904Y-108978571D01*
X143909523Y-109073809D01*
X143909523Y-109311904D01*
X143861904Y-109407142D01*
X143814285Y-109454761D01*
X143719047Y-109502380D01*
X143433333Y-109502380D01*
X143338095Y-109454761D01*
X143290476Y-109407142D01*
X144480952Y-108930952D02*
X144385714Y-108883333D01*
X144338095Y-108835714D01*
X144290476Y-108740476D01*
X144290476Y-108692857D01*
X144338095Y-108597619D01*
X144385714Y-108550000D01*
X144480952Y-108502380D01*
X144671428Y-108502380D01*
X144766666Y-108550000D01*
X144814285Y-108597619D01*
X144861904Y-108692857D01*
X144861904Y-108740476D01*
X144814285Y-108835714D01*
X144766666Y-108883333D01*
X144671428Y-108930952D01*
X144480952Y-108930952D01*
X144385714Y-108978571D01*
X144338095Y-109026190D01*
X144290476Y-109121428D01*
X144290476Y-109311904D01*
X144338095Y-109407142D01*
X144385714Y-109454761D01*
X144480952Y-109502380D01*
X144671428Y-109502380D01*
X144766666Y-109454761D01*
X144814285Y-109407142D01*
X144861904Y-109311904D01*
X144861904Y-109121428D01*
X144814285Y-109026190D01*
X144766666Y-108978571D01*
X144671428Y-108930952D01*
%TO.C,C71*%
X192157142Y-111357142D02*
X192109523Y-111404761D01*
X191966666Y-111452380D01*
X191871428Y-111452380D01*
X191728571Y-111404761D01*
X191633333Y-111309523D01*
X191585714Y-111214285D01*
X191538095Y-111023809D01*
X191538095Y-110880952D01*
X191585714Y-110690476D01*
X191633333Y-110595238D01*
X191728571Y-110500000D01*
X191871428Y-110452380D01*
X191966666Y-110452380D01*
X192109523Y-110500000D01*
X192157142Y-110547619D01*
X192490476Y-110452380D02*
X193157142Y-110452380D01*
X192728571Y-111452380D01*
X194061904Y-111452380D02*
X193490476Y-111452380D01*
X193776190Y-111452380D02*
X193776190Y-110452380D01*
X193680952Y-110595238D01*
X193585714Y-110690476D01*
X193490476Y-110738095D01*
%TO.C,C58*%
X133757142Y-83757142D02*
X133709523Y-83804761D01*
X133566666Y-83852380D01*
X133471428Y-83852380D01*
X133328571Y-83804761D01*
X133233333Y-83709523D01*
X133185714Y-83614285D01*
X133138095Y-83423809D01*
X133138095Y-83280952D01*
X133185714Y-83090476D01*
X133233333Y-82995238D01*
X133328571Y-82900000D01*
X133471428Y-82852380D01*
X133566666Y-82852380D01*
X133709523Y-82900000D01*
X133757142Y-82947619D01*
X134661904Y-82852380D02*
X134185714Y-82852380D01*
X134138095Y-83328571D01*
X134185714Y-83280952D01*
X134280952Y-83233333D01*
X134519047Y-83233333D01*
X134614285Y-83280952D01*
X134661904Y-83328571D01*
X134709523Y-83423809D01*
X134709523Y-83661904D01*
X134661904Y-83757142D01*
X134614285Y-83804761D01*
X134519047Y-83852380D01*
X134280952Y-83852380D01*
X134185714Y-83804761D01*
X134138095Y-83757142D01*
X135280952Y-83280952D02*
X135185714Y-83233333D01*
X135138095Y-83185714D01*
X135090476Y-83090476D01*
X135090476Y-83042857D01*
X135138095Y-82947619D01*
X135185714Y-82900000D01*
X135280952Y-82852380D01*
X135471428Y-82852380D01*
X135566666Y-82900000D01*
X135614285Y-82947619D01*
X135661904Y-83042857D01*
X135661904Y-83090476D01*
X135614285Y-83185714D01*
X135566666Y-83233333D01*
X135471428Y-83280952D01*
X135280952Y-83280952D01*
X135185714Y-83328571D01*
X135138095Y-83376190D01*
X135090476Y-83471428D01*
X135090476Y-83661904D01*
X135138095Y-83757142D01*
X135185714Y-83804761D01*
X135280952Y-83852380D01*
X135471428Y-83852380D01*
X135566666Y-83804761D01*
X135614285Y-83757142D01*
X135661904Y-83661904D01*
X135661904Y-83471428D01*
X135614285Y-83376190D01*
X135566666Y-83328571D01*
X135471428Y-83280952D01*
%TO.C,Q2*%
X148804761Y-85247619D02*
X148709523Y-85200000D01*
X148614285Y-85104761D01*
X148471428Y-84961904D01*
X148376190Y-84914285D01*
X148280952Y-84914285D01*
X148328571Y-85152380D02*
X148233333Y-85104761D01*
X148138095Y-85009523D01*
X148090476Y-84819047D01*
X148090476Y-84485714D01*
X148138095Y-84295238D01*
X148233333Y-84200000D01*
X148328571Y-84152380D01*
X148519047Y-84152380D01*
X148614285Y-84200000D01*
X148709523Y-84295238D01*
X148757142Y-84485714D01*
X148757142Y-84819047D01*
X148709523Y-85009523D01*
X148614285Y-85104761D01*
X148519047Y-85152380D01*
X148328571Y-85152380D01*
X149138095Y-84247619D02*
X149185714Y-84200000D01*
X149280952Y-84152380D01*
X149519047Y-84152380D01*
X149614285Y-84200000D01*
X149661904Y-84247619D01*
X149709523Y-84342857D01*
X149709523Y-84438095D01*
X149661904Y-84580952D01*
X149090476Y-85152380D01*
X149709523Y-85152380D01*
%TO.C,R5*%
X117733333Y-116084880D02*
X117400000Y-115608690D01*
X117161904Y-116084880D02*
X117161904Y-115084880D01*
X117542857Y-115084880D01*
X117638095Y-115132500D01*
X117685714Y-115180119D01*
X117733333Y-115275357D01*
X117733333Y-115418214D01*
X117685714Y-115513452D01*
X117638095Y-115561071D01*
X117542857Y-115608690D01*
X117161904Y-115608690D01*
X118638095Y-115084880D02*
X118161904Y-115084880D01*
X118114285Y-115561071D01*
X118161904Y-115513452D01*
X118257142Y-115465833D01*
X118495238Y-115465833D01*
X118590476Y-115513452D01*
X118638095Y-115561071D01*
X118685714Y-115656309D01*
X118685714Y-115894404D01*
X118638095Y-115989642D01*
X118590476Y-116037261D01*
X118495238Y-116084880D01*
X118257142Y-116084880D01*
X118161904Y-116037261D01*
X118114285Y-115989642D01*
%TO.C,R39*%
X128557142Y-115302380D02*
X128223809Y-114826190D01*
X127985714Y-115302380D02*
X127985714Y-114302380D01*
X128366666Y-114302380D01*
X128461904Y-114350000D01*
X128509523Y-114397619D01*
X128557142Y-114492857D01*
X128557142Y-114635714D01*
X128509523Y-114730952D01*
X128461904Y-114778571D01*
X128366666Y-114826190D01*
X127985714Y-114826190D01*
X128890476Y-114302380D02*
X129509523Y-114302380D01*
X129176190Y-114683333D01*
X129319047Y-114683333D01*
X129414285Y-114730952D01*
X129461904Y-114778571D01*
X129509523Y-114873809D01*
X129509523Y-115111904D01*
X129461904Y-115207142D01*
X129414285Y-115254761D01*
X129319047Y-115302380D01*
X129033333Y-115302380D01*
X128938095Y-115254761D01*
X128890476Y-115207142D01*
X129985714Y-115302380D02*
X130176190Y-115302380D01*
X130271428Y-115254761D01*
X130319047Y-115207142D01*
X130414285Y-115064285D01*
X130461904Y-114873809D01*
X130461904Y-114492857D01*
X130414285Y-114397619D01*
X130366666Y-114350000D01*
X130271428Y-114302380D01*
X130080952Y-114302380D01*
X129985714Y-114350000D01*
X129938095Y-114397619D01*
X129890476Y-114492857D01*
X129890476Y-114730952D01*
X129938095Y-114826190D01*
X129985714Y-114873809D01*
X130080952Y-114921428D01*
X130271428Y-114921428D01*
X130366666Y-114873809D01*
X130414285Y-114826190D01*
X130461904Y-114730952D01*
%TO.C,Q4*%
X119304761Y-110947619D02*
X119209523Y-110900000D01*
X119114285Y-110804761D01*
X118971428Y-110661904D01*
X118876190Y-110614285D01*
X118780952Y-110614285D01*
X118828571Y-110852380D02*
X118733333Y-110804761D01*
X118638095Y-110709523D01*
X118590476Y-110519047D01*
X118590476Y-110185714D01*
X118638095Y-109995238D01*
X118733333Y-109900000D01*
X118828571Y-109852380D01*
X119019047Y-109852380D01*
X119114285Y-109900000D01*
X119209523Y-109995238D01*
X119257142Y-110185714D01*
X119257142Y-110519047D01*
X119209523Y-110709523D01*
X119114285Y-110804761D01*
X119019047Y-110852380D01*
X118828571Y-110852380D01*
X120114285Y-110185714D02*
X120114285Y-110852380D01*
X119876190Y-109804761D02*
X119638095Y-110519047D01*
X120257142Y-110519047D01*
%TO.C,TR2*%
X184798095Y-106952380D02*
X185369523Y-106952380D01*
X185083809Y-107952380D02*
X185083809Y-106952380D01*
X186274285Y-107952380D02*
X185940952Y-107476190D01*
X185702857Y-107952380D02*
X185702857Y-106952380D01*
X186083809Y-106952380D01*
X186179047Y-107000000D01*
X186226666Y-107047619D01*
X186274285Y-107142857D01*
X186274285Y-107285714D01*
X186226666Y-107380952D01*
X186179047Y-107428571D01*
X186083809Y-107476190D01*
X185702857Y-107476190D01*
X186655238Y-107047619D02*
X186702857Y-107000000D01*
X186798095Y-106952380D01*
X187036190Y-106952380D01*
X187131428Y-107000000D01*
X187179047Y-107047619D01*
X187226666Y-107142857D01*
X187226666Y-107238095D01*
X187179047Y-107380952D01*
X186607619Y-107952380D01*
X187226666Y-107952380D01*
%TO.C,C1*%
X120433333Y-116019642D02*
X120385714Y-116067261D01*
X120242857Y-116114880D01*
X120147619Y-116114880D01*
X120004761Y-116067261D01*
X119909523Y-115972023D01*
X119861904Y-115876785D01*
X119814285Y-115686309D01*
X119814285Y-115543452D01*
X119861904Y-115352976D01*
X119909523Y-115257738D01*
X120004761Y-115162500D01*
X120147619Y-115114880D01*
X120242857Y-115114880D01*
X120385714Y-115162500D01*
X120433333Y-115210119D01*
X121385714Y-116114880D02*
X120814285Y-116114880D01*
X121100000Y-116114880D02*
X121100000Y-115114880D01*
X121004761Y-115257738D01*
X120909523Y-115352976D01*
X120814285Y-115400595D01*
%TO.C,C59*%
X133357142Y-101357142D02*
X133309523Y-101404761D01*
X133166666Y-101452380D01*
X133071428Y-101452380D01*
X132928571Y-101404761D01*
X132833333Y-101309523D01*
X132785714Y-101214285D01*
X132738095Y-101023809D01*
X132738095Y-100880952D01*
X132785714Y-100690476D01*
X132833333Y-100595238D01*
X132928571Y-100500000D01*
X133071428Y-100452380D01*
X133166666Y-100452380D01*
X133309523Y-100500000D01*
X133357142Y-100547619D01*
X134261904Y-100452380D02*
X133785714Y-100452380D01*
X133738095Y-100928571D01*
X133785714Y-100880952D01*
X133880952Y-100833333D01*
X134119047Y-100833333D01*
X134214285Y-100880952D01*
X134261904Y-100928571D01*
X134309523Y-101023809D01*
X134309523Y-101261904D01*
X134261904Y-101357142D01*
X134214285Y-101404761D01*
X134119047Y-101452380D01*
X133880952Y-101452380D01*
X133785714Y-101404761D01*
X133738095Y-101357142D01*
X134785714Y-101452380D02*
X134976190Y-101452380D01*
X135071428Y-101404761D01*
X135119047Y-101357142D01*
X135214285Y-101214285D01*
X135261904Y-101023809D01*
X135261904Y-100642857D01*
X135214285Y-100547619D01*
X135166666Y-100500000D01*
X135071428Y-100452380D01*
X134880952Y-100452380D01*
X134785714Y-100500000D01*
X134738095Y-100547619D01*
X134690476Y-100642857D01*
X134690476Y-100880952D01*
X134738095Y-100976190D01*
X134785714Y-101023809D01*
X134880952Y-101071428D01*
X135071428Y-101071428D01*
X135166666Y-101023809D01*
X135214285Y-100976190D01*
X135261904Y-100880952D01*
%TO.C,R10*%
X151157142Y-85152380D02*
X150823809Y-84676190D01*
X150585714Y-85152380D02*
X150585714Y-84152380D01*
X150966666Y-84152380D01*
X151061904Y-84200000D01*
X151109523Y-84247619D01*
X151157142Y-84342857D01*
X151157142Y-84485714D01*
X151109523Y-84580952D01*
X151061904Y-84628571D01*
X150966666Y-84676190D01*
X150585714Y-84676190D01*
X152109523Y-85152380D02*
X151538095Y-85152380D01*
X151823809Y-85152380D02*
X151823809Y-84152380D01*
X151728571Y-84295238D01*
X151633333Y-84390476D01*
X151538095Y-84438095D01*
X152728571Y-84152380D02*
X152823809Y-84152380D01*
X152919047Y-84200000D01*
X152966666Y-84247619D01*
X153014285Y-84342857D01*
X153061904Y-84533333D01*
X153061904Y-84771428D01*
X153014285Y-84961904D01*
X152966666Y-85057142D01*
X152919047Y-85104761D01*
X152823809Y-85152380D01*
X152728571Y-85152380D01*
X152633333Y-85104761D01*
X152585714Y-85057142D01*
X152538095Y-84961904D01*
X152490476Y-84771428D01*
X152490476Y-84533333D01*
X152538095Y-84342857D01*
X152585714Y-84247619D01*
X152633333Y-84200000D01*
X152728571Y-84152380D01*
%TO.C,CR3*%
X115433333Y-87857142D02*
X115385714Y-87904761D01*
X115242857Y-87952380D01*
X115147619Y-87952380D01*
X115004761Y-87904761D01*
X114909523Y-87809523D01*
X114861904Y-87714285D01*
X114814285Y-87523809D01*
X114814285Y-87380952D01*
X114861904Y-87190476D01*
X114909523Y-87095238D01*
X115004761Y-87000000D01*
X115147619Y-86952380D01*
X115242857Y-86952380D01*
X115385714Y-87000000D01*
X115433333Y-87047619D01*
X116433333Y-87952380D02*
X116100000Y-87476190D01*
X115861904Y-87952380D02*
X115861904Y-86952380D01*
X116242857Y-86952380D01*
X116338095Y-87000000D01*
X116385714Y-87047619D01*
X116433333Y-87142857D01*
X116433333Y-87285714D01*
X116385714Y-87380952D01*
X116338095Y-87428571D01*
X116242857Y-87476190D01*
X115861904Y-87476190D01*
X116766666Y-86952380D02*
X117385714Y-86952380D01*
X117052380Y-87333333D01*
X117195238Y-87333333D01*
X117290476Y-87380952D01*
X117338095Y-87428571D01*
X117385714Y-87523809D01*
X117385714Y-87761904D01*
X117338095Y-87857142D01*
X117290476Y-87904761D01*
X117195238Y-87952380D01*
X116909523Y-87952380D01*
X116814285Y-87904761D01*
X116766666Y-87857142D01*
%TO.C,CR5*%
X143133333Y-115407142D02*
X143085714Y-115454761D01*
X142942857Y-115502380D01*
X142847619Y-115502380D01*
X142704761Y-115454761D01*
X142609523Y-115359523D01*
X142561904Y-115264285D01*
X142514285Y-115073809D01*
X142514285Y-114930952D01*
X142561904Y-114740476D01*
X142609523Y-114645238D01*
X142704761Y-114550000D01*
X142847619Y-114502380D01*
X142942857Y-114502380D01*
X143085714Y-114550000D01*
X143133333Y-114597619D01*
X144133333Y-115502380D02*
X143800000Y-115026190D01*
X143561904Y-115502380D02*
X143561904Y-114502380D01*
X143942857Y-114502380D01*
X144038095Y-114550000D01*
X144085714Y-114597619D01*
X144133333Y-114692857D01*
X144133333Y-114835714D01*
X144085714Y-114930952D01*
X144038095Y-114978571D01*
X143942857Y-115026190D01*
X143561904Y-115026190D01*
X145038095Y-114502380D02*
X144561904Y-114502380D01*
X144514285Y-114978571D01*
X144561904Y-114930952D01*
X144657142Y-114883333D01*
X144895238Y-114883333D01*
X144990476Y-114930952D01*
X145038095Y-114978571D01*
X145085714Y-115073809D01*
X145085714Y-115311904D01*
X145038095Y-115407142D01*
X144990476Y-115454761D01*
X144895238Y-115502380D01*
X144657142Y-115502380D01*
X144561904Y-115454761D01*
X144514285Y-115407142D01*
%TO.C,C61*%
X134957142Y-97637142D02*
X134909523Y-97684761D01*
X134766666Y-97732380D01*
X134671428Y-97732380D01*
X134528571Y-97684761D01*
X134433333Y-97589523D01*
X134385714Y-97494285D01*
X134338095Y-97303809D01*
X134338095Y-97160952D01*
X134385714Y-96970476D01*
X134433333Y-96875238D01*
X134528571Y-96780000D01*
X134671428Y-96732380D01*
X134766666Y-96732380D01*
X134909523Y-96780000D01*
X134957142Y-96827619D01*
X135814285Y-96732380D02*
X135623809Y-96732380D01*
X135528571Y-96780000D01*
X135480952Y-96827619D01*
X135385714Y-96970476D01*
X135338095Y-97160952D01*
X135338095Y-97541904D01*
X135385714Y-97637142D01*
X135433333Y-97684761D01*
X135528571Y-97732380D01*
X135719047Y-97732380D01*
X135814285Y-97684761D01*
X135861904Y-97637142D01*
X135909523Y-97541904D01*
X135909523Y-97303809D01*
X135861904Y-97208571D01*
X135814285Y-97160952D01*
X135719047Y-97113333D01*
X135528571Y-97113333D01*
X135433333Y-97160952D01*
X135385714Y-97208571D01*
X135338095Y-97303809D01*
X136861904Y-97732380D02*
X136290476Y-97732380D01*
X136576190Y-97732380D02*
X136576190Y-96732380D01*
X136480952Y-96875238D01*
X136385714Y-96970476D01*
X136290476Y-97018095D01*
%TO.C,R56*%
X191957142Y-115902380D02*
X191623809Y-115426190D01*
X191385714Y-115902380D02*
X191385714Y-114902380D01*
X191766666Y-114902380D01*
X191861904Y-114950000D01*
X191909523Y-114997619D01*
X191957142Y-115092857D01*
X191957142Y-115235714D01*
X191909523Y-115330952D01*
X191861904Y-115378571D01*
X191766666Y-115426190D01*
X191385714Y-115426190D01*
X192861904Y-114902380D02*
X192385714Y-114902380D01*
X192338095Y-115378571D01*
X192385714Y-115330952D01*
X192480952Y-115283333D01*
X192719047Y-115283333D01*
X192814285Y-115330952D01*
X192861904Y-115378571D01*
X192909523Y-115473809D01*
X192909523Y-115711904D01*
X192861904Y-115807142D01*
X192814285Y-115854761D01*
X192719047Y-115902380D01*
X192480952Y-115902380D01*
X192385714Y-115854761D01*
X192338095Y-115807142D01*
X193766666Y-114902380D02*
X193576190Y-114902380D01*
X193480952Y-114950000D01*
X193433333Y-114997619D01*
X193338095Y-115140476D01*
X193290476Y-115330952D01*
X193290476Y-115711904D01*
X193338095Y-115807142D01*
X193385714Y-115854761D01*
X193480952Y-115902380D01*
X193671428Y-115902380D01*
X193766666Y-115854761D01*
X193814285Y-115807142D01*
X193861904Y-115711904D01*
X193861904Y-115473809D01*
X193814285Y-115378571D01*
X193766666Y-115330952D01*
X193671428Y-115283333D01*
X193480952Y-115283333D01*
X193385714Y-115330952D01*
X193338095Y-115378571D01*
X193290476Y-115473809D01*
%TO.C,Q5*%
X113404761Y-110847619D02*
X113309523Y-110800000D01*
X113214285Y-110704761D01*
X113071428Y-110561904D01*
X112976190Y-110514285D01*
X112880952Y-110514285D01*
X112928571Y-110752380D02*
X112833333Y-110704761D01*
X112738095Y-110609523D01*
X112690476Y-110419047D01*
X112690476Y-110085714D01*
X112738095Y-109895238D01*
X112833333Y-109800000D01*
X112928571Y-109752380D01*
X113119047Y-109752380D01*
X113214285Y-109800000D01*
X113309523Y-109895238D01*
X113357142Y-110085714D01*
X113357142Y-110419047D01*
X113309523Y-110609523D01*
X113214285Y-110704761D01*
X113119047Y-110752380D01*
X112928571Y-110752380D01*
X114261904Y-109752380D02*
X113785714Y-109752380D01*
X113738095Y-110228571D01*
X113785714Y-110180952D01*
X113880952Y-110133333D01*
X114119047Y-110133333D01*
X114214285Y-110180952D01*
X114261904Y-110228571D01*
X114309523Y-110323809D01*
X114309523Y-110561904D01*
X114261904Y-110657142D01*
X114214285Y-110704761D01*
X114119047Y-110752380D01*
X113880952Y-110752380D01*
X113785714Y-110704761D01*
X113738095Y-110657142D01*
%TO.C,R28*%
X145157142Y-101152380D02*
X144823809Y-100676190D01*
X144585714Y-101152380D02*
X144585714Y-100152380D01*
X144966666Y-100152380D01*
X145061904Y-100200000D01*
X145109523Y-100247619D01*
X145157142Y-100342857D01*
X145157142Y-100485714D01*
X145109523Y-100580952D01*
X145061904Y-100628571D01*
X144966666Y-100676190D01*
X144585714Y-100676190D01*
X145538095Y-100247619D02*
X145585714Y-100200000D01*
X145680952Y-100152380D01*
X145919047Y-100152380D01*
X146014285Y-100200000D01*
X146061904Y-100247619D01*
X146109523Y-100342857D01*
X146109523Y-100438095D01*
X146061904Y-100580952D01*
X145490476Y-101152380D01*
X146109523Y-101152380D01*
X146680952Y-100580952D02*
X146585714Y-100533333D01*
X146538095Y-100485714D01*
X146490476Y-100390476D01*
X146490476Y-100342857D01*
X146538095Y-100247619D01*
X146585714Y-100200000D01*
X146680952Y-100152380D01*
X146871428Y-100152380D01*
X146966666Y-100200000D01*
X147014285Y-100247619D01*
X147061904Y-100342857D01*
X147061904Y-100390476D01*
X147014285Y-100485714D01*
X146966666Y-100533333D01*
X146871428Y-100580952D01*
X146680952Y-100580952D01*
X146585714Y-100628571D01*
X146538095Y-100676190D01*
X146490476Y-100771428D01*
X146490476Y-100961904D01*
X146538095Y-101057142D01*
X146585714Y-101104761D01*
X146680952Y-101152380D01*
X146871428Y-101152380D01*
X146966666Y-101104761D01*
X147014285Y-101057142D01*
X147061904Y-100961904D01*
X147061904Y-100771428D01*
X147014285Y-100676190D01*
X146966666Y-100628571D01*
X146871428Y-100580952D01*
%TO.C,C2*%
X112833333Y-115919642D02*
X112785714Y-115967261D01*
X112642857Y-116014880D01*
X112547619Y-116014880D01*
X112404761Y-115967261D01*
X112309523Y-115872023D01*
X112261904Y-115776785D01*
X112214285Y-115586309D01*
X112214285Y-115443452D01*
X112261904Y-115252976D01*
X112309523Y-115157738D01*
X112404761Y-115062500D01*
X112547619Y-115014880D01*
X112642857Y-115014880D01*
X112785714Y-115062500D01*
X112833333Y-115110119D01*
X113214285Y-115110119D02*
X113261904Y-115062500D01*
X113357142Y-115014880D01*
X113595238Y-115014880D01*
X113690476Y-115062500D01*
X113738095Y-115110119D01*
X113785714Y-115205357D01*
X113785714Y-115300595D01*
X113738095Y-115443452D01*
X113166666Y-116014880D01*
X113785714Y-116014880D01*
%TO.C,R30*%
X128957142Y-83952380D02*
X128623809Y-83476190D01*
X128385714Y-83952380D02*
X128385714Y-82952380D01*
X128766666Y-82952380D01*
X128861904Y-83000000D01*
X128909523Y-83047619D01*
X128957142Y-83142857D01*
X128957142Y-83285714D01*
X128909523Y-83380952D01*
X128861904Y-83428571D01*
X128766666Y-83476190D01*
X128385714Y-83476190D01*
X129290476Y-82952380D02*
X129909523Y-82952380D01*
X129576190Y-83333333D01*
X129719047Y-83333333D01*
X129814285Y-83380952D01*
X129861904Y-83428571D01*
X129909523Y-83523809D01*
X129909523Y-83761904D01*
X129861904Y-83857142D01*
X129814285Y-83904761D01*
X129719047Y-83952380D01*
X129433333Y-83952380D01*
X129338095Y-83904761D01*
X129290476Y-83857142D01*
X130528571Y-82952380D02*
X130623809Y-82952380D01*
X130719047Y-83000000D01*
X130766666Y-83047619D01*
X130814285Y-83142857D01*
X130861904Y-83333333D01*
X130861904Y-83571428D01*
X130814285Y-83761904D01*
X130766666Y-83857142D01*
X130719047Y-83904761D01*
X130623809Y-83952380D01*
X130528571Y-83952380D01*
X130433333Y-83904761D01*
X130385714Y-83857142D01*
X130338095Y-83761904D01*
X130290476Y-83571428D01*
X130290476Y-83333333D01*
X130338095Y-83142857D01*
X130385714Y-83047619D01*
X130433333Y-83000000D01*
X130528571Y-82952380D01*
%TO.C,TP2*%
X201738095Y-72622380D02*
X202309523Y-72622380D01*
X202023809Y-73622380D02*
X202023809Y-72622380D01*
X202642857Y-73622380D02*
X202642857Y-72622380D01*
X203023809Y-72622380D01*
X203119047Y-72670000D01*
X203166666Y-72717619D01*
X203214285Y-72812857D01*
X203214285Y-72955714D01*
X203166666Y-73050952D01*
X203119047Y-73098571D01*
X203023809Y-73146190D01*
X202642857Y-73146190D01*
X203595238Y-72717619D02*
X203642857Y-72670000D01*
X203738095Y-72622380D01*
X203976190Y-72622380D01*
X204071428Y-72670000D01*
X204119047Y-72717619D01*
X204166666Y-72812857D01*
X204166666Y-72908095D01*
X204119047Y-73050952D01*
X203547619Y-73622380D01*
X204166666Y-73622380D01*
%TO.C,R1*%
X189533333Y-74052380D02*
X189200000Y-73576190D01*
X188961904Y-74052380D02*
X188961904Y-73052380D01*
X189342857Y-73052380D01*
X189438095Y-73100000D01*
X189485714Y-73147619D01*
X189533333Y-73242857D01*
X189533333Y-73385714D01*
X189485714Y-73480952D01*
X189438095Y-73528571D01*
X189342857Y-73576190D01*
X188961904Y-73576190D01*
X190485714Y-74052380D02*
X189914285Y-74052380D01*
X190200000Y-74052380D02*
X190200000Y-73052380D01*
X190104761Y-73195238D01*
X190009523Y-73290476D01*
X189914285Y-73338095D01*
%TO.C,C52*%
X119257142Y-98757142D02*
X119209523Y-98804761D01*
X119066666Y-98852380D01*
X118971428Y-98852380D01*
X118828571Y-98804761D01*
X118733333Y-98709523D01*
X118685714Y-98614285D01*
X118638095Y-98423809D01*
X118638095Y-98280952D01*
X118685714Y-98090476D01*
X118733333Y-97995238D01*
X118828571Y-97900000D01*
X118971428Y-97852380D01*
X119066666Y-97852380D01*
X119209523Y-97900000D01*
X119257142Y-97947619D01*
X120161904Y-97852380D02*
X119685714Y-97852380D01*
X119638095Y-98328571D01*
X119685714Y-98280952D01*
X119780952Y-98233333D01*
X120019047Y-98233333D01*
X120114285Y-98280952D01*
X120161904Y-98328571D01*
X120209523Y-98423809D01*
X120209523Y-98661904D01*
X120161904Y-98757142D01*
X120114285Y-98804761D01*
X120019047Y-98852380D01*
X119780952Y-98852380D01*
X119685714Y-98804761D01*
X119638095Y-98757142D01*
X120590476Y-97947619D02*
X120638095Y-97900000D01*
X120733333Y-97852380D01*
X120971428Y-97852380D01*
X121066666Y-97900000D01*
X121114285Y-97947619D01*
X121161904Y-98042857D01*
X121161904Y-98138095D01*
X121114285Y-98280952D01*
X120542857Y-98852380D01*
X121161904Y-98852380D01*
%TO.C,R24*%
X115057142Y-105552380D02*
X114723809Y-105076190D01*
X114485714Y-105552380D02*
X114485714Y-104552380D01*
X114866666Y-104552380D01*
X114961904Y-104600000D01*
X115009523Y-104647619D01*
X115057142Y-104742857D01*
X115057142Y-104885714D01*
X115009523Y-104980952D01*
X114961904Y-105028571D01*
X114866666Y-105076190D01*
X114485714Y-105076190D01*
X115438095Y-104647619D02*
X115485714Y-104600000D01*
X115580952Y-104552380D01*
X115819047Y-104552380D01*
X115914285Y-104600000D01*
X115961904Y-104647619D01*
X116009523Y-104742857D01*
X116009523Y-104838095D01*
X115961904Y-104980952D01*
X115390476Y-105552380D01*
X116009523Y-105552380D01*
X116866666Y-104885714D02*
X116866666Y-105552380D01*
X116628571Y-104504761D02*
X116390476Y-105219047D01*
X117009523Y-105219047D01*
%TO.C,R25*%
X118322380Y-96242857D02*
X117846190Y-96576190D01*
X118322380Y-96814285D02*
X117322380Y-96814285D01*
X117322380Y-96433333D01*
X117370000Y-96338095D01*
X117417619Y-96290476D01*
X117512857Y-96242857D01*
X117655714Y-96242857D01*
X117750952Y-96290476D01*
X117798571Y-96338095D01*
X117846190Y-96433333D01*
X117846190Y-96814285D01*
X117417619Y-95861904D02*
X117370000Y-95814285D01*
X117322380Y-95719047D01*
X117322380Y-95480952D01*
X117370000Y-95385714D01*
X117417619Y-95338095D01*
X117512857Y-95290476D01*
X117608095Y-95290476D01*
X117750952Y-95338095D01*
X118322380Y-95909523D01*
X118322380Y-95290476D01*
X117322380Y-94385714D02*
X117322380Y-94861904D01*
X117798571Y-94909523D01*
X117750952Y-94861904D01*
X117703333Y-94766666D01*
X117703333Y-94528571D01*
X117750952Y-94433333D01*
X117798571Y-94385714D01*
X117893809Y-94338095D01*
X118131904Y-94338095D01*
X118227142Y-94385714D01*
X118274761Y-94433333D01*
X118322380Y-94528571D01*
X118322380Y-94766666D01*
X118274761Y-94861904D01*
X118227142Y-94909523D01*
%TO.C,R2*%
X187133333Y-74052380D02*
X186800000Y-73576190D01*
X186561904Y-74052380D02*
X186561904Y-73052380D01*
X186942857Y-73052380D01*
X187038095Y-73100000D01*
X187085714Y-73147619D01*
X187133333Y-73242857D01*
X187133333Y-73385714D01*
X187085714Y-73480952D01*
X187038095Y-73528571D01*
X186942857Y-73576190D01*
X186561904Y-73576190D01*
X187514285Y-73147619D02*
X187561904Y-73100000D01*
X187657142Y-73052380D01*
X187895238Y-73052380D01*
X187990476Y-73100000D01*
X188038095Y-73147619D01*
X188085714Y-73242857D01*
X188085714Y-73338095D01*
X188038095Y-73480952D01*
X187466666Y-74052380D01*
X188085714Y-74052380D01*
%TO.C,C62*%
X134794642Y-115207142D02*
X134747023Y-115254761D01*
X134604166Y-115302380D01*
X134508928Y-115302380D01*
X134366071Y-115254761D01*
X134270833Y-115159523D01*
X134223214Y-115064285D01*
X134175595Y-114873809D01*
X134175595Y-114730952D01*
X134223214Y-114540476D01*
X134270833Y-114445238D01*
X134366071Y-114350000D01*
X134508928Y-114302380D01*
X134604166Y-114302380D01*
X134747023Y-114350000D01*
X134794642Y-114397619D01*
X135651785Y-114302380D02*
X135461309Y-114302380D01*
X135366071Y-114350000D01*
X135318452Y-114397619D01*
X135223214Y-114540476D01*
X135175595Y-114730952D01*
X135175595Y-115111904D01*
X135223214Y-115207142D01*
X135270833Y-115254761D01*
X135366071Y-115302380D01*
X135556547Y-115302380D01*
X135651785Y-115254761D01*
X135699404Y-115207142D01*
X135747023Y-115111904D01*
X135747023Y-114873809D01*
X135699404Y-114778571D01*
X135651785Y-114730952D01*
X135556547Y-114683333D01*
X135366071Y-114683333D01*
X135270833Y-114730952D01*
X135223214Y-114778571D01*
X135175595Y-114873809D01*
X136127976Y-114397619D02*
X136175595Y-114350000D01*
X136270833Y-114302380D01*
X136508928Y-114302380D01*
X136604166Y-114350000D01*
X136651785Y-114397619D01*
X136699404Y-114492857D01*
X136699404Y-114588095D01*
X136651785Y-114730952D01*
X136080357Y-115302380D01*
X136699404Y-115302380D01*
%TO.C,CR7*%
X128733333Y-119457142D02*
X128685714Y-119504761D01*
X128542857Y-119552380D01*
X128447619Y-119552380D01*
X128304761Y-119504761D01*
X128209523Y-119409523D01*
X128161904Y-119314285D01*
X128114285Y-119123809D01*
X128114285Y-118980952D01*
X128161904Y-118790476D01*
X128209523Y-118695238D01*
X128304761Y-118600000D01*
X128447619Y-118552380D01*
X128542857Y-118552380D01*
X128685714Y-118600000D01*
X128733333Y-118647619D01*
X129733333Y-119552380D02*
X129400000Y-119076190D01*
X129161904Y-119552380D02*
X129161904Y-118552380D01*
X129542857Y-118552380D01*
X129638095Y-118600000D01*
X129685714Y-118647619D01*
X129733333Y-118742857D01*
X129733333Y-118885714D01*
X129685714Y-118980952D01*
X129638095Y-119028571D01*
X129542857Y-119076190D01*
X129161904Y-119076190D01*
X130066666Y-118552380D02*
X130733333Y-118552380D01*
X130304761Y-119552380D01*
%TO.C,U3*%
X126172380Y-107161904D02*
X126981904Y-107161904D01*
X127077142Y-107114285D01*
X127124761Y-107066666D01*
X127172380Y-106971428D01*
X127172380Y-106780952D01*
X127124761Y-106685714D01*
X127077142Y-106638095D01*
X126981904Y-106590476D01*
X126172380Y-106590476D01*
X126172380Y-106209523D02*
X126172380Y-105590476D01*
X126553333Y-105923809D01*
X126553333Y-105780952D01*
X126600952Y-105685714D01*
X126648571Y-105638095D01*
X126743809Y-105590476D01*
X126981904Y-105590476D01*
X127077142Y-105638095D01*
X127124761Y-105685714D01*
X127172380Y-105780952D01*
X127172380Y-106066666D01*
X127124761Y-106161904D01*
X127077142Y-106209523D01*
%TO.C,D1*%
X192261904Y-122452380D02*
X192261904Y-121452380D01*
X192500000Y-121452380D01*
X192642857Y-121500000D01*
X192738095Y-121595238D01*
X192785714Y-121690476D01*
X192833333Y-121880952D01*
X192833333Y-122023809D01*
X192785714Y-122214285D01*
X192738095Y-122309523D01*
X192642857Y-122404761D01*
X192500000Y-122452380D01*
X192261904Y-122452380D01*
X193785714Y-122452380D02*
X193214285Y-122452380D01*
X193500000Y-122452380D02*
X193500000Y-121452380D01*
X193404761Y-121595238D01*
X193309523Y-121690476D01*
X193214285Y-121738095D01*
%TO.C,C7*%
X153677142Y-91866666D02*
X153724761Y-91914285D01*
X153772380Y-92057142D01*
X153772380Y-92152380D01*
X153724761Y-92295238D01*
X153629523Y-92390476D01*
X153534285Y-92438095D01*
X153343809Y-92485714D01*
X153200952Y-92485714D01*
X153010476Y-92438095D01*
X152915238Y-92390476D01*
X152820000Y-92295238D01*
X152772380Y-92152380D01*
X152772380Y-92057142D01*
X152820000Y-91914285D01*
X152867619Y-91866666D01*
X152772380Y-91533333D02*
X152772380Y-90866666D01*
X153772380Y-91295238D01*
%TO.C,R52*%
X201357142Y-127852380D02*
X201023809Y-127376190D01*
X200785714Y-127852380D02*
X200785714Y-126852380D01*
X201166666Y-126852380D01*
X201261904Y-126900000D01*
X201309523Y-126947619D01*
X201357142Y-127042857D01*
X201357142Y-127185714D01*
X201309523Y-127280952D01*
X201261904Y-127328571D01*
X201166666Y-127376190D01*
X200785714Y-127376190D01*
X202261904Y-126852380D02*
X201785714Y-126852380D01*
X201738095Y-127328571D01*
X201785714Y-127280952D01*
X201880952Y-127233333D01*
X202119047Y-127233333D01*
X202214285Y-127280952D01*
X202261904Y-127328571D01*
X202309523Y-127423809D01*
X202309523Y-127661904D01*
X202261904Y-127757142D01*
X202214285Y-127804761D01*
X202119047Y-127852380D01*
X201880952Y-127852380D01*
X201785714Y-127804761D01*
X201738095Y-127757142D01*
X202690476Y-126947619D02*
X202738095Y-126900000D01*
X202833333Y-126852380D01*
X203071428Y-126852380D01*
X203166666Y-126900000D01*
X203214285Y-126947619D01*
X203261904Y-127042857D01*
X203261904Y-127138095D01*
X203214285Y-127280952D01*
X202642857Y-127852380D01*
X203261904Y-127852380D01*
%TO.C,TP8*%
X154738095Y-106722380D02*
X155309523Y-106722380D01*
X155023809Y-107722380D02*
X155023809Y-106722380D01*
X155642857Y-107722380D02*
X155642857Y-106722380D01*
X156023809Y-106722380D01*
X156119047Y-106770000D01*
X156166666Y-106817619D01*
X156214285Y-106912857D01*
X156214285Y-107055714D01*
X156166666Y-107150952D01*
X156119047Y-107198571D01*
X156023809Y-107246190D01*
X155642857Y-107246190D01*
X156785714Y-107150952D02*
X156690476Y-107103333D01*
X156642857Y-107055714D01*
X156595238Y-106960476D01*
X156595238Y-106912857D01*
X156642857Y-106817619D01*
X156690476Y-106770000D01*
X156785714Y-106722380D01*
X156976190Y-106722380D01*
X157071428Y-106770000D01*
X157119047Y-106817619D01*
X157166666Y-106912857D01*
X157166666Y-106960476D01*
X157119047Y-107055714D01*
X157071428Y-107103333D01*
X156976190Y-107150952D01*
X156785714Y-107150952D01*
X156690476Y-107198571D01*
X156642857Y-107246190D01*
X156595238Y-107341428D01*
X156595238Y-107531904D01*
X156642857Y-107627142D01*
X156690476Y-107674761D01*
X156785714Y-107722380D01*
X156976190Y-107722380D01*
X157071428Y-107674761D01*
X157119047Y-107627142D01*
X157166666Y-107531904D01*
X157166666Y-107341428D01*
X157119047Y-107246190D01*
X157071428Y-107198571D01*
X156976190Y-107150952D01*
%TO.C,C53*%
X149957142Y-96837142D02*
X149909523Y-96884761D01*
X149766666Y-96932380D01*
X149671428Y-96932380D01*
X149528571Y-96884761D01*
X149433333Y-96789523D01*
X149385714Y-96694285D01*
X149338095Y-96503809D01*
X149338095Y-96360952D01*
X149385714Y-96170476D01*
X149433333Y-96075238D01*
X149528571Y-95980000D01*
X149671428Y-95932380D01*
X149766666Y-95932380D01*
X149909523Y-95980000D01*
X149957142Y-96027619D01*
X150861904Y-95932380D02*
X150385714Y-95932380D01*
X150338095Y-96408571D01*
X150385714Y-96360952D01*
X150480952Y-96313333D01*
X150719047Y-96313333D01*
X150814285Y-96360952D01*
X150861904Y-96408571D01*
X150909523Y-96503809D01*
X150909523Y-96741904D01*
X150861904Y-96837142D01*
X150814285Y-96884761D01*
X150719047Y-96932380D01*
X150480952Y-96932380D01*
X150385714Y-96884761D01*
X150338095Y-96837142D01*
X151242857Y-95932380D02*
X151861904Y-95932380D01*
X151528571Y-96313333D01*
X151671428Y-96313333D01*
X151766666Y-96360952D01*
X151814285Y-96408571D01*
X151861904Y-96503809D01*
X151861904Y-96741904D01*
X151814285Y-96837142D01*
X151766666Y-96884761D01*
X151671428Y-96932380D01*
X151385714Y-96932380D01*
X151290476Y-96884761D01*
X151242857Y-96837142D01*
%TO.C,CR13*%
X133857142Y-119357142D02*
X133809523Y-119404761D01*
X133666666Y-119452380D01*
X133571428Y-119452380D01*
X133428571Y-119404761D01*
X133333333Y-119309523D01*
X133285714Y-119214285D01*
X133238095Y-119023809D01*
X133238095Y-118880952D01*
X133285714Y-118690476D01*
X133333333Y-118595238D01*
X133428571Y-118500000D01*
X133571428Y-118452380D01*
X133666666Y-118452380D01*
X133809523Y-118500000D01*
X133857142Y-118547619D01*
X134857142Y-119452380D02*
X134523809Y-118976190D01*
X134285714Y-119452380D02*
X134285714Y-118452380D01*
X134666666Y-118452380D01*
X134761904Y-118500000D01*
X134809523Y-118547619D01*
X134857142Y-118642857D01*
X134857142Y-118785714D01*
X134809523Y-118880952D01*
X134761904Y-118928571D01*
X134666666Y-118976190D01*
X134285714Y-118976190D01*
X135809523Y-119452380D02*
X135238095Y-119452380D01*
X135523809Y-119452380D02*
X135523809Y-118452380D01*
X135428571Y-118595238D01*
X135333333Y-118690476D01*
X135238095Y-118738095D01*
X136142857Y-118452380D02*
X136761904Y-118452380D01*
X136428571Y-118833333D01*
X136571428Y-118833333D01*
X136666666Y-118880952D01*
X136714285Y-118928571D01*
X136761904Y-119023809D01*
X136761904Y-119261904D01*
X136714285Y-119357142D01*
X136666666Y-119404761D01*
X136571428Y-119452380D01*
X136285714Y-119452380D01*
X136190476Y-119404761D01*
X136142857Y-119357142D01*
%TO.C,CR4*%
X119233333Y-87857142D02*
X119185714Y-87904761D01*
X119042857Y-87952380D01*
X118947619Y-87952380D01*
X118804761Y-87904761D01*
X118709523Y-87809523D01*
X118661904Y-87714285D01*
X118614285Y-87523809D01*
X118614285Y-87380952D01*
X118661904Y-87190476D01*
X118709523Y-87095238D01*
X118804761Y-87000000D01*
X118947619Y-86952380D01*
X119042857Y-86952380D01*
X119185714Y-87000000D01*
X119233333Y-87047619D01*
X120233333Y-87952380D02*
X119900000Y-87476190D01*
X119661904Y-87952380D02*
X119661904Y-86952380D01*
X120042857Y-86952380D01*
X120138095Y-87000000D01*
X120185714Y-87047619D01*
X120233333Y-87142857D01*
X120233333Y-87285714D01*
X120185714Y-87380952D01*
X120138095Y-87428571D01*
X120042857Y-87476190D01*
X119661904Y-87476190D01*
X121090476Y-87285714D02*
X121090476Y-87952380D01*
X120852380Y-86904761D02*
X120614285Y-87619047D01*
X121233333Y-87619047D01*
%TO.C,J1*%
X109152380Y-110670833D02*
X109866666Y-110670833D01*
X110009523Y-110718452D01*
X110104761Y-110813690D01*
X110152380Y-110956547D01*
X110152380Y-111051785D01*
X110152380Y-109670833D02*
X110152380Y-110242261D01*
X110152380Y-109956547D02*
X109152380Y-109956547D01*
X109295238Y-110051785D01*
X109390476Y-110147023D01*
X109438095Y-110242261D01*
%TO.C,TP1*%
X128252380Y-96461904D02*
X128252380Y-95890476D01*
X129252380Y-96176190D02*
X128252380Y-96176190D01*
X129252380Y-95557142D02*
X128252380Y-95557142D01*
X128252380Y-95176190D01*
X128300000Y-95080952D01*
X128347619Y-95033333D01*
X128442857Y-94985714D01*
X128585714Y-94985714D01*
X128680952Y-95033333D01*
X128728571Y-95080952D01*
X128776190Y-95176190D01*
X128776190Y-95557142D01*
X129252380Y-94033333D02*
X129252380Y-94604761D01*
X129252380Y-94319047D02*
X128252380Y-94319047D01*
X128395238Y-94414285D01*
X128490476Y-94509523D01*
X128538095Y-94604761D01*
%TO.C,CR6*%
X148233333Y-115357142D02*
X148185714Y-115404761D01*
X148042857Y-115452380D01*
X147947619Y-115452380D01*
X147804761Y-115404761D01*
X147709523Y-115309523D01*
X147661904Y-115214285D01*
X147614285Y-115023809D01*
X147614285Y-114880952D01*
X147661904Y-114690476D01*
X147709523Y-114595238D01*
X147804761Y-114500000D01*
X147947619Y-114452380D01*
X148042857Y-114452380D01*
X148185714Y-114500000D01*
X148233333Y-114547619D01*
X149233333Y-115452380D02*
X148900000Y-114976190D01*
X148661904Y-115452380D02*
X148661904Y-114452380D01*
X149042857Y-114452380D01*
X149138095Y-114500000D01*
X149185714Y-114547619D01*
X149233333Y-114642857D01*
X149233333Y-114785714D01*
X149185714Y-114880952D01*
X149138095Y-114928571D01*
X149042857Y-114976190D01*
X148661904Y-114976190D01*
X150090476Y-114452380D02*
X149900000Y-114452380D01*
X149804761Y-114500000D01*
X149757142Y-114547619D01*
X149661904Y-114690476D01*
X149614285Y-114880952D01*
X149614285Y-115261904D01*
X149661904Y-115357142D01*
X149709523Y-115404761D01*
X149804761Y-115452380D01*
X149995238Y-115452380D01*
X150090476Y-115404761D01*
X150138095Y-115357142D01*
X150185714Y-115261904D01*
X150185714Y-115023809D01*
X150138095Y-114928571D01*
X150090476Y-114880952D01*
X149995238Y-114833333D01*
X149804761Y-114833333D01*
X149709523Y-114880952D01*
X149661904Y-114928571D01*
X149614285Y-115023809D01*
%TO.C,R29*%
X145357142Y-105252380D02*
X145023809Y-104776190D01*
X144785714Y-105252380D02*
X144785714Y-104252380D01*
X145166666Y-104252380D01*
X145261904Y-104300000D01*
X145309523Y-104347619D01*
X145357142Y-104442857D01*
X145357142Y-104585714D01*
X145309523Y-104680952D01*
X145261904Y-104728571D01*
X145166666Y-104776190D01*
X144785714Y-104776190D01*
X145738095Y-104347619D02*
X145785714Y-104300000D01*
X145880952Y-104252380D01*
X146119047Y-104252380D01*
X146214285Y-104300000D01*
X146261904Y-104347619D01*
X146309523Y-104442857D01*
X146309523Y-104538095D01*
X146261904Y-104680952D01*
X145690476Y-105252380D01*
X146309523Y-105252380D01*
X146785714Y-105252380D02*
X146976190Y-105252380D01*
X147071428Y-105204761D01*
X147119047Y-105157142D01*
X147214285Y-105014285D01*
X147261904Y-104823809D01*
X147261904Y-104442857D01*
X147214285Y-104347619D01*
X147166666Y-104300000D01*
X147071428Y-104252380D01*
X146880952Y-104252380D01*
X146785714Y-104300000D01*
X146738095Y-104347619D01*
X146690476Y-104442857D01*
X146690476Y-104680952D01*
X146738095Y-104776190D01*
X146785714Y-104823809D01*
X146880952Y-104871428D01*
X147071428Y-104871428D01*
X147166666Y-104823809D01*
X147214285Y-104776190D01*
X147261904Y-104680952D01*
%TO.C,U1*%
X115052380Y-83361904D02*
X115861904Y-83361904D01*
X115957142Y-83314285D01*
X116004761Y-83266666D01*
X116052380Y-83171428D01*
X116052380Y-82980952D01*
X116004761Y-82885714D01*
X115957142Y-82838095D01*
X115861904Y-82790476D01*
X115052380Y-82790476D01*
X116052380Y-81790476D02*
X116052380Y-82361904D01*
X116052380Y-82076190D02*
X115052380Y-82076190D01*
X115195238Y-82171428D01*
X115290476Y-82266666D01*
X115338095Y-82361904D01*
%TO.C,C56*%
X148157142Y-119157142D02*
X148109523Y-119204761D01*
X147966666Y-119252380D01*
X147871428Y-119252380D01*
X147728571Y-119204761D01*
X147633333Y-119109523D01*
X147585714Y-119014285D01*
X147538095Y-118823809D01*
X147538095Y-118680952D01*
X147585714Y-118490476D01*
X147633333Y-118395238D01*
X147728571Y-118300000D01*
X147871428Y-118252380D01*
X147966666Y-118252380D01*
X148109523Y-118300000D01*
X148157142Y-118347619D01*
X149061904Y-118252380D02*
X148585714Y-118252380D01*
X148538095Y-118728571D01*
X148585714Y-118680952D01*
X148680952Y-118633333D01*
X148919047Y-118633333D01*
X149014285Y-118680952D01*
X149061904Y-118728571D01*
X149109523Y-118823809D01*
X149109523Y-119061904D01*
X149061904Y-119157142D01*
X149014285Y-119204761D01*
X148919047Y-119252380D01*
X148680952Y-119252380D01*
X148585714Y-119204761D01*
X148538095Y-119157142D01*
X149966666Y-118252380D02*
X149776190Y-118252380D01*
X149680952Y-118300000D01*
X149633333Y-118347619D01*
X149538095Y-118490476D01*
X149490476Y-118680952D01*
X149490476Y-119061904D01*
X149538095Y-119157142D01*
X149585714Y-119204761D01*
X149680952Y-119252380D01*
X149871428Y-119252380D01*
X149966666Y-119204761D01*
X150014285Y-119157142D01*
X150061904Y-119061904D01*
X150061904Y-118823809D01*
X150014285Y-118728571D01*
X149966666Y-118680952D01*
X149871428Y-118633333D01*
X149680952Y-118633333D01*
X149585714Y-118680952D01*
X149538095Y-118728571D01*
X149490476Y-118823809D01*
%TO.C,C54*%
X118357142Y-105357142D02*
X118309523Y-105404761D01*
X118166666Y-105452380D01*
X118071428Y-105452380D01*
X117928571Y-105404761D01*
X117833333Y-105309523D01*
X117785714Y-105214285D01*
X117738095Y-105023809D01*
X117738095Y-104880952D01*
X117785714Y-104690476D01*
X117833333Y-104595238D01*
X117928571Y-104500000D01*
X118071428Y-104452380D01*
X118166666Y-104452380D01*
X118309523Y-104500000D01*
X118357142Y-104547619D01*
X119261904Y-104452380D02*
X118785714Y-104452380D01*
X118738095Y-104928571D01*
X118785714Y-104880952D01*
X118880952Y-104833333D01*
X119119047Y-104833333D01*
X119214285Y-104880952D01*
X119261904Y-104928571D01*
X119309523Y-105023809D01*
X119309523Y-105261904D01*
X119261904Y-105357142D01*
X119214285Y-105404761D01*
X119119047Y-105452380D01*
X118880952Y-105452380D01*
X118785714Y-105404761D01*
X118738095Y-105357142D01*
X120166666Y-104785714D02*
X120166666Y-105452380D01*
X119928571Y-104404761D02*
X119690476Y-105119047D01*
X120309523Y-105119047D01*
%TO.C,R23*%
X110652380Y-107942857D02*
X110176190Y-108276190D01*
X110652380Y-108514285D02*
X109652380Y-108514285D01*
X109652380Y-108133333D01*
X109700000Y-108038095D01*
X109747619Y-107990476D01*
X109842857Y-107942857D01*
X109985714Y-107942857D01*
X110080952Y-107990476D01*
X110128571Y-108038095D01*
X110176190Y-108133333D01*
X110176190Y-108514285D01*
X109747619Y-107561904D02*
X109700000Y-107514285D01*
X109652380Y-107419047D01*
X109652380Y-107180952D01*
X109700000Y-107085714D01*
X109747619Y-107038095D01*
X109842857Y-106990476D01*
X109938095Y-106990476D01*
X110080952Y-107038095D01*
X110652380Y-107609523D01*
X110652380Y-106990476D01*
X109652380Y-106657142D02*
X109652380Y-106038095D01*
X110033333Y-106371428D01*
X110033333Y-106228571D01*
X110080952Y-106133333D01*
X110128571Y-106085714D01*
X110223809Y-106038095D01*
X110461904Y-106038095D01*
X110557142Y-106085714D01*
X110604761Y-106133333D01*
X110652380Y-106228571D01*
X110652380Y-106514285D01*
X110604761Y-106609523D01*
X110557142Y-106657142D01*
%TO.C,C51*%
X115457142Y-98857142D02*
X115409523Y-98904761D01*
X115266666Y-98952380D01*
X115171428Y-98952380D01*
X115028571Y-98904761D01*
X114933333Y-98809523D01*
X114885714Y-98714285D01*
X114838095Y-98523809D01*
X114838095Y-98380952D01*
X114885714Y-98190476D01*
X114933333Y-98095238D01*
X115028571Y-98000000D01*
X115171428Y-97952380D01*
X115266666Y-97952380D01*
X115409523Y-98000000D01*
X115457142Y-98047619D01*
X116361904Y-97952380D02*
X115885714Y-97952380D01*
X115838095Y-98428571D01*
X115885714Y-98380952D01*
X115980952Y-98333333D01*
X116219047Y-98333333D01*
X116314285Y-98380952D01*
X116361904Y-98428571D01*
X116409523Y-98523809D01*
X116409523Y-98761904D01*
X116361904Y-98857142D01*
X116314285Y-98904761D01*
X116219047Y-98952380D01*
X115980952Y-98952380D01*
X115885714Y-98904761D01*
X115838095Y-98857142D01*
X117361904Y-98952380D02*
X116790476Y-98952380D01*
X117076190Y-98952380D02*
X117076190Y-97952380D01*
X116980952Y-98095238D01*
X116885714Y-98190476D01*
X116790476Y-98238095D01*
%TO.C,R11*%
X157457142Y-85382380D02*
X157123809Y-84906190D01*
X156885714Y-85382380D02*
X156885714Y-84382380D01*
X157266666Y-84382380D01*
X157361904Y-84430000D01*
X157409523Y-84477619D01*
X157457142Y-84572857D01*
X157457142Y-84715714D01*
X157409523Y-84810952D01*
X157361904Y-84858571D01*
X157266666Y-84906190D01*
X156885714Y-84906190D01*
X158409523Y-85382380D02*
X157838095Y-85382380D01*
X158123809Y-85382380D02*
X158123809Y-84382380D01*
X158028571Y-84525238D01*
X157933333Y-84620476D01*
X157838095Y-84668095D01*
X159361904Y-85382380D02*
X158790476Y-85382380D01*
X159076190Y-85382380D02*
X159076190Y-84382380D01*
X158980952Y-84525238D01*
X158885714Y-84620476D01*
X158790476Y-84668095D01*
%TO.C,J10*%
X205190476Y-121652380D02*
X205190476Y-122366666D01*
X205142857Y-122509523D01*
X205047619Y-122604761D01*
X204904761Y-122652380D01*
X204809523Y-122652380D01*
X206190476Y-122652380D02*
X205619047Y-122652380D01*
X205904761Y-122652380D02*
X205904761Y-121652380D01*
X205809523Y-121795238D01*
X205714285Y-121890476D01*
X205619047Y-121938095D01*
X206809523Y-121652380D02*
X206904761Y-121652380D01*
X207000000Y-121700000D01*
X207047619Y-121747619D01*
X207095238Y-121842857D01*
X207142857Y-122033333D01*
X207142857Y-122271428D01*
X207095238Y-122461904D01*
X207047619Y-122557142D01*
X207000000Y-122604761D01*
X206904761Y-122652380D01*
X206809523Y-122652380D01*
X206714285Y-122604761D01*
X206666666Y-122557142D01*
X206619047Y-122461904D01*
X206571428Y-122271428D01*
X206571428Y-122033333D01*
X206619047Y-121842857D01*
X206666666Y-121747619D01*
X206714285Y-121700000D01*
X206809523Y-121652380D01*
X195252380Y-118128571D02*
X195252380Y-117557142D01*
X196252380Y-117842857D02*
X195252380Y-117842857D01*
X196252380Y-117223809D02*
X195585714Y-117223809D01*
X195776190Y-117223809D02*
X195680952Y-117176190D01*
X195633333Y-117128571D01*
X195585714Y-117033333D01*
X195585714Y-116938095D01*
X196252380Y-116604761D02*
X195585714Y-116604761D01*
X195252380Y-116604761D02*
X195300000Y-116652380D01*
X195347619Y-116604761D01*
X195300000Y-116557142D01*
X195252380Y-116604761D01*
X195347619Y-116604761D01*
X195585714Y-115700000D02*
X196395238Y-115700000D01*
X196490476Y-115747619D01*
X196538095Y-115795238D01*
X196585714Y-115890476D01*
X196585714Y-116033333D01*
X196538095Y-116128571D01*
X196204761Y-115700000D02*
X196252380Y-115795238D01*
X196252380Y-115985714D01*
X196204761Y-116080952D01*
X196157142Y-116128571D01*
X196061904Y-116176190D01*
X195776190Y-116176190D01*
X195680952Y-116128571D01*
X195633333Y-116080952D01*
X195585714Y-115985714D01*
X195585714Y-115795238D01*
X195633333Y-115700000D01*
X195252380Y-114271428D02*
X195252380Y-114080952D01*
X195300000Y-113985714D01*
X195395238Y-113890476D01*
X195585714Y-113842857D01*
X195919047Y-113842857D01*
X196109523Y-113890476D01*
X196204761Y-113985714D01*
X196252380Y-114080952D01*
X196252380Y-114271428D01*
X196204761Y-114366666D01*
X196109523Y-114461904D01*
X195919047Y-114509523D01*
X195585714Y-114509523D01*
X195395238Y-114461904D01*
X195300000Y-114366666D01*
X195252380Y-114271428D01*
X195585714Y-112985714D02*
X196252380Y-112985714D01*
X195585714Y-113414285D02*
X196109523Y-113414285D01*
X196204761Y-113366666D01*
X196252380Y-113271428D01*
X196252380Y-113128571D01*
X196204761Y-113033333D01*
X196157142Y-112985714D01*
X195585714Y-112652380D02*
X195585714Y-112271428D01*
X195252380Y-112509523D02*
X196109523Y-112509523D01*
X196204761Y-112461904D01*
X196252380Y-112366666D01*
X196252380Y-112271428D01*
%TO.C,R41*%
X142957142Y-119252380D02*
X142623809Y-118776190D01*
X142385714Y-119252380D02*
X142385714Y-118252380D01*
X142766666Y-118252380D01*
X142861904Y-118300000D01*
X142909523Y-118347619D01*
X142957142Y-118442857D01*
X142957142Y-118585714D01*
X142909523Y-118680952D01*
X142861904Y-118728571D01*
X142766666Y-118776190D01*
X142385714Y-118776190D01*
X143814285Y-118585714D02*
X143814285Y-119252380D01*
X143576190Y-118204761D02*
X143338095Y-118919047D01*
X143957142Y-118919047D01*
X144861904Y-119252380D02*
X144290476Y-119252380D01*
X144576190Y-119252380D02*
X144576190Y-118252380D01*
X144480952Y-118395238D01*
X144385714Y-118490476D01*
X144290476Y-118538095D01*
%TO.C,F1*%
X110166666Y-114228571D02*
X109833333Y-114228571D01*
X109833333Y-114752380D02*
X109833333Y-113752380D01*
X110309523Y-113752380D01*
X111214285Y-114752380D02*
X110642857Y-114752380D01*
X110928571Y-114752380D02*
X110928571Y-113752380D01*
X110833333Y-113895238D01*
X110738095Y-113990476D01*
X110642857Y-114038095D01*
%TO.C,R6*%
X115333333Y-116052380D02*
X115000000Y-115576190D01*
X114761904Y-116052380D02*
X114761904Y-115052380D01*
X115142857Y-115052380D01*
X115238095Y-115100000D01*
X115285714Y-115147619D01*
X115333333Y-115242857D01*
X115333333Y-115385714D01*
X115285714Y-115480952D01*
X115238095Y-115528571D01*
X115142857Y-115576190D01*
X114761904Y-115576190D01*
X116190476Y-115052380D02*
X116000000Y-115052380D01*
X115904761Y-115100000D01*
X115857142Y-115147619D01*
X115761904Y-115290476D01*
X115714285Y-115480952D01*
X115714285Y-115861904D01*
X115761904Y-115957142D01*
X115809523Y-116004761D01*
X115904761Y-116052380D01*
X116095238Y-116052380D01*
X116190476Y-116004761D01*
X116238095Y-115957142D01*
X116285714Y-115861904D01*
X116285714Y-115623809D01*
X116238095Y-115528571D01*
X116190476Y-115480952D01*
X116095238Y-115433333D01*
X115904761Y-115433333D01*
X115809523Y-115480952D01*
X115761904Y-115528571D01*
X115714285Y-115623809D01*
%TO.C,TP5*%
X141552380Y-87661904D02*
X141552380Y-87090476D01*
X142552380Y-87376190D02*
X141552380Y-87376190D01*
X142552380Y-86757142D02*
X141552380Y-86757142D01*
X141552380Y-86376190D01*
X141600000Y-86280952D01*
X141647619Y-86233333D01*
X141742857Y-86185714D01*
X141885714Y-86185714D01*
X141980952Y-86233333D01*
X142028571Y-86280952D01*
X142076190Y-86376190D01*
X142076190Y-86757142D01*
X141552380Y-85280952D02*
X141552380Y-85757142D01*
X142028571Y-85804761D01*
X141980952Y-85757142D01*
X141933333Y-85661904D01*
X141933333Y-85423809D01*
X141980952Y-85328571D01*
X142028571Y-85280952D01*
X142123809Y-85233333D01*
X142361904Y-85233333D01*
X142457142Y-85280952D01*
X142504761Y-85328571D01*
X142552380Y-85423809D01*
X142552380Y-85661904D01*
X142504761Y-85757142D01*
X142457142Y-85804761D01*
%TO.C,TP4*%
X126052380Y-86261904D02*
X126052380Y-85690476D01*
X127052380Y-85976190D02*
X126052380Y-85976190D01*
X127052380Y-85357142D02*
X126052380Y-85357142D01*
X126052380Y-84976190D01*
X126100000Y-84880952D01*
X126147619Y-84833333D01*
X126242857Y-84785714D01*
X126385714Y-84785714D01*
X126480952Y-84833333D01*
X126528571Y-84880952D01*
X126576190Y-84976190D01*
X126576190Y-85357142D01*
X126385714Y-83928571D02*
X127052380Y-83928571D01*
X126004761Y-84166666D02*
X126719047Y-84404761D01*
X126719047Y-83785714D01*
%TO.C,C3*%
X149188445Y-79307142D02*
X149140826Y-79354761D01*
X148997969Y-79402380D01*
X148902731Y-79402380D01*
X148759873Y-79354761D01*
X148664635Y-79259523D01*
X148617016Y-79164285D01*
X148569397Y-78973809D01*
X148569397Y-78830952D01*
X148617016Y-78640476D01*
X148664635Y-78545238D01*
X148759873Y-78450000D01*
X148902731Y-78402380D01*
X148997969Y-78402380D01*
X149140826Y-78450000D01*
X149188445Y-78497619D01*
X149521778Y-78402380D02*
X150140826Y-78402380D01*
X149807492Y-78783333D01*
X149950350Y-78783333D01*
X150045588Y-78830952D01*
X150093207Y-78878571D01*
X150140826Y-78973809D01*
X150140826Y-79211904D01*
X150093207Y-79307142D01*
X150045588Y-79354761D01*
X149950350Y-79402380D01*
X149664635Y-79402380D01*
X149569397Y-79354761D01*
X149521778Y-79307142D01*
%TO.C,R26*%
X121822380Y-96242857D02*
X121346190Y-96576190D01*
X121822380Y-96814285D02*
X120822380Y-96814285D01*
X120822380Y-96433333D01*
X120870000Y-96338095D01*
X120917619Y-96290476D01*
X121012857Y-96242857D01*
X121155714Y-96242857D01*
X121250952Y-96290476D01*
X121298571Y-96338095D01*
X121346190Y-96433333D01*
X121346190Y-96814285D01*
X120917619Y-95861904D02*
X120870000Y-95814285D01*
X120822380Y-95719047D01*
X120822380Y-95480952D01*
X120870000Y-95385714D01*
X120917619Y-95338095D01*
X121012857Y-95290476D01*
X121108095Y-95290476D01*
X121250952Y-95338095D01*
X121822380Y-95909523D01*
X121822380Y-95290476D01*
X120822380Y-94433333D02*
X120822380Y-94623809D01*
X120870000Y-94719047D01*
X120917619Y-94766666D01*
X121060476Y-94861904D01*
X121250952Y-94909523D01*
X121631904Y-94909523D01*
X121727142Y-94861904D01*
X121774761Y-94814285D01*
X121822380Y-94719047D01*
X121822380Y-94528571D01*
X121774761Y-94433333D01*
X121727142Y-94385714D01*
X121631904Y-94338095D01*
X121393809Y-94338095D01*
X121298571Y-94385714D01*
X121250952Y-94433333D01*
X121203333Y-94528571D01*
X121203333Y-94719047D01*
X121250952Y-94814285D01*
X121298571Y-94861904D01*
X121393809Y-94909523D01*
%TO.C,R31*%
X128557142Y-101302380D02*
X128223809Y-100826190D01*
X127985714Y-101302380D02*
X127985714Y-100302380D01*
X128366666Y-100302380D01*
X128461904Y-100350000D01*
X128509523Y-100397619D01*
X128557142Y-100492857D01*
X128557142Y-100635714D01*
X128509523Y-100730952D01*
X128461904Y-100778571D01*
X128366666Y-100826190D01*
X127985714Y-100826190D01*
X128890476Y-100302380D02*
X129509523Y-100302380D01*
X129176190Y-100683333D01*
X129319047Y-100683333D01*
X129414285Y-100730952D01*
X129461904Y-100778571D01*
X129509523Y-100873809D01*
X129509523Y-101111904D01*
X129461904Y-101207142D01*
X129414285Y-101254761D01*
X129319047Y-101302380D01*
X129033333Y-101302380D01*
X128938095Y-101254761D01*
X128890476Y-101207142D01*
X130461904Y-101302380D02*
X129890476Y-101302380D01*
X130176190Y-101302380D02*
X130176190Y-100302380D01*
X130080952Y-100445238D01*
X129985714Y-100540476D01*
X129890476Y-100588095D01*
D12*
%TO.C,C60*%
X150861252Y-102065000D02*
X150338748Y-102065000D01*
X150861252Y-103535000D02*
X150338748Y-103535000D01*
%TO.C,J2*%
X125020000Y-79070000D02*
X125020000Y-77740000D01*
X127620000Y-79070000D02*
X145460000Y-79070000D01*
X145460000Y-79070000D02*
X145460000Y-73870000D01*
X126350000Y-79070000D02*
X125020000Y-79070000D01*
X125020000Y-73870000D02*
X145460000Y-73870000D01*
X127620000Y-76470000D02*
X125020000Y-76470000D01*
X127620000Y-79070000D02*
X127620000Y-76470000D01*
X125020000Y-76470000D02*
X125020000Y-73870000D01*
%TO.C,TP6*%
X137920000Y-104000000D02*
X137920000Y-102670000D01*
X137920000Y-102670000D02*
X139250000Y-102670000D01*
X137920000Y-105270000D02*
X140580000Y-105270000D01*
X137920000Y-105270000D02*
X137920000Y-105330000D01*
X140580000Y-105270000D02*
X140580000Y-105330000D01*
X137920000Y-105330000D02*
X140580000Y-105330000D01*
%TO.C,U2*%
X136435000Y-89000000D02*
X136435000Y-87050000D01*
X127565000Y-89000000D02*
X127565000Y-92450000D01*
X127565000Y-89000000D02*
X127565000Y-87050000D01*
X136435000Y-89000000D02*
X136435000Y-90950000D01*
%TO.C,R27*%
X145772936Y-94065000D02*
X146227064Y-94065000D01*
X145772936Y-95535000D02*
X146227064Y-95535000D01*
%TO.C,Q1*%
X153373332Y-87500000D02*
X153373332Y-86850000D01*
X153373332Y-87500000D02*
X153373332Y-88150000D01*
X156493332Y-87500000D02*
X156493332Y-88150000D01*
X156493332Y-87500000D02*
X156493332Y-85825000D01*
%TO.C,C55*%
X149061252Y-106665000D02*
X148538748Y-106665000D01*
X149061252Y-108135000D02*
X148538748Y-108135000D01*
%TO.C,U5*%
X160500000Y-90500000D02*
X160500000Y-90900000D01*
X183700000Y-102500000D02*
X183300000Y-102500000D01*
X198900000Y-81500000D02*
X198500000Y-81500000D01*
X208833000Y-84507000D02*
X211500000Y-84507000D01*
X193800000Y-81500000D02*
X193400000Y-81500000D01*
X178600000Y-81500000D02*
X178200000Y-81500000D01*
X165900000Y-81500000D02*
X165500000Y-81500000D01*
X165900000Y-102500000D02*
X165500000Y-102500000D01*
X188700000Y-102500000D02*
X188300000Y-102500000D01*
X198900000Y-102500000D02*
X198500000Y-102500000D01*
X163300000Y-81500000D02*
X162900000Y-81500000D01*
X176000000Y-102500000D02*
X175600000Y-102500000D01*
X208833000Y-81500000D02*
X208833000Y-84507000D01*
X209100000Y-81500000D02*
X208700000Y-81500000D01*
X183700000Y-81500000D02*
X183300000Y-81500000D01*
X196400000Y-81500000D02*
X196000000Y-81500000D01*
X196400000Y-102500000D02*
X196000000Y-102500000D01*
X173500000Y-102500000D02*
X173100000Y-102500000D01*
X206500000Y-81500000D02*
X206100000Y-81500000D01*
X181100000Y-102500000D02*
X180700000Y-102500000D01*
X176000000Y-81500000D02*
X175600000Y-81500000D01*
X178600000Y-102500000D02*
X178200000Y-102500000D01*
X206500000Y-102500000D02*
X206100000Y-102500000D01*
X191300000Y-102500000D02*
X190900000Y-102500000D01*
X163300000Y-102500000D02*
X162900000Y-102500000D01*
X170900000Y-102500000D02*
X170500000Y-102500000D01*
X211500000Y-81500000D02*
X211500000Y-102500000D01*
X168400000Y-102500000D02*
X168000000Y-102500000D01*
X193800000Y-102500000D02*
X193400000Y-102500000D01*
X201400000Y-81500000D02*
X201000000Y-81500000D01*
X211500000Y-81500000D02*
X211200000Y-81500000D01*
X191300000Y-81500000D02*
X190900000Y-81500000D01*
X211500000Y-102500000D02*
X211200000Y-102500000D01*
X181100000Y-81500000D02*
X180700000Y-81500000D01*
X160500000Y-102500000D02*
X160500000Y-95700000D01*
X186200000Y-81500000D02*
X185800000Y-81500000D01*
X160500000Y-93100000D02*
X160500000Y-93500000D01*
X186200000Y-102500000D02*
X185800000Y-102500000D01*
X168400000Y-81500000D02*
X168000000Y-81500000D01*
X204000000Y-81500000D02*
X203600000Y-81500000D01*
X170900000Y-81500000D02*
X170500000Y-81500000D01*
X173500000Y-81500000D02*
X173100000Y-81500000D01*
X209100000Y-102500000D02*
X208700000Y-102500000D01*
X201400000Y-102500000D02*
X201000000Y-102500000D01*
X160500000Y-88300000D02*
X160500000Y-81500000D01*
X204000000Y-102500000D02*
X203600000Y-102500000D01*
X188700000Y-81500000D02*
X188300000Y-81500000D01*
%TO.C,R22*%
X111665000Y-95727064D02*
X111665000Y-95272936D01*
X113135000Y-95727064D02*
X113135000Y-95272936D01*
%TO.C,R38*%
X143827064Y-106665000D02*
X143372936Y-106665000D01*
X143827064Y-108135000D02*
X143372936Y-108135000D01*
%TO.C,C71*%
X192538748Y-108065000D02*
X193061252Y-108065000D01*
X192538748Y-109535000D02*
X193061252Y-109535000D01*
%TO.C,C58*%
X134138748Y-80865000D02*
X134661252Y-80865000D01*
X134138748Y-82335000D02*
X134661252Y-82335000D01*
%TO.C,Q2*%
X150360000Y-87500000D02*
X150360000Y-88150000D01*
X147240000Y-87500000D02*
X147240000Y-88150000D01*
X150360000Y-87500000D02*
X150360000Y-85825000D01*
X147240000Y-87500000D02*
X147240000Y-86850000D01*
%TO.C,R5*%
X118735000Y-117805436D02*
X118735000Y-118259564D01*
X117265000Y-117805436D02*
X117265000Y-118259564D01*
%TO.C,R39*%
X129427064Y-112465000D02*
X128972936Y-112465000D01*
X129427064Y-113935000D02*
X128972936Y-113935000D01*
%TO.C,Q4*%
X121340000Y-113000000D02*
X121340000Y-112350000D01*
X121340000Y-113000000D02*
X121340000Y-113650000D01*
X118220000Y-113000000D02*
X118220000Y-112350000D01*
X118220000Y-113000000D02*
X118220000Y-114675000D01*
%TO.C,TR2*%
X189470000Y-108590000D02*
X189470000Y-109330000D01*
X182650000Y-108590000D02*
X182650000Y-109330000D01*
X182650000Y-115410000D02*
X182650000Y-114670000D01*
X182650000Y-115410000D02*
X189470000Y-115410000D01*
X181930000Y-109330000D02*
X182650000Y-109330000D01*
X182650000Y-108590000D02*
X189470000Y-108590000D01*
X189470000Y-115410000D02*
X189470000Y-114670000D01*
%TO.C,C1*%
X119765000Y-117801248D02*
X119765000Y-118323752D01*
X121235000Y-117801248D02*
X121235000Y-118323752D01*
%TO.C,C59*%
X133901248Y-99935000D02*
X134423752Y-99935000D01*
X133901248Y-98465000D02*
X134423752Y-98465000D01*
%TO.C,R10*%
X152601666Y-87202936D02*
X152601666Y-87657064D01*
X151131666Y-87202936D02*
X151131666Y-87657064D01*
%TO.C,CR3*%
X117050000Y-92860000D02*
X117050000Y-89200000D01*
X115150000Y-92860000D02*
X117050000Y-92860000D01*
X115150000Y-92860000D02*
X115150000Y-89200000D01*
%TO.C,CR5*%
X141785000Y-114000000D02*
X145445000Y-114000000D01*
X141785000Y-112100000D02*
X145445000Y-112100000D01*
X141785000Y-112100000D02*
X141785000Y-114000000D01*
%TO.C,C61*%
X135861252Y-94865000D02*
X135338748Y-94865000D01*
X135861252Y-96335000D02*
X135338748Y-96335000D01*
%TO.C,R56*%
X192827064Y-114535000D02*
X192372936Y-114535000D01*
X192827064Y-113065000D02*
X192372936Y-113065000D01*
%TO.C,Q5*%
X112160000Y-113000000D02*
X112160000Y-112350000D01*
X115280000Y-113000000D02*
X115280000Y-111325000D01*
X115280000Y-113000000D02*
X115280000Y-113650000D01*
X112160000Y-113000000D02*
X112160000Y-113650000D01*
%TO.C,R28*%
X145772936Y-98065000D02*
X146227064Y-98065000D01*
X145772936Y-99535000D02*
X146227064Y-99535000D01*
%TO.C,C2*%
X113735000Y-117801248D02*
X113735000Y-118323752D01*
X112265000Y-117801248D02*
X112265000Y-118323752D01*
%TO.C,R30*%
X129827064Y-82335000D02*
X129372936Y-82335000D01*
X129827064Y-80865000D02*
X129372936Y-80865000D01*
%TO.C,TP2*%
X201670000Y-76770000D02*
X204330000Y-76770000D01*
X201670000Y-75500000D02*
X201670000Y-74170000D01*
X204330000Y-76770000D02*
X204330000Y-76830000D01*
X201670000Y-74170000D02*
X203000000Y-74170000D01*
X201670000Y-76770000D02*
X201670000Y-76830000D01*
X201670000Y-76830000D02*
X204330000Y-76830000D01*
%TO.C,R1*%
X189000832Y-75942936D02*
X189000832Y-76397064D01*
X190470832Y-75942936D02*
X190470832Y-76397064D01*
%TO.C,C52*%
X118710000Y-100788748D02*
X118710000Y-102211252D01*
X121430000Y-100788748D02*
X121430000Y-102211252D01*
%TO.C,R24*%
X114865000Y-107472936D02*
X114865000Y-107927064D01*
X116335000Y-107472936D02*
X116335000Y-107927064D01*
%TO.C,R25*%
X116805000Y-95727064D02*
X116805000Y-95272936D01*
X115335000Y-95727064D02*
X115335000Y-95272936D01*
%TO.C,R2*%
X188036666Y-75942936D02*
X188036666Y-76397064D01*
X186566666Y-75942936D02*
X186566666Y-76397064D01*
%TO.C,C62*%
X135698752Y-112435000D02*
X135176248Y-112435000D01*
X135698752Y-113905000D02*
X135176248Y-113905000D01*
%TO.C,CR7*%
X127340000Y-116050000D02*
X127340000Y-117950000D01*
X127340000Y-116050000D02*
X131000000Y-116050000D01*
X127340000Y-117950000D02*
X131000000Y-117950000D01*
%TO.C,U3*%
X136435000Y-106400000D02*
X136435000Y-108350000D01*
X127565000Y-106400000D02*
X127565000Y-104450000D01*
X127565000Y-106400000D02*
X127565000Y-109850000D01*
X136435000Y-106400000D02*
X136435000Y-104450000D01*
%TO.C,D1*%
X195260000Y-120950000D02*
X191600000Y-120950000D01*
X195260000Y-120950000D02*
X195260000Y-119050000D01*
X195260000Y-119050000D02*
X191600000Y-119050000D01*
%TO.C,C7*%
X155735000Y-91961252D02*
X155735000Y-91438748D01*
X154265000Y-91961252D02*
X154265000Y-91438748D01*
%TO.C,R52*%
X201972936Y-126335000D02*
X202427064Y-126335000D01*
X201972936Y-124865000D02*
X202427064Y-124865000D01*
%TO.C,TP8*%
X154670000Y-109600000D02*
X154670000Y-108270000D01*
X154670000Y-108270000D02*
X156000000Y-108270000D01*
X154670000Y-110930000D02*
X157330000Y-110930000D01*
X157330000Y-110870000D02*
X157330000Y-110930000D01*
X154670000Y-110870000D02*
X157330000Y-110870000D01*
X154670000Y-110870000D02*
X154670000Y-110930000D01*
%TO.C,C53*%
X150861252Y-94065000D02*
X150338748Y-94065000D01*
X150861252Y-95535000D02*
X150338748Y-95535000D01*
%TO.C,CR13*%
X132740000Y-116050000D02*
X136400000Y-116050000D01*
X132740000Y-117950000D02*
X136400000Y-117950000D01*
X132740000Y-116050000D02*
X132740000Y-117950000D01*
%TO.C,CR4*%
X120550000Y-88240000D02*
X120550000Y-91900000D01*
X118650000Y-88240000D02*
X118650000Y-91900000D01*
X120550000Y-88240000D02*
X118650000Y-88240000D01*
%TO.C,J1*%
X108560000Y-97375000D02*
X108560000Y-128345000D01*
X109454338Y-118650000D02*
X109021325Y-118400000D01*
X109454338Y-118150000D02*
X109454338Y-118650000D01*
X109021325Y-118400000D02*
X109454338Y-118150000D01*
%TO.C,TP1*%
X130070000Y-96570000D02*
X130070000Y-96630000D01*
X130070000Y-96630000D02*
X132730000Y-96630000D01*
X130070000Y-93970000D02*
X131400000Y-93970000D01*
X130070000Y-95300000D02*
X130070000Y-93970000D01*
X130070000Y-96570000D02*
X132730000Y-96570000D01*
X132730000Y-96570000D02*
X132730000Y-96630000D01*
%TO.C,CR6*%
X146910000Y-112100000D02*
X146910000Y-114000000D01*
X146910000Y-112100000D02*
X150570000Y-112100000D01*
X146910000Y-114000000D02*
X150570000Y-114000000D01*
%TO.C,R29*%
X145772936Y-102065000D02*
X146227064Y-102065000D01*
X145772936Y-103535000D02*
X146227064Y-103535000D01*
%TO.C,U1*%
X121560000Y-82600000D02*
X121560000Y-80650000D01*
X121560000Y-82600000D02*
X121560000Y-84550000D01*
X116440000Y-82600000D02*
X116440000Y-80650000D01*
X116440000Y-82600000D02*
X116440000Y-86050000D01*
%TO.C,C56*%
X149061252Y-116385000D02*
X148538748Y-116385000D01*
X149061252Y-117855000D02*
X148538748Y-117855000D01*
%TO.C,C54*%
X119735000Y-107961252D02*
X119735000Y-107438748D01*
X118265000Y-107961252D02*
X118265000Y-107438748D01*
%TO.C,R23*%
X112735000Y-107927064D02*
X112735000Y-107472936D01*
X111265000Y-107927064D02*
X111265000Y-107472936D01*
%TO.C,C51*%
X114710000Y-100788748D02*
X114710000Y-102211252D01*
X117430000Y-100788748D02*
X117430000Y-102211252D01*
%TO.C,R11*%
X157265000Y-87657064D02*
X157265000Y-87202936D01*
X158735000Y-87657064D02*
X158735000Y-87202936D01*
%TO.C,J10*%
X201375000Y-121130000D02*
X207025000Y-121130000D01*
X209500000Y-115400000D02*
X208800000Y-115900000D01*
X198470000Y-112575000D02*
X198470000Y-118225000D01*
X209700000Y-118225000D02*
X209700000Y-112575000D01*
X209500000Y-115400000D02*
X208800000Y-114900000D01*
X207025000Y-109670000D02*
X201375000Y-109670000D01*
%TO.C,R41*%
X143827064Y-116415000D02*
X143372936Y-116415000D01*
X143827064Y-117885000D02*
X143372936Y-117885000D01*
%TO.C,F1*%
X111410000Y-118211252D02*
X111410000Y-116788748D01*
X109590000Y-118211252D02*
X109590000Y-116788748D01*
%TO.C,R6*%
X114765000Y-117805436D02*
X114765000Y-118259564D01*
X116235000Y-117805436D02*
X116235000Y-118259564D01*
%TO.C,TP5*%
X137920000Y-87770000D02*
X140580000Y-87770000D01*
X137920000Y-85170000D02*
X139250000Y-85170000D01*
X137920000Y-87770000D02*
X137920000Y-87830000D01*
X137920000Y-87830000D02*
X140580000Y-87830000D01*
X140580000Y-87770000D02*
X140580000Y-87830000D01*
X137920000Y-86500000D02*
X137920000Y-85170000D01*
%TO.C,TP4*%
X122670000Y-85100000D02*
X122670000Y-83770000D01*
X122670000Y-86430000D02*
X125330000Y-86430000D01*
X122670000Y-83770000D02*
X124000000Y-83770000D01*
X122670000Y-86370000D02*
X122670000Y-86430000D01*
X122670000Y-86370000D02*
X125330000Y-86370000D01*
X125330000Y-86370000D02*
X125330000Y-86430000D01*
%TO.C,C3*%
X147874112Y-77322000D02*
X147874112Y-76240000D01*
X148634112Y-74160000D02*
X148634112Y-72720000D01*
X148474112Y-77628000D02*
X148474112Y-76240000D01*
X147114112Y-74160000D02*
X147114112Y-73881000D01*
X147394112Y-76899000D02*
X147394112Y-76240000D01*
X148995112Y-77756000D02*
X148995112Y-76240000D01*
X149115112Y-74160000D02*
X149115112Y-72631000D01*
X148434112Y-74160000D02*
X148434112Y-72786000D01*
X149155112Y-77773000D02*
X149155112Y-72627000D01*
X148354112Y-77582000D02*
X148354112Y-76240000D01*
X147954112Y-74160000D02*
X147954112Y-73025000D01*
X152159887Y-76675000D02*
X151659887Y-76675000D01*
X148795112Y-77720000D02*
X148795112Y-76240000D01*
X147034112Y-76378000D02*
X147034112Y-74022000D01*
X147834112Y-77295000D02*
X147834112Y-76240000D01*
X147234112Y-76700000D02*
X147234112Y-76240000D01*
X148755112Y-74160000D02*
X148755112Y-72689000D01*
X147994112Y-74160000D02*
X147994112Y-73000000D01*
X148514112Y-77642000D02*
X148514112Y-76240000D01*
X147634112Y-77137000D02*
X147634112Y-76240000D01*
X147474112Y-76985000D02*
X147474112Y-76240000D01*
X148514112Y-74160000D02*
X148514112Y-72758000D01*
X147794112Y-74160000D02*
X147794112Y-73135000D01*
X147354112Y-74160000D02*
X147354112Y-73547000D01*
X147954112Y-77375000D02*
X147954112Y-76240000D01*
X148634112Y-77680000D02*
X148634112Y-76240000D01*
X148875112Y-74160000D02*
X148875112Y-72664000D01*
X147474112Y-74160000D02*
X147474112Y-73415000D01*
X147074112Y-76451000D02*
X147074112Y-76240000D01*
X147834112Y-74160000D02*
X147834112Y-73105000D01*
X147634112Y-74160000D02*
X147634112Y-73263000D01*
X148675112Y-77691000D02*
X148675112Y-76240000D01*
X148154112Y-77490000D02*
X148154112Y-76240000D01*
X148034112Y-77424000D02*
X148034112Y-76240000D01*
X149195112Y-77776000D02*
X149195112Y-72624000D01*
X148835112Y-74160000D02*
X148835112Y-72672000D01*
X147794112Y-77265000D02*
X147794112Y-76240000D01*
X149315112Y-77780000D02*
X149315112Y-72620000D01*
X148194112Y-77510000D02*
X148194112Y-76240000D01*
X148234112Y-74160000D02*
X148234112Y-72871000D01*
X146994112Y-76298000D02*
X146994112Y-74102000D01*
X147594112Y-77101000D02*
X147594112Y-76240000D01*
X146754112Y-75484000D02*
X146754112Y-74916000D01*
X147714112Y-74160000D02*
X147714112Y-73196000D01*
X147514112Y-77026000D02*
X147514112Y-76240000D01*
X147154112Y-74160000D02*
X147154112Y-73817000D01*
X148594112Y-74160000D02*
X148594112Y-72732000D01*
X148434112Y-77614000D02*
X148434112Y-76240000D01*
X151909887Y-76925000D02*
X151909887Y-76425000D01*
X148875112Y-77736000D02*
X148875112Y-76240000D01*
X147674112Y-77171000D02*
X147674112Y-76240000D01*
X146874112Y-76005000D02*
X146874112Y-74395000D01*
X146834112Y-75877000D02*
X146834112Y-74523000D01*
X148995112Y-74160000D02*
X148995112Y-72644000D01*
X147074112Y-74160000D02*
X147074112Y-73949000D01*
X149035112Y-77761000D02*
X149035112Y-76240000D01*
X147554112Y-77064000D02*
X147554112Y-76240000D01*
X148234112Y-77529000D02*
X148234112Y-76240000D01*
X146914112Y-76115000D02*
X146914112Y-74285000D01*
X147754112Y-74160000D02*
X147754112Y-73165000D01*
X148194112Y-74160000D02*
X148194112Y-72890000D01*
X148394112Y-74160000D02*
X148394112Y-72802000D01*
X147154112Y-76583000D02*
X147154112Y-76240000D01*
X148955112Y-74160000D02*
X148955112Y-72650000D01*
X147714112Y-77204000D02*
X147714112Y-76240000D01*
X148715112Y-77701000D02*
X148715112Y-76240000D01*
X146954112Y-76211000D02*
X146954112Y-74189000D01*
X148675112Y-74160000D02*
X148675112Y-72709000D01*
X147274112Y-76754000D02*
X147274112Y-76240000D01*
X147554112Y-74160000D02*
X147554112Y-73336000D01*
X148154112Y-74160000D02*
X148154112Y-72910000D01*
X148554112Y-77655000D02*
X148554112Y-76240000D01*
X148915112Y-74160000D02*
X148915112Y-72657000D01*
X149275112Y-77779000D02*
X149275112Y-72621000D01*
X146794112Y-75718000D02*
X146794112Y-74682000D01*
X147434112Y-74160000D02*
X147434112Y-73457000D01*
X149115112Y-77769000D02*
X149115112Y-76240000D01*
X147314112Y-76805000D02*
X147314112Y-76240000D01*
X148314112Y-74160000D02*
X148314112Y-72835000D01*
X147234112Y-74160000D02*
X147234112Y-73700000D01*
X148354112Y-74160000D02*
X148354112Y-72818000D01*
X149235112Y-77778000D02*
X149235112Y-72622000D01*
X147874112Y-74160000D02*
X147874112Y-73078000D01*
X148274112Y-74160000D02*
X148274112Y-72852000D01*
X148554112Y-74160000D02*
X148554112Y-72745000D01*
X147274112Y-74160000D02*
X147274112Y-73646000D01*
X147434112Y-76943000D02*
X147434112Y-76240000D01*
X148795112Y-74160000D02*
X148795112Y-72680000D01*
X147754112Y-77235000D02*
X147754112Y-76240000D01*
X148074112Y-77447000D02*
X148074112Y-76240000D01*
X148915112Y-77743000D02*
X148915112Y-76240000D01*
X149075112Y-74160000D02*
X149075112Y-72635000D01*
X147914112Y-74160000D02*
X147914112Y-73051000D01*
X147354112Y-76853000D02*
X147354112Y-76240000D01*
X148034112Y-74160000D02*
X148034112Y-72976000D01*
X147394112Y-74160000D02*
X147394112Y-73501000D01*
X148074112Y-74160000D02*
X148074112Y-72953000D01*
X147994112Y-77400000D02*
X147994112Y-76240000D01*
X148114112Y-77468000D02*
X148114112Y-76240000D01*
X148394112Y-77598000D02*
X148394112Y-76240000D01*
X148594112Y-77668000D02*
X148594112Y-76240000D01*
X148715112Y-74160000D02*
X148715112Y-72699000D01*
X147114112Y-76519000D02*
X147114112Y-76240000D01*
X147194112Y-74160000D02*
X147194112Y-73757000D01*
X148835112Y-77728000D02*
X148835112Y-76240000D01*
X148314112Y-77565000D02*
X148314112Y-76240000D01*
X147194112Y-76643000D02*
X147194112Y-76240000D01*
X148955112Y-77750000D02*
X148955112Y-76240000D01*
X148274112Y-77548000D02*
X148274112Y-76240000D01*
X147594112Y-74160000D02*
X147594112Y-73299000D01*
X147514112Y-74160000D02*
X147514112Y-73374000D01*
X149075112Y-77765000D02*
X149075112Y-76240000D01*
X149035112Y-74160000D02*
X149035112Y-72639000D01*
X148114112Y-74160000D02*
X148114112Y-72932000D01*
X148755112Y-77711000D02*
X148755112Y-76240000D01*
X149355112Y-77780000D02*
X149355112Y-72620000D01*
X148474112Y-74160000D02*
X148474112Y-72772000D01*
X147914112Y-77349000D02*
X147914112Y-76240000D01*
X147314112Y-74160000D02*
X147314112Y-73595000D01*
X147674112Y-74160000D02*
X147674112Y-73229000D01*
X151975112Y-75200000D02*
G75*
G03*
X151975112Y-75200000I-2620000J0D01*
G01*
%TO.C,R26*%
X118835000Y-95727064D02*
X118835000Y-95272936D01*
X120305000Y-95727064D02*
X120305000Y-95272936D01*
%TO.C,R31*%
X129427064Y-98465000D02*
X128972936Y-98465000D01*
X129427064Y-99935000D02*
X128972936Y-99935000D01*
%TD*%
M02*
