M48
; DRILL file {KiCad (6.0.7-1)-1} date 2022 November 01, Tuesday 15:55:09
; FORMAT={-:-/ absolute / inch / decimal}
; #@! TF.CreationDate,2022-11-01T15:55:09+01:00
; #@! TF.GenerationSoftware,Kicad,Pcbnew,(6.0.7-1)-1
; #@! TF.FileFunction,Plated,1,2,PTH
FMAT,2
INCH
; #@! TA.AperFunction,Plated,PTH,ViaDrill
T1C0.0157
; #@! TA.AperFunction,Plated,PTH,ViaDrill
T2C0.0236
; #@! TA.AperFunction,Plated,PTH,ComponentDrill
T3C0.0315
; #@! TA.AperFunction,Plated,PTH,ComponentDrill
T4C0.0394
; #@! TA.AperFunction,Plated,PTH,ComponentDrill
T5C0.0402
; #@! TA.AperFunction,Plated,PTH,ComponentDrill
T6C0.0433
; #@! TA.AperFunction,Plated,PTH,ComponentDrill
T7C0.0591
; #@! TA.AperFunction,Plated,PTH,ComponentDrill
T8C0.1260
%
G90
G05
T1
X4.4961Y-4.5512
X4.5906Y-4.4828
X4.6378Y-3.6181
X4.8937Y-4.6496
X4.9675Y-4.377
X4.9882Y-3.4843
X4.9961Y-4.2638
X5.0029Y-3.2042
X5.0039Y-3.7756
X5.0206Y-3.408
X5.126Y-3.9764
X5.3691Y-3.4685
X5.6417Y-3.5157
X5.8228Y-3.2362
X6.0589Y-4.0514
X7.5433Y-4.6535
X7.6457Y-2.8898
X7.6457Y-2.937
T2
X3.9843Y-2.9449
X4.3504Y-4.4567
X4.6417Y-3.8701
X4.748Y-4.5512
X4.8425Y-3.5906
X4.8465Y-4.189
X4.8898Y-4.5512
X5.189Y-3.9646
X5.2913Y-3.315
X5.4685Y-3.5984
X5.5157Y-4.3307
X5.5315Y-4.5354
X5.6063Y-3.8031
X5.6339Y-4.0866
X5.8228Y-3.6024
X5.8701Y-3.9144
X6.0354Y-3.752
X6.2874Y-4.6102
X6.6843Y-2.9415
X6.7756Y-3.5551
X6.9016Y-4.6142
X7.6732Y-4.9409
X7.689Y-4.4055
X7.7047Y-4.1693
X8.1693Y-4.5551
T3
X5.8309Y-2.9606
X5.9293Y-2.9606
T4
X4.0535Y-4.2797
X4.0535Y-4.3888
X4.0535Y-4.4978
X4.0535Y-4.6069
X4.1654Y-4.2252
X4.1654Y-4.3343
X4.1654Y-4.4433
X4.1654Y-4.5524
X4.1654Y-4.6614
X4.8819Y-3.3504
X4.9744Y-2.9606
X4.9744Y-3.0606
X5.0744Y-2.9606
X5.0744Y-3.0606
X5.1732Y-3.752
X5.1744Y-2.9606
X5.1744Y-3.0606
X5.2744Y-2.9606
X5.2744Y-3.0606
X5.3744Y-2.9606
X5.3744Y-3.0606
X5.4744Y-2.9606
X5.4744Y-3.0606
X5.4823Y-3.4055
X5.4823Y-4.0945
X5.5744Y-2.9606
X5.5744Y-3.0606
X5.6744Y-2.9606
X5.6744Y-3.0606
X6.1417Y-4.315
X7.9921Y-2.9724
T5
X6.3728Y-3.272
X6.3728Y-3.972
X6.3819Y-3.522
X6.3819Y-3.622
X6.3819Y-3.722
X6.4728Y-3.272
X6.4728Y-3.972
X6.5728Y-3.272
X6.5728Y-3.972
X6.6728Y-3.272
X6.6728Y-3.972
X6.7728Y-3.272
X6.7728Y-3.972
X6.8728Y-3.272
X6.8728Y-3.972
X6.9728Y-3.272
X6.9728Y-3.972
X7.0728Y-3.272
X7.0728Y-3.972
X7.1728Y-3.272
X7.1728Y-3.972
X7.2728Y-3.272
X7.2728Y-3.972
X7.3728Y-3.272
X7.3728Y-3.972
X7.4728Y-3.272
X7.4728Y-3.972
X7.5728Y-3.272
X7.5728Y-3.972
X7.6728Y-3.272
X7.6728Y-3.972
X7.7728Y-3.272
X7.7728Y-3.972
X7.8728Y-3.272
X7.8728Y-3.972
X7.9728Y-3.272
X7.9728Y-3.972
X8.0728Y-3.272
X8.0728Y-3.972
X8.1728Y-3.272
X8.1728Y-3.972
X8.2728Y-3.272
X8.2728Y-3.972
T6
X8.0394Y-4.5433
T7
X7.8415Y-4.3455
X7.8415Y-4.7411
X8.2372Y-4.3455
X8.2372Y-4.7411
T8
X4.1535Y-3.9512
X4.1535Y-4.9354
T0
M30
