G04 #@! TF.GenerationSoftware,KiCad,Pcbnew,(6.0.4-0)*
G04 #@! TF.CreationDate,2022-04-08T08:30:32+02:00*
G04 #@! TF.ProjectId,FluCom2,466c7543-6f6d-4322-9e6b-696361645f70,2.3*
G04 #@! TF.SameCoordinates,Original*
G04 #@! TF.FileFunction,Paste,Top*
G04 #@! TF.FilePolarity,Positive*
%FSLAX46Y46*%
G04 Gerber Fmt 4.6, Leading zero omitted, Abs format (unit mm)*
G04 Created by KiCad (PCBNEW (6.0.4-0)) date 2022-04-08 08:30:32*
%MOMM*%
%LPD*%
G01*
G04 APERTURE LIST*
G04 Aperture macros list*
%AMRoundRect*
0 Rectangle with rounded corners*
0 $1 Rounding radius*
0 $2 $3 $4 $5 $6 $7 $8 $9 X,Y pos of 4 corners*
0 Add a 4 corners polygon primitive as box body*
4,1,4,$2,$3,$4,$5,$6,$7,$8,$9,$2,$3,0*
0 Add four circle primitives for the rounded corners*
1,1,$1+$1,$2,$3*
1,1,$1+$1,$4,$5*
1,1,$1+$1,$6,$7*
1,1,$1+$1,$8,$9*
0 Add four rect primitives between the rounded corners*
20,1,$1+$1,$2,$3,$4,$5,0*
20,1,$1+$1,$4,$5,$6,$7,0*
20,1,$1+$1,$6,$7,$8,$9,0*
20,1,$1+$1,$8,$9,$2,$3,0*%
G04 Aperture macros list end*
%ADD10RoundRect,0.250000X-0.450000X0.325000X-0.450000X-0.325000X0.450000X-0.325000X0.450000X0.325000X0*%
%ADD11RoundRect,0.250000X0.450000X-0.325000X0.450000X0.325000X-0.450000X0.325000X-0.450000X-0.325000X0*%
%ADD12R,3.300000X2.500000*%
%ADD13R,0.800000X0.900000*%
%ADD14RoundRect,0.250000X0.325000X0.450000X-0.325000X0.450000X-0.325000X-0.450000X0.325000X-0.450000X0*%
%ADD15RoundRect,0.150000X0.150000X-0.825000X0.150000X0.825000X-0.150000X0.825000X-0.150000X-0.825000X0*%
%ADD16RoundRect,0.250000X-0.325000X-0.450000X0.325000X-0.450000X0.325000X0.450000X-0.325000X0.450000X0*%
G04 APERTURE END LIST*
D10*
X79603600Y-121555400D03*
X79603600Y-123605400D03*
X90424000Y-121555400D03*
X90424000Y-123605400D03*
D11*
X90322400Y-108822600D03*
X90322400Y-106772600D03*
D10*
X163703000Y-134611000D03*
X163703000Y-136661000D03*
D11*
X155875000Y-115735000D03*
X155875000Y-113685000D03*
D10*
X155875000Y-124100000D03*
X155875000Y-126150000D03*
D11*
X155875000Y-120920000D03*
X155875000Y-118870000D03*
X155875000Y-110550000D03*
X155875000Y-108500000D03*
D12*
X146750000Y-92350000D03*
X146750000Y-85550000D03*
D13*
X110050000Y-116500000D03*
X111950000Y-116500000D03*
X111000000Y-114500000D03*
D11*
X159175000Y-115766666D03*
X159175000Y-113716666D03*
X159175000Y-120958332D03*
X159175000Y-118908332D03*
X159175000Y-110575000D03*
X159175000Y-108525000D03*
D14*
X112125000Y-121100000D03*
X110075000Y-121100000D03*
X107300000Y-121150000D03*
X105250000Y-121150000D03*
D15*
X79590000Y-117522000D03*
X80860000Y-117522000D03*
X82130000Y-117522000D03*
X83400000Y-117522000D03*
X84670000Y-117522000D03*
X85940000Y-117522000D03*
X87210000Y-117522000D03*
X87210000Y-112572000D03*
X85940000Y-112572000D03*
X84670000Y-112572000D03*
X83400000Y-112572000D03*
X82130000Y-112572000D03*
X80860000Y-112572000D03*
X79590000Y-112572000D03*
X90373200Y-117522000D03*
X91643200Y-117522000D03*
X92913200Y-117522000D03*
X94183200Y-117522000D03*
X95453200Y-117522000D03*
X96723200Y-117522000D03*
X97993200Y-117522000D03*
X97993200Y-112572000D03*
X96723200Y-112572000D03*
X95453200Y-112572000D03*
X94183200Y-112572000D03*
X92913200Y-112572000D03*
X91643200Y-112572000D03*
X90373200Y-112572000D03*
D14*
X102377000Y-121150000D03*
X100327000Y-121150000D03*
X102377000Y-108966000D03*
X100327000Y-108966000D03*
D13*
X100402000Y-116550000D03*
X102302000Y-116550000D03*
X101352000Y-114550000D03*
D16*
X109950000Y-108916000D03*
X112000000Y-108916000D03*
X123625001Y-124550001D03*
X125675001Y-124550001D03*
D11*
X79502000Y-108822600D03*
X79502000Y-106772600D03*
D10*
X115265200Y-121555400D03*
X115265200Y-123605400D03*
D11*
X115265200Y-108822600D03*
X115265200Y-106772600D03*
D15*
X115238000Y-117522000D03*
X116508000Y-117522000D03*
X117778000Y-117522000D03*
X119048000Y-117522000D03*
X120318000Y-117522000D03*
X121588000Y-117522000D03*
X122858000Y-117522000D03*
X122858000Y-112572000D03*
X121588000Y-112572000D03*
X120318000Y-112572000D03*
X119048000Y-112572000D03*
X117778000Y-112572000D03*
X116508000Y-112572000D03*
X115238000Y-112572000D03*
D16*
X155950000Y-131000000D03*
X158000000Y-131000000D03*
D11*
X159175000Y-126150000D03*
X159175000Y-124100000D03*
D14*
X125525000Y-109500000D03*
X123475000Y-109500000D03*
D16*
X105350000Y-108966000D03*
X107400000Y-108966000D03*
X123475000Y-121300000D03*
X125525000Y-121300000D03*
M02*
