M48
; DRILL file {KiCad (6.0.4-0)} date 2022 April 08, Friday 08:31:35
; FORMAT={-:-/ absolute / inch / decimal}
; #@! TF.CreationDate,2022-04-08T08:31:35+02:00
; #@! TF.GenerationSoftware,Kicad,Pcbnew,(6.0.4-0)
; #@! TF.FileFunction,Plated,1,2,PTH
FMAT,2
INCH
; #@! TA.AperFunction,Plated,PTH,ViaDrill
T1C0.0157
; #@! TA.AperFunction,Plated,PTH,ViaDrill
T2C0.0236
; #@! TA.AperFunction,Plated,PTH,ComponentDrill
T3C0.0276
; #@! TA.AperFunction,Plated,PTH,ComponentDrill
T4C0.0315
; #@! TA.AperFunction,Plated,PTH,ComponentDrill
T5C0.0394
; #@! TA.AperFunction,Plated,PTH,ComponentDrill
T6C0.0598
%
G90
G05
T1
X3.0989Y-4.4145
X3.1654Y-4.7146
X3.445Y-4.49
X3.4921Y-4.4134
X3.5315Y-4.7135
X3.715Y-4.49
X3.95Y-4.415
X3.95Y-4.715
X4.04Y-4.055
X4.325Y-4.115
X4.3327Y-4.7173
X4.41Y-4.415
X4.57Y-4.716
X4.65Y-4.005
X4.6581Y-4.165
X4.715Y-4.15
X4.76Y-4.495
X4.985Y-4.715
X5.0135Y-4.8442
X5.15Y-5.2466
T2
X3.4193Y-4.9744
X3.4213Y-4.311
X3.538Y-4.974
X3.776Y-3.71
X3.796Y-5.122
X3.8Y-4.972
X4.18Y-4.97
X4.244Y-3.97
X4.485Y-4.925
X4.735Y-4.99
X4.876Y-4.636
X5.41Y-5.125
X5.546Y-5.19
X5.5688Y-4.5384
X5.992Y-5.072
X6.38Y-4.844
T3
X5.9854Y-5.3238
X6.0854Y-5.3238
X6.1854Y-5.3238
X6.2854Y-5.3238
T4
X5.1218Y-4.7021
X5.8858Y-3.8421
X5.8858Y-4.0421
X5.8858Y-4.1421
X5.8858Y-4.3421
T5
X2.615Y-3.8069
X2.615Y-3.9159
X2.615Y-4.025
X2.615Y-4.1341
X2.615Y-4.2431
X2.615Y-4.3522
X2.615Y-4.4612
X2.615Y-4.5703
X2.615Y-4.6793
X2.615Y-4.7884
X2.615Y-4.8974
X2.615Y-5.0065
X2.715Y-3.7524
X2.715Y-3.8614
X2.715Y-3.9705
X2.715Y-4.0795
X2.715Y-4.1886
X2.715Y-4.2976
X2.715Y-4.4067
X2.715Y-4.5157
X2.715Y-4.6248
X2.715Y-4.7339
X2.715Y-4.8429
X2.715Y-4.952
X2.715Y-5.061
X2.8656Y-3.8128
X2.8656Y-3.9128
X2.8656Y-4.0128
X2.8656Y-4.1128
X2.8656Y-4.2128
X2.8656Y-4.3128
X2.8656Y-4.4128
X2.8656Y-4.5128
X2.8656Y-4.6128
X2.8656Y-4.7128
X2.8656Y-4.8128
X2.8656Y-4.9128
X2.8656Y-5.0128
X2.9656Y-3.8128
X2.9656Y-3.9128
X2.9656Y-4.0128
X2.9656Y-4.1128
X2.9656Y-4.2128
X2.9656Y-4.3128
X2.9656Y-4.4128
X2.9656Y-4.5128
X2.9656Y-4.6128
X2.9656Y-4.7128
X2.9656Y-4.8128
X2.9656Y-4.9128
X2.9656Y-5.0128
X3.3362Y-5.3346
X3.3362Y-5.4346
X3.4362Y-5.3346
X3.4362Y-5.4346
X3.5362Y-5.3346
X3.5362Y-5.4346
X3.6362Y-5.3346
X3.6362Y-5.4346
X3.7362Y-5.3346
X3.7362Y-5.4346
X3.8362Y-5.3346
X3.8362Y-5.4346
X3.9362Y-5.3346
X3.9362Y-5.4346
X4.0362Y-5.3346
X4.0362Y-5.4346
X4.1362Y-5.3346
X4.1362Y-5.4346
X4.2352Y-3.3702
X4.2352Y-3.4702
X4.2362Y-5.3346
X4.2362Y-5.4346
X4.3352Y-3.3702
X4.3352Y-3.4702
X4.3362Y-5.3346
X4.3362Y-5.4346
X4.4352Y-3.3702
X4.4352Y-3.4702
X4.4362Y-5.3346
X4.4362Y-5.4346
X4.5352Y-3.3702
X4.5352Y-3.4702
X4.5362Y-5.3346
X4.5362Y-5.4346
X4.6352Y-3.3702
X4.6352Y-3.4702
X4.6362Y-5.3346
X4.6362Y-5.4346
X4.7362Y-5.3346
X4.7362Y-5.4346
X4.8362Y-5.3346
X4.8362Y-5.4346
X4.8705Y-5.1378
X4.9362Y-5.3346
X4.9362Y-5.4346
X4.9705Y-5.1378
X5.0362Y-5.3346
X5.0362Y-5.4346
X5.1362Y-5.3346
X5.1362Y-5.4346
X5.2362Y-5.3346
X5.2362Y-5.4346
X5.3868Y-3.6398
X5.4868Y-3.6398
X5.6358Y-5.1417
X5.6358Y-5.2417
X5.6358Y-5.3417
X5.6358Y-5.4417
X5.7358Y-5.1417
X5.7358Y-5.2417
X5.7358Y-5.3417
X5.7358Y-5.4417
X5.89Y-5.1693
X5.99Y-5.1693
X6.5719Y-3.6033
T6
X6.1244Y-3.4921
X6.3244Y-3.4921
X6.5709Y-4.3238
X6.5709Y-4.5238
X6.5709Y-4.7238
X6.5709Y-4.9238
X6.5709Y-5.1238
T5
G00X6.1738Y-3.9783
M15
G01X6.1738Y-3.8996
M16
G05
G00X6.3313Y-3.7539
M15
G01X6.2525Y-3.7539
M16
G05
G00X6.41Y-3.9783
M15
G01X6.41Y-3.8996
M16
G05
T0
M30
